<svg width="9" height="12" viewBox="0 0 9 12" fill="none" xmlns="http://www.w3.org/2000/svg">
<path d="M2 12V10.6667H0V9.33333H1.33333V2.66667H0V1.33333H2V0H3.33333V1.33333H4.66667V0H6V1.41667C6.57778 1.57222 7.05555 1.886 7.43333 2.358C7.81111 2.83044 8 3.37778 8 4C8 4.32222 7.94444 4.63044 7.83333 4.92467C7.72222 5.21933 7.56667 5.48333 7.36667 5.71667C7.75555 5.95 8.06933 6.26667 8.308 6.66667C8.54711 7.06667 8.66667 7.51111 8.66667 8C8.66667 8.73333 8.40556 9.36111 7.88333 9.88333C7.36111 10.4056 6.73333 10.6667 6 10.6667V12H4.66667V10.6667H3.33333V12H2ZM2.66667 5.33333H5.33333C5.7 5.33333 6.014 5.20267 6.27533 4.94133C6.53622 4.68044 6.66667 4.36667 6.66667 4C6.66667 3.63333 6.53622 3.31933 6.27533 3.058C6.014 2.79711 5.7 2.66667 5.33333 2.66667H2.66667V5.33333ZM2.66667 9.33333H6C6.36667 9.33333 6.68067 9.20289 6.942 8.942C7.20289 8.68067 7.33333 8.36667 7.33333 8C7.33333 7.63333 7.20289 7.31933 6.942 7.058C6.68067 6.79711 6.36667 6.66667 6 6.66667H2.66667V9.33333Z" fill="#1A1A1A"/>
</svg>
