<svg width="18" height="18" viewBox="0 0 18 18" fill="none" xmlns="http://www.w3.org/2000/svg">
<mask id="mask0_524_4507" style="mask-type:alpha" maskUnits="userSpaceOnUse" x="0" y="0" width="18" height="18">
<rect width="18" height="18" fill="#D9D9D9"/>
</mask>
<g mask="url(#mask0_524_4507)">
<path d="M5.02539 14.475L2.96289 14.025C2.77539 13.9875 2.62539 13.8905 2.51289 13.734C2.40039 13.578 2.35664 13.4063 2.38164 13.2188L2.58789 11.1L1.18164 9.48753C1.05664 9.35003 0.994141 9.18753 0.994141 9.00003C0.994141 8.81253 1.05664 8.65003 1.18164 8.51253L2.58789 6.90003L2.38164 4.78128C2.35664 4.59378 2.40039 4.42203 2.51289 4.26603C2.62539 4.10953 2.77539 4.01253 2.96289 3.97503L5.02539 3.52503L6.11289 1.68753C6.21289 1.52503 6.35039 1.41878 6.52539 1.36878C6.70039 1.31878 6.87539 1.32503 7.05039 1.38753L9.00039 2.21253L10.9504 1.38753C11.1254 1.32503 11.3004 1.31878 11.4754 1.36878C11.6504 1.41878 11.7879 1.52503 11.8879 1.68753L12.9754 3.52503L15.0379 3.97503C15.2254 4.01253 15.3754 4.10953 15.4879 4.26603C15.6004 4.42203 15.6441 4.59378 15.6191 4.78128L15.4129 6.90003L16.8191 8.51253C16.9441 8.65003 17.0066 8.81253 17.0066 9.00003C17.0066 9.18753 16.9441 9.35003 16.8191 9.48753L15.4129 11.1L15.6191 13.2188C15.6441 13.4063 15.6004 13.578 15.4879 13.734C15.3754 13.8905 15.2254 13.9875 15.0379 14.025L12.9754 14.475L11.8879 16.3125C11.7879 16.475 11.6504 16.5813 11.4754 16.6313C11.3004 16.6813 11.1254 16.675 10.9504 16.6125L9.00039 15.7875L7.05039 16.6125C6.87539 16.675 6.70039 16.6813 6.52539 16.6313C6.35039 16.5813 6.21289 16.475 6.11289 16.3125L5.02539 14.475ZM7.68789 11.1375C7.82539 11.275 8.00039 11.3438 8.21289 11.3438C8.42539 11.3438 8.60039 11.275 8.73789 11.1375L11.9254 7.95003C12.0754 7.80003 12.1504 7.62178 12.1504 7.41528C12.1504 7.20928 12.0754 7.03128 11.9254 6.88128C11.7754 6.73128 11.5974 6.65628 11.3914 6.65628C11.1849 6.65628 11.0066 6.73128 10.8566 6.88128L8.21289 9.52503L7.12539 8.45628C6.97539 8.31878 6.79739 8.25303 6.59139 8.25903C6.38489 8.26553 6.21289 8.33753 6.07539 8.47503C5.93789 8.61253 5.86914 8.78753 5.86914 9.00003C5.86914 9.21253 5.93789 9.38753 6.07539 9.52503L7.68789 11.1375ZM7.08789 14.9625L9.00039 14.1375L10.9504 14.9625L12.0004 13.1625L14.0629 12.675L13.8754 10.575L15.2629 9.00003L13.8754 7.38753L14.0629 5.28753L12.0004 4.83753L10.9129 3.03753L9.00039 3.86253L7.05039 3.03753L6.00039 4.83753L3.93789 5.28753L4.12539 7.38753L2.73789 9.00003L4.12539 10.575L3.93789 12.7125L6.00039 13.1625L7.08789 14.9625Z" fill="#EFA906"/>
</g>
</svg>
