<svg width="12" height="12" viewBox="0 0 12 12" fill="none" xmlns="http://www.w3.org/2000/svg">
<path d="M5.60002 11.8334C5.43335 11.8334 5.29158 11.7752 5.17469 11.6587C5.05824 11.5419 5.00002 11.4001 5.00002 11.2334V7.75008L1.96669 9.48342C1.83335 9.5723 1.68336 9.59719 1.51669 9.55808C1.35002 9.51941 1.2278 9.4223 1.15002 9.26675L0.750022 8.58342C0.661133 8.43897 0.638911 8.2863 0.683355 8.12541C0.7278 7.96408 0.822244 7.83897 0.966688 7.75008L4.00002 6.00008L0.983355 4.26675C0.83891 4.17786 0.744466 4.05275 0.700022 3.89141C0.655577 3.73053 0.677799 3.57786 0.766688 3.43341L1.16669 2.73341C1.24447 2.58897 1.36402 2.49719 1.52536 2.45808C1.68624 2.41941 1.83891 2.44453 1.98336 2.53341L5.00002 4.26675V0.766748C5.00002 0.600081 5.05824 0.458304 5.17469 0.341415C5.29158 0.22497 5.43335 0.166748 5.60002 0.166748H6.40002C6.56669 0.166748 6.70847 0.22497 6.82536 0.341415C6.9418 0.458304 7.00002 0.600081 7.00002 0.766748V4.26675L10.0167 2.53341C10.1611 2.44453 10.3167 2.41941 10.4834 2.45808C10.65 2.49719 10.7722 2.59453 10.85 2.75008L11.2334 3.43341C11.3222 3.57786 11.3445 3.73053 11.3 3.89141C11.2556 4.05275 11.1611 4.17786 11.0167 4.26675L8.00002 6.00008L11.0167 7.75008C11.1611 7.83897 11.2556 7.96408 11.3 8.12541C11.3445 8.2863 11.3278 8.43897 11.25 8.58342L10.8334 9.28341C10.7556 9.42786 10.6334 9.51941 10.4667 9.55808C10.3 9.59719 10.15 9.5723 10.0167 9.48342L7.00002 7.75008V11.2334C7.00002 11.4001 6.9418 11.5419 6.82536 11.6587C6.70847 11.7752 6.56669 11.8334 6.40002 11.8334H5.60002Z" fill="#1A1A1A"/>
</svg>
