<svg width="12" height="13" viewBox="0 0 12 13" fill="none" xmlns="http://www.w3.org/2000/svg">
<path d="M2.00033 7.33333C2.00033 7.91111 2.11699 8.45822 2.35033 8.97467C2.58366 9.49156 2.91699 9.94444 3.35033 10.3333C3.33921 10.2778 3.33366 10.2278 3.33366 10.1833V10.0333C3.33366 9.67778 3.40033 9.34444 3.53366 9.03333C3.66699 8.72222 3.86144 8.43889 4.11699 8.18333L6.00033 6.33333L7.88366 8.18333C8.13921 8.43889 8.33366 8.72222 8.46699 9.03333C8.60033 9.34444 8.66699 9.67778 8.66699 10.0333V10.1833C8.66699 10.2278 8.66144 10.2778 8.65033 10.3333C9.08366 9.94444 9.41699 9.49156 9.65033 8.97467C9.88366 8.45822 10.0003 7.91111 10.0003 7.33333C10.0003 6.77778 9.89766 6.25267 9.69233 5.758C9.48655 5.26378 9.18921 4.82222 8.80033 4.43333C8.5781 4.57778 8.34477 4.686 8.10033 4.758C7.85588 4.83044 7.60588 4.86667 7.35033 4.86667C6.66144 4.86667 6.06433 4.63889 5.55899 4.18333C5.05321 3.72778 4.76144 3.16667 4.68366 2.5C4.25033 2.86667 3.86699 3.24711 3.53366 3.64133C3.20033 4.036 2.91988 4.436 2.69233 4.84133C2.46433 5.24711 2.2921 5.66111 2.17566 6.08333C2.05877 6.50556 2.00033 6.92222 2.00033 7.33333ZM6.00033 8.2L5.05033 9.13333C4.9281 9.25556 4.83366 9.39445 4.76699 9.55C4.70033 9.70556 4.66699 9.86667 4.66699 10.0333C4.66699 10.3889 4.79766 10.6944 5.05899 10.95C5.31988 11.2056 5.63366 11.3333 6.00033 11.3333C6.36699 11.3333 6.68099 11.2056 6.94233 10.95C7.20321 10.6944 7.33366 10.3889 7.33366 10.0333C7.33366 9.85556 7.30033 9.69156 7.23366 9.54133C7.16699 9.39156 7.07255 9.25556 6.95033 9.13333L6.00033 8.2ZM6.00033 0V2.2C6.00033 2.57778 6.13099 2.89444 6.39233 3.15C6.65321 3.40556 6.97255 3.53333 7.35033 3.53333C7.55033 3.53333 7.73655 3.49178 7.90899 3.40867C8.08099 3.32511 8.23366 3.2 8.36699 3.03333L8.66699 2.66667C9.48921 3.13333 10.1392 3.78333 10.617 4.61667C11.0948 5.45 11.3337 6.35556 11.3337 7.33333C11.3337 8.82222 10.817 10.0833 9.78366 11.1167C8.75033 12.15 7.48921 12.6667 6.00033 12.6667C4.51144 12.6667 3.25033 12.15 2.21699 11.1167C1.18366 10.0833 0.666992 8.82222 0.666992 7.33333C0.666992 5.9 1.14766 4.53889 2.10899 3.25C3.06988 1.96111 4.36699 0.877778 6.00033 0Z" fill="#1A1A1A"/>
</svg>
