<svg width="14" height="12" viewBox="0 0 14 12" fill="none" xmlns="http://www.w3.org/2000/svg">
<path d="M6.18366 10.8332L5.23366 9.94985C4.04477 8.87208 2.98655 7.81363 2.05899 6.77452C1.13099 5.73585 0.666992 4.62208 0.666992 3.43319C0.666992 2.48874 0.986548 1.69696 1.62566 1.05785C2.26433 0.419187 3.05588 0.0998535 4.00033 0.0998535C4.53366 0.0998535 5.06433 0.224742 5.59233 0.47452C6.11988 0.724742 6.58921 1.12763 7.00033 1.68319C7.41144 1.12763 7.88099 0.724742 8.40899 0.47452C8.93655 0.224742 9.46699 0.0998535 10.0003 0.0998535C10.9448 0.0998535 11.7363 0.419187 12.375 1.05785C13.0141 1.69696 13.3337 2.48874 13.3337 3.43319C13.3337 4.63319 12.8614 5.75808 11.917 6.80785C10.9725 7.85808 9.91699 8.91096 8.75033 9.96652L7.81699 10.8165C7.58366 11.0387 7.31144 11.1499 7.00033 11.1499C6.68921 11.1499 6.41699 11.0443 6.18366 10.8332ZM6.51699 2.69985C6.16144 2.1443 5.78366 1.73874 5.38366 1.48319C4.98366 1.22763 4.52255 1.09985 4.00033 1.09985C3.33366 1.09985 2.7781 1.32208 2.33366 1.76652C1.88921 2.21096 1.66699 2.76652 1.66699 3.43319C1.66699 3.96652 1.83921 4.52474 2.18366 5.10785C2.5281 5.69141 2.96144 6.27208 3.48366 6.84985C4.00588 7.42763 4.56966 7.99141 5.17499 8.54119C5.78077 9.09141 6.34477 9.60541 6.86699 10.0832C6.90033 10.1165 6.94477 10.1332 7.00033 10.1332C7.05588 10.1332 7.10033 10.1165 7.13366 10.0832C7.65588 9.60541 8.21988 9.09141 8.82566 8.54119C9.43099 7.99141 9.99477 7.42763 10.517 6.84985C11.0392 6.27208 11.4725 5.69141 11.817 5.10785C12.1614 4.52474 12.3337 3.96652 12.3337 3.43319C12.3337 2.76652 12.1114 2.21096 11.667 1.76652C11.2225 1.32208 10.667 1.09985 10.0003 1.09985C9.4781 1.09985 9.01699 1.22763 8.61699 1.48319C8.21699 1.73874 7.83921 2.1443 7.48366 2.69985C7.4281 2.77763 7.35588 2.83874 7.26699 2.88319C7.1781 2.92763 7.08921 2.94985 7.00033 2.94985C6.91144 2.94985 6.82255 2.92763 6.73366 2.88319C6.64477 2.83874 6.57255 2.77763 6.51699 2.69985Z" fill="#1A1A1A"/>
</svg>
