<svg width="14" height="14" viewBox="0 0 14 14" fill="none" xmlns="http://www.w3.org/2000/svg">
<path d="M6.39967 11.6666H7.56634V10.8333C8.1219 10.7333 8.59967 10.5166 8.99967 10.1833C9.39967 9.84992 9.59967 9.35547 9.59967 8.69992C9.59967 8.23325 9.46634 7.80547 9.19967 7.41658C8.93301 7.0277 8.39967 6.68881 7.59967 6.39992C6.93301 6.1777 6.4719 5.98325 6.21634 5.81659C5.96078 5.64992 5.83301 5.42214 5.83301 5.13325C5.83301 4.84436 5.9359 4.61659 6.14167 4.44992C6.34701 4.28325 6.64412 4.19992 7.03301 4.19992C7.38856 4.19992 7.66634 4.28614 7.86634 4.45858C8.06634 4.63058 8.21078 4.84436 8.29967 5.09992L9.36634 4.66658C9.24412 4.2777 9.01923 3.93881 8.69167 3.64992C8.36367 3.36103 7.99967 3.19992 7.59967 3.16659V2.33325H6.43301V3.16659C5.87745 3.28881 5.44412 3.53325 5.13301 3.89992C4.8219 4.26659 4.66634 4.6777 4.66634 5.13325C4.66634 5.65547 4.81923 6.0777 5.12501 6.39992C5.43034 6.72214 5.91079 6.99992 6.56634 7.23325C7.26634 7.48881 7.75256 7.71658 8.02501 7.91658C8.29701 8.11658 8.43301 8.3777 8.43301 8.69992C8.43301 9.06658 8.30234 9.33592 8.04101 9.50792C7.78012 9.68036 7.46634 9.76658 7.09967 9.76658C6.73301 9.76658 6.40812 9.65259 6.12501 9.42458C5.84145 9.19703 5.63301 8.85547 5.49967 8.39992L4.39967 8.83325C4.55523 9.36658 4.79701 9.79725 5.12501 10.1253C5.45256 10.4528 5.87745 10.6777 6.39967 10.7999V11.6666ZM6.99967 13.6666C6.07745 13.6666 5.21079 13.4915 4.39967 13.1413C3.58856 12.7915 2.88301 12.3166 2.28301 11.7166C1.68301 11.1166 1.20812 10.411 0.858341 9.59992C0.508119 8.78881 0.333008 7.92214 0.333008 6.99992C0.333008 6.0777 0.508119 5.21103 0.858341 4.39992C1.20812 3.58881 1.68301 2.88325 2.28301 2.28325C2.88301 1.68325 3.58856 1.20814 4.39967 0.857919C5.21079 0.508141 6.07745 0.333252 6.99967 0.333252C7.9219 0.333252 8.78856 0.508141 9.59967 0.857919C10.4108 1.20814 11.1163 1.68325 11.7163 2.28325C12.3163 2.88325 12.7912 3.58881 13.141 4.39992C13.4912 5.21103 13.6663 6.0777 13.6663 6.99992C13.6663 7.92214 13.4912 8.78881 13.141 9.59992C12.7912 10.411 12.3163 11.1166 11.7163 11.7166C11.1163 12.3166 10.4108 12.7915 9.59967 13.1413C8.78856 13.4915 7.9219 13.6666 6.99967 13.6666ZM6.99967 12.3333C8.48856 12.3333 9.74967 11.8166 10.783 10.7833C11.8163 9.74992 12.333 8.48881 12.333 6.99992C12.333 5.51103 11.8163 4.24992 10.783 3.21658C9.74967 2.18325 8.48856 1.66659 6.99967 1.66659C5.51079 1.66659 4.24967 2.18325 3.21634 3.21658C2.18301 4.24992 1.66634 5.51103 1.66634 6.99992C1.66634 8.48881 2.18301 9.74992 3.21634 10.7833C4.24967 11.8166 5.51079 12.3333 6.99967 12.3333Z" fill="#1A1A1A"/>
</svg>
