<svg width="{{ .width }}" height="{{ .height }}" viewBox="0 0 342 239" version="1.1" xmlns="http://www.w3.org/2000/svg" xmlns:xlink="http://www.w3.org/1999/xlink" xml:space="preserve" style="fill-rule:evenodd;clip-rule:evenodd;stroke-linecap:round;stroke-linejoin:round;stroke-miterlimit:1.5;">
    <g transform="matrix(1,0,0,1,-121,-49)">
        <g transform="matrix(0.63799,-0.0543044,0.0543044,0.63799,-133.853,-90.65)">
            <g transform="matrix(1,0,0,1,354.258,-135.344)">
                <path d="M74.487,618.157C74.487,618.157 104.224,592.25 116.146,585.095C139.585,571.028 158.584,537.47 165.878,532.201C181.08,521.218 199.634,500.763 267.108,501.562C334.581,502.361 355.405,498.413 389.708,539.987C424.012,581.56 441.718,598.548 463.18,620.559C484.643,642.57 490.73,634.632 492.992,661.906C495.253,689.18 459.836,692.768 452.534,698.932C445.233,705.096 379.443,764.475 333.897,773.438C288.35,782.4 219.672,776.984 191.675,754.871C163.678,732.759 146.911,720.376 108.966,685.439C95.674,673.201 88.641,677.902 78.602,653.226C68.563,628.549 74.487,618.157 74.487,618.157Z" style="fill:rgb(255,242,0);stroke:black;stroke-width:7.81px;"/>
            </g>
            <g transform="matrix(1.56178,-2.1674e-17,2.1674e-17,1.56178,313.388,-417.096)">
                <g transform="matrix(0.757212,-0.653169,0.653169,0.757212,-370.933,179.269)">
                    <g transform="matrix(64,0,0,64,62.4018,586.092)">
                        <path d="M0.204,-0.754L0.204,-0.107L0.426,-0.107L0.426,-0L0.09,-0L0.09,-0.754L0.204,-0.754Z" style="fill-rule:nonzero;"/>
                    </g>
                </g>
                <g transform="matrix(0.823231,-0.567707,0.567707,0.823231,-310.362,143.019)">
                    <g transform="matrix(64,0,0,64,82.5064,567.384)">
                        <path d="M0.506,-0.647L0.204,-0.647L0.204,-0.466L0.498,-0.466L0.498,-0.359L0.204,-0.359L0.204,-0.107L0.506,-0.107L0.506,-0L0.09,-0L0.09,-0.754L0.506,-0.754L0.506,-0.647Z" style="fill-rule:nonzero;"/>
                    </g>
                </g>
                <g transform="matrix(0.659628,-0.751592,0.751592,0.659628,-376.725,265.402)">
                    <g transform="matrix(64,0,0,64,110.181,546.134)">
                        <path d="M0.064,-0L0.223,-0.811L0.481,-0.225L0.75,-0.811L0.892,-0L0.775,-0L0.703,-0.455L0.479,0.035L0.263,-0.456L0.182,-0L0.064,-0Z" style="fill-rule:nonzero;"/>
                    </g>
                </g>
                <g transform="matrix(0.99794,-0.0641469,0.0641469,0.99794,-32.3133,5.99282)">
                    <g transform="matrix(64,0,0,64,155.037,503.716)">
                        <path d="M0.053,-0.38C0.053,-0.486 0.092,-0.578 0.169,-0.654C0.247,-0.73 0.34,-0.768 0.449,-0.768C0.556,-0.768 0.648,-0.73 0.725,-0.653C0.802,-0.576 0.841,-0.484 0.841,-0.376C0.841,-0.268 0.802,-0.176 0.725,-0.1C0.647,-0.024 0.553,0.014 0.443,0.014C0.346,0.014 0.258,-0.02 0.181,-0.087C0.095,-0.162 0.053,-0.26 0.053,-0.38ZM0.167,-0.379C0.167,-0.296 0.195,-0.227 0.251,-0.173C0.307,-0.12 0.371,-0.093 0.444,-0.093C0.523,-0.093 0.59,-0.12 0.645,-0.175C0.699,-0.23 0.726,-0.298 0.726,-0.377C0.726,-0.457 0.699,-0.525 0.646,-0.579C0.592,-0.634 0.526,-0.661 0.447,-0.661C0.369,-0.661 0.303,-0.634 0.249,-0.579C0.194,-0.525 0.167,-0.458 0.167,-0.379Z" style="fill-rule:nonzero;"/>
                    </g>
                </g>
                <g transform="matrix(0.990452,0.137855,-0.137855,0.990452,71.5218,-29.3292)">
                    <g transform="matrix(64,0,0,64,211.402,499.177)">
                        <path d="M0.09,-0L0.09,-0.805L0.64,-0.23L0.64,-0.754L0.754,-0.754L0.754,0.046L0.204,-0.528L0.204,-0L0.09,-0Z" style="fill-rule:nonzero;"/>
                    </g>
                </g>
                <g transform="matrix(0.640017,0.76836,-0.76836,0.640017,491.481,-21.4545)">
                    <g transform="matrix(64,0,0,64,263.301,511.29)">
                        <path d="M0.533,-0.183L0.21,-0.183L0.126,-0L0.004,-0L0.377,-0.801L0.737,-0L0.612,-0L0.533,-0.183ZM0.487,-0.29L0.375,-0.546L0.258,-0.29L0.487,-0.29Z" style="fill-rule:nonzero;"/>
                    </g>
                </g>
                <g transform="matrix(0.677341,0.73567,-0.73567,0.677341,500.559,-42.6684)">
                    <g transform="matrix(64,0,0,64,293.222,546.808)">
                        <rect x="0.09" y="-0.754" width="0.114" height="0.754" style="fill-rule:nonzero;"/>
                    </g>
                </g>
                <g transform="matrix(0.698417,0.715691,-0.715691,0.698417,496.403,-53.1655)">
                    <g transform="matrix(64,0,0,64,305.352,559.928)">
                        <path d="M0.09,-0L0.09,-0.754L0.249,-0.754C0.324,-0.754 0.384,-0.746 0.428,-0.731C0.475,-0.717 0.518,-0.692 0.557,-0.657C0.634,-0.586 0.673,-0.493 0.673,-0.377C0.673,-0.261 0.633,-0.167 0.552,-0.096C0.511,-0.06 0.468,-0.035 0.424,-0.021C0.382,-0.007 0.323,-0 0.247,-0L0.09,-0ZM0.204,-0.107L0.255,-0.107C0.306,-0.107 0.349,-0.112 0.383,-0.123C0.417,-0.134 0.447,-0.153 0.475,-0.177C0.531,-0.228 0.559,-0.295 0.559,-0.377C0.559,-0.46 0.531,-0.527 0.476,-0.578C0.426,-0.624 0.352,-0.647 0.255,-0.647L0.204,-0.647L0.204,-0.107Z" style="fill-rule:nonzero;"/>
                    </g>
                </g>
            </g>
            <g transform="matrix(0.171108,0.979899,-0.979899,0.171108,1581.37,-1378.99)">
                <path d="M1705.31,1182.58C1704.69,1181.22 1702.87,1186.98 1704.37,1186.98C1705.02,1186.98 1707.41,1180.94 1708.32,1181.85C1709.62,1183.15 1706.77,1188.59 1707.53,1189.35C1707.7,1189.52 1710.79,1184.16 1711.47,1183.82C1713.33,1182.89 1712.18,1185.55 1713.45,1186.19C1714.23,1186.58 1714.97,1184.38 1716.21,1185C1717.96,1185.88 1716.31,1190.93 1719.77,1190.93" style="fill:none;stroke:rgb(221,63,117);stroke-opacity:0.51;stroke-width:14.13px;"/>
            </g>
            <g transform="matrix(0.628629,-0.770912,0.770912,0.628629,-1308.68,988.868)">
                <path d="M1564.35,1144.37C1559.97,1144.06 1562.61,1148.7 1561.04,1155C1560.87,1155.68 1560.25,1156.97 1560.25,1156.97C1560.25,1156.97 1562.38,1140.86 1566.96,1143.15C1569.35,1144.35 1565.24,1150.9 1566.57,1152.23C1568.4,1154.07 1569.36,1143.2 1570.52,1145.52C1571.69,1147.87 1567.55,1155.19 1568.94,1156.58C1569.46,1157.1 1570.1,1155.62 1570.52,1155C1571.94,1152.87 1573.65,1151.46 1575.25,1149.86C1575.53,1149.59 1575.65,1153.1 1575.65,1159.73" style="fill:none;stroke:rgb(221,63,117);stroke-opacity:0.51;stroke-width:14.13px;"/>
            </g>
            <g transform="matrix(1,0,0,1,340.243,-148.938)">
                <g transform="matrix(-3.06091,0,0,4.08522,1079.05,-1940.3)">
                    <path d="M264.769,629.562C264.064,629.322 263.573,628.788 263.573,628.17C263.573,626.097 265.607,625.984 266.272,626.085C266.651,626.143 267.11,626.29 267.521,626.634C267.861,626.92 268.346,627.617 268.475,628.528C268.593,629.368 267.78,630.121 266.66,630.21C265.894,630.271 265.181,630.005 264.769,629.562Z"/>
                </g>
                <g transform="matrix(1.49564,1.52282,1.19975,-1.17833,-902.45,874.352)">
                    <path d="M321.129,632.775C320.725,631.681 320.713,631.915 319.886,631.088C318.617,629.819 318.399,627.482 319.398,625.871C320.398,624.261 322.24,623.983 323.509,625.252C325.56,627.303 325.427,626.907 326.43,629.623C327.115,631.48 326.484,633.693 325.021,634.563C323.559,635.433 321.815,634.632 321.129,632.775Z"/>
                </g>
                <g transform="matrix(1.19141,0,0,1.19141,-48.4563,-119.4)">
                    <path d="M258.507,648.084C257.676,653.808 260.175,660.089 264.296,665.534C269.987,673.051 278.566,678.8 282.205,679.71C290.917,681.888 302.104,679.207 311.06,673.362C320.294,667.336 326.941,658.075 326.941,648.254C326.941,645.36 324.591,643.011 321.697,643.011C318.803,643.011 316.454,645.36 316.454,648.254C316.454,654.785 311.469,660.573 305.329,664.58C298.912,668.768 290.991,671.096 284.749,669.536C282.215,668.902 276.62,664.439 272.658,659.204C270.342,656.146 268.418,652.806 268.885,649.591C269.301,646.727 267.314,644.065 264.45,643.649C261.586,643.233 258.923,645.22 258.507,648.084Z"/>
                </g>
            </g>
        </g>
    </g>
</svg>
