<svg width="271" height="72" viewBox="0 0 271 72" fill="none" xmlns="http://www.w3.org/2000/svg">
<path d="M76.5458 15.9424V15.8441C76.5458 13.1924 78.3617 11.3264 80.7938 11.3264C82.8044 11.3264 84.3609 12.3413 84.5555 14.4201H82.9016C82.7233 13.2415 82.0747 12.6359 80.81 12.6359C79.2697 12.6359 78.2645 13.8472 78.2645 15.8278V15.926C78.2645 17.923 79.2049 19.0851 80.8263 19.0851C82.0423 19.0851 82.9016 18.4631 83.0638 17.2191H84.6528C84.3933 19.347 82.9017 20.4273 80.8263 20.4273C78.0861 20.4273 76.5458 18.6595 76.5458 15.9424Z" fill="white"/>
<path d="M86.2903 15.9422V15.844C86.2903 13.2578 88.1225 11.3427 90.7167 11.3427C93.3109 11.3427 95.1269 13.2087 95.1269 15.7949V15.8931C95.1269 18.4794 93.3758 20.4108 90.7167 20.4108C88.0414 20.4272 86.2903 18.4957 86.2903 15.9422ZM93.4406 15.9259V15.8276C93.4406 14.0107 92.4354 12.6685 90.7167 12.6685C88.998 12.6685 87.9927 13.9453 87.9927 15.844V15.9422C87.9927 17.8737 89.1602 19.1177 90.7491 19.1177C92.4029 19.1014 93.4406 17.841 93.4406 15.9259Z" fill="white"/>
<path d="M97.1212 11.4736H99.0669L102.747 17.8574V11.4736H104.223V20.3127H102.537L98.5967 13.5361V20.3127H97.1212V11.4736Z" fill="white"/>
<path d="M106.315 17.5628H107.888C108.001 18.4467 108.358 19.1997 109.833 19.1997C110.806 19.1997 111.487 18.6595 111.487 17.8411C111.487 17.0227 111.082 16.7117 109.671 16.4825C107.58 16.2042 106.591 15.5495 106.591 13.8963C106.591 12.4558 107.807 11.3591 109.639 11.3591C111.52 11.3591 112.655 12.2267 112.817 13.9126H111.325C111.163 12.9796 110.644 12.5868 109.639 12.5868C108.634 12.5868 108.131 13.0615 108.131 13.7489C108.131 14.4692 108.423 14.8293 109.947 15.0421C112.006 15.3203 113.076 15.926 113.076 17.6938C113.076 19.2324 111.795 20.4273 109.85 20.4273C107.434 20.4273 106.429 19.2324 106.315 17.5628Z" fill="white"/>
<path d="M115.168 11.4736H120.648V12.7667H116.806V15.1893H119.886V16.4333H116.806V19.0195H120.859V20.3127H115.184L115.168 11.4736Z" fill="white"/>
<path d="M122.935 11.4736H124.88L128.561 17.8574V11.4736H130.036V20.3127H128.35L124.41 13.5361V20.3127H122.935V11.4736Z" fill="white"/>
<path d="M132.127 17.5628H133.7C133.814 18.4467 134.17 19.1997 135.646 19.1997C136.619 19.1997 137.3 18.6595 137.3 17.8411C137.3 17.0227 136.894 16.7117 135.484 16.4825C133.392 16.2042 132.403 15.5495 132.403 13.8963C132.403 12.4558 133.619 11.3591 135.451 11.3591C137.332 11.3591 138.467 12.2267 138.629 13.9126H137.138C136.975 12.9796 136.457 12.5868 135.451 12.5868C134.446 12.5868 133.943 13.0615 133.943 13.7489C133.943 14.4692 134.235 14.8293 135.759 15.0421C137.819 15.3203 138.872 15.926 138.872 17.6938C138.872 19.2324 137.592 20.4273 135.662 20.4273C133.246 20.4273 132.241 19.2324 132.127 17.5628Z" fill="white"/>
<path d="M142.666 16.4824L139.764 11.4736H141.564L143.542 15.1238L145.455 11.4736H147.044L144.304 16.4824V20.2963H142.666V16.4824Z" fill="white"/>
<path d="M147.953 17.5628H149.525C149.639 18.4467 149.995 19.1997 151.471 19.1997C152.444 19.1997 153.125 18.6595 153.125 17.8411C153.125 17.0227 152.719 16.7117 151.309 16.4825C149.217 16.2042 148.228 15.5495 148.228 13.8963C148.228 12.4558 149.444 11.3591 151.276 11.3591C153.157 11.3591 154.292 12.2267 154.454 13.9126H152.963C152.8 12.9796 152.282 12.5868 151.276 12.5868C150.271 12.5868 149.768 13.0615 149.768 13.7489C149.768 14.4692 150.06 14.8293 151.584 15.0421C153.644 15.3203 154.714 15.926 154.714 17.6938C154.714 19.2324 153.433 20.4273 151.487 20.4273C149.087 20.4273 148.082 19.2324 147.953 17.5628Z" fill="white"/>
<path d="M77.2104 27.5149C77.2104 27.2366 77.4374 27.0074 77.7131 27.0074H88.09C99.7641 27.0074 105.52 33.3912 105.52 43.4251V43.8016C105.52 53.8519 99.7154 60.563 88.0414 60.563H77.7131C77.4374 60.563 77.2104 60.3339 77.2104 60.0556V27.5149ZM87.8144 54.6376C94.5107 54.6376 97.6725 50.8401 97.6725 43.8998V43.5233C97.6725 36.6322 94.7377 32.9165 87.7333 32.9165H84.7499V54.6376H87.8144Z" fill="white"/>
<path d="M107.855 28.9718C107.855 26.8602 109.525 25.2725 111.665 25.2725C113.854 25.2725 115.524 26.8766 115.524 28.9718C115.524 31.0669 113.854 32.6711 111.665 32.6711C109.525 32.6874 107.855 31.0833 107.855 28.9718ZM108.86 36.0102H114.551C114.827 36.0102 115.054 36.2394 115.054 36.5177V60.0557C115.054 60.334 114.827 60.5631 114.551 60.5631H108.86C108.585 60.5631 108.358 60.334 108.358 60.0557V36.5177C108.358 36.2394 108.585 36.0102 108.86 36.0102Z" fill="white"/>
<path d="M120.291 24.8959H125.982C126.258 24.8959 126.485 25.125 126.485 25.4033V60.0556C126.485 60.3338 126.258 60.563 125.982 60.563H120.291C120.015 60.563 119.788 60.3338 119.788 60.0556V25.4033C119.788 25.125 120.015 24.8959 120.291 24.8959Z" fill="white"/>
<path d="M130.668 28.9718C130.668 26.8602 132.338 25.2725 134.479 25.2725C136.668 25.2725 138.338 26.8766 138.338 28.9718C138.338 31.0669 136.668 32.6711 134.479 32.6711C132.338 32.6874 130.668 31.0833 130.668 28.9718ZM131.674 36.0102H137.365C137.64 36.0102 137.867 36.2394 137.867 36.5177V60.0557C137.867 60.334 137.64 60.5631 137.365 60.5631H131.674C131.398 60.5631 131.171 60.334 131.171 60.0557V36.5177C131.187 36.2394 131.398 36.0102 131.674 36.0102Z" fill="white"/>
<path d="M141.856 61.0704H147.563C147.79 61.0704 147.985 61.2178 148.05 61.4469C148.568 63.3948 150.125 64.6388 153.352 64.6388C157.438 64.6388 159.48 62.4781 159.48 58.6315V54.9322C157.859 57.7312 154.892 59.4663 151.665 59.4827C145.763 59.4827 141.061 55.0304 141.061 47.7464V47.419C141.061 40.3806 145.715 35.4536 151.746 35.4536C155.703 35.4536 158.07 37.1887 159.464 39.6767V36.5176C159.464 36.2393 159.691 36.0101 159.967 36.0101H165.658C165.934 36.0101 166.161 36.2393 166.161 36.5176V58.6315C166.112 65.8992 161.329 69.6148 153.335 69.6148C145.796 69.6148 142.196 66.4066 141.337 61.6761C141.288 61.3978 141.467 61.1359 141.742 61.0868C141.791 61.0704 141.823 61.0704 141.856 61.0704ZM159.675 47.6482V47.3208C159.675 43.1468 157.486 40.6097 153.822 40.6097C150.06 40.6097 147.969 43.3269 147.969 47.3699V47.7464C147.969 51.8222 150.336 54.3593 153.692 54.3593C157.211 54.3593 159.675 51.8222 159.675 47.6482Z" fill="white"/>
<path d="M168.561 48.5976V48.2211C168.561 40.4788 173.993 35.4536 181.062 35.4536C187.337 35.4536 192.914 39.1529 192.914 47.9428V49.3178C192.914 49.5961 192.687 49.8252 192.412 49.8252H175.387C175.582 53.901 177.754 56.2581 181.435 56.2581C184.353 56.2581 185.894 55.0632 186.412 53.1972C186.477 52.9844 186.672 52.837 186.883 52.837H192.266C192.541 52.837 192.768 53.0662 192.768 53.3445C192.768 53.3772 192.768 53.4099 192.752 53.4427C191.747 58.3533 187.629 61.0868 181.24 61.0868C173.895 61.0704 168.561 56.4218 168.561 48.5976ZM186.348 45.6349C186.121 41.9356 184.256 40.1514 181.046 40.1514C178.03 40.1514 175.987 42.1647 175.468 45.6349H186.348Z" fill="white"/>
<path d="M195.864 36.0101H201.604C201.88 36.0101 202.107 36.2393 202.107 36.5176V39.9059C203.307 37.4669 205.966 35.4536 210.003 35.4536C214.786 35.4536 218.191 38.3672 218.191 44.931V60.0556C218.191 60.3339 217.964 60.563 217.688 60.563H211.949C211.673 60.563 211.446 60.3339 211.446 60.0556V45.9295C211.446 42.5903 210.149 41.0026 207.166 41.0026C204.279 41.0026 202.107 42.7867 202.107 46.4042V60.072C202.107 60.3502 201.88 60.5794 201.604 60.5794H195.864C195.589 60.5794 195.362 60.3502 195.362 60.072V36.5176C195.362 36.2393 195.589 36.0101 195.864 36.0101Z" fill="white"/>
<path d="M220.332 48.5976V48.2211C220.332 40.2987 225.958 35.4536 232.881 35.4536C238.345 35.4536 243.42 37.8107 244.264 44.4072C244.296 44.6855 244.101 44.9474 243.826 44.9801C243.81 44.9801 243.777 44.9801 243.761 44.9801H238.362C238.135 44.9801 237.924 44.8164 237.875 44.5873C237.324 42.001 235.638 40.8061 233.027 40.8061C229.541 40.8061 227.223 43.4415 227.223 48.1229V48.4994C227.223 53.4263 229.412 55.9634 233.173 55.9634C235.751 55.9634 237.859 54.5066 238.329 51.6421C238.362 51.3966 238.572 51.2329 238.816 51.2329H243.923C244.199 51.2329 244.426 51.4621 244.426 51.7403C244.426 51.7567 244.426 51.7731 244.426 51.7895C243.826 57.3057 239.691 61.0868 232.849 61.0868C225.731 61.0704 220.332 56.6182 220.332 48.5976Z" fill="white"/>
<path d="M246.128 48.5976V48.2211C246.128 40.4788 251.56 35.4536 258.629 35.4536C264.904 35.4536 270.482 39.1529 270.482 47.9428V49.3178C270.482 49.5961 270.255 49.8252 269.979 49.8252H252.954C253.149 53.901 255.321 56.2581 259.002 56.2581C261.921 56.2581 263.461 55.0632 263.98 53.1972C264.045 52.9844 264.239 52.8207 264.466 52.837H269.849C270.125 52.837 270.352 53.0662 270.352 53.3445C270.352 53.3772 270.352 53.4099 270.336 53.4427C269.33 58.3533 265.212 61.0868 258.824 61.0868C251.479 61.0704 246.128 56.4218 246.128 48.5976ZM263.931 45.6349C263.704 41.9356 261.84 40.1514 258.629 40.1514C255.613 40.1514 253.57 42.1647 253.052 45.6349H263.931Z" fill="white"/>
<path d="M35.1032 0.293945C15.7276 0.293945 0 16.1715 0 35.7319C0 55.2924 15.7276 71.1863 35.1032 71.1863C54.4789 71.1863 70.2227 55.3087 70.2227 35.7319C70.2227 16.1551 54.4952 0.293945 35.1032 0.293945ZM25.9748 55.1451C25.9748 55.3251 25.8289 55.4724 25.6505 55.4724H18.8082C18.6299 55.4724 18.4839 55.3251 18.4839 55.1451V28.3497C18.4839 28.1696 18.6299 28.0223 18.8082 28.0223H25.6505C25.8289 28.0223 25.9748 28.1696 25.9748 28.3497V55.1451ZM22.2131 24.2903C19.8297 24.2903 17.9489 22.5061 17.9489 20.149C17.9489 17.792 19.8297 16.0078 22.2131 16.0078C24.6614 16.0078 26.5261 17.792 26.5261 20.149C26.5261 22.5061 24.6614 24.2903 22.2131 24.2903ZM38.946 55.1287C38.946 55.3087 38.8 55.4561 38.6217 55.4561H31.7794C31.601 55.4561 31.4551 55.3087 31.4551 55.1287V16.3352C31.4551 16.1551 31.601 16.0078 31.7794 16.0078H38.6217C38.8 16.0078 38.946 16.1551 38.946 16.3352V55.1287ZM51.9009 55.1451C51.9009 55.3251 51.755 55.4724 51.5766 55.4724H44.7506C44.5722 55.4724 44.4263 55.3251 44.4263 55.1451V28.3497C44.4263 28.1696 44.5722 28.0223 44.7506 28.0223H51.5929C51.7712 28.0223 51.9171 28.1696 51.9171 28.3497V55.1451H51.9009ZM52.2738 23.9793C52.2738 24.1593 52.1279 24.3067 51.9496 24.3067H44.3938C44.2155 24.3067 44.0696 24.1593 44.0696 23.9793V16.3352C44.0696 16.1551 44.2155 16.0078 44.3938 16.0078H51.9496C52.1279 16.0078 52.2738 16.1551 52.2738 16.3352V23.9793Z" fill="white"/>
</svg>
