<svg width="121" height="56" viewBox="0 0 121 56" fill="white" xmlns="http://www.w3.org/2000/svg">
<path d="M7.18676 0.421865H0V36.5216H13.786V29.8471H7.18676V0.421865Z" />
<path d="M21.0933 0.421865L15.6994 36.5065H22.8863L23.7752 29.3197H29.1841L30.0731 36.5065H37.3653L31.9413 0.421865H21.0933ZM24.4381 22.9767L26.2763 7.5032H26.6378L28.476 22.9767H24.4381Z" />
<path d="M50.7294 23.1424C50.7294 25.6585 50.6843 27.3611 50.624 28.25C50.5487 29.1389 50.3829 29.7115 50.1268 29.9827C49.8706 30.2388 49.3734 30.3744 48.6352 30.3744C47.8969 30.3744 47.3997 30.2388 47.1436 29.9827C46.8724 29.7265 46.7067 29.1389 46.6464 28.25C46.5711 27.3611 46.5409 25.6585 46.5409 23.1424V0.421865H39.2938V20.566C39.2938 25.3572 39.4445 28.7924 39.7609 30.8716C40.0773 32.9508 40.8759 34.4876 42.1716 35.4669C43.4673 36.4463 45.6068 36.9435 48.6201 36.9435C51.6334 36.9435 53.7729 36.4463 55.0687 35.4669C56.3644 34.4876 57.1629 32.9659 57.4793 30.8716C57.7957 28.7924 57.9464 25.3572 57.9464 20.566V0.421865H50.7144V23.1424H50.7294Z" />
<path d="M73.7513 16.7843H73.4952L68.3574 0.421865H61.698V36.5216H68.5232V18.4115H68.7191L74.3389 36.5216H80.6368V0.421865H73.7513V16.7843Z" />
<path d="M92.2532 29.6964C91.8162 29.2444 91.53 28.2801 91.4094 26.7885C91.2889 25.2969 91.2287 22.5397 91.2287 18.4717C91.2287 14.4188 91.2889 11.6465 91.4094 10.1549C91.53 8.66333 91.8162 7.69906 92.2532 7.24706C92.6901 6.79506 93.5188 6.56906 94.7392 6.56906C95.7938 6.56906 96.954 6.65946 98.2497 6.8252V0.798532C97.8279 0.587598 97.1498 0.406796 96.2308 0.241063C95.3117 0.0903963 94.3625 0 93.4284 0C90.6712 0 88.6372 0.557463 87.3113 1.6724C86.0005 2.78733 85.1116 4.6104 84.6596 7.12653C84.2076 9.64267 83.9816 13.4244 83.9816 18.4567C83.9816 23.5341 84.1925 27.3159 84.6144 29.8169C85.0363 32.318 85.9101 34.126 87.236 35.2409C88.5619 36.3559 90.626 36.9133 93.4284 36.9133C94.2721 36.9133 95.146 36.8229 96.0801 36.6572C96.9992 36.4764 97.7676 36.2504 98.3702 35.9792V30.1032C97.3156 30.284 96.1102 30.3593 94.7542 30.3593C93.5188 30.3744 92.6901 30.1484 92.2532 29.6964Z" />
<path d="M112.895 0.421865V14.9009H108.601V0.421865H101.414V36.5216H108.601V21.7713H112.895V36.5216H120.142V0.421865H112.895Z" />
<path d="M104.065 53.4113H102.604V55.0837H104.065V53.4113Z" />
<path d="M107.697 45.2904H106.431V55.0837H107.697V45.2904Z" />
<path d="M107.742 40.8156H106.416V42.3675H107.742V40.8156Z" />
<path d="M114.13 49.9912C113.919 49.8405 113.648 49.7351 113.301 49.6899L111.78 49.4337C111.554 49.3885 111.373 49.3433 111.267 49.268C111.162 49.1927 111.087 49.0571 111.041 48.8461C110.996 48.6352 110.981 48.3188 110.981 47.8819C110.981 47.2491 111.102 46.8272 111.343 46.6012C111.584 46.3752 111.945 46.2547 112.443 46.2547C112.804 46.2547 113.166 46.2697 113.527 46.3149C113.889 46.3601 114.175 46.4053 114.386 46.4656V45.3959C114.145 45.3356 113.829 45.2753 113.467 45.2301C113.09 45.1849 112.744 45.1548 112.397 45.1548C111.508 45.1548 110.845 45.3657 110.393 45.7725C109.941 46.1944 109.731 46.9327 109.731 47.9873C109.731 48.8311 109.836 49.4488 110.032 49.8255C110.228 50.2021 110.574 50.4432 111.071 50.5185L112.669 50.7897C112.91 50.8349 113.09 50.8801 113.196 50.9555C113.301 51.0308 113.377 51.1815 113.437 51.3924C113.482 51.6033 113.512 51.9499 113.512 52.432C113.512 53.0045 113.407 53.4264 113.196 53.7127C112.985 53.9839 112.578 54.1195 111.991 54.1195C111.614 54.1195 111.237 54.1044 110.845 54.0592C110.454 54.014 110.137 53.9688 109.926 53.9236V54.9783C110.183 55.0385 110.529 55.0988 110.951 55.144C111.388 55.1892 111.78 55.2193 112.156 55.2193C113.075 55.2193 113.738 55.0084 114.145 54.5715C114.552 54.1345 114.763 53.3963 114.763 52.3416C114.763 51.6485 114.718 51.1212 114.612 50.7596C114.477 50.4131 114.326 50.1419 114.13 49.9912Z" />
<path d="M118.605 42.4428H117.339V45.2904H116.209V46.4053H117.339V55.0837H118.605V46.4053H120.006V45.2904H118.605V42.4428Z"/>
</svg>
