<svg width="16" height="16" viewBox="0 0 16 16" fill="none" xmlns="http://www.w3.org/2000/svg">
<path d="M1.55907 16C1.13033 16 0.763167 15.8472 0.457588 15.5416C0.152529 15.2366 0 14.8697 0 14.4409V3.52741C0 3.09866 0.152529 2.7315 0.457588 2.42592C0.763167 2.12086 1.13033 1.96833 1.55907 1.96833H8.51644L6.95737 3.52741H1.55907V14.4409H12.4726V9.02314L14.0317 7.46407V14.4409C14.0317 14.8697 13.8791 15.2366 13.5741 15.5416C13.2685 15.8472 12.9013 16 12.4726 16H1.55907ZM10.2704 2.41657L11.3812 3.50792L6.2363 8.65286V9.7637H7.32765L12.4921 4.59927L13.6029 5.69062L8.43849 10.8551C8.29557 10.998 8.13005 11.1118 7.94192 11.1965C7.75328 11.2807 7.55501 11.3228 7.34714 11.3228H5.45676C5.23589 11.3228 5.05088 11.2482 4.90173 11.099C4.75206 10.9494 4.67722 10.7641 4.67722 10.5432V8.65286C4.67722 8.44499 4.7162 8.24672 4.79415 8.05807C4.87211 7.86995 4.98254 7.70442 5.12546 7.56151L10.2704 2.41657ZM13.6029 5.69062L10.2704 2.41657L12.2192 0.467722C12.5311 0.155908 12.9047 0 13.3402 0C13.7752 0 14.1421 0.155908 14.4409 0.467722L15.5323 1.57856C15.8311 1.87739 15.9805 2.24117 15.9805 2.66991C15.9805 3.09866 15.8311 3.46244 15.5323 3.76127L13.6029 5.69062Z" fill="url(#paint0_linear_41_949)"/>
<defs>
<linearGradient id="paint0_linear_41_949" x1="19.2117" y1="29.818" x2="3.6837" y2="-0.771298" gradientUnits="userSpaceOnUse">
<stop offset="0.1875" stop-color="#1799DE"/>
<stop offset="0.952942" stop-color="#E98EB3"/>
</linearGradient>
</defs>
</svg>
