<svg width="1440" height="975" viewBox="0 0 1440 975" fill="none" xmlns="http://www.w3.org/2000/svg">
<g opacity="0.6">
<mask id="mask0_1811_1331" style="mask-type:alpha" maskUnits="userSpaceOnUse" x="-456" y="-522" width="2475" height="1311">
<path d="M1872.11 -24.2535L17.5316 -521.186L-91.1656 -115.523C-296.9 -112.538 -431.915 -72.485 -452.783 5.39316C-498.34 175.415 17.4119 461.336 699.182 644.015C1380.95 826.695 1970.57 836.956 2016.12 666.935C2036.99 589.057 1940.09 486.862 1763.41 381.41L1872.11 -24.2535Z" fill="#FFF3E1"/>
</mask>
<g mask="url(#mask0_1811_1331)">
<g filter="url(#filter0_f_1811_1331)">
<ellipse cx="1400.45" cy="644.494" rx="368.5" ry="370.653" transform="rotate(15 1400.45 644.494)" fill="#1799DE" fill-opacity="0.5"/>
</g>
<g filter="url(#filter1_f_1811_1331)">
<ellipse cx="221.566" cy="-310.935" rx="360.5" ry="363.089" transform="rotate(15 221.566 -310.935)" fill="#DF4886" fill-opacity="0.5"/>
</g>
<path d="M-333.949 18.1817C-269.9 -39.249 -202.512 -92.0945 -132.253 -140.036C-101.01 -161.333 -68.3945 -182.019 -31.5619 -188.523C62.5443 -205.2 154.313 -127.023 222.348 -45.0774C285 30.4152 340.109 113.647 386.12 202.329C431.731 290.213 469.342 384.838 531.243 459.782C593.175 534.736 688.833 587.065 770.439 556.38C819.004 538.114 855.475 492.855 876.637 440.872C897.807 388.855 905.168 330.29 908.751 272.064C912.853 205.376 913.164 134.501 944.306 79.5356C976.527 22.6196 1041.33 -7.39198 1102.97 6.03972C1190.65 25.1598 1252.08 116.23 1313.3 192.34C1391.08 289.014 1487.26 373.942 1597.92 403.961C1708.54 434.003 1834.41 397.822 1891.39 294.002" stroke="url(#paint0_linear_1811_1331)" stroke-miterlimit="10"/>
<path d="M-328.326 47.1216C-265.425 -9.44789 -198.971 -61.1736 -129.666 -107.741C-98.8517 -128.425 -66.671 -148.463 -30.4831 -154.897C42.2022 -167.807 113.622 -124.577 173.721 -67.268C190.099 -51.6824 205.649 -35.0166 220.162 -18.1868C282.546 54.24 337.665 134.506 384.074 220.282C430.044 305.285 467.948 397.341 529.532 470.232C564.053 511.085 607.834 545.877 654.091 565.141C694.397 581.912 736.905 586.666 776.276 572.593C783.317 570.085 790.109 567.014 796.639 563.45C836.992 541.398 867.336 500.325 886.542 454.268C892.705 439.473 897.836 424.181 902.172 408.546C913.456 367.751 919.418 324.641 923.775 282.016C930.739 214.382 935.786 144.443 969.179 90.3523C1002.36 36.6313 1064.64 7.21515 1124.89 19.9975C1210.6 38.2024 1271.32 125.033 1331.73 197.011C1336.48 202.665 1341.33 208.317 1346.2 213.865C1420.19 298.056 1509.07 369.153 1609.38 393.695C1716.36 419.869 1837.08 382.359 1891.22 280.305" stroke="url(#paint1_linear_1811_1331)" stroke-miterlimit="10"/>
<path d="M-322.719 75.2399C-260.92 19.4911 -195.455 -31.1475 -127.018 -76.3953C-96.6176 -96.5189 -64.8406 -115.881 -29.289 -122.251C42.1237 -135.033 112.437 -93.9646 171.947 -39.208C188.182 -24.3129 203.627 -8.35966 218.096 7.77895C280.219 77.2345 335.401 154.578 382.188 237.512C428.53 319.706 466.812 409.224 527.988 480.163C563.985 521.905 608.863 557.963 656.431 578.578C697.761 596.452 741.666 602.27 782.335 588.426C789.605 585.953 796.664 582.894 803.474 579.271C845.377 557.041 876.542 514.596 896.768 467.155C903.252 451.929 908.706 436.207 913.38 420.22C925.592 378.461 933.002 334.449 939.098 291.28C948.953 222.68 958.607 153.606 994.374 100.27C1028.34 49.6377 1088.27 20.809 1147.14 32.9521C1230.92 50.2561 1290.92 132.918 1350.53 200.823C1355.22 206.168 1360.01 211.476 1364.82 216.715C1437.73 296.015 1524.41 361.82 1621.35 382.774C1724.67 405.119 1840.34 366.228 1891.61 265.838" stroke="url(#paint2_linear_1811_1331)" stroke-miterlimit="10"/>
<path d="M-317.091 103.415C-256.402 48.5208 -191.886 -1.05401 -124.378 -45.0017C-94.3667 -64.5191 -63.048 -83.2608 -28.1083 -89.5215C42.057 -102.13 111.242 -63.2729 170.189 -11.0287C186.304 3.21975 201.651 18.4246 216.077 33.8707C277.948 100.315 333.194 174.731 380.354 254.853C427.068 334.233 465.802 421.199 526.531 490.208C564.045 532.819 609.985 570.173 658.834 592.132C701.19 611.114 746.534 617.976 788.504 604.361C796.033 601.934 803.328 598.875 810.381 595.218C853.812 572.764 885.793 528.974 907.04 480.141C913.84 464.518 919.615 448.362 924.666 431.998C937.816 389.236 946.629 344.375 954.504 300.634C967.228 231.016 981.402 162.923 1019.65 110.304C1054.24 62.7131 1111.97 34.5593 1169.51 46.0725C1251.34 62.4739 1310.64 140.96 1369.46 204.78C1374.08 209.816 1378.78 214.804 1383.56 219.71C1455.42 294.083 1539.9 354.584 1633.4 371.919C1733.08 390.425 1843.66 350.135 1892.06 251.409" stroke="url(#paint3_linear_1811_1331)" stroke-miterlimit="10"/>
<path d="M-311.469 131.683C-251.913 77.6039 -188.316 29.1092 -121.706 -13.5218C-92.1076 -32.4751 -61.2307 -50.5139 -26.9198 -56.7445C41.9662 -69.19 110.053 -32.5413 168.436 17.1805C184.408 30.7345 199.681 45.2331 214.033 59.9734C275.645 123.429 330.955 194.906 378.495 272.168C425.552 348.712 464.782 433.054 525.02 500.182C564.052 543.664 611.062 582.281 661.186 605.623C704.563 625.751 751.315 633.648 794.594 620.228C802.352 617.838 809.915 614.79 817.211 611.098C862.202 588.43 895.008 543.26 917.245 493.022C924.336 476.956 930.458 460.412 935.854 443.659C949.967 399.936 960.161 354.181 969.786 309.858C985.381 239.221 1003.97 172.152 1044.79 120.207C1079.89 75.5927 1135.57 48.1705 1191.69 59.0646C1271.58 74.5599 1330.19 148.818 1388.2 208.575C1392.76 213.265 1397.39 217.943 1402.08 222.527C1472.86 291.98 1555.17 347.167 1645.27 360.881C1741.29 375.535 1846.82 333.855 1892.34 236.804" stroke="url(#paint4_linear_1811_1331)" stroke-miterlimit="10"/>
<path d="M-305.849 160.044C-247.396 106.795 -184.756 59.4095 -119.045 18.1013C-89.8679 -0.250752 -59.4185 -17.6524 -25.7202 -23.7729C41.9167 -36.0433 108.874 -1.62216 166.692 45.5672C182.521 58.4239 197.688 72.2029 211.99 86.2796C273.35 146.7 328.687 215.249 376.608 289.639C424.045 363.31 463.772 445.018 523.486 510.244C564.046 554.563 612.113 594.515 663.52 619.208C707.926 640.448 756.08 649.419 800.694 636.242C808.713 633.898 816.511 630.851 824.082 627.134C870.628 604.288 904.228 557.725 927.519 506.102C934.926 489.636 941.377 472.624 947.144 455.527C962.189 410.833 973.741 364.137 985.211 319.264C1003.55 247.567 1026.59 181.538 1070.11 130.314C1105.56 88.635 1159.31 62.0248 1214.06 72.239C1292.01 86.8248 1349.91 156.874 1407.12 212.516C1411.62 216.895 1416.2 221.226 1420.82 225.499C1490.52 290.012 1570.66 339.833 1657.32 349.905C1749.71 360.705 1850.12 317.577 1892.8 222.254" stroke="url(#paint5_linear_1811_1331)" stroke-miterlimit="10"/>
<path d="M-300.221 188.446C-242.871 136.032 -181.182 89.7278 -116.409 49.7722C-87.6529 32.024 -57.6312 15.2622 -24.5386 9.21781C41.8172 -2.88695 107.675 29.309 164.936 73.9218C180.653 86.0894 195.714 99.1456 209.973 112.522C271.074 169.929 326.475 235.515 374.785 306.987C422.596 377.809 462.874 456.776 522.043 520.197C564.162 565.364 613.287 606.652 665.947 632.689C711.376 655.079 760.942 665.092 806.899 652.122C815.185 649.791 823.213 646.779 831.028 643.027C879.105 619.959 913.556 572.056 937.839 519.025C945.569 502.125 952.336 484.713 958.45 467.227C974.434 421.526 987.393 373.979 1000.65 328.535C1021.87 255.787 1049.11 190.788 1095.44 140.297C1131.11 101.441 1183.08 75.7342 1236.48 85.346C1312.48 99.019 1369.68 164.843 1426.1 216.323C1430.53 220.388 1435.05 224.372 1439.58 228.321C1508.23 287.854 1586.16 332.349 1669.41 338.778C1758.15 345.667 1853.48 301.179 1893.28 207.55" stroke="url(#paint6_linear_1811_1331)" stroke-miterlimit="10"/>
<path d="M-294.637 216.969C-238.423 165.385 -177.661 120.211 -113.788 81.5897C-85.4144 64.4238 -55.8594 48.3284 -23.3729 42.3607C41.7323 30.4333 106.489 60.3965 163.154 102.447C178.728 113.913 193.677 126.278 207.9 138.917C268.748 193.266 324.215 255.876 372.899 324.489C421.084 392.449 461.945 468.677 520.505 530.263C564.225 576.254 614.338 618.894 668.285 646.288C714.744 669.795 765.754 680.862 812.979 668.151C821.495 665.856 829.791 662.856 837.849 659.069C887.484 635.823 922.738 586.488 948.038 532.092C956.092 514.759 963.175 496.947 969.667 479.081C986.617 432.418 1000.97 383.941 1016 337.96C1040.11 264.194 1071.44 200.165 1120.71 150.443C1156.46 114.343 1206.8 89.6663 1258.79 98.6176C1332.82 111.364 1389.33 172.959 1444.95 220.296C1449.33 224.013 1453.78 227.717 1458.24 231.317C1525.81 285.877 1601.58 324.971 1681.38 327.735C1766.45 330.737 1856.69 284.843 1893.61 192.916" stroke="url(#paint7_linear_1811_1331)" stroke-miterlimit="10"/>
<path d="M-289.028 245.575C-233.919 194.835 -174.11 150.751 -111.168 113.459C-83.2157 96.9016 -54.0888 81.4509 -22.2474 75.5844C41.6063 63.8353 105.171 91.6758 161.299 131.028C176.722 141.823 191.604 153.438 205.784 165.37C266.373 216.686 321.905 276.31 370.972 342.018C419.532 407.106 461.021 480.524 518.959 540.338C564.28 587.153 615.391 631.113 670.618 659.901C718.102 684.563 770.526 696.676 819.096 684.176C827.873 681.929 836.413 678.895 844.74 675.119C895.91 651.65 932.016 600.972 958.342 545.175C966.712 527.442 974.119 509.194 980.958 490.938C998.85 443.266 1014.61 393.938 1031.4 347.376C1058.39 272.592 1093.71 209.496 1146.03 160.555C1181.77 127.142 1230.56 103.531 1281.17 111.83C1353.24 123.658 1409.05 180.999 1463.88 224.18C1468.19 227.582 1472.55 230.926 1476.95 234.21C1543.43 283.781 1616.99 317.481 1693.4 316.593C1774.81 315.697 1859.98 268.404 1894.01 178.188" stroke="url(#paint8_linear_1811_1331)" stroke-miterlimit="10"/>
<path d="M-283.415 274.261C-229.412 224.37 -170.594 181.406 -108.521 145.469C-80.984 129.488 -52.293 114.72 -21.0585 108.931C41.5115 97.3505 103.974 122.944 159.537 159.727C174.816 169.816 189.593 180.7 203.729 191.924C264.066 240.16 319.625 296.813 369.105 359.615C418.048 421.787 460.167 492.384 517.442 550.441C564.374 598.048 616.469 643.397 673.016 673.558C721.533 699.342 775.365 712.539 825.276 700.285C834.283 698.075 843.122 695.063 851.662 691.242C904.401 667.562 941.303 615.483 968.649 558.319C977.312 540.14 985.074 521.467 992.284 502.866C1011.11 454.219 1028.3 403.97 1046.87 356.872C1076.74 281.072 1115.94 218.801 1171.43 170.792C1207.03 139.964 1254.41 117.579 1303.64 125.224C1373.76 136.13 1428.9 189.18 1482.89 228.216C1487.14 231.302 1491.44 234.295 1495.77 237.264C1561.2 281.84 1632.55 310.096 1705.52 305.523C1783.29 300.729 1863.34 252.026 1894.5 163.529" stroke="url(#paint9_linear_1811_1331)" stroke-miterlimit="10"/>
<path d="M-277.806 302.983C-224.941 253.934 -167.044 212.081 -105.881 177.528C-78.734 162.171 -50.503 148.042 -19.8832 142.366C41.4408 130.931 102.755 154.329 157.766 188.466C172.894 197.88 187.604 208.008 201.698 218.522C261.775 263.704 317.399 317.351 367.263 377.227C416.55 436.496 459.376 504.215 515.982 560.544C564.533 608.906 617.605 655.683 675.443 687.209C724.987 714.151 780.243 728.364 831.464 716.348C840.733 714.186 849.81 711.175 858.595 707.32C912.895 683.464 950.628 629.992 978.976 571.379C987.957 552.798 996.043 533.689 1003.63 514.709C1023.44 465.062 1042.03 413.961 1062.36 366.283C1095.15 289.476 1138.1 227.911 1196.86 180.952C1232.29 152.624 1278.27 131.516 1326.11 138.54C1394.29 148.521 1448.72 197.29 1501.87 232.134C1506.06 234.869 1510.29 237.579 1514.54 240.185C1578.88 279.708 1648.05 302.584 1717.59 294.329C1791.69 285.581 1866.63 235.501 1894.9 148.731" stroke="url(#paint10_linear_1811_1331)" stroke-miterlimit="10"/>
<path d="M-272.2 331.806C-220.443 283.614 -163.507 242.9 -103.269 209.656C-76.5445 194.914 -48.7499 181.471 -18.7619 175.828C41.2768 164.564 101.487 185.702 155.933 217.255C170.948 225.968 185.553 235.362 199.564 245.187C259.389 287.271 315.08 337.902 365.296 394.832C414.959 451.2 458.508 515.962 514.367 570.605C564.577 619.699 618.628 667.905 677.719 700.822C728.298 728.89 784.997 744.202 837.537 732.389C847.068 730.275 856.383 727.265 865.451 723.351C921.292 699.274 959.847 644.443 989.256 584.435C998.562 565.419 1006.97 545.908 1014.9 526.536C1035.64 475.913 1055.67 423.89 1077.78 375.676C1113.46 297.853 1160.11 236.872 1222.2 191.091C1257.36 165.17 1302.02 145.479 1348.49 151.811C1414.72 160.865 1468.44 205.34 1520.79 235.992C1524.92 238.408 1529.09 240.766 1533.27 243.054C1596.53 277.544 1663.52 294.956 1729.6 282.998C1800.03 270.323 1869.88 218.839 1895.26 133.803" stroke="url(#paint11_linear_1811_1331)" stroke-miterlimit="10"/>
<path d="M-266.633 360.693C-216.015 313.351 -160.01 273.791 -100.675 241.906C-74.3655 227.747 -47.0075 214.993 -17.6277 209.429C41.1557 198.347 100.262 217.218 154.109 246.168C168.981 254.168 183.48 262.825 197.48 271.946C257.044 310.957 312.802 358.563 363.402 412.548C413.441 466.006 457.675 527.824 512.825 580.75C564.735 630.552 619.688 680.237 680.072 714.523C731.68 743.753 789.799 760.12 843.652 748.547C853.414 746.47 862.998 743.473 872.311 739.524C929.725 715.237 969.112 659.012 999.511 597.621C1009.14 578.203 1017.87 558.22 1026.18 538.502C1047.86 486.903 1069.39 434.059 1093.22 385.209C1131.94 306.458 1182.02 245.785 1247.59 201.391C1282.41 177.816 1325.87 159.59 1370.95 165.296C1435.22 173.421 1488.23 213.59 1539.78 240.037C1543.84 242.135 1547.95 244.139 1552.04 246.097C1614.21 275.54 1679.02 287.509 1741.67 271.851C1808.42 255.238 1873.15 202.34 1895.67 119.056" stroke="url(#paint12_linear_1811_1331)" stroke-miterlimit="10"/>
<path d="M-261.031 389.619C-211.522 343.142 -156.472 304.695 -98.078 274.197C-72.1604 260.668 -45.2633 248.559 -16.4996 243.109C40.9966 232.199 98.9973 248.798 152.285 275.114C167.013 282.398 181.43 290.362 195.363 298.721C254.668 334.65 310.492 379.223 361.476 430.255C411.893 480.793 456.858 539.599 511.284 590.873C564.864 641.372 620.753 692.549 682.431 728.206C735.077 758.566 794.61 776.025 849.816 764.668C859.84 762.639 869.662 759.644 879.221 755.661C938.202 731.198 978.39 673.566 1009.82 610.767C1019.74 590.901 1028.82 570.527 1037.48 550.418C1060.11 497.805 1083.1 444.084 1108.65 394.679C1150.29 314.922 1203.83 254.453 1272.98 211.634C1307.45 190.297 1349.69 173.643 1393.38 178.724C1455.69 185.916 1508 221.769 1558.75 244C1562.75 245.743 1566.79 247.462 1570.81 249.066C1631.93 273.424 1694.52 279.926 1753.75 260.559C1816.85 240.011 1876.45 185.695 1896.05 104.15" stroke="url(#paint13_linear_1811_1331)" stroke-miterlimit="10"/>
<path d="M-255.436 418.641C-207.038 373.032 -152.95 335.736 -95.46 306.607C-69.9583 293.664 -43.4985 282.248 -15.3753 276.867C40.8638 266.14 97.7272 280.45 150.416 304.149C165.031 310.727 179.312 317.939 193.201 325.579C252.254 358.384 308.105 399.938 359.506 448.018C410.308 495.593 456.037 551.389 509.667 601.019C564.965 652.155 621.752 704.85 684.719 741.916C738.372 773.395 799.359 791.925 855.905 780.854C866.168 778.828 876.253 775.881 886.089 771.874C946.614 747.191 987.667 688.171 1020.12 623.998C1030.36 603.731 1039.77 582.918 1048.81 562.428C1072.41 508.849 1096.79 454.229 1124.13 404.254C1168.68 323.482 1225.62 262.979 1298.45 221.992C1332.51 202.807 1373.57 187.858 1415.91 192.286C1476.26 198.543 1527.86 230.032 1577.8 248.072C1581.74 249.495 1585.69 250.848 1589.65 252.13C1649.68 271.416 1710.05 272.438 1765.84 249.354C1825.25 224.851 1879.73 169.118 1896.46 89.3392" stroke="url(#paint14_linear_1811_1331)" stroke-miterlimit="10"/>
<path d="M-249.982 447.875C-202.729 403.155 -149.556 366.95 -92.9669 339.188C-67.8869 326.866 -41.8557 316.108 -14.3404 310.807C40.613 300.252 96.4117 312.255 148.498 333.368C162.969 339.228 177.177 345.71 191.024 352.63C249.82 382.341 305.749 420.816 357.532 465.967C408.715 510.612 455.188 563.353 508.089 611.361C565.142 663.154 622.792 717.401 687.06 755.848C741.749 788.5 804.197 808.104 862.04 797.228C872.566 795.25 882.891 792.304 892.973 788.262C955.073 763.401 996.931 702.962 1030.43 637.334C1040.99 616.625 1050.72 595.407 1060.11 574.522C1084.66 519.92 1110.47 464.403 1139.61 413.887C1187.06 332.086 1247.33 271.323 1323.93 232.351C1357.61 215.216 1397.51 202.053 1438.43 205.806C1496.83 211.128 1547.73 238.281 1596.86 252.087C1600.73 253.189 1604.63 254.185 1608.53 255.147C1667.46 269.349 1725.66 264.854 1778.01 238.041C1833.75 209.536 1883.11 152.42 1896.95 74.392" stroke="url(#paint15_linear_1811_1331)" stroke-miterlimit="10"/>
<path d="M-244.78 477.448C-198.631 433.586 -146.445 398.516 -90.7508 372.119C-66.0589 360.429 -40.4851 350.317 -13.5825 345.129C40.1212 334.756 94.7903 344.461 146.317 362.963C160.647 368.103 174.751 373.842 188.558 380.042C247.112 406.623 303.11 442.088 355.258 484.265C406.797 525.971 454.089 575.644 506.196 622.05C565.027 674.442 623.534 730.327 689.144 770.177C744.884 803.977 808.762 824.687 867.965 814.06C878.756 812.131 889.322 809.185 899.652 805.108C963.312 780.017 1006.04 718.199 1040.54 651.121C1051.43 629.967 1061.49 608.301 1071.26 587.061C1096.75 531.458 1124 475.03 1154.94 423.925C1205.3 341.111 1268.85 279.717 1349.29 243.114C1382.54 227.976 1421.3 216.683 1460.84 219.771C1517.26 224.144 1567.48 246.966 1615.83 256.529C1619.64 257.274 1623.46 257.948 1627.27 258.577C1685.15 267.696 1741.13 257.691 1790.03 227.122C1842.08 194.634 1886.35 136.084 1897.28 59.7951" stroke="url(#paint16_linear_1811_1331)" stroke-miterlimit="10"/>
<path d="M-239.563 507.023C-194.52 464.024 -143.282 430.069 -88.4918 405.079C-64.2126 393.976 -39.0727 384.56 -12.7763 379.451C39.6763 369.26 93.2218 376.626 144.189 392.506C158.408 396.936 172.409 401.93 186.167 407.443C244.471 430.916 300.547 463.325 353.098 502.493C405.025 541.26 453.114 587.807 504.426 632.604C565.044 685.557 624.44 743.092 691.324 784.361C748.109 819.344 813.427 841.128 874 830.717C885.025 828.825 895.864 825.891 906.474 821.789C971.727 796.48 1015.26 733.225 1050.83 664.756C1062.02 643.179 1072.43 621.077 1082.55 599.437C1109.03 542.81 1137.7 485.506 1170.4 433.793C1223.7 349.943 1290.46 287.63 1374.76 253.71C1407.63 240.479 1445.2 231.122 1483.38 233.589C1537.85 237.022 1587.37 255.488 1634.91 260.794C1638.66 261.216 1642.42 261.568 1646.17 261.839C1702.98 265.813 1756.77 250.294 1802.23 215.972C1850.63 179.5 1889.72 119.495 1897.75 44.9556" stroke="url(#paint17_linear_1811_1331)" stroke-miterlimit="10"/>
<path d="M-234.389 536.666C-190.483 494.525 -140.172 461.737 -86.3032 438.077C-62.4443 427.6 -37.7391 418.882 -12.0811 413.842C39.0947 403.789 91.5537 408.784 141.939 422.139C156.023 425.811 169.944 430.103 183.63 434.88C241.691 455.202 297.805 484.568 350.783 520.762C403.107 556.543 451.993 599.953 502.526 643.214C564.973 696.703 625.182 755.937 693.38 798.602C751.219 834.735 817.977 857.592 879.883 847.423C891.175 845.579 902.286 842.657 913.114 838.509C979.954 813.018 1024.34 748.339 1060.92 678.421C1072.43 656.399 1083.17 633.885 1093.67 611.856C1121.1 554.229 1151.22 495.981 1185.71 443.718C1241.94 358.825 1311.88 295.246 1400.13 264.388C1432.63 253.036 1469.03 245.702 1505.8 247.453C1558.31 249.943 1607.12 264.039 1653.87 265.078C1657.56 265.141 1661.26 265.169 1664.95 265.08C1720.67 263.93 1772.28 242.882 1814.27 204.788C1858.97 164.314 1892.95 102.876 1898.08 30.0951" stroke="url(#paint18_linear_1811_1331)" stroke-miterlimit="10"/>
<path d="M-229.185 566.35C-186.387 525.083 -137.027 493.422 -84.0644 471.179C-60.5879 461.306 -36.3492 453.277 -11.2991 448.317C38.622 438.449 89.9466 441.126 139.77 451.844C153.712 454.789 167.522 458.368 181.206 462.393C239.016 479.588 295.215 505.842 348.582 539.076C401.294 571.896 450.986 612.123 500.707 653.829C564.999 707.782 626.008 768.786 695.521 812.848C754.407 850.165 822.64 874.11 885.88 864.183C897.406 862.378 908.798 859.433 919.868 855.284C988.274 829.567 1033.5 763.463 1071.12 692.144C1082.95 669.711 1094.03 646.716 1104.88 624.322C1133.26 565.697 1164.81 506.542 1201.12 453.696C1260.27 367.762 1333.4 302.581 1425.61 275.133C1457.75 265.56 1492.93 260.314 1528.31 261.43C1578.85 263.008 1627.01 272.663 1672.92 269.446C1676.55 269.185 1680.16 268.842 1683.78 268.428C1738.45 262.152 1787.84 235.516 1826.38 193.653C1867.39 149.169 1896.22 86.2863 1898.46 15.2853" stroke="url(#paint19_linear_1811_1331)" stroke-miterlimit="10"/>
<path d="M-223.981 596.059C-182.324 555.66 -133.893 525.177 -81.8307 504.321C-58.7759 495.078 -34.9658 487.717 -10.5245 482.838C38.1086 473.145 88.3605 473.519 137.558 481.571C151.358 483.788 165.095 486.626 178.707 489.911C236.273 503.935 292.54 527.137 346.304 557.366C399.406 587.217 449.943 624.225 498.843 664.406C565.029 718.76 626.791 781.594 697.621 827.053C757.563 865.522 827.233 890.578 891.817 880.861C903.609 879.104 915.243 876.161 926.6 871.952C996.598 846.056 1042.67 778.529 1081.33 705.774C1093.5 682.896 1104.9 659.49 1116.13 636.708C1145.5 577.061 1178.46 517.025 1216.58 463.597C1278.69 376.637 1355.02 309.479 1451.16 285.815C1483.02 277.978 1516.89 274.909 1550.92 275.363C1599.5 275.993 1646.95 281.255 1692.06 273.748C1695.62 273.16 1699.16 272.492 1702.73 271.718C1756.31 260.291 1803.47 228.09 1838.57 182.451C1875.88 133.915 1899.57 69.6346 1898.87 0.400664" stroke="url(#paint20_linear_1811_1331)" stroke-miterlimit="10"/>
<path d="M-218.763 625.752C-124.53 533.936 7.00941 497.09 135.348 511.288C263.687 525.487 388.618 587.824 496.947 674.905C565.036 729.622 627.552 794.288 699.693 841.18C771.833 888.072 858.153 916.038 933.295 888.616C1027.37 854.296 1078.8 746.05 1127.33 649.047C1207.07 489.518 1315.2 327.931 1476.62 296.457C1557.02 280.781 1643.41 299.626 1721.54 274.894C1829.85 240.596 1906.17 116.242 1899.18 -14.6378" stroke="url(#paint21_linear_1811_1331)" stroke-miterlimit="10"/>
</g>
</g>
<defs>
<filter id="filter0_f_1811_1331" x="631.717" y="-126.107" width="1537.47" height="1541.2" filterUnits="userSpaceOnUse" color-interpolation-filters="sRGB">
<feFlood flood-opacity="0" result="BackgroundImageFix"/>
<feBlend mode="normal" in="SourceGraphic" in2="BackgroundImageFix" result="shape"/>
<feGaussianBlur stdDeviation="200" result="effect1_foregroundBlur_1811_1331"/>
</filter>
<filter id="filter1_f_1811_1331" x="-539.198" y="-1073.94" width="1521.53" height="1526.01" filterUnits="userSpaceOnUse" color-interpolation-filters="sRGB">
<feFlood flood-opacity="0" result="BackgroundImageFix"/>
<feBlend mode="normal" in="SourceGraphic" in2="BackgroundImageFix" result="shape"/>
<feGaussianBlur stdDeviation="200" result="effect1_foregroundBlur_1811_1331"/>
</filter>
<linearGradient id="paint0_linear_1811_1331" x1="830.136" y1="-87.3422" x2="617.834" y2="540.061" gradientUnits="userSpaceOnUse">
<stop stop-color="#FC8F8F" stop-opacity="0.1"/>
<stop offset="1" stop-color="#8F8FFC" stop-opacity="0.3"/>
</linearGradient>
<linearGradient id="paint1_linear_1811_1331" x1="832.9" y1="-80.019" x2="618.395" y2="553.623" gradientUnits="userSpaceOnUse">
<stop stop-color="#FC8F8F" stop-opacity="0.1"/>
<stop offset="1" stop-color="#8F8FFC" stop-opacity="0.3"/>
</linearGradient>
<linearGradient id="paint2_linear_1811_1331" x1="839.532" y1="-90.7075" x2="616.959" y2="566.051" gradientUnits="userSpaceOnUse">
<stop stop-color="#FC8F8F" stop-opacity="0.1"/>
<stop offset="1" stop-color="#8F8FFC" stop-opacity="0.3"/>
</linearGradient>
<linearGradient id="paint3_linear_1811_1331" x1="846.603" y1="-103.289" x2="615.276" y2="578.537" gradientUnits="userSpaceOnUse">
<stop stop-color="#FC8F8F" stop-opacity="0.1"/>
<stop offset="1" stop-color="#8F8FFC" stop-opacity="0.3"/>
</linearGradient>
<linearGradient id="paint4_linear_1811_1331" x1="853.596" y1="-115.994" x2="613.474" y2="590.999" gradientUnits="userSpaceOnUse">
<stop stop-color="#FC8F8F" stop-opacity="0.1"/>
<stop offset="1" stop-color="#8F8FFC" stop-opacity="0.3"/>
</linearGradient>
<linearGradient id="paint5_linear_1811_1331" x1="860.677" y1="-128.653" x2="611.718" y2="603.607" gradientUnits="userSpaceOnUse">
<stop stop-color="#FC8F8F" stop-opacity="0.1"/>
<stop offset="1" stop-color="#8F8FFC" stop-opacity="0.3"/>
</linearGradient>
<linearGradient id="paint6_linear_1811_1331" x1="867.786" y1="-141.447" x2="609.966" y2="616.136" gradientUnits="userSpaceOnUse">
<stop stop-color="#FC8F8F" stop-opacity="0.1"/>
<stop offset="1" stop-color="#8F8FFC" stop-opacity="0.3"/>
</linearGradient>
<linearGradient id="paint7_linear_1811_1331" x1="874.787" y1="-154.134" x2="608.094" y2="628.791" gradientUnits="userSpaceOnUse">
<stop stop-color="#FC8F8F" stop-opacity="0.1"/>
<stop offset="1" stop-color="#8F8FFC" stop-opacity="0.3"/>
</linearGradient>
<linearGradient id="paint8_linear_1811_1331" x1="881.849" y1="-166.902" x2="606.225" y2="641.519" gradientUnits="userSpaceOnUse">
<stop stop-color="#FC8F8F" stop-opacity="0.1"/>
<stop offset="1" stop-color="#8F8FFC" stop-opacity="0.3"/>
</linearGradient>
<linearGradient id="paint9_linear_1811_1331" x1="888.951" y1="-179.596" x2="604.399" y2="654.302" gradientUnits="userSpaceOnUse">
<stop stop-color="#FC8F8F" stop-opacity="0.1"/>
<stop offset="1" stop-color="#8F8FFC" stop-opacity="0.3"/>
</linearGradient>
<linearGradient id="paint10_linear_1811_1331" x1="896.017" y1="-192.398" x2="602.496" y2="667.083" gradientUnits="userSpaceOnUse">
<stop stop-color="#FC8F8F" stop-opacity="0.1"/>
<stop offset="1" stop-color="#8F8FFC" stop-opacity="0.3"/>
</linearGradient>
<linearGradient id="paint11_linear_1811_1331" x1="903.076" y1="-205.303" x2="600.542" y2="679.879" gradientUnits="userSpaceOnUse">
<stop stop-color="#FC8F8F" stop-opacity="0.1"/>
<stop offset="1" stop-color="#8F8FFC" stop-opacity="0.3"/>
</linearGradient>
<linearGradient id="paint12_linear_1811_1331" x1="910.125" y1="-218.03" x2="598.6" y2="692.787" gradientUnits="userSpaceOnUse">
<stop stop-color="#FC8F8F" stop-opacity="0.1"/>
<stop offset="1" stop-color="#8F8FFC" stop-opacity="0.3"/>
</linearGradient>
<linearGradient id="paint13_linear_1811_1331" x1="917.185" y1="-230.885" x2="596.63" y2="705.673" gradientUnits="userSpaceOnUse">
<stop stop-color="#FC8F8F" stop-opacity="0.1"/>
<stop offset="1" stop-color="#8F8FFC" stop-opacity="0.3"/>
</linearGradient>
<linearGradient id="paint14_linear_1811_1331" x1="924.257" y1="-243.639" x2="594.68" y2="718.633" gradientUnits="userSpaceOnUse">
<stop stop-color="#FC8F8F" stop-opacity="0.1"/>
<stop offset="1" stop-color="#8F8FFC" stop-opacity="0.3"/>
</linearGradient>
<linearGradient id="paint15_linear_1811_1331" x1="931.382" y1="-256.553" x2="591.132" y2="736.164" gradientUnits="userSpaceOnUse">
<stop stop-color="#FC8F8F" stop-opacity="0.1"/>
<stop offset="1" stop-color="#8F8FFC" stop-opacity="0.3"/>
</linearGradient>
<linearGradient id="paint16_linear_1811_1331" x1="938.424" y1="-269.118" x2="584.727" y2="761.991" gradientUnits="userSpaceOnUse">
<stop stop-color="#FC8F8F" stop-opacity="0.1"/>
<stop offset="1" stop-color="#8F8FFC" stop-opacity="0.3"/>
</linearGradient>
<linearGradient id="paint17_linear_1811_1331" x1="945.737" y1="-281.857" x2="578.521" y2="787.858" gradientUnits="userSpaceOnUse">
<stop stop-color="#FC8F8F" stop-opacity="0.1"/>
<stop offset="1" stop-color="#8F8FFC" stop-opacity="0.3"/>
</linearGradient>
<linearGradient id="paint18_linear_1811_1331" x1="953.171" y1="-294.5" x2="572.437" y2="813.828" gradientUnits="userSpaceOnUse">
<stop stop-color="#FC8F8F" stop-opacity="0.1"/>
<stop offset="1" stop-color="#8F8FFC" stop-opacity="0.3"/>
</linearGradient>
<linearGradient id="paint19_linear_1811_1331" x1="960.928" y1="-306.981" x2="566.694" y2="839.924" gradientUnits="userSpaceOnUse">
<stop stop-color="#FC8F8F" stop-opacity="0.1"/>
<stop offset="1" stop-color="#8F8FFC" stop-opacity="0.3"/>
</linearGradient>
<linearGradient id="paint20_linear_1811_1331" x1="969.096" y1="-319.381" x2="561.346" y2="866.161" gradientUnits="userSpaceOnUse">
<stop stop-color="#FC8F8F" stop-opacity="0.1"/>
<stop offset="1" stop-color="#8F8FFC" stop-opacity="0.3"/>
</linearGradient>
<linearGradient id="paint21_linear_1811_1331" x1="977.71" y1="-331.73" x2="556.432" y2="892.508" gradientUnits="userSpaceOnUse">
<stop stop-color="#FC8F8F" stop-opacity="0.1"/>
<stop offset="1" stop-color="#8F8FFC" stop-opacity="0.3"/>
</linearGradient>
</defs>
</svg>
