<svg width="10" height="11" viewBox="0 0 10 11" fill="none" xmlns="http://www.w3.org/2000/svg">
<mask id="mask0_534_2955" style="mask-type:alpha" maskUnits="userSpaceOnUse" x="0" y="0" width="10" height="11">
<rect y="0.5625" width="10" height="10" fill="#D9D9D9"/>
</mask>
<g mask="url(#mask0_534_2955)">
<path d="M2.79232 8.60421L1.64648 8.35421C1.54232 8.33338 1.45898 8.27949 1.39648 8.19255C1.33398 8.10588 1.30968 8.01046 1.32357 7.9063L1.43815 6.72921L0.656901 5.83338C0.587457 5.75699 0.552734 5.66671 0.552734 5.56255C0.552734 5.45838 0.587457 5.3681 0.656901 5.29171L1.43815 4.39588L1.32357 3.2188C1.30968 3.11463 1.33398 3.01921 1.39648 2.93255C1.45898 2.8456 1.54232 2.79171 1.64648 2.77088L2.79232 2.52088L3.39648 1.50005C3.45204 1.40977 3.52843 1.35074 3.62565 1.32296C3.72287 1.29518 3.8201 1.29866 3.91732 1.33338L5.00065 1.79171L6.08398 1.33338C6.18121 1.29866 6.27843 1.29518 6.37565 1.32296C6.47287 1.35074 6.54926 1.40977 6.60482 1.50005L7.20898 2.52088L8.35482 2.77088C8.45898 2.79171 8.54232 2.8456 8.60482 2.93255C8.66732 3.01921 8.69162 3.11463 8.67773 3.2188L8.56315 4.39588L9.3444 5.29171C9.41385 5.3681 9.44857 5.45838 9.44857 5.56255C9.44857 5.66671 9.41385 5.75699 9.3444 5.83338L8.56315 6.72921L8.67773 7.9063C8.69162 8.01046 8.66732 8.10588 8.60482 8.19255C8.54232 8.27949 8.45898 8.33338 8.35482 8.35421L7.20898 8.60421L6.60482 9.62505C6.54926 9.71532 6.47287 9.77435 6.37565 9.80213C6.27843 9.82991 6.18121 9.82643 6.08398 9.79171L5.00065 9.33338L3.91732 9.79171C3.8201 9.82643 3.72287 9.82991 3.62565 9.80213C3.52843 9.77435 3.45204 9.71532 3.39648 9.62505L2.79232 8.60421ZM4.27148 6.75005C4.34787 6.82643 4.4451 6.86463 4.56315 6.86463C4.68121 6.86463 4.77843 6.82643 4.85482 6.75005L6.62565 4.97921C6.70898 4.89588 6.75065 4.79685 6.75065 4.68213C6.75065 4.56768 6.70898 4.4688 6.62565 4.38546C6.54232 4.30213 6.44343 4.26046 6.32898 4.26046C6.21426 4.26046 6.11523 4.30213 6.0319 4.38546L4.56315 5.85421L3.95898 5.26046C3.87565 5.18407 3.77676 5.14755 3.66232 5.15088C3.5476 5.15449 3.45204 5.19449 3.37565 5.27088C3.29926 5.34727 3.26107 5.44449 3.26107 5.56255C3.26107 5.6806 3.29926 5.77782 3.37565 5.85421L4.27148 6.75005ZM3.93815 8.87505L5.00065 8.41671L6.08398 8.87505L6.66732 7.87505L7.81315 7.60421L7.70898 6.43755L8.47982 5.56255L7.70898 4.66671L7.81315 3.50005L6.66732 3.25005L6.06315 2.25005L5.00065 2.70838L3.91732 2.25005L3.33398 3.25005L2.18815 3.50005L2.29232 4.66671L1.52148 5.56255L2.29232 6.43755L2.18815 7.62505L3.33398 7.87505L3.93815 8.87505Z" fill="white"/>
</g>
</svg>
