<svg width="12" height="12" viewBox="0 0 12 12" fill="none" xmlns="http://www.w3.org/2000/svg">
<path d="M5.97116 9.51986C6.17533 9.51986 6.34799 9.44927 6.48916 9.30811C6.62994 9.16733 6.70033 8.99486 6.70033 8.79069C6.70033 8.58652 6.62994 8.41405 6.48916 8.27327C6.34799 8.13211 6.17533 8.06152 5.97116 8.06152C5.76699 8.06152 5.59433 8.13211 5.45316 8.27327C5.31238 8.41405 5.24199 8.58652 5.24199 8.79069C5.24199 8.99486 5.31238 9.16733 5.45316 9.30811C5.59433 9.44927 5.76699 9.51986 5.97116 9.51986ZM5.44616 7.27402H6.52533C6.52533 6.95319 6.56188 6.70041 6.63499 6.51569C6.70772 6.33097 6.91421 6.07819 7.25449 5.75736C7.50727 5.50458 7.70658 5.26386 7.85241 5.03519C7.99824 4.80691 8.07116 4.53236 8.07116 4.21152C8.07116 3.66708 7.87185 3.24902 7.47324 2.95736C7.07463 2.66569 6.6031 2.51986 6.05866 2.51986C5.50449 2.51986 5.05494 2.66569 4.70999 2.95736C4.36466 3.24902 4.12394 3.59902 3.98783 4.00736L4.95033 4.38652C4.99894 4.21152 5.10841 4.02194 5.27874 3.81777C5.44869 3.61361 5.70866 3.51152 6.05866 3.51152C6.36977 3.51152 6.6031 3.5965 6.75866 3.76644C6.91422 3.93677 6.99199 4.12402 6.99199 4.32819C6.99199 4.52263 6.93366 4.70483 6.81699 4.87477C6.70033 5.04511 6.55449 5.20319 6.37949 5.34902C5.95171 5.72819 5.68921 6.015 5.59199 6.20944C5.49477 6.40388 5.44616 6.75875 5.44616 7.27402ZM6.00033 11.8532C5.19338 11.8532 4.43505 11.7 3.72533 11.3935C3.0156 11.0875 2.39824 10.6719 1.87324 10.1469C1.34824 9.62194 0.932715 9.00458 0.626659 8.29486C0.320214 7.58513 0.166992 6.8268 0.166992 6.01986C0.166992 5.21291 0.320214 4.45458 0.626659 3.74486C0.932715 3.03514 1.34824 2.41777 1.87324 1.89277C2.39824 1.36777 3.0156 0.952051 3.72533 0.645607C4.43505 0.339551 5.19338 0.186523 6.00033 0.186523C6.80727 0.186523 7.5656 0.339551 8.27533 0.645607C8.98505 0.952051 9.60241 1.36777 10.1274 1.89277C10.6524 2.41777 11.0679 3.03514 11.374 3.74486C11.6804 4.45458 11.8337 5.21291 11.8337 6.01986C11.8337 6.8268 11.6804 7.58513 11.374 8.29486C11.0679 9.00458 10.6524 9.62194 10.1274 10.1469C9.60241 10.6719 8.98505 11.0875 8.27533 11.3935C7.5656 11.7 6.80727 11.8532 6.00033 11.8532ZM6.00033 10.6865C7.3031 10.6865 8.40658 10.2344 9.31074 9.33027C10.2149 8.42611 10.667 7.32264 10.667 6.01986C10.667 4.71708 10.2149 3.61361 9.31074 2.70944C8.40658 1.80527 7.3031 1.35319 6.00033 1.35319C4.69755 1.35319 3.59408 1.80527 2.68991 2.70944C1.78574 3.61361 1.33366 4.71708 1.33366 6.01986C1.33366 7.32264 1.78574 8.42611 2.68991 9.33027C3.59408 10.2344 4.69755 10.6865 6.00033 10.6865Z" fill="#626087"/>
</svg>
