<svg width="25" height="26" viewBox="0 0 25 26" fill="none" xmlns="http://www.w3.org/2000/svg">
<rect y="0.514771" width="24.9706" height="24.9706" rx="12.4853" fill="url(#paint0_linear_623_2975)"/>
<path d="M14.748 16.3942L12.4853 18.6569C11.7027 19.4394 10.7599 19.8305 9.65685 19.8301C8.55377 19.8305 7.61096 19.4394 6.82843 18.6569C6.0459 17.8744 5.65463 16.9314 5.65463 15.8279C5.65463 14.7252 6.0459 13.7826 6.82843 13.0001L9.09117 10.7373L10.2225 11.8687L7.9598 14.1314C7.48839 14.6028 7.25269 15.1685 7.25269 15.8285C7.25269 16.4885 7.48839 17.0541 7.9598 17.5255C8.4312 17.997 8.99689 18.2327 9.65685 18.2327C10.3168 18.2327 10.8825 17.997 11.3539 17.5255L13.6167 15.2628L14.748 16.3942ZM10.7882 15.8285L9.65685 14.6971L14.1823 10.1716L15.3137 11.303L10.7882 15.8285ZM15.8794 15.2628L14.748 14.1314L17.0108 11.8687C17.4822 11.3973 17.7179 10.8316 17.7179 10.1716C17.7179 9.51167 17.4822 8.94598 17.0108 8.47458C16.5394 8.00318 15.9737 7.76747 15.3137 7.76747C14.6537 7.76747 14.0881 8.00318 13.6167 8.47458L11.3539 10.7373L10.2225 9.60595L12.4853 7.34321C13.2678 6.56068 14.2106 6.16922 15.3137 6.16885C16.4168 6.16922 17.3596 6.56068 18.1421 7.34321C18.9247 8.12574 19.3159 9.06836 19.3159 10.1711C19.3159 11.2745 18.9247 12.2175 18.1421 13.0001L15.8794 15.2628Z" fill="white"/>
<defs>
<linearGradient id="paint0_linear_623_2975" x1="30.0195" y1="47.0505" x2="5.80302" y2="-0.71279" gradientUnits="userSpaceOnUse">
<stop offset="0.1875" stop-color="#1799DE"/>
<stop offset="0.952942" stop-color="#E98EB3"/>
</linearGradient>
</defs>
</svg>
