<svg width="12" height="12" viewBox="0 0 12 12" fill="none" xmlns="http://www.w3.org/2000/svg">
<path d="M9.5 11.8337C9.01389 11.8337 8.60069 11.6635 8.26042 11.3232C7.92014 10.983 7.75 10.5698 7.75 10.0837C7.75 10.0156 7.75486 9.94502 7.76458 9.87191C7.7743 9.79918 7.78889 9.73366 7.80833 9.67532L3.69583 7.28366C3.53056 7.42949 3.34583 7.54363 3.14167 7.62607C2.9375 7.70891 2.72361 7.75032 2.5 7.75032C2.01389 7.75032 1.60069 7.58019 1.26042 7.23991C0.920139 6.89963 0.75 6.48644 0.75 6.00032C0.75 5.51421 0.920139 5.10102 1.26042 4.76074C1.60069 4.42046 2.01389 4.25033 2.5 4.25033C2.72361 4.25033 2.9375 4.29155 3.14167 4.37399C3.34583 4.45682 3.53056 4.57116 3.69583 4.71699L7.80833 2.32533C7.78889 2.26699 7.7743 2.20146 7.76458 2.12874C7.75486 2.05563 7.75 1.98505 7.75 1.91699C7.75 1.43088 7.92014 1.01769 8.26042 0.677409C8.60069 0.337131 9.01389 0.166992 9.5 0.166992C9.98611 0.166992 10.3993 0.337131 10.7396 0.677409C11.0799 1.01769 11.25 1.43088 11.25 1.91699C11.25 2.4031 11.0799 2.8163 10.7396 3.15658C10.3993 3.49685 9.98611 3.66699 9.5 3.66699C9.27639 3.66699 9.0625 3.62558 8.85833 3.54274C8.65417 3.4603 8.46944 3.34616 8.30417 3.20033L4.19167 5.59199C4.21111 5.65032 4.22569 5.71585 4.23542 5.78857C4.24514 5.86169 4.25 5.93227 4.25 6.00032C4.25 6.06838 4.24514 6.13877 4.23542 6.21149C4.22569 6.2846 4.21111 6.35032 4.19167 6.40866L8.30417 8.80032C8.46944 8.65449 8.65417 8.54016 8.85833 8.45732C9.0625 8.37488 9.27639 8.33366 9.5 8.33366C9.98611 8.33366 10.3993 8.5038 10.7396 8.84407C11.0799 9.18435 11.25 9.59755 11.25 10.0837C11.25 10.5698 11.0799 10.983 10.7396 11.3232C10.3993 11.6635 9.98611 11.8337 9.5 11.8337ZM9.5 2.50033C9.66528 2.50033 9.80372 2.44452 9.91533 2.33291C10.0273 2.22091 10.0833 2.08227 10.0833 1.91699C10.0833 1.75171 10.0273 1.61308 9.91533 1.50108C9.80372 1.38946 9.66528 1.33366 9.5 1.33366C9.33472 1.33366 9.19628 1.38946 9.08467 1.50108C8.97267 1.61308 8.91667 1.75171 8.91667 1.91699C8.91667 2.08227 8.97267 2.22091 9.08467 2.33291C9.19628 2.44452 9.33472 2.50033 9.5 2.50033ZM2.5 6.58366C2.66528 6.58366 2.80392 6.52766 2.91592 6.41566C3.02753 6.30405 3.08333 6.1656 3.08333 6.00032C3.08333 5.83505 3.02753 5.69641 2.91592 5.58441C2.80392 5.4728 2.66528 5.41699 2.5 5.41699C2.33472 5.41699 2.19608 5.4728 2.08408 5.58441C1.97247 5.69641 1.91667 5.83505 1.91667 6.00032C1.91667 6.1656 1.97247 6.30405 2.08408 6.41566C2.19608 6.52766 2.33472 6.58366 2.5 6.58366ZM9.5 10.667C9.66528 10.667 9.80372 10.611 9.91533 10.499C10.0273 10.3874 10.0833 10.2489 10.0833 10.0837C10.0833 9.91838 10.0273 9.77994 9.91533 9.66832C9.80372 9.55632 9.66528 9.50032 9.5 9.50032C9.33472 9.50032 9.19628 9.55632 9.08467 9.66832C8.97267 9.77994 8.91667 9.91838 8.91667 10.0837C8.91667 10.2489 8.97267 10.3874 9.08467 10.499C9.19628 10.611 9.33472 10.667 9.5 10.667Z" fill="#14114B"/>
</svg>
