<svg width="64" height="38" viewBox="0 0 64 38" fill="none" xmlns="http://www.w3.org/2000/svg">
<path d="M63.9479 18.3829C63.9421 16.6137 63.3158 14.9034 62.1793 13.5534C61.0429 12.2034 59.4693 11.3004 57.7358 11.0035C53.5074 4.28058 43.5368 0 31.974 0C20.4112 0 10.4406 4.28058 6.15997 10.9641C4.46886 11.2624 2.9324 12.1402 1.8112 13.4485C0.690005 14.7567 0.0531102 16.4149 0.00854996 18.1418C-0.0360103 19.8686 0.514507 21.5578 1.56672 22.9229C2.61894 24.2879 4.10806 25.2447 5.7815 25.631L9.29211 36.1354C9.45227 36.6675 9.77611 37.1347 10.217 37.4698C10.6579 37.8049 11.1932 37.9905 11.7456 38H52.9071C53.4614 38.0015 54.0017 37.8254 54.4499 37.4972C54.898 37.1691 55.2307 36.7059 55.3998 36.1748L59.0017 25.4077C60.4415 24.8866 61.6876 23.9336 62.5721 22.6774C63.4566 21.4212 63.9368 19.9223 63.9479 18.3829ZM52.8549 35.4527L11.7456 35.3345L8.56128 25.736C9.56799 25.578 10.5324 25.2161 11.396 24.6721C12.2597 24.1282 13.0046 23.4136 13.5857 22.5715C14.2687 23.5762 15.1848 24.3982 16.2548 24.9662C17.3248 25.5342 18.5163 25.8311 19.726 25.8311C20.9358 25.8311 22.1273 25.5342 23.1973 24.9662C24.2673 24.3982 25.1834 23.5762 25.8663 22.5715C26.5477 23.5762 27.4627 24.3984 28.5316 24.9665C29.6005 25.5346 30.7912 25.8316 32.0001 25.8316C33.209 25.8316 34.3997 25.5346 35.4686 24.9665C36.5375 24.3984 37.4525 23.5762 38.1339 22.5715C38.8168 23.5762 39.7329 24.3982 40.8029 24.9662C41.8729 25.5342 43.0644 25.8311 44.2742 25.8311C45.4839 25.8311 46.6754 25.5342 47.7454 24.9662C48.8154 24.3982 49.7316 23.5762 50.4145 22.5715C51.0581 23.5111 51.9064 24.2905 52.8947 24.8502C53.883 25.41 54.9853 25.7354 56.1176 25.8017L52.8549 35.4527ZM56.5091 23.2806C55.2295 23.2667 54.0074 22.7438 53.1099 21.826C52.2124 20.9082 51.7125 19.6703 51.7195 18.3829C51.7195 18.0346 51.582 17.7006 51.3373 17.4544C51.0925 17.2081 50.7606 17.0698 50.4145 17.0698C50.0683 17.0698 49.7364 17.2081 49.4916 17.4544C49.2469 17.7006 49.1094 18.0346 49.1094 18.3829C49.1435 19.043 49.0437 19.7032 48.8161 20.3233C48.5885 20.9434 48.2379 21.5104 47.7855 21.9897C47.3332 22.4691 46.7886 22.8509 46.1849 23.1117C45.5813 23.3726 44.9312 23.5071 44.2742 23.5071C43.6172 23.5071 42.9671 23.3726 42.3634 23.1117C41.7597 22.8509 41.2151 22.4691 40.7628 21.9897C40.3105 21.5104 39.9598 20.9434 39.7322 20.3233C39.5046 19.7032 39.4048 19.043 39.4389 18.3829C39.4389 18.0346 39.3014 17.7006 39.0567 17.4544C38.8119 17.2081 38.48 17.0698 38.1339 17.0698C37.7877 17.0698 37.4558 17.2081 37.2111 17.4544C36.9663 17.7006 36.8288 18.0346 36.8288 18.3829C36.8288 19.6714 36.3201 20.9071 35.4145 21.8182C34.509 22.7293 33.2808 23.2412 32.0001 23.2412C30.7194 23.2412 29.4912 22.7293 28.5857 21.8182C27.6801 20.9071 27.1714 19.6714 27.1714 18.3829C27.1714 18.0346 27.0339 17.7006 26.7891 17.4544C26.5444 17.2081 26.2125 17.0698 25.8663 17.0698C25.5202 17.0698 25.1883 17.2081 24.9435 17.4544C24.6988 17.7006 24.5613 18.0346 24.5613 18.3829C24.5954 19.043 24.4956 19.7032 24.268 20.3233C24.0404 20.9434 23.6897 21.5104 23.2374 21.9897C22.7851 22.4691 22.2405 22.8509 21.6368 23.1117C21.0331 23.3726 20.383 23.5071 19.726 23.5071C19.069 23.5071 18.4189 23.3726 17.8153 23.1117C17.2116 22.8509 16.667 22.4691 16.2147 21.9897C15.7623 21.5104 15.4117 20.9434 15.1841 20.3233C14.9565 19.7032 14.8567 19.043 14.8908 18.3829C14.8908 18.0346 14.7533 17.7006 14.5086 17.4544C14.2638 17.2081 13.9319 17.0698 13.5857 17.0698C13.2396 17.0698 12.9077 17.2081 12.6629 17.4544C12.4182 17.7006 12.2807 18.0346 12.2807 18.3829C12.2829 19.3306 12.0103 20.2584 11.4962 21.0526C10.9822 21.8468 10.2491 22.4728 9.3867 22.8541C8.52432 23.2354 7.57013 23.3553 6.64105 23.1991C5.71196 23.0429 4.84834 22.6174 4.15598 21.9748C3.46362 21.3322 2.97261 20.5003 2.7431 19.5812C2.51359 18.662 2.55555 17.6954 2.86384 16.7999C3.17213 15.9043 3.73336 15.1187 4.47876 14.5393C5.22417 13.9598 6.12138 13.6117 7.06046 13.5377C7.27247 13.521 7.47722 13.4525 7.65691 13.3381C7.8366 13.2237 7.98577 13.0668 8.09146 12.8811C11.6282 6.63096 21.0115 2.62612 31.974 2.62612C42.9365 2.62612 52.2024 6.56531 55.7913 12.6842C55.8847 12.9077 56.0377 13.1009 56.2335 13.2423C56.4293 13.3836 56.6602 13.4677 56.9006 13.4851C58.1812 13.5304 59.3916 14.0857 60.2653 15.0288C61.1391 15.9719 61.6046 17.2257 61.5596 18.5142C61.5146 19.8027 60.9628 21.0204 60.0254 21.8995C59.088 22.7786 57.8419 23.2471 56.5613 23.2018L56.5091 23.2806Z" fill="#EFA906"/>
</svg>
