<svg width="63" height="56" viewBox="0 0 63 56" fill="none" xmlns="http://www.w3.org/2000/svg">
<path d="M60.4461 23.1901H57.3971C56.7611 21.4879 55.8833 19.8876 54.7911 18.4392V3.38599C54.7911 3.03792 54.6538 2.70411 54.4095 2.45798C54.1651 2.21186 53.8337 2.07359 53.4881 2.07359C51.0738 2.00311 48.7226 2.85658 46.908 4.46215V3.38599C46.908 3.03792 46.7707 2.70411 46.5263 2.45798C46.282 2.21186 45.9505 2.07359 45.605 2.07359C43.2842 2.08782 41.0344 2.88172 39.2123 4.32949C37.3902 5.77727 36.0999 7.7961 35.5458 10.0661H26.4248C26.2664 8.27483 25.6757 6.54969 24.7043 5.04077C23.7329 3.53186 22.4102 2.28487 20.8512 1.4083C19.2922 0.531723 17.5441 0.0521218 15.7591 0.0112177C13.9741 -0.0296864 12.2061 0.369346 10.6092 1.1736C9.01218 1.97785 7.63449 3.16296 6.59597 4.62582C5.55745 6.08868 4.88954 7.78497 4.65037 9.56713C4.41119 11.3493 4.60799 13.1633 5.22364 14.8514C5.83929 16.5395 6.85515 18.0504 8.18282 19.2529C6.54697 21.8441 5.53004 24.782 5.21199 27.836C4.78365 28.2953 4.20553 28.5841 3.58324 28.6496C3.24446 28.5709 2.87962 28.0197 2.60599 27.1535C2.48948 26.8349 2.25489 26.5741 1.9515 26.426C1.64812 26.2779 1.29955 26.254 0.97905 26.3594C0.658546 26.4647 0.391055 26.6911 0.232781 26.9909C0.0745061 27.2907 0.0377692 27.6407 0.130289 27.9672C0.273178 28.7218 0.618211 29.4227 1.12806 29.9941C1.63791 30.5654 2.29317 30.9855 3.02295 31.2088C3.24094 31.2594 3.46378 31.2858 3.68748 31.2876C4.1953 31.28 4.69628 31.1684 5.15987 30.9595C5.15987 31.2351 5.15987 31.5238 5.15987 31.7994C5.47824 34.7732 6.47104 37.6336 8.06158 40.1595C9.65212 42.6854 11.7978 44.8092 14.333 46.367V52.0628C14.333 53.107 14.7448 54.1085 15.4779 54.8468C16.211 55.5852 17.2052 56 18.242 56H19.545C20.5817 56 21.576 55.5852 22.3091 54.8468C23.0421 54.1085 23.454 53.107 23.454 52.0628V49.3593C24.0143 49.3593 24.5876 49.438 25.1609 49.438H39.1942C39.7545 49.438 40.3018 49.438 40.849 49.3461V52.0628C40.849 53.107 41.2608 54.1085 41.9939 54.8468C42.727 55.5852 43.7213 56 44.758 56H46.061C47.0977 56 48.092 55.5852 48.8251 54.8468C49.5582 54.1085 49.97 53.107 49.97 52.0628V45.8158C52.0327 44.3001 53.7997 42.4136 55.182 40.2512H58.3092C58.7615 40.2533 59.2059 40.1325 59.5958 39.9016C59.9856 39.6706 60.3064 39.338 60.5243 38.9388C60.7651 38.5441 60.8927 38.0898 60.8927 37.6264C60.8927 37.1631 60.7651 36.7088 60.5243 36.314H60.394C61.0851 36.314 61.748 36.0375 62.2367 35.5453C62.7254 35.053 63 34.3854 63 33.6893V25.7492C62.9833 25.0735 62.7085 24.4303 62.2328 23.9536C61.7571 23.4769 61.1171 23.2034 60.4461 23.1901ZM52.1199 4.80338V15.5125C50.5545 13.9839 48.8033 12.661 46.908 11.5753V8.80619C47.3602 7.7429 48.0778 6.8155 48.9911 6.11411C49.9044 5.41272 50.9822 4.96119 52.1199 4.80338ZM44.302 4.80338V8.47809C44.302 8.47809 44.302 8.47809 44.302 8.55684V16.5231C44.302 16.5231 44.302 16.5231 44.302 16.6018V17.9142H43.5332C42.801 17.9316 42.0726 17.8029 41.39 17.5355C40.7074 17.2681 40.0841 16.8672 39.556 16.3561C39.0279 15.8449 38.6054 15.2335 38.313 14.5572C38.0206 13.8808 37.8639 13.1529 37.8521 12.4153C37.8876 10.5925 38.55 8.83851 39.7262 7.45273C40.9025 6.06695 42.5197 5.13521 44.302 4.8165V4.80338ZM7.12739 11.0504C7.08295 9.91682 7.26624 8.78589 7.66628 7.7254C8.06632 6.66491 8.67487 5.69671 9.45543 4.87886C10.236 4.061 11.1725 3.41034 12.2088 2.96589C13.2451 2.52143 14.3598 2.29233 15.4861 2.29233C16.6125 2.29233 17.7272 2.52143 18.7635 2.96589C19.7998 3.41034 20.7363 4.061 21.5168 4.87886C22.2974 5.69671 22.9059 6.66491 23.306 7.7254C23.706 8.78589 23.8893 9.91682 23.8449 11.0504C23.8449 11.1423 23.8449 11.2341 23.8449 11.326C23.825 11.8789 23.7508 12.4284 23.6234 12.9665C23.6234 12.9665 23.6234 12.9665 23.6234 13.0584C23.6234 13.1502 23.5061 13.4914 23.4409 13.7146C23.4005 13.8041 23.3657 13.8962 23.3367 13.9902C23.3367 14.1345 23.2325 14.2789 23.1673 14.4233L22.9328 14.9088L22.8416 15.0926C22.1167 16.4136 21.0543 17.5154 19.7644 18.2838C18.4746 19.0522 17.0042 19.4593 15.5057 19.4629C15.1175 19.4584 14.7301 19.4277 14.346 19.371H14.0984C13.719 19.3113 13.3445 19.2236 12.9779 19.1085C12.6066 18.9826 12.2451 18.8291 11.8964 18.6492H11.7791C11.4127 18.4601 11.06 18.2452 10.7237 18.0061C9.60845 17.228 8.69818 16.1881 8.07158 14.9762C7.44498 13.7642 7.12091 12.4168 7.12739 11.0504ZM20.848 52.0628C20.848 52.4109 20.7107 52.7447 20.4663 52.9908C20.222 53.2369 19.8906 53.3752 19.545 53.3752H18.242C17.8964 53.3752 17.565 53.2369 17.3206 52.9908C17.0763 52.7447 16.939 52.4109 16.939 52.0628V47.7188C18.1961 48.2842 19.5054 48.7238 20.848 49.0312V52.0628ZM47.351 52.0628C47.351 52.4109 47.2137 52.7447 46.9693 52.9908C46.725 53.2369 46.3936 53.3752 46.048 53.3752H44.745C44.3994 53.3752 44.068 53.2369 43.8236 52.9908C43.5793 52.7447 43.442 52.4109 43.442 52.0628V48.8868C44.7949 48.5437 46.1059 48.0508 47.351 47.4169V52.0628ZM58.218 35.0016C57.9893 35.4007 57.8688 35.8533 57.8688 36.314C57.8688 36.7748 57.9893 37.2274 58.218 37.6264L58.3483 37.6921H54.5305C54.3056 37.6907 54.0842 37.7481 53.8879 37.8585C53.6915 37.9688 53.5269 38.1285 53.4099 38.322C51.9657 40.8546 49.9001 42.9713 47.4111 44.4695C44.922 45.9678 42.0928 46.7973 39.1942 46.8788H25.1739C22.1029 46.8697 19.0864 46.0605 16.4178 44.5297C16.3128 44.4439 16.1937 44.3773 16.066 44.3328C14.0971 43.2168 12.3753 41.7074 11.0062 39.8973C9.63708 38.0871 8.64956 36.0143 8.10419 33.806C7.55882 31.5978 7.46709 29.3005 7.83463 27.0553C8.20217 24.81 9.02122 22.6641 10.2416 20.749C10.6137 20.9494 10.9965 21.1291 11.3882 21.2871L11.727 21.3921C12.0267 21.4971 12.3264 21.6021 12.626 21.6808L13.0169 21.7858L13.903 21.9564H14.2678C14.7 22.0109 15.1353 22.0372 15.5708 22.0352C15.9354 22.0548 16.3008 22.0548 16.6653 22.0352H16.8869L17.7338 21.9039H17.9162C18.2159 21.8383 18.5156 21.7596 18.8023 21.6677H18.8804C20.9366 21.0089 22.7512 19.7478 24.0924 18.0455H31.7541C32.0997 18.0455 32.4311 17.9072 32.6754 17.6611C32.9198 17.415 33.0571 17.0811 33.0571 16.7331C33.0571 16.385 32.9198 16.0512 32.6754 15.8051C32.4311 15.5589 32.0997 15.4207 31.7541 15.4207H25.5909C25.6155 15.3355 25.646 15.2522 25.6821 15.1713L25.8906 14.5807C25.9557 14.3839 26.0079 14.187 26.06 13.977C26.0964 13.8695 26.1269 13.7599 26.1512 13.6489C26.2163 13.3865 26.2554 13.1371 26.2945 12.8746C26.299 12.8398 26.299 12.8045 26.2945 12.7696H35.2331C35.2941 14.9434 36.1936 17.0076 37.7408 18.5243C39.288 20.041 41.3611 20.8908 43.5202 20.8934H45.605C45.7827 20.8945 45.9587 20.859 46.1223 20.789C46.2859 20.719 46.4335 20.6161 46.5561 20.4865C46.7917 20.3861 46.9926 20.218 47.1339 20.0033C47.2753 19.7886 47.3508 19.5367 47.351 19.2791V15.3419C49.211 16.7994 50.9103 18.4537 52.4196 20.2765C52.5984 20.4675 52.8299 20.6 53.0842 20.6571C54.0222 21.9552 54.7399 23.4009 55.2081 24.9356C55.2893 25.217 55.4617 25.4629 55.6979 25.6342C55.934 25.8054 56.2203 25.8921 56.5111 25.8805L60.4201 25.8149V33.7549C59.9814 33.7495 59.5489 33.8592 59.1651 34.0732C58.7813 34.2872 58.4594 34.5981 58.231 34.9754L58.218 35.0016Z" fill="#1799DE"/>
</svg>
