<svg width="67" height="47" viewBox="0 0 67 47" fill="none" xmlns="http://www.w3.org/2000/svg">
<path d="M66.9609 31.4946L66.1527 28.1739C66.0721 27.8409 65.8645 27.553 65.5744 27.3721C65.2843 27.1911 64.9349 27.1316 64.6016 27.2064C64.5104 27.2231 64.4225 27.2539 64.3409 27.2979C63.8916 27.3806 63.4279 27.2875 63.045 27.0377C62.6621 26.788 62.3892 26.4006 62.2823 25.9552C62.1755 25.5098 62.2428 25.0403 62.4706 24.6432C62.6983 24.2461 63.069 23.9516 63.5066 23.8203V22.5129L64.8101 22.1992L64.2366 19.8067C64.1979 19.6289 64.1227 19.4612 64.0158 19.3143C63.9088 19.1673 63.7724 19.0444 63.6154 18.9533C63.4584 18.8623 63.2841 18.8051 63.1037 18.7854C62.9234 18.7658 62.741 18.7841 62.5681 18.8392C62.479 18.8575 62.3918 18.8838 62.3074 18.9177C61.8623 19.0202 61.3949 18.9452 61.0039 18.7085C60.6037 18.4551 60.3183 18.0546 60.2087 17.5929C60.0991 17.1311 60.174 16.6447 60.4173 16.2376C60.5329 16.0434 60.6858 15.8741 60.867 15.7394C61.0482 15.6048 61.2542 15.5075 61.4732 15.4531L61.3949 14.1458L62.6984 13.832L61.8381 10.459C61.7575 10.1288 61.5518 9.84312 61.2646 9.66251C60.9775 9.4819 60.6315 9.42058 60.3 9.49153C60.2052 9.51008 60.1132 9.54084 60.0263 9.58305C59.5794 9.67762 59.1134 9.59816 58.7228 9.36079C58.3245 9.10735 58.0395 8.70909 57.9276 8.24953C57.8176 7.79187 57.8931 7.30915 58.1374 6.90721C58.3818 6.50528 58.7751 6.21694 59.2311 6.10544L59.1529 4.79807L60.4564 4.4843L59.57 0.993617C59.5332 0.82361 59.4628 0.662694 59.3632 0.520296C59.2635 0.377899 59.1365 0.256886 58.9896 0.164348C58.8427 0.0718107 58.6789 0.00961016 58.5077 -0.0186083C58.3366 -0.0468267 58.1615 -0.0404955 57.9928 1.45175e-05L49.129 2.15718L44.0584 3.46455L13.6607 10.8512L8.59008 12.0801L0.990661 13.9366C0.821158 13.9736 0.660717 14.0441 0.518742 14.1441C0.376766 14.244 0.256111 14.3714 0.163847 14.5187C0.0715834 14.6661 0.00956696 14.8304 -0.018568 15.0021C-0.0467029 15.1737 -0.0403904 15.3493 -2.83122e-07 15.5185L0.834241 18.9438C0.886139 19.12 0.974487 19.2833 1.09353 19.423C1.21256 19.5626 1.35962 19.6756 1.5251 19.7544C1.87214 19.9189 2.26919 19.9423 2.63307 19.8198C3.07807 19.7394 3.5369 19.8313 3.91696 20.077C4.29702 20.3227 4.57001 20.7038 4.68084 21.1435C4.79168 21.5832 4.7321 22.0486 4.51413 22.4459C4.29616 22.8433 3.93603 23.1429 3.50642 23.2843H3.33696C3.15846 23.3113 2.9875 23.3753 2.83492 23.472C2.68234 23.5688 2.55146 23.6963 2.45058 23.8465C2.35072 23.9967 2.28295 24.166 2.25154 24.3437C2.22013 24.5215 2.22577 24.7038 2.26809 24.8793L3.11537 28.3308C3.15868 28.5035 3.23674 28.6656 3.34474 28.807C3.45274 28.9484 3.58842 29.0661 3.74344 29.1531C3.89846 29.24 4.06955 29.2942 4.24622 29.3124C4.42289 29.3306 4.60141 29.3125 4.77082 29.259C4.81833 29.2664 4.86669 29.2664 4.9142 29.259C5.3592 29.1536 5.82771 29.2288 6.2177 29.4682C6.62283 29.717 6.91336 30.1165 7.02588 30.5794C7.13587 31.0371 7.06041 31.5198 6.81605 31.9217C6.5717 32.3237 6.17839 32.612 5.72237 32.7235H5.56595C5.38922 32.7527 5.22037 32.8181 5.06996 32.9156C4.91954 33.0132 4.79078 33.1407 4.69171 33.2904C4.59264 33.4401 4.52538 33.6086 4.49414 33.7855C4.46289 33.9624 4.46833 34.1438 4.51012 34.3185L5.21401 36.7241C5.26027 36.8989 5.34052 37.0628 5.45013 37.2064C5.55974 37.3499 5.69656 37.4704 5.85272 37.5608C6.0108 37.6475 6.18508 37.7004 6.36456 37.7162C6.54405 37.7319 6.72484 37.7102 6.89552 37.6523H7.01284C7.45814 37.5564 7.92309 37.6311 8.31634 37.8615C8.5169 37.9832 8.69076 38.1444 8.82743 38.3354C8.9641 38.5264 9.06073 38.7432 9.11148 38.9728C9.22147 39.4304 9.14601 39.9131 8.90166 40.3151C8.6573 40.717 8.26399 41.0053 7.80798 41.1168H7.62549C7.44929 41.1456 7.28086 41.2103 7.13063 41.307C6.9804 41.4037 6.85158 41.5303 6.75214 41.679C6.5574 41.9855 6.49177 42.3569 6.56965 42.7118L7.37782 46.0326C7.41768 46.1997 7.49 46.3573 7.59065 46.4964C7.6913 46.6355 7.8183 46.7533 7.9644 46.8431C8.17108 46.9611 8.40441 47.0241 8.64222 47.0262H8.95506L16.5545 45.1828L21.6121 43.9408L52.0097 36.528L57.1325 35.299L65.9963 33.1288C66.163 33.0888 66.3201 33.0163 66.4588 32.9153C66.5975 32.8144 66.7149 32.687 66.8045 32.5405C66.9017 32.3867 66.9659 32.2142 66.9928 32.0341C67.0198 31.854 67.0089 31.6702 66.9609 31.4946ZM9.60681 44.1107L9.38521 43.2348C10.2461 42.7793 10.9318 42.05 11.3347 41.1614C11.7375 40.2727 11.8347 39.275 11.611 38.3249C11.3872 37.3749 10.8552 36.5262 10.0984 35.9123C9.34168 35.2984 8.40306 34.9539 7.42996 34.933C8.29533 34.4747 8.98335 33.7397 9.38487 32.8446C9.78639 31.9496 9.87842 30.9456 9.64636 29.9921C9.41431 29.0386 8.87145 28.1901 8.10391 27.5813C7.33637 26.9724 6.3881 26.638 5.40953 26.6312L5.1358 25.5199C6.00024 25.0622 6.68776 24.3283 7.08952 23.4345C7.49128 22.5408 7.58434 21.5381 7.35395 20.5853C7.12356 19.6325 6.58289 18.784 5.81754 18.1741C5.05219 17.5642 4.10587 17.2278 3.1284 17.2181L2.89377 16.2376L7.9644 14.9956L11.3274 28.906L14.7165 42.8818L9.60681 44.1107ZM17.2062 42.2673L13.8171 28.2915L10.428 14.3811L13.035 13.7013L16.4241 27.6771L19.8132 41.6398L17.2062 42.2673ZM22.2638 41.0253L18.8747 27.0495L15.5508 13.0737L43.4066 6.28847L46.7957 20.2643L50.1848 34.227L22.2638 41.0253ZM52.6615 33.6125L49.3375 19.6106L45.9484 5.67401L48.4772 5.04647L51.8663 19.0223L55.2554 32.9981L52.6615 33.6125ZM57.7321 32.3836L54.343 18.4078L51.006 4.432L57.3541 2.88931L57.6017 3.88291C56.744 4.34391 56.0632 5.07754 55.6661 5.96863C55.269 6.85971 55.1782 7.85782 55.4079 8.80627C55.6376 9.75472 56.1748 10.5998 56.9352 11.2089C57.6956 11.818 58.6361 12.1567 59.6091 12.1716L59.8829 13.296C59.1908 13.6633 58.6134 14.2153 58.2144 14.891C57.9146 15.3831 57.7152 15.9301 57.628 16.5002C57.5407 17.0702 57.5672 17.652 57.706 18.2117C57.9781 19.3363 58.6805 20.3084 59.6613 20.918C60.3275 21.3326 61.0933 21.5585 61.8772 21.5716V21.6501C61.0137 22.1073 60.3267 22.84 59.9247 23.7325C59.5226 24.6249 59.4286 25.6263 59.6573 26.5784C59.886 27.5305 60.4245 28.3791 61.1877 28.99C61.9509 29.6009 62.8952 29.9393 63.8716 29.9519L64.0932 30.8409L57.7321 32.3836Z" fill="#DF4886"/>
</svg>
