<svg width="105" height="36" viewBox="0 0 105 36" fill="none" xmlns="http://www.w3.org/2000/svg">
<path d="M5.12402 4C5.12402 1.79086 6.91488 0 9.12402 0H101C103.209 0 105 1.79086 105 4V32C105 34.2091 103.209 36 101 36H9.12402C6.91488 36 5.12402 34.2091 5.12402 32V24.6856C5.12402 23.6078 4.68903 22.5755 3.91759 21.8228L1.46694 19.4314C0.662649 18.6466 0.662649 17.3534 1.46694 16.5686L3.91759 14.1772C4.68903 13.4245 5.12402 12.3922 5.12402 11.3144V4Z" fill="#1799DE"/>
<path d="M29.1144 14.1416C29.1571 14.082 29.094 14.0052 29.0257 14.0317C28.5402 14.2198 28.0328 14.3468 27.5152 14.4094C28.0915 14.0651 28.5362 13.541 28.7828 12.9205C28.8079 12.8573 28.7389 12.8009 28.6794 12.8337C28.1438 13.1295 27.5661 13.3425 26.966 13.4652C26.9409 13.4703 26.915 13.4618 26.8974 13.4432C26.4471 12.968 25.8543 12.6517 25.2081 12.5423C24.5483 12.4307 23.8702 12.5412 23.28 12.8566C22.6898 13.1719 22.221 13.6742 21.947 14.2847C21.6865 14.8652 21.6162 15.5122 21.7447 16.1337C21.7547 16.1819 21.7169 16.2274 21.6678 16.2243C20.5003 16.1518 19.3596 15.8413 18.3159 15.3114C17.2749 14.7829 16.353 14.0477 15.6065 13.151C15.5734 13.1112 15.5106 13.1164 15.4864 13.1622C15.2541 13.603 15.1325 14.0943 15.1328 14.5937C15.1319 15.0907 15.2539 15.5803 15.4879 16.0188C15.722 16.4573 16.0608 16.8311 16.4743 17.107C16.0358 17.095 15.6058 16.9866 15.2148 16.7901C15.1645 16.7648 15.104 16.8008 15.1066 16.8572C15.1371 17.5126 15.3777 18.1706 15.7942 18.6754C16.2374 19.2126 16.8526 19.5802 17.5356 19.7161C17.2727 19.7961 16.9997 19.8383 16.7249 19.8414C16.5753 19.8397 16.426 19.8286 16.2779 19.8084C16.2229 19.8009 16.1781 19.853 16.1973 19.905C16.4011 20.456 16.761 20.9367 17.2342 21.2876C17.7402 21.6628 18.3505 21.8709 18.9802 21.883C17.9168 22.7198 16.6039 23.1764 15.2508 23.1802C15.1117 23.1807 14.9728 23.1762 14.8341 23.1667C14.756 23.1614 14.72 23.2655 14.7874 23.3055C16.1058 24.0879 17.6127 24.5014 19.1497 24.4995C20.2846 24.5113 21.4104 24.2969 22.4614 23.8687C23.5124 23.4405 24.4675 22.8072 25.2711 22.0057C26.0746 21.2043 26.7103 20.2508 27.1412 19.2009C27.5721 18.1509 27.7894 17.0257 27.7805 15.8909V15.5372C27.7805 15.5139 27.7916 15.492 27.8101 15.478C28.31 15.1005 28.7497 14.6499 29.1144 14.1416Z" fill="white"/>
<path d="M39.6839 23V15.14H37.2599V14.06H43.2599V15.14H40.8719V23H39.6839ZM45.269 23L43.049 16.532H44.285L46.049 21.944L45.617 21.932L47.345 16.532H48.401L50.129 21.932L49.697 21.944L51.473 16.532H52.697L50.477 23H49.409L47.705 17.6H48.041L46.337 23H45.269ZM56.5539 23.144C55.9299 23.144 55.3739 22.996 54.8859 22.7C54.3979 22.404 54.0139 22 53.7339 21.488C53.4539 20.968 53.3139 20.388 53.3139 19.748C53.3139 19.1 53.4499 18.524 53.7219 18.02C54.0019 17.516 54.3779 17.12 54.8499 16.832C55.3299 16.536 55.8659 16.388 56.4579 16.388C56.9379 16.388 57.3619 16.476 57.7299 16.652C58.1059 16.82 58.4219 17.052 58.6779 17.348C58.9419 17.636 59.1419 17.968 59.2779 18.344C59.4219 18.712 59.4939 19.096 59.4939 19.496C59.4939 19.584 59.4859 19.684 59.4699 19.796C59.4619 19.9 59.4499 20 59.4339 20.096H54.1299V19.136H58.7859L58.2579 19.568C58.3299 19.152 58.2899 18.78 58.1379 18.452C57.9859 18.124 57.7619 17.864 57.4659 17.672C57.1699 17.48 56.8339 17.384 56.4579 17.384C56.0819 17.384 55.7379 17.48 55.4259 17.672C55.1139 17.864 54.8699 18.14 54.6939 18.5C54.5259 18.852 54.4579 19.272 54.4899 19.76C54.4579 20.232 54.5299 20.648 54.7059 21.008C54.8899 21.36 55.1459 21.636 55.4739 21.836C55.8099 22.028 56.1739 22.124 56.5659 22.124C56.9979 22.124 57.3619 22.024 57.6579 21.824C57.9539 21.624 58.1939 21.368 58.3779 21.056L59.3139 21.536C59.1859 21.832 58.9859 22.104 58.7139 22.352C58.4499 22.592 58.1339 22.784 57.7659 22.928C57.4059 23.072 57.0019 23.144 56.5539 23.144ZM63.925 23.144C63.301 23.144 62.745 22.996 62.257 22.7C61.769 22.404 61.385 22 61.105 21.488C60.825 20.968 60.685 20.388 60.685 19.748C60.685 19.1 60.821 18.524 61.093 18.02C61.373 17.516 61.749 17.12 62.221 16.832C62.701 16.536 63.237 16.388 63.829 16.388C64.309 16.388 64.733 16.476 65.101 16.652C65.477 16.82 65.793 17.052 66.049 17.348C66.313 17.636 66.513 17.968 66.649 18.344C66.793 18.712 66.865 19.096 66.865 19.496C66.865 19.584 66.857 19.684 66.841 19.796C66.833 19.9 66.821 20 66.805 20.096H61.501V19.136H66.157L65.629 19.568C65.701 19.152 65.661 18.78 65.509 18.452C65.357 18.124 65.133 17.864 64.837 17.672C64.541 17.48 64.205 17.384 63.829 17.384C63.453 17.384 63.109 17.48 62.797 17.672C62.485 17.864 62.241 18.14 62.065 18.5C61.897 18.852 61.829 19.272 61.861 19.76C61.829 20.232 61.901 20.648 62.077 21.008C62.261 21.36 62.517 21.636 62.845 21.836C63.181 22.028 63.545 22.124 63.937 22.124C64.369 22.124 64.733 22.024 65.029 21.824C65.325 21.624 65.565 21.368 65.749 21.056L66.685 21.536C66.557 21.832 66.357 22.104 66.085 22.352C65.821 22.592 65.505 22.784 65.137 22.928C64.777 23.072 64.373 23.144 63.925 23.144ZM70.9481 23.072C70.3161 23.072 69.8281 22.892 69.4841 22.532C69.1481 22.172 68.9801 21.664 68.9801 21.008V17.6H67.8041V16.532H68.0441C68.3321 16.532 68.5601 16.444 68.7281 16.268C68.8961 16.092 68.9801 15.86 68.9801 15.572V15.044H70.0961V16.532H71.5481V17.6H70.0961V20.972C70.0961 21.188 70.1281 21.376 70.1921 21.536C70.2641 21.696 70.3801 21.824 70.5401 21.92C70.7001 22.008 70.9121 22.052 71.1761 22.052C71.2321 22.052 71.3001 22.048 71.3801 22.04C71.4681 22.032 71.5481 22.024 71.6201 22.016V23C71.5161 23.024 71.4001 23.04 71.2721 23.048C71.1441 23.064 71.0361 23.072 70.9481 23.072ZM77.7801 23.072C77.1481 23.072 76.6601 22.892 76.3161 22.532C75.9801 22.172 75.8121 21.664 75.8121 21.008V17.6H74.6361V16.532H74.8761C75.1641 16.532 75.3921 16.444 75.5601 16.268C75.7281 16.092 75.8121 15.86 75.8121 15.572V15.044H76.9281V16.532H78.3801V17.6H76.9281V20.972C76.9281 21.188 76.9601 21.376 77.0241 21.536C77.0961 21.696 77.2121 21.824 77.3721 21.92C77.5321 22.008 77.7441 22.052 78.0081 22.052C78.0641 22.052 78.1321 22.048 78.2121 22.04C78.3001 22.032 78.3801 22.024 78.4521 22.016V23C78.3481 23.024 78.2321 23.04 78.1041 23.048C77.9761 23.064 77.8681 23.072 77.7801 23.072ZM79.9099 23V13.916H81.0259V17.792L80.8219 17.684C80.9819 17.276 81.2379 16.96 81.5899 16.736C81.9499 16.504 82.3699 16.388 82.8499 16.388C83.3139 16.388 83.7259 16.492 84.0859 16.7C84.4539 16.908 84.7419 17.196 84.9499 17.564C85.1659 17.932 85.2739 18.348 85.2739 18.812V23H84.1459V19.172C84.1459 18.812 84.0779 18.508 83.9419 18.26C83.8139 18.012 83.6339 17.82 83.4019 17.684C83.1699 17.54 82.9019 17.468 82.5979 17.468C82.3019 17.468 82.0339 17.54 81.7939 17.684C81.5539 17.82 81.3659 18.016 81.2299 18.272C81.0939 18.52 81.0259 18.82 81.0259 19.172V23H79.9099ZM86.8708 23V16.532H87.9868V23H86.8708ZM86.8708 15.5V14.06H87.9868V15.5H86.8708ZM92.0345 23.144C91.3865 23.144 90.8225 22.984 90.3425 22.664C89.8625 22.344 89.5225 21.912 89.3225 21.368L90.2105 20.936C90.3945 21.32 90.6465 21.624 90.9665 21.848C91.2865 22.072 91.6425 22.184 92.0345 22.184C92.3865 22.184 92.6785 22.1 92.9105 21.932C93.1425 21.764 93.2585 21.544 93.2585 21.272C93.2585 21.08 93.2025 20.928 93.0905 20.816C92.9865 20.696 92.8585 20.604 92.7065 20.54C92.5545 20.468 92.4145 20.416 92.2865 20.384L91.3145 20.108C90.7305 19.94 90.3025 19.7 90.0305 19.388C89.7665 19.076 89.6345 18.712 89.6345 18.296C89.6345 17.912 89.7305 17.58 89.9225 17.3C90.1225 17.012 90.3905 16.788 90.7265 16.628C91.0705 16.468 91.4545 16.388 91.8785 16.388C92.4465 16.388 92.9545 16.532 93.4025 16.82C93.8585 17.108 94.1825 17.512 94.3745 18.032L93.4625 18.452C93.3185 18.116 93.1025 17.852 92.8145 17.66C92.5265 17.46 92.2025 17.36 91.8425 17.36C91.5145 17.36 91.2545 17.444 91.0625 17.612C90.8705 17.772 90.7745 17.976 90.7745 18.224C90.7745 18.408 90.8225 18.56 90.9185 18.68C91.0145 18.792 91.1305 18.88 91.2665 18.944C91.4025 19 91.5345 19.048 91.6625 19.088L92.7185 19.4C93.2465 19.552 93.6545 19.788 93.9425 20.108C94.2385 20.428 94.3865 20.812 94.3865 21.26C94.3865 21.62 94.2865 21.944 94.0865 22.232C93.8865 22.52 93.6105 22.744 93.2585 22.904C92.9065 23.064 92.4985 23.144 92.0345 23.144Z" fill="white"/>
</svg>
