<svg width="20" height="18" viewBox="0 0 20 18" fill="none" xmlns="http://www.w3.org/2000/svg">
<path d="M6.5 3.5V1.8C6.5 1.3 6.675 0.875 7.025 0.525C7.375 0.175 7.8 0 8.3 0H11.7C12.2 0 12.625 0.175 12.975 0.525C13.325 0.875 13.5 1.3 13.5 1.8V3.5H17.7C18.2 3.5 18.625 3.675 18.975 4.025C19.325 4.375 19.5 4.8 19.5 5.3V15.7C19.5 16.2 19.325 16.625 18.975 16.975C18.625 17.325 18.2 17.5 17.7 17.5H2.3C1.8 17.5 1.375 17.325 1.025 16.975C0.675 16.625 0.5 16.2 0.5 15.7V5.3C0.5 4.8 0.675 4.375 1.025 4.025C1.375 3.675 1.8 3.5 2.3 3.5H6.5ZM8 3.5H12V1.8C12 1.73333 11.9667 1.66667 11.9 1.6C11.8333 1.53333 11.7667 1.5 11.7 1.5H8.3C8.23333 1.5 8.16667 1.53333 8.1 1.6C8.03333 1.66667 8 1.73333 8 1.8V3.5ZM18 11.75H12.5V12.6C12.5 12.85 12.4127 13.0627 12.238 13.238C12.0627 13.4127 11.85 13.5 11.6 13.5H8.4C8.15 13.5 7.93733 13.4127 7.762 13.238C7.58733 13.0627 7.5 12.85 7.5 12.6V11.75H2V15.7C2 15.7667 2.03333 15.8333 2.1 15.9C2.16667 15.9667 2.23333 16 2.3 16H17.7C17.7667 16 17.8333 15.9667 17.9 15.9C17.9667 15.8333 18 15.7667 18 15.7V11.75ZM9 12H11V10H9V12ZM2 10.25H7.5V9.4C7.5 9.15 7.58733 8.93733 7.762 8.762C7.93733 8.58733 8.15 8.5 8.4 8.5H11.6C11.85 8.5 12.0627 8.58733 12.238 8.762C12.4127 8.93733 12.5 9.15 12.5 9.4V10.25H18V5.3C18 5.23333 17.9667 5.16667 17.9 5.1C17.8333 5.03333 17.7667 5 17.7 5H2.3C2.23333 5 2.16667 5.03333 2.1 5.1C2.03333 5.16667 2 5.23333 2 5.3V10.25Z" fill="#667080"/>
</svg>
