<svg viewBox="0 0 24 24" xmlns="http://www.w3.org/2000/svg"><path fill="none"  stroke-linecap="round" stroke-linejoin="round" stroke-width="2" d="M11 4c0-1.11.89-2 2-2 1.1 0 2 .89 2 2v1c0 .55.44 1 1 1h3c.55 0 1 .44 1 1v3c0 .55-.45 1-1 1h-1c-1.11 0-2 .89-2 2 0 1.1.89 2 2 2h1c.55 0 1 .44 1 1v3c0 .55-.45 1-1 1h-3c-.56 0-1-.45-1-1v-1c0-1.11-.9-2-2-2 -1.11 0-2 .89-2 2v1c0 .55-.45 1-1 1H7c-.56 0-1-.45-1-1v-3c0-.56-.45-1-1-1H4c-1.11 0-2-.9-2-2 0-1.11.89-2 2-2h1c.55 0 1-.45 1-1V7c0-.56.44-1 1-1h3c.55 0 1-.45 1-1V4Z"/></svg>