<svg viewBox="0 0 24 24" xmlns="http://www.w3.org/2000/svg"><path fill="none" stroke="#4A5568" stroke-linecap="round" stroke-linejoin="round" stroke-width="2" d="M8.68 13.34c.2-.41.31-.86.31-1.35 0-.49-.12-.94-.32-1.35m0 2.68c-.5.98-1.51 1.65-2.69 1.65 -1.66 0-3-1.35-3-3 0-1.66 1.34-3 3-3 1.17 0 2.19.67 2.68 1.65m0 2.68l6.63 3.31m-6.64-6l6.63-3.32m0 0c.49.98 1.5 1.65 2.68 1.65 1.65 0 3-1.35 3-3 0-1.66-1.35-3-3-3 -1.66 0-3 1.34-3 3 0 .48.11.93.31 1.34Zm0 9.31c-.21.4-.32.85-.32 1.34 0 1.65 1.34 3 3 3 1.65 0 3-1.35 3-3 0-1.66-1.35-3-3-3 -1.18 0-2.2.67-2.69 1.65Z"/></svg>