<svg viewBox="0 0 24 24" xmlns="http://www.w3.org/2000/svg"><path fill="none" stroke="#4B5563" stroke-linecap="round" stroke-linejoin="round" stroke-width="2" d="M11.04 2.92c.29-.93 1.6-.93 1.9 0l1.51 4.67c.13.41.51.69.95.69h4.91c.96 0 1.37 1.23.58 1.8l-3.98 2.88c-.36.25-.5.7-.37 1.11l1.51 4.67c.29.92-.76 1.68-1.54 1.11l-3.98-2.89c-.36-.26-.83-.26-1.18 0l-3.98 2.88c-.79.56-1.84-.2-1.54-1.12l1.51-4.68c.13-.42-.02-.87-.37-1.12l-3.98-2.89c-.79-.57-.39-1.81.58-1.81h4.91c.43 0 .81-.28.95-.7l1.51-4.68Z"/></svg>