<svg viewBox="0 0 24 24" xmlns="http://www.w3.org/2000/svg"><g fill="none"><path d="M9 17c0 1.1-.9 2-2 2 -1.11 0-2-.9-2-2 0-1.11.89-2 2-2 1.1 0 2 .89 2 2Z"/><path d="M19 17c0 1.1-.9 2-2 2 -1.11 0-2-.9-2-2 0-1.11.89-2 2-2 1.1 0 2 .89 2 2Z"/><path fill="none"  stroke-linecap="round" stroke-linejoin="round" stroke-width="2" d="M13 16V6c0-.56-.45-1-1-1H4c-.56 0-1 .44-1 1v10c0 .55.44 1 1 1h1m8-1c0 .55-.45 1-1 1H9m4-1V8c0-.56.44-1 1-1h2.58c.26 0 .51.1.7.29l3.41 3.41c.18.18.29.44.29.7v4.58c0 .55-.45 1-1 1h-1m-6-1c0 .55.44 1 1 1h1m-10 0c0 1.1.89 2 2 2 1.1 0 2-.9 2-2m-4 0c0-1.11.89-2 2-2 1.1 0 2 .89 2 2m6 0c0 1.1.89 2 2 2 1.1 0 2-.9 2-2m-4 0c0-1.11.89-2 2-2 1.1 0 2 .89 2 2"/></g></svg>