<svg width="387" height="805" viewBox="0 0 387 805" fill="none" xmlns="http://www.w3.org/2000/svg">
<path d="M203.096 434.998C200.637 438.174 198.015 441.917 195.447 446.051C192.878 450.185 190.63 454.165 188.871 457.771L179.462 469.429L186.905 474.058C189.389 475.61 198.141 466.129 206.4 452.854C214.669 439.607 219.363 427.591 216.878 426.038L209.435 421.409L203.096 434.998Z" fill="#BF7700"/>
<path d="M202.685 434.743C200.226 437.919 197.604 441.663 195.035 445.796C192.467 449.93 190.246 453.9 188.46 457.516L179.051 469.174L186.494 473.804C188.978 475.356 197.729 465.874 205.989 452.599C214.258 439.352 218.952 427.336 216.467 425.784L209.024 421.155L202.685 434.743Z" fill="url(#paint0_linear_1811_1958)"/>
<path d="M209.032 421.184C211.517 422.736 206.823 434.752 198.554 447.999C190.284 461.246 181.543 470.756 179.059 469.203C176.574 467.651 181.268 455.635 189.537 442.388C197.824 429.102 206.548 419.631 209.032 421.184Z" fill="#FBE88C"/>
<path d="M207.926 422.93C210.123 424.307 205.709 435.395 198.054 447.683C190.372 459.98 182.389 468.823 180.154 467.429C177.957 466.052 182.371 454.963 190.026 442.676C197.719 430.406 205.729 421.552 207.926 422.93Z" fill="url(#paint1_linear_1811_1958)"/>
<path d="M207.777 424.439C209.676 425.614 205.318 436.018 198.058 447.681C190.787 459.317 183.37 467.819 181.46 466.617C179.562 465.442 183.92 455.038 191.179 443.375C198.45 431.739 205.878 423.265 207.777 424.439Z" fill="url(#paint2_linear_1811_1958)"/>
<path d="M13.5854 181.997C13.1962 186.63 13.2518 191.853 13.796 197.364C14.3677 202.864 15.4012 207.999 16.7153 212.46L14.6214 229.743L22.9789 228.877C29.2047 228.219 32.7808 213.342 30.9395 195.594C29.1087 177.873 22.5754 163.991 16.3496 164.649L7.9921 165.516L13.5854 181.997Z" fill="#BF7700"/>
<path d="M13.1013 182.054C12.7122 186.687 12.7678 191.91 13.312 197.42C13.8837 202.921 14.9172 208.056 16.2313 212.517L14.1373 229.8L22.4949 228.933C28.7311 228.303 32.2968 213.399 30.4555 195.651C28.6247 177.93 22.0914 164.048 15.8656 164.706L7.50806 165.572L13.1013 182.054Z" fill="url(#paint3_linear_1811_1958)"/>
<path d="M7.50843 165.573C13.7342 164.916 20.2675 178.798 22.0983 196.518C23.9291 214.239 20.3635 229.143 14.1377 229.801C7.91189 230.459 1.3786 216.576 -0.452194 198.856C-2.29347 181.108 1.27217 166.203 7.50843 165.573Z" fill="#FBE88C"/>
<path d="M7.76117 167.908C13.4481 167.329 19.4241 180.159 21.1184 196.605C22.8127 213.05 19.5848 226.848 13.8979 227.427C8.21099 228.006 2.23498 215.176 0.54067 198.731C-1.15364 182.285 2.07427 168.488 7.76117 167.908Z" fill="url(#paint4_linear_1811_1958)"/>
<path d="M8.46961 168.683C13.6624 168.133 19.2051 180.654 20.8803 196.633C22.5278 212.622 19.6473 226.003 14.4545 226.553C9.26178 227.103 3.71905 214.582 2.04391 198.603C0.385889 182.586 3.26638 169.205 8.46961 168.683Z" fill="url(#paint5_linear_1811_1958)"/>
<path d="M317.831 668.686C316.968 672.488 316.668 676.772 317.087 681.288C317.496 685.776 318.546 689.957 320.067 693.549L315.998 707.792L321.93 707.278C330.544 706.503 336.477 694.174 335.182 679.694C333.886 665.213 325.877 654.102 317.264 654.877L311.331 655.391L317.831 668.686Z" fill="#BF7700"/>
<path d="M317.401 668.723C316.538 672.525 316.238 676.809 316.657 681.324C317.065 685.813 318.116 689.994 319.637 693.586L315.568 707.829L321.5 707.314C330.114 706.54 336.047 694.211 334.751 679.731C333.456 665.25 325.447 654.139 316.834 654.913L310.901 655.428L317.401 668.723Z" fill="url(#paint6_linear_1811_1958)"/>
<path d="M310.865 655.41C319.479 654.636 327.487 665.747 328.783 680.227C330.079 694.708 324.145 707.037 315.532 707.811C306.918 708.585 298.909 697.474 297.614 682.994C296.328 668.541 302.251 656.184 310.865 655.41Z" fill="#FBE88C"/>
<path d="M311.026 657.34C318.997 656.62 326.421 666.942 327.616 680.324C328.821 693.733 323.309 705.175 315.338 705.895C307.367 706.615 299.943 696.293 298.748 682.912C297.571 669.492 303.055 658.06 311.026 657.34Z" fill="url(#paint7_linear_1811_1958)"/>
<path d="M311.27 659.805C318.422 659.175 325.093 668.425 326.185 680.456C327.25 692.497 322.307 702.775 315.155 703.406C308.003 704.036 301.332 694.786 300.24 682.755C299.175 670.714 304.09 660.446 311.27 659.805Z" fill="url(#paint8_linear_1811_1958)"/>
<path d="M61.4931 108.481C61.0347 110.519 60.8678 112.825 61.0883 115.237C61.3089 117.649 61.8674 119.869 62.6668 121.808L60.475 129.431L63.6503 129.142C68.2595 128.719 71.4369 122.111 70.7455 114.382C70.0437 106.625 65.7719 100.698 61.1523 101.093L57.977 101.382L61.4931 108.481Z" fill="#BF7700"/>
<path d="M61.2509 108.51C60.7925 110.548 60.6255 112.854 60.8461 115.266C61.0667 117.677 61.6252 119.897 62.4246 121.837L60.2328 129.46L63.4081 129.171C68.0173 128.748 71.1947 122.14 70.5033 114.411C69.8015 106.654 65.5296 100.726 60.91 101.122L57.7348 101.411L61.2509 108.51Z" fill="url(#paint9_linear_1811_1958)"/>
<path d="M57.7538 101.372C62.363 100.949 66.6453 106.904 67.3471 114.661C68.049 122.418 64.8715 129.026 60.2519 129.421C55.6428 129.844 51.3605 123.889 50.6586 116.132C49.9673 108.403 53.1447 101.795 57.7538 101.372Z" fill="#FBE88C"/>
<path d="M57.8583 102.407C62.1323 102.016 66.0984 107.555 66.7287 114.707C67.3694 121.887 64.4251 128.027 60.1407 128.39C55.8667 128.78 51.9006 123.242 51.2703 116.09C50.6296 108.91 53.5843 102.798 57.8583 102.407Z" fill="url(#paint10_linear_1811_1958)"/>
<path d="M57.9816 103.717C61.7995 103.374 65.3866 108.329 65.969 114.773C66.5515 121.217 63.8984 126.71 60.0529 127.064C56.2349 127.408 52.6479 122.452 52.0655 116.008C51.483 109.564 54.1361 104.072 57.9816 103.717Z" fill="url(#paint11_linear_1811_1958)"/>
<path d="M161.75 632.888C163.721 638.078 166.725 643.413 170.717 648.437C174.708 653.46 179.215 657.593 183.855 660.664L190.186 680.751L196.811 675.488C206.413 667.832 203.798 648.545 190.927 632.362C178.066 616.207 159.837 609.292 150.235 616.948L143.61 622.212L161.75 632.888Z" fill="#BF7700"/>
<path d="M161.274 633.291C163.244 638.481 166.248 643.816 170.24 648.84C174.232 653.863 178.766 657.985 183.379 661.067L189.709 681.154L196.334 675.891C205.937 668.235 203.322 648.948 190.451 632.765C177.59 616.61 159.36 609.695 149.758 617.351L143.133 622.615L161.274 633.291Z" fill="url(#paint12_linear_1811_1958)"/>
<path d="M143.09 622.603C133.479 630.25 136.118 649.559 148.985 665.73C161.852 681.901 180.074 688.811 189.685 681.164C199.295 673.517 196.656 654.209 183.789 638.038C170.922 621.866 152.7 614.956 143.09 622.603Z" fill="#FBE88C"/>
<path d="M144.827 624.75C153.733 617.673 170.623 624.055 182.539 639.053C194.444 654.023 196.908 671.913 187.974 679.001C179.068 686.077 162.179 679.696 150.263 664.698C138.357 649.728 135.921 631.827 144.827 624.75Z" fill="url(#paint13_linear_1811_1958)"/>
<path d="M147.015 627.522C155.025 621.164 170.187 626.906 180.88 640.346C191.584 653.814 193.785 669.847 185.785 676.232C177.774 682.589 162.612 676.847 151.919 663.407C141.215 649.939 139.032 633.869 147.015 627.522Z" fill="url(#paint14_linear_1811_1958)"/>
<path d="M68.706 26.3005C69.4501 28.2608 70.5989 30.2885 72.1066 32.18C73.6144 34.0715 75.3143 35.6373 77.0818 36.7984L79.4697 44.4205L81.9676 42.4299C85.6059 39.5326 84.6052 32.2367 79.7449 26.0901C74.8675 19.9816 67.9649 17.3584 64.3266 20.2557L61.8287 22.2463L68.706 26.3005Z" fill="#BF7700"/>
<path d="M68.5165 26.4679C69.2606 28.4281 70.4094 30.4559 71.9172 32.3474C73.4249 34.2389 75.1248 35.8047 76.8923 36.9658L79.2803 44.588L81.7781 42.5973C85.4164 39.7 84.4157 32.4041 79.5554 26.2575C74.678 20.149 67.7754 17.5258 64.1371 20.4231L61.6392 22.4137L68.5165 26.4679Z" fill="url(#paint15_linear_1811_1958)"/>
<path d="M61.64 22.4131C65.2782 19.5158 72.1809 22.1391 77.0583 28.2476C81.9357 34.3561 82.9193 41.6901 79.281 44.5874C75.6428 47.4847 68.7401 44.8615 63.8627 38.753C59.0128 32.6339 58.0017 25.3104 61.64 22.4131Z" fill="#FBE88C"/>
<path d="M62.2976 23.2371C65.6741 20.5655 72.054 22.9765 76.5771 28.651C81.1002 34.3254 82.0227 41.0824 78.6291 43.7921C75.2526 46.4637 68.8727 44.0527 64.3496 38.3783C59.854 32.6933 58.9211 25.9087 62.2976 23.2371Z" fill="url(#paint16_linear_1811_1958)"/>
<path d="M63.137 24.2767C66.1689 21.8623 71.8946 24.0479 75.9729 29.1331C80.0237 34.2288 80.8536 40.3259 77.8112 42.7128C74.7793 45.1272 69.0536 42.9417 64.9753 37.8565C60.9246 32.7608 60.1051 26.6912 63.137 24.2767Z" fill="url(#paint17_linear_1811_1958)"/>
<path d="M120.073 394.683C118.262 399.982 117.46 405.941 117.959 412.163C118.457 418.386 120.198 424.138 122.859 429.066L114.412 448.919L119.433 448.498C135.641 447.178 147.493 429.886 145.877 409.904C144.252 389.895 129.777 374.731 113.569 376.051L108.548 376.473L120.073 394.683Z" fill="#BF7700"/>
<path d="M119.615 394.73C117.805 400.029 117.003 405.988 117.501 412.211C118 418.434 119.741 424.185 122.401 429.113L113.955 448.967L118.975 448.545C135.184 447.225 147.035 429.934 145.42 409.952C143.794 389.942 129.32 374.779 113.111 376.099L108.091 376.52L119.615 394.73Z" fill="url(#paint18_linear_1811_1958)"/>
<path d="M81.6327 415.101C83.2528 435.113 97.7184 450.271 113.942 448.958C130.166 447.644 142.005 430.357 140.385 410.345C138.765 390.333 124.299 375.175 108.075 376.488C91.8513 377.802 80.0125 395.09 81.6327 415.101Z" fill="#FBE88C"/>
<path d="M108.3 379.157C123.437 377.928 136.95 391.972 138.431 410.52C139.94 429.057 128.869 445.074 113.731 446.303C98.5935 447.533 85.0811 433.488 83.5995 414.94C82.0903 396.403 93.1622 380.386 108.3 379.157Z" fill="url(#paint19_linear_1811_1958)"/>
<path d="M108.562 382.343C122.266 381.248 134.48 393.953 135.851 410.711C137.204 427.507 127.201 442.012 113.497 443.108C99.7937 444.203 87.5793 431.499 86.2087 414.741C84.8275 397.955 94.8582 383.439 108.562 382.343Z" fill="url(#paint20_linear_1811_1958)"/>
<path d="M263.541 557.449C265.191 561.213 267.694 564.812 271.045 567.899C274.397 570.986 278.18 573.214 282.067 574.549L287.36 589.408L289.865 586.688C297.945 577.935 295.734 562.791 284.969 552.821C274.176 542.862 258.891 541.873 250.811 550.626L248.306 553.346L263.541 557.449Z" fill="#BF7700"/>
<path d="M263.318 557.69C264.968 561.455 267.471 565.053 270.822 568.14C274.174 571.227 277.957 573.455 281.816 574.801L287.147 589.677L289.653 586.957C297.733 578.204 295.522 563.06 284.757 553.09C273.964 543.131 258.679 542.141 250.599 550.895L248.093 553.614L263.318 557.69Z" fill="url(#paint21_linear_1811_1958)"/>
<path d="M248.084 553.588C256.164 544.834 271.449 545.823 282.242 555.783C293.035 565.742 295.218 580.896 287.138 589.65C279.057 598.403 263.773 597.414 252.98 587.454C242.225 577.512 240.003 562.341 248.084 553.588Z" fill="#FBE88C"/>
<path d="M249.503 554.913C257.046 546.742 271.269 547.598 281.258 556.851C291.236 566.078 293.245 580.193 285.702 588.363C278.158 596.533 263.935 595.678 253.947 586.424C243.969 577.198 241.987 563.072 249.503 554.913Z" fill="url(#paint22_linear_1811_1958)"/>
<path d="M251.241 556.496C258.068 549.103 270.933 549.874 279.988 558.25C289.032 566.599 290.846 579.366 284.019 586.759C277.191 594.153 264.327 593.382 255.272 585.005C246.2 576.667 244.413 563.889 251.241 556.496Z" fill="url(#paint23_linear_1811_1958)"/>
<path d="M80.0394 204.12C83.1866 205.421 86.5604 207.236 89.9601 209.451C93.3598 211.667 96.3282 214.078 98.771 216.436L110.703 220.908L107.316 226.048C104.791 229.881 93.9027 227.16 82.9999 219.99C72.0972 212.821 65.3005 203.903 67.8255 200.07L71.2127 194.93L80.0394 204.12Z" fill="#FFF3B4"/>
<path d="M80.247 203.82C83.3941 205.121 86.7679 206.936 90.1676 209.152C93.5397 211.378 96.5357 213.778 98.9785 216.136L110.911 220.609L107.523 225.748C104.998 229.581 94.1102 226.86 83.2075 219.691C72.3047 212.521 65.508 203.603 68.033 199.77L71.4203 194.631L80.247 203.82Z" fill="url(#paint24_linear_1811_1958)"/>
<path d="M71.3903 194.642C68.8653 198.475 75.662 207.392 86.5648 214.562C97.4675 221.731 108.356 224.453 110.881 220.62C113.406 216.787 106.609 207.869 95.7063 200.699C84.8036 193.53 73.9153 190.809 71.3903 194.642Z" fill="#F8CA27"/>
<path d="M72.8622 195.6C70.557 199.097 76.8946 207.304 87.0003 213.955C97.106 220.606 107.174 223.165 109.452 219.678C111.757 216.181 105.42 207.974 95.3139 201.323C85.1977 194.645 75.1673 192.103 72.8622 195.6Z" fill="url(#paint25_linear_1811_1958)"/>
<path d="M73.1211 196.291C71.0186 199.49 77.2752 207.317 87.0933 213.793C96.9114 220.269 106.6 222.908 108.702 219.71C110.805 216.511 104.548 208.683 94.7302 202.207C84.8844 195.742 75.2235 193.092 73.1211 196.291Z" fill="url(#paint26_linear_1811_1958)"/>
<path d="M254.73 412.584C257.464 417.042 260.075 422.337 262.286 428.163C264.498 433.988 266.059 439.682 266.971 444.831L277.811 461.154L268.976 464.508C262.377 467.012 251.274 453.823 244.147 435.049C237.02 416.274 236.602 399.029 243.172 396.534L252.007 393.181L254.73 412.584Z" fill="#FFF3B4"/>
<path d="M255.253 412.385C257.987 416.844 260.598 422.139 262.809 427.964C265.02 433.79 266.582 439.483 267.494 444.633L278.333 460.955L269.499 464.309C262.9 466.814 251.797 453.624 244.67 434.85C237.543 416.076 237.125 398.83 243.695 396.336L252.53 392.982L255.253 412.385Z" fill="url(#paint27_linear_1811_1958)"/>
<path d="M252.531 392.982C245.944 395.482 246.381 412.726 253.506 431.496C260.631 450.266 271.748 463.456 278.335 460.955C284.922 458.455 284.485 441.211 277.36 422.441C270.235 403.671 259.119 390.481 252.531 392.982Z" fill="#F8CA27"/>
<path d="M253.472 395.468C247.454 397.752 247.95 413.705 254.553 431.099C261.156 448.492 271.398 460.745 277.389 458.471C283.38 456.197 282.912 440.234 276.309 422.84C269.706 405.446 259.464 393.193 253.472 395.468Z" fill="url(#paint28_linear_1811_1958)"/>
<path d="M253.15 396.6C247.655 398.686 248.381 414.077 254.806 431.002C261.23 447.926 270.901 459.922 276.395 457.837C281.89 455.751 281.164 440.359 274.739 423.435C268.315 406.51 258.644 394.514 253.15 396.6Z" fill="url(#paint29_linear_1811_1958)"/>
<path d="M193.969 337.823C196.453 340.954 198.666 344.789 200.301 349.096C201.936 353.403 202.825 357.741 203.045 361.732L213.183 373.045L207.468 375.215C199.185 378.359 188.19 369.614 182.897 355.671C177.604 341.729 180.027 327.89 188.31 324.746L194.025 322.576L193.969 337.823Z" fill="#FFF3B4"/>
<path d="M194.384 337.665C196.868 340.797 199.081 344.631 200.716 348.938C202.351 353.245 203.24 357.583 203.46 361.574L213.598 372.888L207.883 375.057C199.6 378.201 188.605 369.456 183.312 355.514C178.02 341.571 180.442 327.732 188.725 324.588L194.44 322.419L194.384 337.665Z" fill="url(#paint30_linear_1811_1958)"/>
<path d="M194.423 322.458C186.143 325.601 183.72 339.447 189.01 353.383C194.301 367.32 205.301 376.07 213.581 372.927C221.861 369.784 224.284 355.938 218.993 342.001C213.703 328.065 202.702 319.315 194.423 322.458Z" fill="#F8CA27"/>
<path d="M195.123 324.308C187.438 327.226 185.183 340.06 190.086 352.975C194.988 365.89 205.193 373.995 212.878 371.078C220.563 368.161 222.818 355.326 217.915 342.411C213.013 329.496 202.808 321.391 195.123 324.308Z" fill="url(#paint31_linear_1811_1958)"/>
<path d="M196.037 326.709C189.144 329.326 187.123 340.841 191.523 352.429C195.922 364.018 205.075 371.291 211.967 368.675C218.859 366.059 220.88 354.543 216.481 342.955C212.082 331.366 202.929 324.093 196.037 326.709Z" fill="url(#paint32_linear_1811_1958)"/>
<path d="M131.14 604.424C129.106 609.05 126.347 614.014 122.952 618.967C119.557 623.92 115.914 628.303 112.33 631.843L105.35 649.402L97.8288 644.234C92.2312 640.389 96.5525 624.313 107.514 608.338C118.475 592.363 131.895 582.531 137.531 586.393L145.052 591.562L131.14 604.424Z" fill="#FFF3B4"/>
<path d="M131.605 604.721C129.571 609.347 126.812 614.311 123.417 619.264C120.022 624.217 116.379 628.6 112.796 632.14L105.798 649.738L98.277 644.569C92.6794 640.724 97.0008 624.648 107.962 608.674C118.924 592.699 132.343 582.867 137.979 586.729L145.5 591.897L131.605 604.721Z" fill="url(#paint33_linear_1811_1958)"/>
<path d="M145.46 591.88C139.862 588.035 126.405 597.851 115.443 613.825C104.482 629.8 100.16 645.876 105.758 649.721C111.355 653.566 124.813 643.751 135.775 627.776C146.736 611.801 151.095 595.743 145.46 591.88Z" fill="#F8CA27"/>
<path d="M144.026 594.004C138.9 590.486 126.518 599.64 116.377 614.45C106.237 629.26 102.146 644.111 107.262 647.603C112.388 651.121 124.77 641.967 134.91 627.157C145.061 612.374 149.152 597.523 144.026 594.004Z" fill="url(#paint34_linear_1811_1958)"/>
<path d="M142.965 594.375C138.272 591.165 126.485 600.22 116.626 614.608C106.768 628.995 102.55 643.263 107.215 646.482C111.908 649.692 123.696 640.637 133.554 626.25C143.44 611.852 147.631 597.594 142.965 594.375Z" fill="url(#paint35_linear_1811_1958)"/>
<path d="M156.513 741.484C161.772 743.689 167.456 746.68 173.143 750.428C178.831 754.176 183.865 758.203 187.953 762.148L207.982 769.644L202.317 778.269C198.095 784.705 179.813 780.147 161.532 768.103C143.223 756.069 131.823 741.097 136.045 734.661L141.709 726.035L156.513 741.484Z" fill="#FFF3B4"/>
<path d="M156.856 740.975C162.116 743.18 167.8 746.171 173.487 749.919C179.174 753.667 184.209 757.694 188.296 761.639L208.325 769.134L202.66 777.76C198.439 784.196 180.157 779.638 161.875 767.593C143.567 755.56 132.166 740.587 136.388 734.152L142.053 725.526L156.856 740.975Z" fill="url(#paint36_linear_1811_1958)"/>
<path d="M142.047 725.591C137.825 732.027 149.226 746.999 167.535 759.033C185.843 771.067 204.087 775.608 208.32 769.2C212.542 762.764 201.141 747.792 182.832 735.758C164.541 723.686 146.269 719.156 142.047 725.591Z" fill="#F8CA27"/>
<path d="M144.478 727.164C140.606 733.024 151.249 746.831 168.185 757.996C185.149 769.151 202.01 773.459 205.871 767.571C209.743 761.71 199.1 747.903 182.163 736.738C165.21 725.611 148.322 721.314 144.478 727.164Z" fill="url(#paint37_linear_1811_1958)"/>
<path d="M144.902 728.361C141.373 733.712 151.868 746.88 168.361 757.708C184.854 768.536 201.075 772.992 204.603 767.641C208.132 762.29 197.637 749.122 181.144 738.294C164.679 727.455 148.43 723.01 144.902 728.361Z" fill="url(#paint38_linear_1811_1958)"/>
<path d="M103.722 526.555C101.416 533.211 100.405 540.701 101.045 548.545C101.675 556.361 103.889 563.607 107.218 569.797L96.6072 594.768L102.924 594.265C123.334 592.614 138.226 570.851 136.192 545.69C134.148 520.501 115.953 501.443 95.5427 503.095L89.2264 503.597L103.722 526.555Z" fill="#BF7700"/>
<path d="M103.141 526.618C100.835 533.274 99.8249 540.764 100.465 548.608C101.094 556.424 103.308 563.67 106.637 569.86L96.0267 594.831L102.343 594.328C122.753 592.677 137.646 570.914 135.612 545.753C133.568 520.564 115.372 501.506 94.9621 503.157L88.6458 503.66L103.141 526.618Z" fill="url(#paint39_linear_1811_1958)"/>
<path d="M55.3689 552.235C57.4076 577.417 75.6125 596.49 96.0308 594.837C116.449 593.184 131.349 571.431 129.31 546.249C127.271 521.068 109.066 501.994 88.6481 503.647C68.2299 505.3 53.3303 527.054 55.3689 552.235Z" fill="#FBE88C"/>
<path d="M88.9055 507.004C107.965 505.454 124.945 523.141 126.847 546.457C128.721 569.784 114.811 589.974 95.7409 591.495C76.6816 593.045 59.7015 575.358 57.7998 552.042C55.9256 528.715 69.8462 508.553 88.9055 507.004Z" fill="url(#paint40_linear_1811_1958)"/>
<path d="M89.2327 511.018C106.485 509.618 121.872 525.604 123.571 546.723C125.27 567.841 112.683 586.107 95.4309 587.508C78.1788 588.908 62.792 572.922 61.0927 551.803C59.3829 530.657 71.97 512.391 89.2327 511.018Z" fill="url(#paint41_linear_1811_1958)"/>
<defs>
<linearGradient id="paint0_linear_1811_1958" x1="184.721" y1="473.434" x2="215.182" y2="424.64" gradientUnits="userSpaceOnUse">
<stop stop-color="#A76800"/>
<stop offset="0.0227" stop-color="#C07F09"/>
<stop offset="0.0531" stop-color="#DB9713"/>
<stop offset="0.0841" stop-color="#EEA81A"/>
<stop offset="0.1159" stop-color="#F9B31E"/>
<stop offset="0.1495" stop-color="#FDB61F"/>
<stop offset="0.2216" stop-color="#E19D15"/>
<stop offset="0.3594" stop-color="#A26600"/>
<stop offset="0.4308" stop-color="#AA6900"/>
<stop offset="0.484" stop-color="#B36C00"/>
<stop offset="0.5211" stop-color="#C7820A"/>
<stop offset="0.5979" stop-color="#F9BB23"/>
<stop offset="0.6043" stop-color="#FAC434"/>
<stop offset="0.6184" stop-color="#FBD453"/>
<stop offset="0.6339" stop-color="#FDE16D"/>
<stop offset="0.651" stop-color="#FEEB80"/>
<stop offset="0.6706" stop-color="#FEF38E"/>
<stop offset="0.6946" stop-color="#FFF797"/>
<stop offset="0.7367" stop-color="#FFF899"/>
<stop offset="0.7602" stop-color="#FFF694"/>
<stop offset="0.7868" stop-color="#FFF087"/>
<stop offset="0.8149" stop-color="#FFE670"/>
<stop offset="0.8438" stop-color="#FFD951"/>
<stop offset="0.8612" stop-color="#FFCF3A"/>
<stop offset="0.9964" stop-color="#CF8F00"/>
</linearGradient>
<linearGradient id="paint1_linear_1811_1958" x1="197.94" y1="447.612" x2="190.207" y2="442.785" gradientUnits="userSpaceOnUse">
<stop offset="0.00711744" stop-color="#FFE875"/>
<stop offset="0.1979" stop-color="#FEE571"/>
<stop offset="0.3781" stop-color="#FBDE66"/>
<stop offset="0.5541" stop-color="#F6D153"/>
<stop offset="0.7276" stop-color="#EFBF38"/>
<stop offset="0.8976" stop-color="#E7A816"/>
<stop offset="0.9893" stop-color="#E19900"/>
</linearGradient>
<linearGradient id="paint2_linear_1811_1958" x1="197.96" y1="447.621" x2="191.324" y2="443.479" gradientUnits="userSpaceOnUse">
<stop stop-color="#FDCE1F"/>
<stop offset="0.151" stop-color="#FED638"/>
<stop offset="0.3527" stop-color="#FEDE53"/>
<stop offset="0.5587" stop-color="#FFE366"/>
<stop offset="0.7696" stop-color="#FFE771"/>
<stop offset="0.9929" stop-color="#FFE875"/>
</linearGradient>
<linearGradient id="paint3_linear_1811_1958" x1="24.0414" y1="229.451" x2="17.2967" y2="164.189" gradientUnits="userSpaceOnUse">
<stop stop-color="#A76800"/>
<stop offset="0.0227" stop-color="#C07F09"/>
<stop offset="0.0531" stop-color="#DB9713"/>
<stop offset="0.0841" stop-color="#EEA81A"/>
<stop offset="0.1159" stop-color="#F9B31E"/>
<stop offset="0.1495" stop-color="#FDB61F"/>
<stop offset="0.2216" stop-color="#E19D15"/>
<stop offset="0.3594" stop-color="#A26600"/>
<stop offset="0.4308" stop-color="#AA6900"/>
<stop offset="0.484" stop-color="#B36C00"/>
<stop offset="0.5211" stop-color="#C7820A"/>
<stop offset="0.5979" stop-color="#F9BB23"/>
<stop offset="0.6043" stop-color="#FAC434"/>
<stop offset="0.6184" stop-color="#FBD453"/>
<stop offset="0.6339" stop-color="#FDE16D"/>
<stop offset="0.651" stop-color="#FEEB80"/>
<stop offset="0.6706" stop-color="#FEF38E"/>
<stop offset="0.6946" stop-color="#FFF797"/>
<stop offset="0.7367" stop-color="#FFF899"/>
<stop offset="0.7602" stop-color="#FFF694"/>
<stop offset="0.7868" stop-color="#FFF087"/>
<stop offset="0.8149" stop-color="#FFE670"/>
<stop offset="0.8438" stop-color="#FFD951"/>
<stop offset="0.8612" stop-color="#FFCF3A"/>
<stop offset="0.9964" stop-color="#CF8F00"/>
</linearGradient>
<linearGradient id="paint4_linear_1811_1958" x1="20.8327" y1="196.636" x2="0.945747" y2="198.692" gradientUnits="userSpaceOnUse">
<stop offset="0.00711744" stop-color="#FFE875"/>
<stop offset="0.1979" stop-color="#FEE571"/>
<stop offset="0.3781" stop-color="#FBDE66"/>
<stop offset="0.5541" stop-color="#F6D153"/>
<stop offset="0.7276" stop-color="#EFBF38"/>
<stop offset="0.8976" stop-color="#E7A816"/>
<stop offset="0.9893" stop-color="#E19900"/>
</linearGradient>
<linearGradient id="paint5_linear_1811_1958" x1="20.5917" y1="196.661" x2="2.40404" y2="198.541" gradientUnits="userSpaceOnUse">
<stop stop-color="#FDCE1F"/>
<stop offset="0.151" stop-color="#FED638"/>
<stop offset="0.3527" stop-color="#FEDE53"/>
<stop offset="0.5587" stop-color="#FFE366"/>
<stop offset="0.7696" stop-color="#FFE771"/>
<stop offset="0.9929" stop-color="#FFE875"/>
</linearGradient>
<linearGradient id="paint6_linear_1811_1958" x1="326.337" y1="707.418" x2="321.602" y2="654.175" gradientUnits="userSpaceOnUse">
<stop stop-color="#A76800"/>
<stop offset="0.0227" stop-color="#C07F09"/>
<stop offset="0.0531" stop-color="#DB9713"/>
<stop offset="0.0841" stop-color="#EEA81A"/>
<stop offset="0.1159" stop-color="#F9B31E"/>
<stop offset="0.1495" stop-color="#FDB61F"/>
<stop offset="0.2216" stop-color="#E19D15"/>
<stop offset="0.3594" stop-color="#A26600"/>
<stop offset="0.4308" stop-color="#AA6900"/>
<stop offset="0.484" stop-color="#B36C00"/>
<stop offset="0.5211" stop-color="#C7820A"/>
<stop offset="0.5979" stop-color="#F9BB23"/>
<stop offset="0.6043" stop-color="#FAC434"/>
<stop offset="0.6184" stop-color="#FBD453"/>
<stop offset="0.6339" stop-color="#FDE16D"/>
<stop offset="0.651" stop-color="#FEEB80"/>
<stop offset="0.6706" stop-color="#FEF38E"/>
<stop offset="0.6946" stop-color="#FFF797"/>
<stop offset="0.7367" stop-color="#FFF899"/>
<stop offset="0.7602" stop-color="#FFF694"/>
<stop offset="0.7868" stop-color="#FFF087"/>
<stop offset="0.8149" stop-color="#FFE670"/>
<stop offset="0.8438" stop-color="#FFD951"/>
<stop offset="0.8612" stop-color="#FFCF3A"/>
<stop offset="0.9964" stop-color="#CF8F00"/>
</linearGradient>
<linearGradient id="paint7_linear_1811_1958" x1="327.286" y1="680.367" x2="298.989" y2="682.884" gradientUnits="userSpaceOnUse">
<stop offset="0.00711744" stop-color="#FFE875"/>
<stop offset="0.1979" stop-color="#FEE571"/>
<stop offset="0.3781" stop-color="#FBDE66"/>
<stop offset="0.5541" stop-color="#F6D153"/>
<stop offset="0.7276" stop-color="#EFBF38"/>
<stop offset="0.8976" stop-color="#E7A816"/>
<stop offset="0.9893" stop-color="#E19900"/>
</linearGradient>
<linearGradient id="paint8_linear_1811_1958" x1="294.809" y1="683.254" x2="331.253" y2="680.013" gradientUnits="userSpaceOnUse">
<stop offset="0.00711744" stop-color="#FFE875"/>
<stop offset="0.2304" stop-color="#FFE771"/>
<stop offset="0.4413" stop-color="#FFE366"/>
<stop offset="0.6473" stop-color="#FEDE53"/>
<stop offset="0.849" stop-color="#FED638"/>
<stop offset="1" stop-color="#FDCE1F"/>
</linearGradient>
<linearGradient id="paint9_linear_1811_1958" x1="66.04" y1="129.214" x2="63.5052" y2="100.71" gradientUnits="userSpaceOnUse">
<stop stop-color="#A76800"/>
<stop offset="0.0227" stop-color="#C07F09"/>
<stop offset="0.0531" stop-color="#DB9713"/>
<stop offset="0.0841" stop-color="#EEA81A"/>
<stop offset="0.1159" stop-color="#F9B31E"/>
<stop offset="0.1495" stop-color="#FDB61F"/>
<stop offset="0.2216" stop-color="#E19D15"/>
<stop offset="0.3594" stop-color="#A26600"/>
<stop offset="0.4308" stop-color="#AA6900"/>
<stop offset="0.484" stop-color="#B36C00"/>
<stop offset="0.5211" stop-color="#C7820A"/>
<stop offset="0.5979" stop-color="#F9BB23"/>
<stop offset="0.6043" stop-color="#FAC434"/>
<stop offset="0.6184" stop-color="#FBD453"/>
<stop offset="0.6339" stop-color="#FDE16D"/>
<stop offset="0.651" stop-color="#FEEB80"/>
<stop offset="0.6706" stop-color="#FEF38E"/>
<stop offset="0.6946" stop-color="#FFF797"/>
<stop offset="0.7367" stop-color="#FFF899"/>
<stop offset="0.7602" stop-color="#FFF694"/>
<stop offset="0.7868" stop-color="#FFF087"/>
<stop offset="0.8149" stop-color="#FFE670"/>
<stop offset="0.8438" stop-color="#FFD951"/>
<stop offset="0.8612" stop-color="#FFCF3A"/>
<stop offset="0.9964" stop-color="#CF8F00"/>
</linearGradient>
<linearGradient id="paint10_linear_1811_1958" x1="66.5464" y1="114.732" x2="51.398" y2="116.079" gradientUnits="userSpaceOnUse">
<stop offset="0.00711744" stop-color="#FFE875"/>
<stop offset="0.1979" stop-color="#FEE571"/>
<stop offset="0.3781" stop-color="#FBDE66"/>
<stop offset="0.5541" stop-color="#F6D153"/>
<stop offset="0.7276" stop-color="#EFBF38"/>
<stop offset="0.8976" stop-color="#E7A816"/>
<stop offset="0.9893" stop-color="#E19900"/>
</linearGradient>
<linearGradient id="paint11_linear_1811_1958" x1="49.1627" y1="116.276" x2="68.6728" y2="114.541" gradientUnits="userSpaceOnUse">
<stop offset="0.00711744" stop-color="#FFE875"/>
<stop offset="0.2304" stop-color="#FFE771"/>
<stop offset="0.4413" stop-color="#FFE366"/>
<stop offset="0.6473" stop-color="#FEDE53"/>
<stop offset="0.849" stop-color="#FED638"/>
<stop offset="1" stop-color="#FDCE1F"/>
</linearGradient>
<linearGradient id="paint12_linear_1811_1958" x1="202.207" y1="672.201" x2="154.878" y2="612.718" gradientUnits="userSpaceOnUse">
<stop stop-color="#A76800"/>
<stop offset="0.0227" stop-color="#C07F09"/>
<stop offset="0.0531" stop-color="#DB9713"/>
<stop offset="0.0841" stop-color="#EEA81A"/>
<stop offset="0.1159" stop-color="#F9B31E"/>
<stop offset="0.1495" stop-color="#FDB61F"/>
<stop offset="0.2216" stop-color="#E19D15"/>
<stop offset="0.3594" stop-color="#A26600"/>
<stop offset="0.4308" stop-color="#AA6900"/>
<stop offset="0.484" stop-color="#B36C00"/>
<stop offset="0.5211" stop-color="#C7820A"/>
<stop offset="0.5979" stop-color="#F9BB23"/>
<stop offset="0.6043" stop-color="#FAC434"/>
<stop offset="0.6184" stop-color="#FBD453"/>
<stop offset="0.6339" stop-color="#FDE16D"/>
<stop offset="0.651" stop-color="#FEEB80"/>
<stop offset="0.6706" stop-color="#FEF38E"/>
<stop offset="0.6946" stop-color="#FFF797"/>
<stop offset="0.7367" stop-color="#FFF899"/>
<stop offset="0.7602" stop-color="#FFF694"/>
<stop offset="0.7868" stop-color="#FFF087"/>
<stop offset="0.8149" stop-color="#FFE670"/>
<stop offset="0.8438" stop-color="#FFD951"/>
<stop offset="0.8612" stop-color="#FFCF3A"/>
<stop offset="0.9964" stop-color="#CF8F00"/>
</linearGradient>
<linearGradient id="paint13_linear_1811_1958" x1="182.14" y1="639.35" x2="150.527" y2="664.504" gradientUnits="userSpaceOnUse">
<stop offset="0.00711744" stop-color="#FFE875"/>
<stop offset="0.1979" stop-color="#FEE571"/>
<stop offset="0.3781" stop-color="#FBDE66"/>
<stop offset="0.5541" stop-color="#F6D153"/>
<stop offset="0.7276" stop-color="#EFBF38"/>
<stop offset="0.8976" stop-color="#E7A816"/>
<stop offset="0.9893" stop-color="#E19900"/>
</linearGradient>
<linearGradient id="paint14_linear_1811_1958" x1="145.853" y1="668.223" x2="186.567" y2="635.828" gradientUnits="userSpaceOnUse">
<stop offset="0.00711744" stop-color="#FFE875"/>
<stop offset="0.2304" stop-color="#FFE771"/>
<stop offset="0.4413" stop-color="#FFE366"/>
<stop offset="0.6473" stop-color="#FEDE53"/>
<stop offset="0.849" stop-color="#FED638"/>
<stop offset="1" stop-color="#FDCE1F"/>
</linearGradient>
<linearGradient id="paint15_linear_1811_1958" x1="84.0317" y1="41.1982" x2="66.1066" y2="18.6699" gradientUnits="userSpaceOnUse">
<stop stop-color="#A76800"/>
<stop offset="0.0227" stop-color="#C07F09"/>
<stop offset="0.0531" stop-color="#DB9713"/>
<stop offset="0.0841" stop-color="#EEA81A"/>
<stop offset="0.1159" stop-color="#F9B31E"/>
<stop offset="0.1495" stop-color="#FDB61F"/>
<stop offset="0.2216" stop-color="#E19D15"/>
<stop offset="0.3594" stop-color="#A26600"/>
<stop offset="0.4308" stop-color="#AA6900"/>
<stop offset="0.484" stop-color="#B36C00"/>
<stop offset="0.5211" stop-color="#C7820A"/>
<stop offset="0.5979" stop-color="#F9BB23"/>
<stop offset="0.6043" stop-color="#FAC434"/>
<stop offset="0.6184" stop-color="#FBD453"/>
<stop offset="0.6339" stop-color="#FDE16D"/>
<stop offset="0.651" stop-color="#FEEB80"/>
<stop offset="0.6706" stop-color="#FEF38E"/>
<stop offset="0.6946" stop-color="#FFF797"/>
<stop offset="0.7367" stop-color="#FFF899"/>
<stop offset="0.7602" stop-color="#FFF694"/>
<stop offset="0.7868" stop-color="#FFF087"/>
<stop offset="0.8149" stop-color="#FFE670"/>
<stop offset="0.8438" stop-color="#FFD951"/>
<stop offset="0.8612" stop-color="#FFCF3A"/>
<stop offset="0.9964" stop-color="#CF8F00"/>
</linearGradient>
<linearGradient id="paint16_linear_1811_1958" x1="76.4305" y1="28.7565" x2="64.4574" y2="38.2831" gradientUnits="userSpaceOnUse">
<stop offset="0.00711744" stop-color="#FFE875"/>
<stop offset="0.1979" stop-color="#FEE571"/>
<stop offset="0.3781" stop-color="#FBDE66"/>
<stop offset="0.5541" stop-color="#F6D153"/>
<stop offset="0.7276" stop-color="#EFBF38"/>
<stop offset="0.8976" stop-color="#E7A816"/>
<stop offset="0.9893" stop-color="#E19900"/>
</linearGradient>
<linearGradient id="paint17_linear_1811_1958" x1="62.6899" y1="39.6904" x2="78.1103" y2="27.4209" gradientUnits="userSpaceOnUse">
<stop offset="0.00711744" stop-color="#FFE875"/>
<stop offset="0.2304" stop-color="#FFE771"/>
<stop offset="0.4413" stop-color="#FFE366"/>
<stop offset="0.6473" stop-color="#FEDE53"/>
<stop offset="0.849" stop-color="#FED638"/>
<stop offset="1" stop-color="#FDCE1F"/>
</linearGradient>
<linearGradient id="paint18_linear_1811_1958" x1="131.208" y1="448.332" x2="125.247" y2="374.702" gradientUnits="userSpaceOnUse">
<stop stop-color="#A76800"/>
<stop offset="0.0227" stop-color="#C07F09"/>
<stop offset="0.0531" stop-color="#DB9713"/>
<stop offset="0.0841" stop-color="#EEA81A"/>
<stop offset="0.1159" stop-color="#F9B31E"/>
<stop offset="0.1495" stop-color="#FDB61F"/>
<stop offset="0.2216" stop-color="#E19D15"/>
<stop offset="0.3594" stop-color="#A26600"/>
<stop offset="0.4308" stop-color="#AA6900"/>
<stop offset="0.484" stop-color="#B36C00"/>
<stop offset="0.5211" stop-color="#C7820A"/>
<stop offset="0.5979" stop-color="#F9BB23"/>
<stop offset="0.6043" stop-color="#FAC434"/>
<stop offset="0.6184" stop-color="#FBD453"/>
<stop offset="0.6339" stop-color="#FDE16D"/>
<stop offset="0.651" stop-color="#FEEB80"/>
<stop offset="0.6706" stop-color="#FEF38E"/>
<stop offset="0.6946" stop-color="#FFF797"/>
<stop offset="0.7367" stop-color="#FFF899"/>
<stop offset="0.7602" stop-color="#FFF694"/>
<stop offset="0.7868" stop-color="#FFF087"/>
<stop offset="0.8149" stop-color="#FFE670"/>
<stop offset="0.8438" stop-color="#FFD951"/>
<stop offset="0.8612" stop-color="#FFCF3A"/>
<stop offset="0.9964" stop-color="#CF8F00"/>
</linearGradient>
<linearGradient id="paint19_linear_1811_1958" x1="137.663" y1="410.566" x2="84.6651" y2="414.857" gradientUnits="userSpaceOnUse">
<stop offset="0.00711744" stop-color="#FFE875"/>
<stop offset="0.1979" stop-color="#FEE571"/>
<stop offset="0.3781" stop-color="#FBDE66"/>
<stop offset="0.5541" stop-color="#F6D153"/>
<stop offset="0.7276" stop-color="#EFBF38"/>
<stop offset="0.8976" stop-color="#E7A816"/>
<stop offset="0.9893" stop-color="#E19900"/>
</linearGradient>
<linearGradient id="paint20_linear_1811_1958" x1="86.5331" y1="414.707" x2="138.21" y2="410.523" gradientUnits="userSpaceOnUse">
<stop offset="0.00711744" stop-color="#FFE875"/>
<stop offset="0.2304" stop-color="#FFE771"/>
<stop offset="0.4413" stop-color="#FFE366"/>
<stop offset="0.6473" stop-color="#FEDE53"/>
<stop offset="0.849" stop-color="#FED638"/>
<stop offset="1" stop-color="#FDCE1F"/>
</linearGradient>
<linearGradient id="paint21_linear_1811_1958" x1="296.124" y1="580.785" x2="256.434" y2="544.129" gradientUnits="userSpaceOnUse">
<stop stop-color="#A76800"/>
<stop offset="0.0227" stop-color="#C07F09"/>
<stop offset="0.0531" stop-color="#DB9713"/>
<stop offset="0.0841" stop-color="#EEA81A"/>
<stop offset="0.1159" stop-color="#F9B31E"/>
<stop offset="0.1495" stop-color="#FDB61F"/>
<stop offset="0.2216" stop-color="#E19D15"/>
<stop offset="0.3594" stop-color="#A26600"/>
<stop offset="0.4308" stop-color="#AA6900"/>
<stop offset="0.484" stop-color="#B36C00"/>
<stop offset="0.5211" stop-color="#C7820A"/>
<stop offset="0.5979" stop-color="#F9BB23"/>
<stop offset="0.6043" stop-color="#FAC434"/>
<stop offset="0.6184" stop-color="#FBD453"/>
<stop offset="0.6339" stop-color="#FDE16D"/>
<stop offset="0.651" stop-color="#FEEB80"/>
<stop offset="0.6706" stop-color="#FEF38E"/>
<stop offset="0.6946" stop-color="#FFF797"/>
<stop offset="0.7367" stop-color="#FFF899"/>
<stop offset="0.7602" stop-color="#FFF694"/>
<stop offset="0.7868" stop-color="#FFF087"/>
<stop offset="0.8149" stop-color="#FFE670"/>
<stop offset="0.8438" stop-color="#FFD951"/>
<stop offset="0.8612" stop-color="#FFCF3A"/>
<stop offset="0.9964" stop-color="#CF8F00"/>
</linearGradient>
<linearGradient id="paint22_linear_1811_1958" x1="280.886" y1="557.27" x2="254.501" y2="585.838" gradientUnits="userSpaceOnUse">
<stop offset="0.00711744" stop-color="#FFE875"/>
<stop offset="0.1979" stop-color="#FEE571"/>
<stop offset="0.3781" stop-color="#FBDE66"/>
<stop offset="0.5541" stop-color="#F6D153"/>
<stop offset="0.7276" stop-color="#EFBF38"/>
<stop offset="0.8976" stop-color="#E7A816"/>
<stop offset="0.9893" stop-color="#E19900"/>
</linearGradient>
<linearGradient id="paint23_linear_1811_1958" x1="255.43" y1="584.832" x2="281.158" y2="556.975" gradientUnits="userSpaceOnUse">
<stop offset="0.00711744" stop-color="#FFE875"/>
<stop offset="0.2304" stop-color="#FFE771"/>
<stop offset="0.4413" stop-color="#FFE366"/>
<stop offset="0.6473" stop-color="#FEDE53"/>
<stop offset="0.849" stop-color="#FED638"/>
<stop offset="1" stop-color="#FDCE1F"/>
</linearGradient>
<linearGradient id="paint24_linear_1811_1958" x1="107.343" y1="226.929" x2="67.2154" y2="200.531" gradientUnits="userSpaceOnUse">
<stop offset="0.00355872" stop-color="#CF8F00"/>
<stop offset="0.1388" stop-color="#FFCF3A"/>
<stop offset="0.1562" stop-color="#FFD951"/>
<stop offset="0.1851" stop-color="#FFE670"/>
<stop offset="0.2132" stop-color="#FFF087"/>
<stop offset="0.2398" stop-color="#FFF694"/>
<stop offset="0.2633" stop-color="#FFF899"/>
<stop offset="0.3054" stop-color="#FFF797"/>
<stop offset="0.3294" stop-color="#FEF38E"/>
<stop offset="0.349" stop-color="#FEEB80"/>
<stop offset="0.3661" stop-color="#FDE16D"/>
<stop offset="0.3816" stop-color="#FBD453"/>
<stop offset="0.3957" stop-color="#FAC434"/>
<stop offset="0.4021" stop-color="#F9BB23"/>
<stop offset="0.4789" stop-color="#C7820A"/>
<stop offset="0.516" stop-color="#B36C00"/>
<stop offset="0.5692" stop-color="#AA6900"/>
<stop offset="0.6406" stop-color="#A26600"/>
<stop offset="0.7784" stop-color="#E19D15"/>
<stop offset="0.8505" stop-color="#FDB61F"/>
<stop offset="0.8841" stop-color="#F9B31E"/>
<stop offset="0.9159" stop-color="#EEA81A"/>
<stop offset="0.9469" stop-color="#DB9713"/>
<stop offset="0.9773" stop-color="#C07F09"/>
<stop offset="1" stop-color="#A76800"/>
</linearGradient>
<linearGradient id="paint25_linear_1811_1958" x1="87.1042" y1="213.776" x2="95.1482" y2="201.548" gradientUnits="userSpaceOnUse">
<stop offset="0.0142" stop-color="#F1AF00"/>
<stop offset="0.236" stop-color="#EDAC00"/>
<stop offset="0.4454" stop-color="#E2A200"/>
<stop offset="0.65" stop-color="#CF9100"/>
<stop offset="0.8503" stop-color="#B47A00"/>
<stop offset="0.9893" stop-color="#9D6600"/>
</linearGradient>
<linearGradient id="paint26_linear_1811_1958" x1="87.1998" y1="213.626" x2="94.5565" y2="202.443" gradientUnits="userSpaceOnUse">
<stop stop-color="#F1B701"/>
<stop offset="0.0247" stop-color="#EFB501"/>
<stop offset="0.3356" stop-color="#DFA200"/>
<stop offset="0.6548" stop-color="#D59700"/>
<stop offset="0.9929" stop-color="#D29300"/>
</linearGradient>
<linearGradient id="paint27_linear_1811_1958" x1="268.203" y1="465.618" x2="241.986" y2="396.556" gradientUnits="userSpaceOnUse">
<stop offset="0.00355872" stop-color="#CF8F00"/>
<stop offset="0.1388" stop-color="#FFCF3A"/>
<stop offset="0.1562" stop-color="#FFD951"/>
<stop offset="0.1851" stop-color="#FFE670"/>
<stop offset="0.2132" stop-color="#FFF087"/>
<stop offset="0.2398" stop-color="#FFF694"/>
<stop offset="0.2633" stop-color="#FFF899"/>
<stop offset="0.3054" stop-color="#FFF797"/>
<stop offset="0.3294" stop-color="#FEF38E"/>
<stop offset="0.349" stop-color="#FEEB80"/>
<stop offset="0.3661" stop-color="#FDE16D"/>
<stop offset="0.3816" stop-color="#FBD453"/>
<stop offset="0.3957" stop-color="#FAC434"/>
<stop offset="0.4021" stop-color="#F9BB23"/>
<stop offset="0.4789" stop-color="#C7820A"/>
<stop offset="0.516" stop-color="#B36C00"/>
<stop offset="0.5692" stop-color="#AA6900"/>
<stop offset="0.6406" stop-color="#A26600"/>
<stop offset="0.7784" stop-color="#E19D15"/>
<stop offset="0.8505" stop-color="#FDB61F"/>
<stop offset="0.8841" stop-color="#F9B31E"/>
<stop offset="0.9159" stop-color="#EEA81A"/>
<stop offset="0.9469" stop-color="#DB9713"/>
<stop offset="0.9773" stop-color="#C07F09"/>
<stop offset="1" stop-color="#A76800"/>
</linearGradient>
<linearGradient id="paint28_linear_1811_1958" x1="254.834" y1="430.987" x2="275.879" y2="422.998" gradientUnits="userSpaceOnUse">
<stop offset="0.0142" stop-color="#F1AF00"/>
<stop offset="0.236" stop-color="#EDAC00"/>
<stop offset="0.4454" stop-color="#E2A200"/>
<stop offset="0.65" stop-color="#CF9100"/>
<stop offset="0.8503" stop-color="#B47A00"/>
<stop offset="0.9893" stop-color="#9D6600"/>
</linearGradient>
<linearGradient id="paint29_linear_1811_1958" x1="255.097" y1="430.886" x2="274.344" y2="423.579" gradientUnits="userSpaceOnUse">
<stop stop-color="#F1B701"/>
<stop offset="0.0247" stop-color="#EFB501"/>
<stop offset="0.3356" stop-color="#DFA200"/>
<stop offset="0.6548" stop-color="#D59700"/>
<stop offset="0.9929" stop-color="#D29300"/>
</linearGradient>
<linearGradient id="paint30_linear_1811_1958" x1="203.432" y1="377.382" x2="183.972" y2="326.117" gradientUnits="userSpaceOnUse">
<stop offset="0.00355872" stop-color="#CF8F00"/>
<stop offset="0.1388" stop-color="#FFCF3A"/>
<stop offset="0.1562" stop-color="#FFD951"/>
<stop offset="0.1851" stop-color="#FFE670"/>
<stop offset="0.2132" stop-color="#FFF087"/>
<stop offset="0.2398" stop-color="#FFF694"/>
<stop offset="0.2633" stop-color="#FFF899"/>
<stop offset="0.3054" stop-color="#FFF797"/>
<stop offset="0.3294" stop-color="#FEF38E"/>
<stop offset="0.349" stop-color="#FEEB80"/>
<stop offset="0.3661" stop-color="#FDE16D"/>
<stop offset="0.3816" stop-color="#FBD453"/>
<stop offset="0.3957" stop-color="#FAC434"/>
<stop offset="0.4021" stop-color="#F9BB23"/>
<stop offset="0.4789" stop-color="#C7820A"/>
<stop offset="0.516" stop-color="#B36C00"/>
<stop offset="0.5692" stop-color="#AA6900"/>
<stop offset="0.6406" stop-color="#A26600"/>
<stop offset="0.7784" stop-color="#E19D15"/>
<stop offset="0.8505" stop-color="#FDB61F"/>
<stop offset="0.8841" stop-color="#F9B31E"/>
<stop offset="0.9159" stop-color="#EEA81A"/>
<stop offset="0.9469" stop-color="#DB9713"/>
<stop offset="0.9773" stop-color="#C07F09"/>
<stop offset="1" stop-color="#A76800"/>
</linearGradient>
<linearGradient id="paint31_linear_1811_1958" x1="190.447" y1="352.838" x2="217.694" y2="342.495" gradientUnits="userSpaceOnUse">
<stop offset="0.0142" stop-color="#F1AF00"/>
<stop offset="0.236" stop-color="#EDAC00"/>
<stop offset="0.4454" stop-color="#E2A200"/>
<stop offset="0.65" stop-color="#CF9100"/>
<stop offset="0.8503" stop-color="#B47A00"/>
<stop offset="0.9893" stop-color="#9D6600"/>
</linearGradient>
<linearGradient id="paint32_linear_1811_1958" x1="221.722" y1="340.966" x2="186.631" y2="354.286" gradientUnits="userSpaceOnUse">
<stop stop-color="#F1B701"/>
<stop offset="0.0247" stop-color="#EFB501"/>
<stop offset="0.3356" stop-color="#DFA200"/>
<stop offset="0.6548" stop-color="#D59700"/>
<stop offset="0.9929" stop-color="#D29300"/>
</linearGradient>
<linearGradient id="paint33_linear_1811_1958" x1="96.5257" y1="644.278" x2="136.854" y2="585.505" gradientUnits="userSpaceOnUse">
<stop offset="0.00355872" stop-color="#CF8F00"/>
<stop offset="0.1388" stop-color="#FFCF3A"/>
<stop offset="0.1562" stop-color="#FFD951"/>
<stop offset="0.1851" stop-color="#FFE670"/>
<stop offset="0.2132" stop-color="#FFF087"/>
<stop offset="0.2398" stop-color="#FFF694"/>
<stop offset="0.2633" stop-color="#FFF899"/>
<stop offset="0.3054" stop-color="#FFF797"/>
<stop offset="0.3294" stop-color="#FEF38E"/>
<stop offset="0.349" stop-color="#FEEB80"/>
<stop offset="0.3661" stop-color="#FDE16D"/>
<stop offset="0.3816" stop-color="#FBD453"/>
<stop offset="0.3957" stop-color="#FAC434"/>
<stop offset="0.4021" stop-color="#F9BB23"/>
<stop offset="0.4789" stop-color="#C7820A"/>
<stop offset="0.516" stop-color="#B36C00"/>
<stop offset="0.5692" stop-color="#AA6900"/>
<stop offset="0.6406" stop-color="#A26600"/>
<stop offset="0.7784" stop-color="#E19D15"/>
<stop offset="0.8505" stop-color="#FDB61F"/>
<stop offset="0.8841" stop-color="#F9B31E"/>
<stop offset="0.9159" stop-color="#EEA81A"/>
<stop offset="0.9469" stop-color="#DB9713"/>
<stop offset="0.9773" stop-color="#C07F09"/>
<stop offset="1" stop-color="#A76800"/>
</linearGradient>
<linearGradient id="paint34_linear_1811_1958" x1="116.626" y1="614.629" x2="134.535" y2="626.918" gradientUnits="userSpaceOnUse">
<stop offset="0.0142" stop-color="#F1AF00"/>
<stop offset="0.236" stop-color="#EDAC00"/>
<stop offset="0.4454" stop-color="#E2A200"/>
<stop offset="0.65" stop-color="#CF9100"/>
<stop offset="0.8503" stop-color="#B47A00"/>
<stop offset="0.9893" stop-color="#9D6600"/>
</linearGradient>
<linearGradient id="paint35_linear_1811_1958" x1="116.846" y1="614.78" x2="133.225" y2="626.018" gradientUnits="userSpaceOnUse">
<stop stop-color="#F1B701"/>
<stop offset="0.0247" stop-color="#EFB501"/>
<stop offset="0.3356" stop-color="#DFA200"/>
<stop offset="0.6548" stop-color="#D59700"/>
<stop offset="0.9929" stop-color="#D29300"/>
</linearGradient>
<linearGradient id="paint36_linear_1811_1958" x1="202.344" y1="779.765" x2="135.009" y2="735.469" gradientUnits="userSpaceOnUse">
<stop offset="0.00355872" stop-color="#CF8F00"/>
<stop offset="0.1388" stop-color="#FFCF3A"/>
<stop offset="0.1562" stop-color="#FFD951"/>
<stop offset="0.1851" stop-color="#FFE670"/>
<stop offset="0.2132" stop-color="#FFF087"/>
<stop offset="0.2398" stop-color="#FFF694"/>
<stop offset="0.2633" stop-color="#FFF899"/>
<stop offset="0.3054" stop-color="#FFF797"/>
<stop offset="0.3294" stop-color="#FEF38E"/>
<stop offset="0.349" stop-color="#FEEB80"/>
<stop offset="0.3661" stop-color="#FDE16D"/>
<stop offset="0.3816" stop-color="#FBD453"/>
<stop offset="0.3957" stop-color="#FAC434"/>
<stop offset="0.4021" stop-color="#F9BB23"/>
<stop offset="0.4789" stop-color="#C7820A"/>
<stop offset="0.516" stop-color="#B36C00"/>
<stop offset="0.5692" stop-color="#AA6900"/>
<stop offset="0.6406" stop-color="#A26600"/>
<stop offset="0.7784" stop-color="#E19D15"/>
<stop offset="0.8505" stop-color="#FDB61F"/>
<stop offset="0.8841" stop-color="#F9B31E"/>
<stop offset="0.9159" stop-color="#EEA81A"/>
<stop offset="0.9469" stop-color="#DB9713"/>
<stop offset="0.9773" stop-color="#C07F09"/>
<stop offset="1" stop-color="#A76800"/>
</linearGradient>
<linearGradient id="paint37_linear_1811_1958" x1="168.384" y1="757.694" x2="181.882" y2="737.176" gradientUnits="userSpaceOnUse">
<stop offset="0.0142" stop-color="#F1AF00"/>
<stop offset="0.236" stop-color="#EDAC00"/>
<stop offset="0.4454" stop-color="#E2A200"/>
<stop offset="0.65" stop-color="#CF9100"/>
<stop offset="0.8503" stop-color="#B47A00"/>
<stop offset="0.9893" stop-color="#9D6600"/>
</linearGradient>
<linearGradient id="paint38_linear_1811_1958" x1="168.551" y1="757.441" x2="180.896" y2="738.676" gradientUnits="userSpaceOnUse">
<stop stop-color="#F1B701"/>
<stop offset="0.0247" stop-color="#EFB501"/>
<stop offset="0.3356" stop-color="#DFA200"/>
<stop offset="0.6548" stop-color="#D59700"/>
<stop offset="0.9929" stop-color="#D29300"/>
</linearGradient>
<linearGradient id="paint39_linear_1811_1958" x1="117.732" y1="594.061" x2="110.231" y2="501.408" gradientUnits="userSpaceOnUse">
<stop stop-color="#A76800"/>
<stop offset="0.0227" stop-color="#C07F09"/>
<stop offset="0.0531" stop-color="#DB9713"/>
<stop offset="0.0841" stop-color="#EEA81A"/>
<stop offset="0.1159" stop-color="#F9B31E"/>
<stop offset="0.1495" stop-color="#FDB61F"/>
<stop offset="0.2216" stop-color="#E19D15"/>
<stop offset="0.3594" stop-color="#A26600"/>
<stop offset="0.4308" stop-color="#AA6900"/>
<stop offset="0.484" stop-color="#B36C00"/>
<stop offset="0.5211" stop-color="#C7820A"/>
<stop offset="0.5979" stop-color="#F9BB23"/>
<stop offset="0.6043" stop-color="#FAC434"/>
<stop offset="0.6184" stop-color="#FBD453"/>
<stop offset="0.6339" stop-color="#FDE16D"/>
<stop offset="0.651" stop-color="#FEEB80"/>
<stop offset="0.6706" stop-color="#FEF38E"/>
<stop offset="0.6946" stop-color="#FFF797"/>
<stop offset="0.7367" stop-color="#FFF899"/>
<stop offset="0.7602" stop-color="#FFF694"/>
<stop offset="0.7868" stop-color="#FFF087"/>
<stop offset="0.8149" stop-color="#FFE670"/>
<stop offset="0.8438" stop-color="#FFD951"/>
<stop offset="0.8612" stop-color="#FFCF3A"/>
<stop offset="0.9964" stop-color="#CF8F00"/>
</linearGradient>
<linearGradient id="paint40_linear_1811_1958" x1="125.858" y1="546.536" x2="59.1682" y2="551.935" gradientUnits="userSpaceOnUse">
<stop offset="0.00711744" stop-color="#FFE875"/>
<stop offset="0.1979" stop-color="#FEE571"/>
<stop offset="0.3781" stop-color="#FBDE66"/>
<stop offset="0.5541" stop-color="#F6D153"/>
<stop offset="0.7276" stop-color="#EFBF38"/>
<stop offset="0.8976" stop-color="#E7A816"/>
<stop offset="0.9893" stop-color="#E19900"/>
</linearGradient>
<linearGradient id="paint41_linear_1811_1958" x1="61.5217" y1="551.745" x2="126.55" y2="546.48" gradientUnits="userSpaceOnUse">
<stop offset="0.00711744" stop-color="#FFE875"/>
<stop offset="0.2304" stop-color="#FFE771"/>
<stop offset="0.4413" stop-color="#FFE366"/>
<stop offset="0.6473" stop-color="#FEDE53"/>
<stop offset="0.849" stop-color="#FED638"/>
<stop offset="1" stop-color="#FDCE1F"/>
</linearGradient>
</defs>
</svg>
