<svg width="20" height="21" viewBox="0 0 20 21" fill="none" xmlns="http://www.w3.org/2000/svg">
<path d="M10 20.5C8.63333 20.5 7.34167 20.2373 6.125 19.712C4.90833 19.1873 3.846 18.4707 2.938 17.562C2.02933 16.654 1.31267 15.5917 0.788 14.375C0.262667 13.1583 0 11.8667 0 10.5C0 9.11667 0.262667 7.821 0.788 6.613C1.31267 5.40433 2.02933 4.346 2.938 3.438C3.846 2.52933 4.90833 1.81233 6.125 1.287C7.34167 0.762333 8.63333 0.5 10 0.5C11.3833 0.5 12.679 0.762333 13.887 1.287C15.0957 1.81233 16.154 2.52933 17.062 3.438C17.9707 4.346 18.6873 5.40433 19.212 6.613C19.7373 7.821 20 9.11667 20 10.5C20 11.8667 19.7373 13.1583 19.212 14.375C18.6873 15.5917 17.9707 16.654 17.062 17.562C16.154 18.4707 15.0957 19.1873 13.887 19.712C12.679 20.2373 11.3833 20.5 10 20.5ZM10 18.45C10.4333 17.85 10.8083 17.225 11.125 16.575C11.4417 15.925 11.7 15.2333 11.9 14.5H8.1C8.3 15.2333 8.55833 15.925 8.875 16.575C9.19167 17.225 9.56667 17.85 10 18.45ZM7.4 18.05C7.1 17.5 6.83767 16.929 6.613 16.337C6.38767 15.7457 6.2 15.1333 6.05 14.5H3.1C3.58333 15.3333 4.18733 16.0583 4.912 16.675C5.63733 17.2917 6.46667 17.75 7.4 18.05ZM12.6 18.05C13.5333 17.75 14.3623 17.2917 15.087 16.675C15.8123 16.0583 16.4167 15.3333 16.9 14.5H13.95C13.8 15.1333 13.6127 15.7457 13.388 16.337C13.1627 16.929 12.9 17.5 12.6 18.05ZM2.25 12.5H5.65C5.6 12.1667 5.56233 11.8373 5.537 11.512C5.51233 11.1873 5.5 10.85 5.5 10.5C5.5 10.15 5.51233 9.81267 5.537 9.488C5.56233 9.16267 5.6 8.83333 5.65 8.5H2.25C2.16667 8.83333 2.104 9.16267 2.062 9.488C2.02067 9.81267 2 10.15 2 10.5C2 10.85 2.02067 11.1873 2.062 11.512C2.104 11.8373 2.16667 12.1667 2.25 12.5ZM7.65 12.5H12.35C12.4 12.1667 12.4377 11.8373 12.463 11.512C12.4877 11.1873 12.5 10.85 12.5 10.5C12.5 10.15 12.4877 9.81267 12.463 9.488C12.4377 9.16267 12.4 8.83333 12.35 8.5H7.65C7.6 8.83333 7.56267 9.16267 7.538 9.488C7.51267 9.81267 7.5 10.15 7.5 10.5C7.5 10.85 7.51267 11.1873 7.538 11.512C7.56267 11.8373 7.6 12.1667 7.65 12.5ZM14.35 12.5H17.75C17.8333 12.1667 17.896 11.8373 17.938 11.512C17.9793 11.1873 18 10.85 18 10.5C18 10.15 17.9793 9.81267 17.938 9.488C17.896 9.16267 17.8333 8.83333 17.75 8.5H14.35C14.4 8.83333 14.4373 9.16267 14.462 9.488C14.4873 9.81267 14.5 10.15 14.5 10.5C14.5 10.85 14.4873 11.1873 14.462 11.512C14.4373 11.8373 14.4 12.1667 14.35 12.5ZM13.95 6.5H16.9C16.4167 5.66667 15.8123 4.94167 15.087 4.325C14.3623 3.70833 13.5333 3.25 12.6 2.95C12.9 3.5 13.1627 4.07067 13.388 4.662C13.6127 5.254 13.8 5.86667 13.95 6.5ZM8.1 6.5H11.9C11.7 5.76667 11.4417 5.075 11.125 4.425C10.8083 3.775 10.4333 3.15 10 2.55C9.56667 3.15 9.19167 3.775 8.875 4.425C8.55833 5.075 8.3 5.76667 8.1 6.5ZM3.1 6.5H6.05C6.2 5.86667 6.38767 5.254 6.613 4.662C6.83767 4.07067 7.1 3.5 7.4 2.95C6.46667 3.25 5.63733 3.70833 4.912 4.325C4.18733 4.94167 3.58333 5.66667 3.1 6.5Z" fill="white"/>
</svg>
