<svg xmlns="http://www.w3.org/2000/svg" width="20" height="18" viewBox="0 0 20 18" fill="none">
<path d="M1.75 8.05V15.95C1.75 16.0333 1.77933 16.1043 1.838 16.163C1.896 16.221 1.96667 16.25 2.05 16.25H6.25V7.75H2.05C1.96667 7.75 1.896 7.779 1.838 7.837C1.77933 7.89567 1.75 7.96667 1.75 8.05ZM7.75 2.05V16.25H12.25V2.05C12.25 1.96667 12.221 1.896 12.163 1.838C12.1043 1.77933 12.0333 1.75 11.95 1.75H8.05C7.96667 1.75 7.896 1.77933 7.838 1.838C7.77933 1.896 7.75 1.96667 7.75 2.05ZM13.75 9.75V16.25H17.95C18.0333 16.25 18.1043 16.221 18.163 16.163C18.221 16.1043 18.25 16.0333 18.25 15.95V10.05C18.25 9.96667 18.221 9.89567 18.163 9.837C18.1043 9.779 18.0333 9.75 17.95 9.75H13.75ZM17.95 17.75H2.05C1.55 17.75 1.125 17.575 0.775 17.225C0.425 16.875 0.25 16.45 0.25 15.95V8.05C0.25 7.55 0.425 7.125 0.775 6.775C1.125 6.425 1.55 6.25 2.05 6.25H6.25V2.05C6.25 1.55 6.425 1.125 6.775 0.775C7.125 0.425 7.55 0.25 8.05 0.25H11.95C12.45 0.25 12.875 0.425 13.225 0.775C13.575 1.125 13.75 1.55 13.75 2.05V8.25H17.95C18.45 8.25 18.875 8.425 19.225 8.775C19.575 9.125 19.75 9.55 19.75 10.05V15.95C19.75 16.45 19.575 16.875 19.225 17.225C18.875 17.575 18.45 17.75 17.95 17.75Z" fill="#df4886"/>
</svg>