<svg width="69" height="69" viewBox="0 0 69 69" fill="none" xmlns="http://www.w3.org/2000/svg">
<path d="M34.3119 67.9744C52.5263 67.9744 67.2919 53.2088 67.2919 34.9944C67.2919 16.7801 52.5263 2.0144 34.3119 2.0144C16.0976 2.0144 1.33191 16.7801 1.33191 34.9944C1.33191 53.2088 16.0976 67.9744 34.3119 67.9744Z" fill="url(#paint0_linear_1_759)"/>
<path d="M48.745 48.1354L37.593 21.1734C36.964 19.7794 36.029 19.0994 34.7965 19.0994H33.8105C32.578 19.0994 31.643 19.7794 31.014 21.1734L26.1605 32.9204H22.4885C21.392 32.9289 20.4995 33.8129 20.491 34.9179V34.9434C20.4995 36.0399 21.392 36.9324 22.4885 36.9409H24.4605L19.828 48.1354C19.743 48.3819 19.692 48.6369 19.692 48.9004C19.692 49.5294 19.8875 50.0224 20.236 50.4049C20.5845 50.7874 21.086 50.9744 21.715 50.9744C22.1315 50.9659 22.531 50.8384 22.8625 50.5919C23.2195 50.3454 23.466 49.9884 23.6615 49.5804L28.7615 36.9324H32.2975C33.394 36.9239 34.2865 36.0399 34.295 34.9349V34.8839C34.2865 33.7874 33.394 32.8949 32.2975 32.8864H30.4105L34.3035 23.1879L44.9115 49.5719C45.107 49.9799 45.3535 50.3369 45.7105 50.5834C46.042 50.8299 46.45 50.9574 46.858 50.9659C47.487 50.9659 47.98 50.7789 48.337 50.3964C48.694 50.0139 48.881 49.5209 48.881 48.8919C48.8895 48.6369 48.847 48.3734 48.745 48.1354Z" fill="white"/>
<defs>
<linearGradient id="paint0_linear_1_759" x1="58.9013" y1="14.3042" x2="9.82708" y2="55.5952" gradientUnits="userSpaceOnUse">
<stop stop-color="#B6509E"/>
<stop offset="1" stop-color="#2EBAC6"/>
</linearGradient>
</defs>
</svg>
