<svg id="svg" version="1.1" xmlns="http://www.w3.org/2000/svg" xmlns:xlink="http://www.w3.org/1999/xlink" width="400" height="392.9824561403509" viewBox="0, 0, 400,392.9824561403509"><g id="svgg"><path id="path0" d="M136.739 131.569 C 127.266 133.101,114.873 137.794,113.110 140.516 C 112.129 142.029,107.960 164.668,105.631 181.121 C 95.709 251.234,100.502 304.183,119.641 335.915 C 132.978 358.025,142.072 365.972,160.967 372.024 C 243.317 398.404,328.359 334.772,305.717 263.717 C 302.703 254.258,302.672 254.084,302.692 246.608 C 302.716 237.361,304.025 232.861,309.167 224.349 C 324.175 199.502,319.943 168.795,298.751 148.773 C 278.393 129.540,247.267 125.422,221.485 138.550 C 205.240 146.822,194.766 146.849,178.765 138.660 C 165.962 132.107,150.030 129.419,136.739 131.569 M350.101 142.171 C 347.964 142.687,347.151 143.339,347.490 144.263 C 349.760 150.448,351.631 166.394,352.022 182.891 C 352.412 199.359,353.420 209.078,355.971 220.976 C 356.628 224.040,356.967 224.124,360.733 222.165 C 382.724 210.724,392.595 180.882,381.730 158.687 C 375.547 146.058,362.405 139.195,350.101 142.171 M149.759 176.343 C 160.316 179.915,165.371 190.593,162.630 203.533 C 158.399 223.506,128.106 223.727,123.937 203.815 C 120.056 185.282,133.598 170.875,149.759 176.343 M262.367 176.052 C 271.896 178.879,276.490 185.710,276.490 197.050 C 276.490 211.052,268.629 219.188,255.684 218.584 C 242.435 217.965,234.983 207.342,237.131 192.134 C 238.800 180.312,250.848 172.634,262.367 176.052 M140.499 183.152 C 137.038 184.857,136.371 189.665,139.258 192.095 C 141.953 194.362,145.650 194.226,147.798 191.781 C 152.037 186.953,146.373 180.256,140.499 183.152 M253.884 183.229 C 250.052 185.597,249.910 190.967,253.629 192.890 C 257.887 195.092,262.737 192.493,262.732 188.010 C 262.728 183.873,257.455 181.024,253.884 183.229 M186.216 248.316 C 194.798 252.222,196.329 253.739,195.664 257.679 C 194.680 263.503,190.619 263.959,180.547 259.375 C 171.125 255.086,169.293 252.382,172.497 247.491 C 174.703 244.124,177.356 244.284,186.216 248.316 M225.341 245.610 C 229.051 247.528,229.927 252.598,227.029 255.374 C 223.588 258.671,210.278 263.494,207.939 262.292 C 201.367 258.916,203.250 253.081,212.227 249.001 C 221.674 244.708,222.956 244.377,225.341 245.610 M258.202 295.424 C 264.711 297.231,264.780 306.630,258.378 319.451 C 234.345 367.580,155.180 362.740,138.667 312.132 C 135.482 302.370,136.305 297.376,141.396 295.576 C 143.450 294.850,255.608 294.704,258.202 295.424 " stroke="none" fill="#f3dcb4" fill-rule="evenodd"></path><path id="path1" d="M185.054 0.787 C 184.352 1.088,184.381 1.128,185.326 1.152 C 185.908 1.168,186.494 1.003,186.627 0.787 C 186.918 0.317,186.147 0.317,185.054 0.787 M182.890 1.819 L 181.908 2.393 182.891 2.131 C 183.986 1.839,184.282 1.653,184.037 1.409 C 183.947 1.318,183.431 1.503,182.890 1.819 M176.073 5.575 C 174.811 6.438,173.892 7.258,174.030 7.396 C 174.168 7.534,174.404 7.457,174.554 7.225 C 174.705 6.994,175.565 6.342,176.466 5.778 C 177.368 5.213,178.219 4.567,178.358 4.342 C 178.706 3.780,178.665 3.802,176.073 5.575 M203.343 4.237 C 203.343 4.476,202.502 4.791,201.475 4.937 C 196.569 5.634,189.667 10.516,180.110 20.048 C 150.363 49.719,124.584 93.930,114.856 131.957 C 113.406 137.623,113.176 137.966,108.714 141.116 C 79.606 161.664,72.374 195.741,90.597 226.490 C 97.309 237.816,98.010 247.419,93.244 262.734 C 88.601 277.649,87.929 286.766,90.505 299.902 C 95.179 323.734,110.675 345.737,132.785 359.936 C 145.220 367.921,147.311 369.372,150.845 372.468 C 156.419 377.351,162.192 381.769,169.381 386.654 C 174.328 390.016,175.692 391.127,175.548 391.678 C 175.123 393.304,175.365 393.318,202.202 393.159 C 229.924 392.994,229.302 393.008,229.302 392.588 C 229.302 392.432,229.789 392.331,230.383 392.363 C 230.978 392.395,231.636 392.322,231.846 392.201 C 232.055 392.080,232.675 391.955,233.223 391.923 C 235.449 391.793,238.348 391.254,238.348 390.971 C 238.348 390.805,238.791 390.717,239.331 390.777 C 239.872 390.836,240.315 390.747,240.315 390.580 C 240.315 390.412,240.757 390.324,241.298 390.383 C 241.839 390.443,242.281 390.319,242.281 390.109 C 242.281 389.899,242.447 389.830,242.649 389.955 C 242.965 390.150,243.984 389.973,247.001 389.199 C 247.325 389.115,247.734 389.034,247.909 389.017 C 248.084 389.001,248.102 388.766,247.950 388.496 C 247.736 388.117,247.787 388.110,248.171 388.465 C 248.778 389.025,249.858 388.692,249.480 388.061 C 249.308 387.774,249.428 387.787,249.813 388.099 C 250.145 388.367,250.511 388.492,250.627 388.377 C 250.743 388.261,251.333 388.076,251.939 387.966 C 252.545 387.856,253.247 387.483,253.500 387.137 C 253.813 386.710,254.047 386.648,254.230 386.944 C 254.550 387.461,255.675 387.107,256.282 386.297 C 256.606 385.866,256.787 385.840,257.005 386.194 C 257.229 386.555,257.427 386.558,257.852 386.205 C 258.157 385.952,258.407 385.876,258.407 386.037 C 258.407 386.199,258.673 386.110,258.997 385.841 C 259.322 385.571,259.587 385.458,259.587 385.589 C 259.587 385.720,260.782 385.379,262.242 384.831 C 263.702 384.283,265.100 383.792,265.349 383.739 C 265.597 383.686,266.118 383.385,266.506 383.070 C 267.009 382.662,267.121 382.647,266.898 383.018 C 266.654 383.423,266.746 383.452,267.314 383.145 C 267.715 382.929,268.364 382.651,268.756 382.529 C 269.149 382.407,269.365 382.137,269.238 381.931 C 269.110 381.724,269.350 381.622,269.771 381.703 C 270.813 381.904,272.213 381.504,271.952 381.081 C 271.835 380.891,271.991 380.833,272.299 380.951 C 272.606 381.070,273.102 380.935,273.401 380.652 C 273.699 380.369,274.208 380.138,274.533 380.138 C 274.857 380.138,275.085 379.935,275.038 379.686 C 274.988 379.422,275.266 379.317,275.711 379.433 C 276.127 379.542,277.071 379.258,277.809 378.803 C 278.546 378.347,279.448 377.974,279.814 377.974 C 280.217 377.974,280.368 377.795,280.198 377.520 C 280.032 377.250,280.090 377.173,280.342 377.329 C 280.829 377.629,282.793 376.835,282.793 376.338 C 282.793 376.156,282.925 376.029,283.088 376.054 C 283.875 376.179,284.109 375.954,283.579 375.583 C 283.117 375.259,283.181 375.224,283.874 375.419 C 284.415 375.571,284.759 375.496,284.759 375.225 C 284.759 374.981,284.936 374.891,285.152 375.025 C 285.369 375.158,285.546 375.080,285.546 374.851 C 285.546 374.622,285.678 374.456,285.841 374.481 C 286.665 374.611,287.135 374.386,286.885 373.981 C 286.717 373.709,286.776 373.633,287.032 373.791 C 287.641 374.167,290.709 372.868,290.399 372.366 C 290.247 372.120,290.334 372.071,290.615 372.244 C 291.204 372.608,292.314 371.739,291.970 371.183 C 291.823 370.944,291.908 370.891,292.175 371.056 C 292.818 371.454,294.265 370.928,293.947 370.412 C 293.789 370.158,293.867 370.100,294.141 370.269 C 294.393 370.425,295.403 370.010,296.385 369.347 C 297.367 368.684,298.339 368.142,298.545 368.142 C 298.750 368.142,298.918 367.965,298.918 367.748 C 298.918 367.532,299.084 367.355,299.287 367.355 C 300.081 367.355,303.214 365.165,303.058 364.720 C 302.963 364.451,303.122 364.337,303.427 364.454 C 304.082 364.705,307.249 362.675,306.952 362.194 C 306.834 362.004,307.122 361.849,307.590 361.849 C 308.198 361.849,308.375 361.674,308.208 361.238 C 308.075 360.891,308.140 360.731,308.359 360.866 C 308.571 360.997,309.056 360.923,309.436 360.702 C 309.817 360.480,309.951 360.276,309.735 360.248 C 309.518 360.220,309.784 360.066,310.324 359.906 C 310.886 359.740,311.252 359.378,311.177 359.061 C 311.105 358.755,311.177 358.637,311.339 358.799 C 311.609 359.068,313.929 357.597,314.848 356.573 C 315.064 356.332,315.733 355.820,316.335 355.435 C 316.937 355.049,317.325 354.565,317.197 354.358 C 317.069 354.152,317.169 353.982,317.419 353.982 C 318.038 353.982,320.254 352.375,319.994 352.114 C 319.879 351.999,320.532 351.429,321.446 350.848 C 323.092 349.800,324.458 348.476,323.894 348.476 C 323.733 348.476,323.820 348.212,324.087 347.890 C 324.354 347.568,324.734 347.404,324.931 347.526 C 325.129 347.648,325.241 347.591,325.182 347.400 C 325.027 346.902,327.702 344.147,328.102 344.394 C 328.286 344.508,328.388 344.367,328.328 344.080 C 328.269 343.794,328.455 343.608,328.741 343.668 C 329.028 343.727,329.162 343.614,329.040 343.417 C 328.798 343.025,329.745 342.068,330.062 342.385 C 330.169 342.493,330.579 342.226,330.971 341.792 C 331.364 341.358,331.556 341.003,331.398 341.003 C 331.239 341.003,331.655 340.544,332.321 339.984 C 332.987 339.423,333.416 338.776,333.274 338.546 C 333.131 338.316,333.199 338.242,333.425 338.381 C 333.650 338.521,334.053 338.371,334.320 338.049 C 334.708 337.582,334.704 337.463,334.299 337.463 C 333.679 337.463,334.198 336.880,334.841 336.855 C 335.093 336.845,335.256 336.624,335.202 336.364 C 335.147 336.103,335.377 335.890,335.712 335.890 C 336.047 335.890,336.534 335.384,336.794 334.766 C 337.054 334.147,337.443 333.599,337.660 333.546 C 337.876 333.494,338.009 333.292,337.955 333.097 C 337.901 332.903,338.052 332.743,338.292 332.743 C 338.531 332.743,338.629 332.487,338.509 332.173 C 338.378 331.833,338.480 331.675,338.761 331.780 C 339.348 332.000,341.169 329.397,340.822 328.836 C 340.670 328.589,340.812 328.519,341.179 328.660 C 341.515 328.789,341.790 328.698,341.790 328.459 C 341.790 327.670,341.901 327.439,342.537 326.913 C 342.899 326.613,342.931 326.514,342.614 326.679 C 342.251 326.867,342.157 326.810,342.342 326.511 C 342.496 326.261,342.878 326.057,343.189 326.057 C 343.501 326.057,343.756 325.792,343.756 325.467 C 343.756 325.143,343.933 324.877,344.149 324.877 C 344.366 324.877,344.543 324.612,344.543 324.287 C 344.543 323.963,344.720 323.697,344.936 323.697 C 345.152 323.697,345.329 323.432,345.329 323.107 C 345.329 322.783,345.517 322.517,345.746 322.517 C 345.975 322.517,346.053 322.340,345.919 322.124 C 345.786 321.908,345.864 321.731,346.093 321.731 C 346.322 321.731,346.509 321.480,346.509 321.173 C 346.509 320.867,346.712 320.549,346.959 320.466 C 347.207 320.384,347.435 319.882,347.467 319.352 C 347.524 318.393,348.441 316.439,348.464 317.227 C 348.471 317.454,348.264 317.853,348.004 318.112 C 347.713 318.403,347.690 318.584,347.944 318.584 C 348.397 318.584,349.787 315.756,349.787 314.835 C 349.787 314.517,350.033 314.258,350.335 314.258 C 350.636 314.258,350.773 314.081,350.639 313.864 C 350.505 313.648,350.594 313.471,350.836 313.471 C 351.078 313.471,351.176 313.310,351.054 313.113 C 350.716 312.565,351.257 311.475,351.724 311.764 C 351.953 311.905,352.022 311.832,351.879 311.601 C 351.554 311.076,351.989 309.868,352.409 310.128 C 352.580 310.234,352.825 310.046,352.953 309.712 C 353.108 309.309,353.030 309.201,352.721 309.392 C 352.464 309.550,352.638 309.141,353.107 308.483 C 353.575 307.825,353.846 307.173,353.708 307.035 C 353.571 306.897,353.683 306.785,353.959 306.785 C 354.250 306.785,354.362 306.529,354.226 306.174 C 354.091 305.824,354.157 305.666,354.380 305.804 C 354.594 305.936,354.769 305.690,354.769 305.258 C 354.769 304.825,354.958 304.354,355.189 304.212 C 355.420 304.069,355.519 303.717,355.409 303.430 C 355.299 303.144,355.468 302.694,355.785 302.431 C 356.102 302.168,356.280 301.872,356.182 301.773 C 356.083 301.674,356.361 300.906,356.799 300.065 C 357.237 299.225,357.691 297.826,357.807 296.958 C 357.924 296.089,358.192 295.379,358.403 295.379 C 358.614 295.379,358.684 295.113,358.560 294.789 C 358.435 294.464,358.484 294.199,358.669 294.199 C 358.853 294.199,359.096 293.845,359.209 293.412 C 359.322 292.979,359.271 292.625,359.095 292.625 C 358.920 292.625,358.868 292.273,358.980 291.843 C 359.093 291.413,359.342 291.158,359.533 291.276 C 359.863 291.480,359.993 290.938,359.987 289.381 C 359.986 289.002,360.128 288.692,360.304 288.692 C 360.480 288.692,360.555 288.338,360.472 287.906 C 360.389 287.473,360.532 287.116,360.790 287.113 C 361.072 287.109,361.024 286.955,360.669 286.726 C 360.235 286.446,360.216 286.343,360.597 286.338 C 360.928 286.335,361.028 286.060,360.876 285.579 C 360.744 285.164,360.824 284.710,361.052 284.568 C 361.281 284.427,361.366 284.147,361.242 283.945 C 361.117 283.744,361.225 283.579,361.480 283.579 C 361.808 283.579,361.786 283.383,361.405 282.914 C 361.108 282.548,361.072 282.372,361.325 282.524 C 361.830 282.827,362.469 280.724,362.068 280.076 C 361.940 279.869,362.004 279.596,362.210 279.469 C 362.417 279.341,362.593 278.931,362.602 278.557 C 362.652 276.491,362.950 274.191,363.227 273.743 C 363.445 273.391,363.390 273.327,363.050 273.536 C 362.661 273.777,362.653 273.661,363.015 272.986 C 363.266 272.515,363.422 271.742,363.361 271.267 C 363.300 270.792,363.360 270.226,363.494 270.010 C 363.931 269.310,363.485 247.591,363.034 247.591 C 362.988 247.591,362.881 246.794,362.797 245.821 C 362.594 243.486,362.444 242.546,362.199 242.078 C 362.088 241.865,362.028 241.293,362.066 240.806 C 362.103 240.320,362.026 239.921,361.893 239.921 C 361.760 239.921,361.652 239.242,361.652 238.412 C 361.652 237.055,361.751 236.906,362.635 236.937 C 363.176 236.956,363.583 236.776,363.540 236.538 C 363.492 236.274,363.860 236.181,364.483 236.300 C 365.251 236.447,365.427 236.369,365.189 235.984 C 364.986 235.656,365.029 235.569,365.308 235.742 C 365.857 236.081,368.614 234.636,368.230 234.210 C 368.073 234.037,368.174 234.028,368.454 234.189 C 369.017 234.514,370.212 233.722,369.907 233.227 C 369.801 233.055,370.068 233.008,370.501 233.121 C 370.941 233.236,371.288 233.133,371.288 232.888 C 371.288 232.646,371.564 232.448,371.901 232.448 C 372.239 232.448,372.417 232.291,372.299 232.099 C 372.180 231.908,372.391 231.775,372.767 231.804 C 373.143 231.834,373.407 231.637,373.353 231.367 C 373.299 231.096,373.533 230.875,373.873 230.875 C 374.623 230.875,375.612 229.945,375.621 229.232 C 375.625 228.848,375.726 228.866,376.008 229.302 C 376.351 229.833,376.570 229.587,376.448 228.810 C 376.422 228.648,376.643 228.515,376.938 228.515 C 377.797 228.515,379.582 226.925,379.292 226.419 C 379.147 226.166,379.173 226.090,379.351 226.251 C 379.663 226.534,386.367 220.257,386.069 219.960 C 385.988 219.879,386.615 219.104,387.462 218.240 C 388.310 217.375,388.912 216.520,388.801 216.339 C 388.690 216.159,388.881 215.903,389.227 215.770 C 389.573 215.638,389.758 215.275,389.638 214.963 C 389.486 214.566,389.611 214.469,390.055 214.639 C 390.478 214.802,390.595 214.729,390.405 214.423 C 390.249 214.170,390.308 213.963,390.537 213.963 C 390.766 213.963,390.910 213.741,390.855 213.471 C 390.801 213.201,390.968 213.020,391.225 213.070 C 391.767 213.174,392.300 211.797,391.942 211.217 C 391.807 210.998,391.946 210.920,392.259 211.040 C 392.567 211.158,392.928 210.970,393.062 210.622 C 393.219 210.212,393.148 210.085,392.863 210.262 C 392.419 210.536,393.868 208.350,394.789 207.357 C 395.382 206.717,395.432 206.349,394.879 206.691 C 394.659 206.827,394.834 206.351,395.269 205.633 C 396.404 203.759,397.361 201.614,397.432 200.787 C 397.451 200.570,397.877 199.549,398.379 198.517 C 398.881 197.485,399.195 196.390,399.078 196.084 C 398.960 195.778,399.076 195.457,399.334 195.371 C 400.304 195.048,400.199 159.914,399.221 158.039 C 398.767 157.168,398.630 156.618,398.910 156.790 C 399.185 156.960,399.096 156.619,398.713 156.032 C 398.329 155.445,398.135 154.966,398.282 154.966 C 398.429 154.966,398.255 154.641,397.897 154.245 C 397.538 153.849,397.362 153.408,397.506 153.264 C 397.649 153.121,397.472 152.679,397.112 152.281 C 396.753 151.884,396.555 151.462,396.674 151.343 C 397.014 151.003,395.183 147.506,394.792 147.748 C 394.599 147.867,394.497 147.637,394.566 147.237 C 394.634 146.837,394.506 146.541,394.280 146.580 C 394.055 146.620,393.842 146.277,393.808 145.820 C 393.773 145.363,393.467 144.833,393.128 144.643 C 392.788 144.453,392.632 144.102,392.780 143.862 C 392.956 143.577,392.815 143.516,392.374 143.685 C 391.925 143.857,391.792 143.794,391.977 143.495 C 392.129 143.249,391.988 142.852,391.663 142.615 C 391.338 142.377,391.057 142.094,391.038 141.986 C 390.891 141.130,390.385 140.413,389.928 140.413 C 389.627 140.413,389.381 140.158,389.381 139.845 C 389.381 139.533,388.987 139.002,388.506 138.665 C 388.026 138.329,387.774 138.053,387.947 138.053 C 388.119 138.053,387.683 137.566,386.976 136.971 C 386.269 136.377,385.562 135.890,385.405 135.890 C 385.248 135.890,384.972 135.729,384.792 135.532 C 384.597 135.318,384.702 135.309,385.054 135.509 C 385.561 135.797,385.569 135.752,385.108 135.183 C 384.813 134.819,384.447 134.599,384.295 134.693 C 384.142 134.787,383.769 134.520,383.466 134.099 C 383.162 133.678,382.589 133.333,382.191 133.333 C 381.793 133.333,381.577 133.156,381.711 132.940 C 381.845 132.724,381.678 132.547,381.341 132.547 C 381.004 132.547,380.728 132.351,380.728 132.111 C 380.728 131.861,380.440 131.786,380.051 131.935 C 379.679 132.078,379.499 132.071,379.650 131.920 C 379.981 131.589,376.432 129.728,375.991 130.001 C 375.821 130.106,375.613 129.987,375.530 129.736 C 375.446 129.485,375.003 129.253,374.546 129.219 C 374.088 129.185,373.399 128.903,373.015 128.591 C 372.403 128.093,372.360 128.096,372.665 128.614 C 372.953 129.103,372.910 129.121,372.409 128.715 C 372.077 128.447,371.689 128.344,371.547 128.486 C 371.405 128.628,371.288 128.518,371.288 128.240 C 371.288 127.929,370.986 127.814,370.501 127.941 C 370.069 128.054,369.715 127.974,369.715 127.764 C 369.715 127.553,369.361 127.493,368.928 127.630 C 368.496 127.768,368.142 127.707,368.142 127.495 C 368.142 127.283,367.699 127.158,367.158 127.218 C 366.618 127.277,366.175 127.159,366.175 126.956 C 366.175 126.753,365.565 126.639,364.820 126.704 C 364.074 126.768,363.337 126.693,363.181 126.537 C 362.838 126.194,357.752 126.155,357.414 126.493 C 357.283 126.624,356.295 126.785,355.218 126.849 C 352.665 127.002,351.544 127.372,351.871 127.954 C 352.066 128.301,352.010 128.305,351.647 127.971 C 351.132 127.496,349.656 127.698,349.656 128.244 C 349.656 128.422,349.302 128.500,348.869 128.417 C 348.437 128.334,348.083 128.432,348.083 128.636 C 348.083 128.840,347.950 128.986,347.788 128.960 C 347.002 128.836,346.090 129.039,346.252 129.302 C 346.352 129.464,346.016 129.622,345.505 129.653 C 344.776 129.696,344.481 129.420,344.135 128.374 C 343.893 127.641,343.521 127.040,343.309 127.040 C 343.097 127.040,343.037 126.856,343.177 126.630 C 343.316 126.404,343.217 125.961,342.955 125.646 C 342.694 125.331,342.617 125.074,342.786 125.074 C 342.954 125.074,342.798 124.750,342.440 124.354 C 342.081 123.957,341.901 123.520,342.039 123.383 C 342.177 123.245,342.000 122.690,341.646 122.150 C 341.292 121.610,341.003 120.897,341.003 120.564 C 341.003 120.232,340.816 119.961,340.586 119.961 C 340.357 119.961,340.272 119.796,340.396 119.595 C 340.521 119.393,340.443 119.117,340.223 118.981 C 340.003 118.845,339.823 118.380,339.823 117.948 C 339.823 117.447,339.656 117.265,339.363 117.445 C 339.061 117.632,338.982 117.522,339.134 117.127 C 339.261 116.795,339.029 115.969,338.617 115.292 C 338.205 114.615,337.998 114.058,338.157 114.055 C 338.316 114.052,338.269 113.919,338.053 113.760 C 337.532 113.377,336.060 110.454,336.185 110.051 C 336.239 109.877,336.018 109.735,335.693 109.735 C 335.369 109.735,335.141 109.602,335.188 109.440 C 335.353 108.861,333.816 105.428,333.484 105.633 C 333.298 105.748,333.251 105.568,333.380 105.232 C 333.509 104.895,333.408 104.621,333.156 104.621 C 332.903 104.621,332.806 104.444,332.940 104.228 C 333.074 104.012,332.996 103.835,332.767 103.835 C 332.537 103.835,332.350 103.559,332.350 103.222 C 332.350 102.884,332.175 102.717,331.961 102.849 C 331.738 102.987,331.672 102.829,331.807 102.479 C 331.936 102.142,331.835 101.868,331.582 101.868 C 331.330 101.868,331.252 101.661,331.408 101.408 C 331.595 101.105,331.484 101.028,331.082 101.182 C 330.641 101.351,330.523 101.223,330.655 100.718 C 330.756 100.333,330.603 99.764,330.316 99.452 C 329.702 98.786,328.913 97.587,328.541 96.755 C 328.396 96.431,328.176 96.077,328.052 95.969 C 327.928 95.860,327.487 95.152,327.070 94.395 C 326.654 93.638,325.893 92.620,325.379 92.134 C 324.864 91.647,324.575 91.249,324.735 91.249 C 324.896 91.249,324.684 90.970,324.264 90.630 C 323.844 90.289,323.720 90.121,323.988 90.257 C 324.308 90.419,324.395 90.295,324.241 89.895 C 324.113 89.560,323.862 89.377,323.684 89.487 C 323.506 89.597,323.236 89.294,323.084 88.815 C 322.730 87.701,321.914 86.879,321.518 87.236 C 321.349 87.388,321.344 87.282,321.507 87.000 C 321.690 86.683,321.408 86.123,320.763 85.526 C 320.191 84.996,319.827 84.562,319.954 84.562 C 320.081 84.562,319.993 84.203,319.758 83.765 C 319.523 83.326,319.176 83.063,318.986 83.181 C 318.796 83.298,318.583 82.993,318.514 82.503 C 318.436 81.957,318.133 81.632,317.730 81.662 C 317.324 81.693,317.152 81.505,317.281 81.170 C 317.395 80.873,317.282 80.629,317.030 80.629 C 316.777 80.629,316.680 80.452,316.814 80.236 C 316.948 80.020,316.781 79.843,316.444 79.843 C 316.107 79.843,315.831 79.591,315.831 79.283 C 315.831 78.482,313.866 76.255,313.409 76.538 C 313.198 76.668,313.081 76.448,313.150 76.047 C 313.234 75.556,313.052 75.337,312.590 75.373 C 312.214 75.403,311.990 75.293,312.091 75.128 C 312.332 74.738,309.946 71.438,309.642 71.741 C 309.515 71.868,309.204 71.575,308.951 71.089 C 308.698 70.604,308.270 70.255,308.002 70.315 C 307.733 70.374,307.625 70.241,307.762 70.020 C 307.899 69.798,307.794 69.617,307.529 69.617 C 307.264 69.617,307.168 69.495,307.316 69.347 C 307.614 69.049,305.268 66.470,304.698 66.470 C 304.501 66.470,303.341 65.464,302.120 64.234 C 300.900 63.005,300.167 62.146,300.492 62.326 C 300.816 62.505,300.389 61.926,299.543 61.038 C 298.696 60.150,297.856 59.515,297.675 59.627 C 297.493 59.738,297.345 59.653,297.345 59.436 C 297.345 59.219,296.824 58.734,296.187 58.357 C 295.549 57.981,295.110 57.540,295.211 57.377 C 295.492 56.922,292.717 54.961,292.223 55.266 C 291.955 55.432,291.834 55.276,291.911 54.863 C 291.991 54.429,291.549 53.927,290.665 53.447 C 289.911 53.039,289.446 52.704,289.631 52.704 C 289.817 52.704,289.748 52.439,289.479 52.114 C 289.210 51.790,288.646 51.524,288.228 51.524 C 287.809 51.524,287.570 51.356,287.697 51.151 C 287.982 50.690,286.460 49.825,285.935 50.150 C 285.724 50.281,285.656 50.121,285.783 49.791 C 285.939 49.385,285.690 49.117,284.994 48.942 C 284.435 48.802,284.070 48.538,284.183 48.355 C 284.448 47.927,282.986 47.136,282.615 47.506 C 282.460 47.661,282.393 47.522,282.465 47.198 C 282.551 46.810,282.306 46.617,281.751 46.635 C 281.146 46.654,280.968 46.486,281.125 46.045 C 281.246 45.705,281.200 45.559,281.022 45.720 C 280.845 45.881,280.453 45.660,280.151 45.229 C 279.849 44.797,279.373 44.444,279.095 44.444 C 278.816 44.444,278.258 44.080,277.854 43.634 C 277.451 43.188,276.817 42.902,276.446 42.999 C 275.965 43.125,275.839 43.001,276.005 42.567 C 276.183 42.103,276.043 42.009,275.415 42.173 C 274.822 42.329,274.650 42.236,274.801 41.843 C 274.916 41.543,274.784 41.298,274.508 41.298 C 274.231 41.298,273.651 40.988,273.218 40.610 C 272.635 40.099,272.507 40.074,272.725 40.511 C 272.887 40.836,272.668 40.703,272.238 40.216 C 271.809 39.730,271.368 39.331,271.259 39.331 C 271.151 39.331,270.121 38.712,268.972 37.955 C 267.822 37.198,266.680 36.578,266.434 36.578 C 266.188 36.578,265.521 36.213,264.954 35.766 C 264.386 35.319,263.715 35.081,263.463 35.237 C 263.178 35.413,263.111 35.348,263.286 35.066 C 263.440 34.816,263.379 34.589,263.150 34.562 C 262.318 34.464,262.126 34.383,261.082 33.685 C 260.499 33.294,259.791 32.934,259.509 32.884 C 259.228 32.835,258.378 32.406,257.620 31.932 C 256.863 31.458,256.013 31.157,255.732 31.263 C 255.419 31.381,255.329 31.279,255.501 31.000 C 255.691 30.693,255.563 30.629,255.108 30.804 C 254.737 30.946,254.530 30.906,254.648 30.715 C 254.766 30.524,254.598 30.266,254.275 30.142 C 253.952 30.018,253.687 30.122,253.687 30.373 C 253.687 30.624,253.449 30.502,253.157 30.104 C 252.813 29.633,252.433 29.491,252.075 29.698 C 251.772 29.874,251.660 29.869,251.826 29.686 C 252.207 29.266,249.816 28.234,249.259 28.578 C 249.018 28.727,248.963 28.645,249.127 28.379 C 249.387 27.958,249.228 27.891,247.689 27.768 C 247.419 27.746,246.963 27.506,246.676 27.235 C 246.389 26.963,245.729 26.818,245.210 26.912 C 244.691 27.006,244.306 26.963,244.355 26.816 C 244.404 26.669,244.339 26.549,244.210 26.549 C 244.081 26.549,243.685 26.308,243.330 26.013 C 242.975 25.718,242.417 25.580,242.090 25.706 C 241.593 25.896,241.493 25.465,241.484 23.095 C 241.478 21.533,241.388 18.486,241.285 16.323 C 241.181 14.159,241.106 10.841,241.119 8.948 C 241.137 6.091,241.037 5.506,240.531 5.506 C 240.196 5.506,239.921 5.241,239.921 4.916 C 239.921 4.205,238.496 4.123,238.215 4.818 C 238.082 5.148,238.007 5.160,237.986 4.855 C 237.950 4.331,236.382 4.628,236.382 5.159 C 236.382 5.350,236.106 5.506,235.768 5.506 C 235.405 5.506,235.269 5.691,235.436 5.960 C 235.601 6.228,235.545 6.308,235.297 6.155 C 234.852 5.880,232.455 7.072,232.451 7.571 C 232.449 7.734,232.196 7.866,231.887 7.866 C 231.577 7.866,231.015 8.176,230.636 8.555 C 230.258 8.933,229.847 9.255,229.723 9.269 C 229.112 9.339,226.549 10.806,226.549 11.086 C 226.549 11.262,226.296 11.406,225.987 11.406 C 225.678 11.406,225.184 11.627,224.889 11.898 C 224.594 12.168,224.006 12.594,223.582 12.844 C 223.159 13.095,222.850 13.475,222.897 13.689 C 222.944 13.903,222.655 13.993,222.256 13.889 C 221.800 13.770,221.127 14.114,220.450 14.814 C 219.856 15.427,219.490 15.710,219.636 15.442 C 219.814 15.117,219.700 15.033,219.293 15.189 C 218.957 15.318,218.682 15.581,218.682 15.775 C 218.682 15.968,218.406 16.126,218.069 16.126 C 217.732 16.126,217.564 16.301,217.696 16.515 C 217.834 16.738,217.676 16.804,217.326 16.669 C 216.991 16.540,216.716 16.631,216.716 16.870 C 216.716 17.110,216.463 17.306,216.154 17.306 C 215.845 17.306,215.343 17.555,215.038 17.860 C 214.315 18.583,211.672 19.310,211.395 18.862 C 211.278 18.672,210.244 18.558,209.098 18.610 C 207.889 18.665,206.999 18.535,206.978 18.300 C 206.924 17.695,206.516 15.668,206.224 14.553 C 206.083 14.012,205.996 13.437,206.032 13.274 C 206.067 13.112,205.964 12.979,205.801 12.979 C 205.639 12.979,205.487 12.581,205.464 12.094 C 205.405 10.853,205.143 9.721,204.784 9.145 C 204.615 8.874,204.586 8.476,204.720 8.260 C 204.853 8.043,204.746 7.866,204.481 7.866 C 204.216 7.866,204.115 7.750,204.257 7.607 C 204.400 7.465,204.297 7.077,204.028 6.745 C 203.628 6.251,203.640 6.202,204.092 6.475 C 204.467 6.701,204.554 6.662,204.365 6.355 C 204.211 6.106,204.012 5.524,203.923 5.061 C 203.743 4.127,203.343 3.558,203.343 4.237 M171.495 9.081 C 170.531 9.927,169.914 10.619,170.122 10.618 C 170.331 10.617,171.037 10.114,171.692 9.500 C 172.347 8.886,173.135 8.300,173.443 8.197 C 173.751 8.094,173.832 7.905,173.624 7.776 C 173.416 7.648,172.458 8.235,171.495 9.081 M162.045 19.862 C 162.045 20.187,161.868 20.452,161.652 20.452 C 161.436 20.452,161.259 20.718,161.259 21.042 C 161.259 21.367,161.082 21.632,160.865 21.632 C 160.649 21.632,160.472 21.851,160.472 22.118 C 160.472 22.744,162.656 20.417,162.682 19.764 C 162.692 19.494,162.553 19.272,162.373 19.272 C 162.193 19.272,162.045 19.538,162.045 19.862 M136.360 34.996 C 135.344 35.640,134.513 36.253,134.513 36.357 C 134.513 36.461,135.398 35.996,136.480 35.323 C 138.214 34.245,138.732 33.825,138.327 33.825 C 138.261 33.825,137.376 34.352,136.360 34.996 M133.187 36.689 C 132.536 37.165,132.539 37.197,133.243 37.250 C 133.653 37.281,133.989 37.054,133.989 36.745 C 133.989 36.067,134.033 36.070,133.187 36.689 M123.581 42.630 C 120.098 44.981,118.315 46.411,118.865 46.411 C 119.004 46.411,119.352 46.179,119.638 45.895 C 119.923 45.611,121.794 44.279,123.795 42.935 C 125.796 41.591,127.434 40.407,127.434 40.305 C 127.434 40.025,127.500 39.985,123.581 42.630 M104.781 57.088 C 104.035 57.927,104.036 57.929,104.916 57.467 C 105.403 57.212,105.801 56.832,105.801 56.623 C 105.801 56.065,105.613 56.150,104.781 57.088 M102.605 59.258 C 102.111 59.857,102.149 59.869,103.048 59.401 C 104.367 58.716,104.466 58.604,103.752 58.604 C 103.418 58.604,102.902 58.898,102.605 59.258 M99.730 61.723 C 99.070 62.451,99.076 62.473,99.865 62.267 C 100.318 62.149,100.688 61.807,100.688 61.508 C 100.688 60.788,100.547 60.820,99.730 61.723 M95.006 66.447 C 94.626 66.867,94.377 67.394,94.453 67.618 C 94.530 67.842,94.893 67.498,95.262 66.854 C 96.041 65.493,95.971 65.381,95.006 66.447 M91.445 70.403 C 91.054 70.836,90.932 71.190,91.174 71.190 C 91.416 71.190,91.804 70.836,92.035 70.403 C 92.267 69.971,92.389 69.617,92.307 69.617 C 92.225 69.617,91.837 69.971,91.445 70.403 M85.202 77.569 C 84.657 78.266,84.290 78.915,84.387 79.011 C 84.483 79.108,84.607 79.113,84.662 79.023 C 84.717 78.933,85.165 78.284,85.657 77.581 C 86.813 75.931,86.490 75.923,85.202 77.569 M82.592 80.724 C 81.389 82.534,81.380 82.755,82.561 81.461 C 83.839 80.060,83.962 79.843,83.477 79.843 C 83.313 79.843,82.915 80.239,82.592 80.724 M75.621 90.256 C 75.001 91.212,74.914 91.547,75.326 91.389 C 75.647 91.265,75.910 90.937,75.910 90.659 C 75.910 90.381,76.175 90.051,76.500 89.927 C 76.824 89.802,77.089 89.518,77.089 89.295 C 77.089 88.518,76.494 88.908,75.621 90.256 M67.699 102.901 C 67.440 103.470,67.317 104.027,67.428 104.137 C 67.538 104.247,67.815 103.846,68.043 103.245 C 68.583 101.826,68.312 101.555,67.699 102.901 M65.785 106.326 C 65.478 106.998,65.488 107.244,65.820 107.244 C 66.069 107.243,66.299 106.831,66.330 106.326 C 66.401 105.175,66.309 105.175,65.785 106.326 M64.613 109.046 C 63.886 109.988,60.940 116.135,61.127 116.322 C 61.231 116.426,62.192 114.720,63.264 112.533 C 65.153 108.675,65.407 108.019,64.613 109.046 M59.784 118.781 C 59.498 119.314,59.494 119.567,59.770 119.567 C 59.994 119.567,60.177 119.317,60.177 119.010 C 60.177 118.704,60.398 118.364,60.669 118.255 C 61.039 118.105,61.043 118.049,60.682 118.025 C 60.420 118.008,60.015 118.348,59.784 118.781 M37.229 126.549 C 37.129 126.711,38.340 126.844,39.921 126.844 C 41.502 126.844,42.592 126.714,42.342 126.555 C 41.744 126.174,37.463 126.169,37.229 126.549 M55.890 128.346 C 55.498 129.495,55.226 129.786,54.730 129.586 C 53.924 129.261,53.191 129.078,53.591 129.302 C 53.755 129.393,53.812 129.592,53.718 129.744 C 53.624 129.896,53.974 130.055,54.496 130.098 C 55.583 130.188,56.794 128.688,56.552 127.551 C 56.448 127.067,56.239 127.318,55.890 128.346 M161.106 131.119 C 167.612 132.510,171.609 133.969,180.138 138.068 C 195.445 145.424,205.256 145.467,219.519 138.240 C 248.243 123.686,279.468 127.988,300.885 149.450 C 321.946 170.555,325.138 199.732,309.299 226.360 C 302.752 237.367,301.850 247.526,306.193 261.357 C 310.670 275.618,311.622 283.767,310.131 295.063 C 302.905 349.802,242.206 387.966,178.958 377.539 C 136.866 370.599,101.521 340.591,92.379 304.031 C 88.678 289.233,89.278 278.271,94.728 261.145 C 99.402 246.456,98.188 237.420,89.569 222.750 C 74.260 196.694,81.572 162.504,106.391 144.088 C 108.555 142.483,111.204 140.451,112.278 139.573 C 122.089 131.557,144.783 127.628,161.106 131.119 M19.963 131.858 C 19.454 132.345,19.344 132.505,19.720 132.213 C 20.095 131.922,20.591 131.799,20.821 131.941 C 21.051 132.084,21.239 131.924,21.239 131.587 C 21.239 130.772,21.060 130.810,19.963 131.858 M12.185 137.865 C 11.234 138.834,10.651 139.626,10.889 139.626 C 11.127 139.626,11.428 139.350,11.558 139.011 C 11.690 138.667,11.995 138.521,12.251 138.679 C 12.523 138.847,12.602 138.790,12.446 138.539 C 12.303 138.306,12.656 137.745,13.232 137.292 C 13.808 136.839,14.197 136.387,14.096 136.286 C 13.996 136.185,13.136 136.896,12.185 137.865 M37.016 141.217 C 12.437 147.654,4.239 184.455,22.040 208.442 C 29.039 217.872,41.325 226.926,44.035 224.651 C 46.389 222.674,49.007 201.474,49.556 179.941 C 49.932 165.157,50.358 160.855,52.380 151.426 C 53.942 144.139,54.104 142.658,53.403 142.077 C 51.337 140.362,42.126 139.879,37.016 141.217 M363.225 141.402 C 387.207 147.885,395.341 183.562,378.331 207.661 C 371.432 217.434,357.869 227.321,355.791 224.090 C 353.665 220.785,351.274 200.745,350.852 182.694 C 350.464 166.086,349.883 160.368,347.468 149.431 C 345.855 142.125,345.890 142.939,347.156 142.109 C 349.792 140.382,358.099 140.016,363.225 141.402 M49.042 141.635 C 50.416 141.874,51.911 142.370,52.364 142.737 L 53.187 143.404 52.371 146.726 C 49.642 157.830,48.773 165.639,48.367 182.694 C 48.176 190.698,47.828 198.836,47.594 200.779 C 46.168 212.615,44.305 222.892,43.422 223.794 C 41.473 225.785,29.059 216.210,22.870 207.942 C 1.585 179.509,18.625 136.338,49.042 141.635 M0.673 157.718 C 0.560 158.151,0.628 158.604,0.824 158.725 C 1.020 158.846,1.180 158.492,1.180 157.939 C 1.180 156.734,0.956 156.636,0.673 157.718 M141.298 176.486 C 141.893 176.576,142.866 176.576,143.461 176.486 C 144.056 176.396,143.569 176.322,142.380 176.322 C 141.190 176.322,140.703 176.396,141.298 176.486 M254.572 176.486 C 255.167 176.576,256.141 176.576,256.735 176.486 C 257.330 176.396,256.844 176.322,255.654 176.322 C 254.464 176.322,253.977 176.396,254.572 176.486 M134.022 178.396 C 132.497 179.223,132.669 179.509,134.218 178.721 C 135.701 177.967,135.963 177.772,135.464 177.794 C 135.265 177.802,134.617 178.073,134.022 178.396 M150.672 177.924 C 151.077 178.287,153.392 179.351,153.392 179.175 C 153.392 178.948,151.212 177.778,150.790 177.778 C 150.635 177.778,150.582 177.844,150.672 177.924 M130.276 181.219 L 128.344 183.088 130.150 181.552 C 132.683 179.399,132.733 179.351,132.456 179.351 C 132.320 179.351,131.339 180.192,130.276 181.219 M153.982 179.616 C 155.816 181.442,158.534 183.669,157.325 182.353 C 156.568 181.530,155.418 180.489,154.769 180.040 C 154.120 179.591,153.766 179.400,153.982 179.616 M275.072 194.690 C 275.072 196.962,275.137 197.891,275.216 196.755 C 275.296 195.619,275.296 193.761,275.216 192.625 C 275.137 191.490,275.072 192.419,275.072 194.690 M238.046 192.330 C 238.046 193.088,238.127 193.397,238.226 193.019 C 238.325 192.640,238.325 192.021,238.226 191.642 C 238.127 191.264,238.046 191.573,238.046 192.330 M161.808 197.443 C 161.808 200.580,161.869 201.863,161.944 200.295 C 162.019 198.727,162.019 196.160,161.944 194.592 C 161.869 193.024,161.808 194.307,161.808 197.443 M124.433 197.050 C 124.433 199.322,124.498 200.251,124.577 199.115 C 124.657 197.979,124.657 196.121,124.577 194.985 C 124.498 193.850,124.433 194.779,124.433 197.050 M238.046 201.770 C 238.046 202.527,238.127 202.837,238.226 202.458 C 238.325 202.080,238.325 201.460,238.226 201.082 C 238.127 200.703,238.046 201.013,238.046 201.770 M272.176 209.828 C 271.710 210.582,270.413 212.022,269.293 213.029 C 268.173 214.036,267.805 214.488,268.474 214.034 C 269.849 213.102,272.279 210.515,272.941 209.278 C 273.658 207.937,273.094 208.343,272.176 209.828 M158.504 210.128 C 157.925 210.919,157.830 211.194,158.255 210.848 C 158.900 210.325,159.875 208.850,159.576 208.850 C 159.501 208.850,159.019 209.425,158.504 210.128 M6.788 210.292 C 7.018 210.796,7.354 211.209,7.536 211.209 C 7.718 211.209,7.880 211.519,7.897 211.898 C 7.918 212.345,8.000 212.406,8.134 212.072 C 8.248 211.789,8.039 211.225,7.671 210.818 C 7.304 210.412,7.101 209.920,7.220 209.727 C 7.340 209.533,7.198 209.374,6.904 209.374 C 6.487 209.374,6.461 209.575,6.788 210.292 M129.204 211.945 C 129.853 212.662,130.914 213.614,131.563 214.062 C 132.958 215.024,132.643 214.684,129.990 212.363 C 128.537 211.092,128.332 210.983,129.204 211.945 M8.665 212.858 C 8.682 213.533,9.762 214.951,10.044 214.669 C 10.165 214.548,9.998 214.184,9.674 213.860 C 9.349 213.535,9.176 213.178,9.288 213.066 C 9.400 212.953,9.303 212.745,9.072 212.602 C 8.842 212.460,8.659 212.575,8.665 212.858 M132.940 214.942 C 132.940 215.211,135.348 216.405,135.528 216.225 C 135.614 216.140,135.066 215.776,134.312 215.416 C 133.557 215.056,132.940 214.843,132.940 214.942 M265.093 215.733 C 264.120 216.254,263.463 216.688,263.634 216.698 C 264.052 216.722,267.060 215.176,267.060 214.938 C 267.060 214.677,267.076 214.671,265.093 215.733 M141.898 217.791 C 142.823 217.874,144.239 217.873,145.045 217.788 C 145.850 217.704,145.093 217.636,143.363 217.637 C 141.632 217.639,140.973 217.708,141.898 217.791 M255.173 217.791 C 256.098 217.874,257.514 217.873,258.319 217.788 C 259.125 217.704,258.368 217.636,256.637 217.637 C 254.907 217.639,254.248 217.708,255.173 217.791 M13.373 218.978 C 13.373 219.226,14.169 220.272,15.143 221.303 C 16.116 222.333,16.912 222.956,16.912 222.687 C 16.912 222.418,16.649 222.096,16.327 221.973 C 16.005 221.849,15.208 221.023,14.557 220.138 C 13.906 219.252,13.373 218.730,13.373 218.978 M18.393 224.624 C 18.959 225.225,19.610 225.597,19.839 225.453 C 20.091 225.295,19.999 225.140,19.608 225.062 C 19.251 224.991,18.877 224.618,18.777 224.233 C 18.676 223.848,18.317 223.533,17.978 223.533 C 17.520 223.533,17.625 223.811,18.393 224.624 M24.833 230.351 C 25.073 230.639,25.519 230.875,25.826 230.875 C 26.273 230.875,26.286 230.771,25.893 230.351 C 25.624 230.062,25.177 229.826,24.901 229.826 C 24.526 229.826,24.509 229.960,24.833 230.351 M29.151 232.761 C 28.847 232.862,29.009 233.109,29.569 233.400 C 30.071 233.660,31.013 234.186,31.662 234.568 C 32.820 235.249,32.824 235.248,31.867 234.543 C 31.331 234.148,30.612 233.548,30.269 233.210 C 29.926 232.872,29.423 232.670,29.151 232.761 M176.696 246.092 C 177.075 246.191,177.694 246.191,178.073 246.092 C 178.451 245.993,178.142 245.912,177.384 245.912 C 176.627 245.912,176.318 245.993,176.696 246.092 M221.927 246.092 C 222.306 246.191,222.925 246.191,223.304 246.092 C 223.682 245.993,223.373 245.912,222.616 245.912 C 221.858 245.912,221.549 245.993,221.927 246.092 M174.142 247.099 C 173.633 247.586,173.490 247.788,173.825 247.548 C 174.160 247.308,174.789 246.915,175.221 246.675 C 175.654 246.435,175.796 246.233,175.538 246.226 C 175.280 246.220,174.652 246.613,174.142 247.099 M224.779 246.675 C 225.211 246.915,225.840 247.308,226.175 247.548 C 226.510 247.788,226.367 247.586,225.858 247.099 C 225.348 246.613,224.720 246.220,224.462 246.226 C 224.204 246.233,224.346 246.435,224.779 246.675 M182.104 247.788 C 182.861 248.202,183.658 248.541,183.874 248.541 C 184.090 248.541,183.648 248.202,182.891 247.788 C 182.134 247.373,181.337 247.034,181.121 247.034 C 180.905 247.034,181.347 247.373,182.104 247.788 M217.109 247.788 C 216.352 248.202,215.910 248.541,216.126 248.541 C 216.342 248.541,217.139 248.202,217.896 247.788 C 218.653 247.373,219.095 247.034,218.879 247.034 C 218.663 247.034,217.866 247.373,217.109 247.788 M186.431 249.754 C 187.188 250.169,187.984 250.508,188.201 250.508 C 188.417 250.508,187.974 250.169,187.217 249.754 C 186.460 249.340,185.664 249.001,185.447 249.001 C 185.231 249.001,185.674 249.340,186.431 249.754 M212.783 249.754 C 212.026 250.169,211.583 250.508,211.799 250.508 C 212.016 250.508,212.812 250.169,213.569 249.754 C 214.326 249.340,214.769 249.001,214.553 249.001 C 214.336 249.001,213.540 249.340,212.783 249.754 M207.753 252.169 C 206.479 252.984,205.290 254.733,205.330 255.733 C 205.341 256.014,205.626 255.578,205.963 254.765 C 206.364 253.800,207.142 252.948,208.205 252.311 C 209.100 251.774,209.656 251.336,209.440 251.338 C 209.223 251.339,208.464 251.713,207.753 252.169 M36.213 254.769 C 36.234 255.892,36.313 256.058,36.545 255.464 C 36.826 254.744,36.686 253.294,36.336 253.294 C 36.253 253.294,36.197 253.958,36.213 254.769 M226.216 254.598 C 225.980 254.882,224.897 255.531,223.809 256.041 C 222.721 256.550,221.902 257.038,221.988 257.124 C 222.236 257.372,225.955 255.386,226.523 254.701 C 226.807 254.360,226.950 254.081,226.842 254.081 C 226.733 254.081,226.452 254.313,226.216 254.598 M174.631 255.454 C 174.631 255.721,177.826 257.310,178.004 257.132 C 178.086 257.050,177.361 256.597,176.393 256.126 C 175.424 255.656,174.631 255.353,174.631 255.454 M180.531 258.407 C 181.288 258.822,182.085 259.161,182.301 259.161 C 182.517 259.161,182.075 258.822,181.318 258.407 C 180.560 257.993,179.764 257.653,179.548 257.653 C 179.331 257.653,179.774 257.993,180.531 258.407 M218.682 258.407 C 217.925 258.822,217.483 259.161,217.699 259.161 C 217.915 259.161,218.712 258.822,219.469 258.407 C 220.226 257.993,220.669 257.653,220.452 257.653 C 220.236 257.653,219.440 257.993,218.682 258.407 M193.151 260.130 L 192.201 261.357 193.327 260.287 C 193.946 259.699,194.373 259.147,194.276 259.061 C 194.179 258.975,193.673 259.456,193.151 260.130 M207.181 260.669 C 207.690 261.155,208.318 261.548,208.577 261.542 C 208.835 261.535,208.692 261.333,208.260 261.093 C 207.827 260.853,207.199 260.460,206.864 260.220 C 206.529 259.980,206.671 260.182,207.181 260.669 M185.251 260.570 C 185.792 260.879,186.411 261.132,186.627 261.132 C 186.844 261.132,186.578 260.879,186.037 260.570 C 185.497 260.261,184.877 260.008,184.661 260.008 C 184.444 260.008,184.710 260.261,185.251 260.570 M213.963 260.570 C 213.422 260.879,213.156 261.132,213.373 261.132 C 213.589 261.132,214.208 260.879,214.749 260.570 C 215.290 260.261,215.556 260.008,215.339 260.008 C 215.123 260.008,214.503 260.261,213.963 260.570 M188.889 261.825 C 189.267 261.924,189.887 261.924,190.265 261.825 C 190.644 261.726,190.334 261.645,189.577 261.645 C 188.820 261.645,188.510 261.726,188.889 261.825 M209.735 261.825 C 210.113 261.924,210.733 261.924,211.111 261.825 C 211.490 261.726,211.180 261.645,210.423 261.645 C 209.666 261.645,209.356 261.726,209.735 261.825 M36.185 266.775 C 36.185 267.555,36.351 268.296,36.555 268.422 C 36.775 268.559,36.832 268.052,36.696 267.167 C 36.391 265.192,36.185 265.034,36.185 266.775 M41.184 294.592 C 41.297 295.025,41.529 295.379,41.700 295.379 C 41.871 295.379,41.918 295.025,41.805 294.592 C 41.692 294.159,41.460 293.805,41.289 293.805 C 41.118 293.805,41.071 294.159,41.184 294.592 M41.896 296.559 C 42.453 298.425,42.894 299.420,43.081 299.233 C 43.184 299.130,43.066 298.442,42.819 297.704 C 42.283 296.102,41.452 295.070,41.896 296.559 M140.980 296.777 C 140.229 297.379,140.229 297.383,141.003 297.027 C 141.436 296.828,142.055 296.566,142.380 296.446 C 142.889 296.257,142.886 296.223,142.356 296.196 C 142.019 296.179,141.400 296.440,140.980 296.777 M258.633 296.910 C 259.514 297.310,260.639 298.147,261.134 298.770 C 261.855 299.677,261.919 299.707,261.458 298.918 C 260.784 297.765,258.565 296.161,257.661 296.174 C 257.314 296.179,257.751 296.510,258.633 296.910 M139.148 298.033 C 138.345 298.954,137.656 300.321,137.675 300.957 C 137.684 301.242,137.957 300.861,138.283 300.110 C 138.608 299.359,139.160 298.430,139.508 298.045 C 139.857 297.660,140.053 297.345,139.945 297.345 C 139.837 297.345,139.478 297.655,139.148 298.033 M141.593 317.153 C 141.593 317.580,143.940 322.124,144.161 322.124 C 144.269 322.124,143.803 321.018,143.125 319.666 C 141.841 317.103,141.593 316.697,141.593 317.153 M256.244 320.944 C 255.908 321.593,255.722 322.124,255.830 322.124 C 255.939 322.124,256.302 321.593,256.637 320.944 C 256.973 320.295,257.159 319.764,257.051 319.764 C 256.943 319.764,256.579 320.295,256.244 320.944 M147.534 327.432 C 148.232 328.404,149.156 329.511,149.586 329.890 C 150.016 330.270,149.516 329.474,148.474 328.122 C 146.286 325.283,145.661 324.824,147.534 327.432 M57.204 326.625 C 57.624 326.962,57.818 327.237,57.635 327.237 C 57.452 327.237,57.622 327.591,58.014 328.024 C 58.405 328.456,58.902 328.810,59.118 328.810 C 59.334 328.810,59.133 328.483,58.671 328.082 C 58.209 327.681,57.932 327.253,58.055 327.131 C 58.177 327.008,57.864 326.706,57.359 326.461 C 56.483 326.035,56.476 326.042,57.204 326.625 M59.648 329.892 C 59.437 330.234,63.334 335.224,63.603 334.955 C 63.701 334.856,63.458 334.425,63.061 333.996 C 61.547 332.360,59.984 330.221,60.079 329.916 C 60.202 329.515,59.891 329.497,59.648 329.892 M178.958 330.047 C 171.810 330.754,167.643 333.401,164.795 339.043 C 163.806 341.001,163.419 341.436,162.806 341.276 C 162.387 341.166,162.139 341.230,162.255 341.418 C 162.371 341.605,163.124 341.879,163.927 342.025 C 164.731 342.171,166.627 342.965,168.142 343.790 C 187.109 354.114,212.254 354.186,231.465 343.971 C 233.196 343.050,235.269 342.176,236.073 342.028 C 236.876 341.880,237.629 341.605,237.745 341.418 C 237.861 341.230,237.613 341.166,237.194 341.276 C 236.581 341.436,236.194 341.001,235.205 339.043 C 232.838 334.354,229.551 331.779,224.348 330.540 C 221.488 329.859,184.874 329.461,178.958 330.047 M246.599 333.825 L 243.265 337.266 246.706 333.932 C 249.902 330.835,250.327 330.383,250.040 330.383 C 249.982 330.383,248.433 331.932,246.599 333.825 M153.196 333.923 C 154.916 335.654,156.412 337.070,156.520 337.070 C 156.629 337.070,155.309 335.654,153.589 333.923 C 151.869 332.193,150.372 330.777,150.264 330.777 C 150.156 330.777,151.475 332.193,153.196 333.923 M65.684 337.849 C 66.873 339.251,69.150 341.729,70.743 343.355 L 73.640 346.313 71.055 343.397 C 69.633 341.793,68.579 340.288,68.713 340.053 C 68.847 339.819,68.812 339.757,68.636 339.916 C 68.328 340.195,66.894 338.912,65.676 337.266 C 65.356 336.834,64.740 336.214,64.308 335.890 C 63.875 335.565,64.495 336.447,65.684 337.849 M240.836 338.768 C 238.087 340.991,237.758 341.417,240.018 339.826 C 241.656 338.673,243.480 337.021,243.030 337.097 C 242.943 337.111,241.956 337.864,240.836 338.768 M75.500 348.213 C 77.354 350.155,77.483 350.251,77.483 349.703 C 77.483 349.513,76.642 348.687,75.615 347.867 L 73.746 346.377 75.500 348.213 M91.308 361.276 C 91.666 361.641,92.173 361.868,92.435 361.781 C 92.697 361.694,92.404 361.395,91.785 361.117 C 90.731 360.645,90.700 360.655,91.308 361.276 M94.592 363.569 C 95.241 364.121,95.916 364.580,96.093 364.588 C 96.270 364.595,97.066 365.066,97.863 365.634 L 99.312 366.666 98.020 365.535 C 97.309 364.914,95.982 363.991,95.070 363.485 L 93.412 362.564 94.592 363.569 M100.295 367.113 C 100.295 367.196,100.782 367.578,101.377 367.961 L 102.458 368.657 101.709 367.809 C 101.046 367.059,100.295 366.690,100.295 367.113 M104.982 369.858 C 105.506 370.503,106.981 371.478,106.981 371.179 C 106.981 371.104,106.406 370.622,105.703 370.107 C 104.912 369.528,104.637 369.433,104.982 369.858 M117.688 376.339 C 117.325 376.569,117.477 376.791,118.230 377.134 C 118.805 377.396,119.355 377.532,119.451 377.435 C 119.548 377.339,119.257 377.142,118.805 376.999 C 118.353 376.855,118.084 376.574,118.208 376.373 C 118.483 375.928,118.349 375.920,117.688 376.339 M122.321 378.644 C 122.321 378.882,122.852 379.263,123.500 379.489 C 124.217 379.738,124.680 379.754,124.680 379.527 C 124.680 379.322,124.362 379.154,123.972 379.154 C 123.583 379.154,123.052 378.942,122.793 378.682 C 122.472 378.362,122.321 378.350,122.321 378.644 M126.647 380.551 C 126.647 380.884,129.457 381.982,129.696 381.743 C 129.811 381.627,129.571 381.427,129.162 381.298 C 128.752 381.169,128.110 380.899,127.734 380.699 C 126.953 380.282,126.647 380.241,126.647 380.551 M136.513 384.406 C 136.603 384.482,137.296 384.745,138.053 384.990 C 139.304 385.396,139.360 385.383,138.666 384.852 C 138.043 384.375,135.966 383.945,136.513 384.406 M173.845 392.955 C 173.845 393.098,174.284 393.215,174.821 393.215 C 175.358 393.215,175.708 393.072,175.600 392.896 C 175.368 392.522,173.845 392.573,173.845 392.955 " stroke="none" fill="#a36454" fill-rule="evenodd"></path><path id="path2" d="M241.554 22.297 C 241.521 23.853,241.627 25.208,241.790 25.309 C 241.952 25.409,242.034 24.579,241.972 23.464 C 241.772 19.847,241.614 19.407,241.554 22.297 M118.584 45.870 C 117.877 46.472,117.732 46.711,118.223 46.467 C 118.944 46.109,120.296 44.815,119.910 44.852 C 119.830 44.860,119.233 45.318,118.584 45.870 M108.751 53.491 C 108.360 53.923,108.155 54.277,108.297 54.277 C 108.439 54.277,108.909 53.923,109.341 53.491 C 109.774 53.058,109.978 52.704,109.795 52.704 C 109.613 52.704,109.143 53.058,108.751 53.491 M102.855 58.600 C 102.236 59.246,101.805 59.838,101.897 59.915 C 101.989 59.992,102.569 59.463,103.185 58.739 C 104.577 57.106,104.370 57.018,102.855 58.600 M92.232 69.302 L 90.265 71.331 92.330 69.650 C 93.466 68.726,94.395 67.810,94.395 67.613 C 94.395 67.081,94.356 67.112,92.232 69.302 M307.211 69.322 C 307.301 69.376,307.906 69.862,308.555 70.403 L 309.735 71.386 308.781 70.305 C 308.257 69.710,307.652 69.223,307.437 69.223 C 307.223 69.223,307.121 69.267,307.211 69.322 M42.085 126.406 C 42.085 126.489,42.606 126.634,43.244 126.728 C 43.881 126.821,44.313 126.753,44.204 126.576 C 44.009 126.260,42.085 126.106,42.085 126.406 M12.179 137.561 L 10.029 139.823 12.291 137.673 C 14.392 135.676,14.733 135.300,14.441 135.300 C 14.379 135.300,13.362 136.318,12.179 137.561 M385.447 135.423 C 385.447 135.491,386.023 136.066,386.726 136.701 L 388.004 137.856 386.849 136.578 C 385.772 135.387,385.447 135.119,385.447 135.423 M138.548 177.781 C 133.294 179.158,129.299 182.373,126.972 187.099 L 125.664 189.757 125.664 197.050 L 125.664 204.343 126.956 206.968 C 133.333 219.922,152.448 220.272,159.341 207.561 L 160.669 205.113 160.560 199.213 C 160.361 188.395,158.076 183.502,151.622 180.073 C 150.156 179.293,142.076 176.856,141.479 177.013 C 141.433 177.025,140.115 177.370,138.548 177.781 M252.611 177.578 C 242.119 179.895,236.725 190.071,239.137 202.994 C 241.937 217.998,263.474 222.047,271.817 209.137 C 274.135 205.551,274.247 204.878,273.842 196.966 C 273.193 184.291,269.783 180.549,255.851 177.224 C 255.418 177.120,253.960 177.280,252.611 177.578 M147.014 180.748 C 153.783 183.576,152.624 195.870,145.588 195.870 C 134.865 195.870,132.320 183.799,142.433 180.909 C 145.564 180.014,145.280 180.024,147.014 180.748 M260.485 180.673 C 269.222 184.365,265.012 197.746,255.890 195.276 C 247.152 192.911,247.000 183.688,255.654 181.004 C 258.817 180.023,258.930 180.015,260.485 180.673 M17.502 224.189 C 18.787 225.487,19.926 226.549,20.034 226.549 C 20.143 226.549,19.180 225.487,17.896 224.189 C 16.611 222.891,15.472 221.829,15.364 221.829 C 15.256 221.829,16.218 222.891,17.502 224.189 M381.100 225.270 L 379.744 226.745 381.219 225.390 C 382.592 224.128,382.875 223.795,382.575 223.795 C 382.509 223.795,381.845 224.459,381.100 225.270 M21.644 227.552 C 21.630 228.034,22.434 228.909,22.891 228.909 C 23.064 228.909,23.206 228.721,23.206 228.492 C 23.206 228.263,23.039 228.178,22.836 228.304 C 22.633 228.429,22.285 228.218,22.062 227.835 C 21.839 227.452,21.651 227.324,21.644 227.552 M174.538 247.923 C 170.926 251.270,172.814 253.881,181.798 257.960 C 189.611 261.507,191.830 261.670,193.310 258.808 C 195.101 255.344,193.773 253.855,185.462 250.010 C 178.124 246.616,176.320 246.271,174.538 247.923 M214.590 249.973 C 206.471 253.743,205.133 255.133,206.484 258.394 C 207.829 261.640,210.267 261.554,218.155 257.985 C 227.016 253.976,228.260 252.673,226.503 249.237 C 224.900 246.103,222.619 246.244,214.590 249.973 M363.967 260.767 C 363.967 263.471,364.030 264.577,364.106 263.225 C 364.183 261.873,364.183 259.661,364.106 258.309 C 364.030 256.957,363.967 258.063,363.967 260.767 M141.213 297.676 C 133.452 301.839,143.768 325.570,158.485 337.409 C 163.242 341.235,162.872 341.186,164.461 338.205 C 168.946 329.790,171.571 329.119,200.000 329.119 C 228.414 329.119,231.367 329.874,235.579 338.217 C 237.035 341.103,236.811 341.086,240.158 338.569 C 255.483 327.047,266.878 302.016,258.776 297.671 C 256.680 296.546,143.310 296.552,141.213 297.676 M80.629 352.755 C 80.629 353.139,82.159 354.570,82.323 354.340 C 82.387 354.252,82.032 353.787,81.534 353.308 C 81.036 352.829,80.629 352.580,80.629 352.755 " stroke="none" fill="#4e3e40" fill-rule="evenodd"></path><path id="path3" d="M187.807 0.280 C 187.375 0.385,186.853 0.629,186.647 0.825 C 186.441 1.020,185.952 1.180,185.560 1.180 C 185.168 1.180,184.539 1.349,184.164 1.555 C 183.788 1.762,182.684 2.297,181.711 2.744 C 180.737 3.192,179.587 3.778,179.154 4.048 C 176.082 5.966,174.745 6.905,174.192 7.535 C 173.842 7.933,173.370 8.260,173.143 8.260 C 172.916 8.260,172.671 8.392,172.599 8.555 C 172.527 8.717,171.483 9.676,170.279 10.687 C 169.074 11.697,167.658 13.156,167.132 13.929 C 166.606 14.702,165.954 15.335,165.683 15.337 C 165.413 15.338,165.192 15.515,165.192 15.729 C 165.192 15.944,164.571 16.932,163.813 17.926 C 163.054 18.920,162.552 19.925,162.697 20.159 C 162.865 20.430,162.724 20.495,162.311 20.337 C 161.954 20.200,161.680 20.214,161.703 20.368 C 161.825 21.188,161.600 21.647,161.198 21.398 C 160.922 21.227,160.850 21.290,161.016 21.557 C 161.165 21.799,160.945 22.339,160.528 22.757 C 160.110 23.174,159.525 24.022,159.228 24.639 C 158.932 25.257,158.426 25.786,158.106 25.815 C 157.785 25.844,157.389 25.911,157.227 25.962 C 157.065 26.014,156.799 26.082,156.637 26.112 C 156.475 26.143,156.121 26.308,155.851 26.480 C 155.580 26.651,155.359 26.665,155.359 26.511 C 155.359 26.356,155.004 26.551,154.570 26.944 C 154.136 27.337,153.664 27.541,153.520 27.398 C 153.377 27.254,152.934 27.431,152.537 27.791 C 152.139 28.151,151.699 28.329,151.558 28.188 C 151.417 28.047,151.043 28.146,150.728 28.408 C 150.222 28.828,147.993 29.756,146.903 30.000 C 146.686 30.049,146.421 30.177,146.313 30.285 C 145.859 30.738,135.076 35.961,134.779 35.871 C 134.601 35.816,134.567 35.953,134.704 36.175 C 134.841 36.397,134.667 36.578,134.317 36.578 C 133.966 36.578,133.797 36.767,133.940 36.998 C 134.082 37.229,133.960 37.385,133.668 37.345 C 132.576 37.195,131.721 37.376,131.929 37.713 C 132.048 37.905,131.837 38.169,131.461 38.299 C 131.085 38.429,130.246 38.890,129.597 39.322 C 128.948 39.755,128.151 40.231,127.827 40.380 C 127.041 40.740,120.211 45.290,119.961 45.621 C 119.853 45.764,119.145 46.221,118.387 46.637 C 117.630 47.054,116.869 47.616,116.696 47.886 C 116.523 48.156,116.096 48.378,115.746 48.378 C 115.396 48.378,115.219 48.487,115.353 48.621 C 115.652 48.919,114.671 49.951,114.089 49.951 C 113.857 49.951,113.668 50.116,113.668 50.318 C 113.668 50.519,113.358 50.784,112.979 50.907 C 112.601 51.029,111.590 51.774,110.732 52.563 C 109.875 53.352,108.636 54.325,107.979 54.726 C 107.322 55.127,106.931 55.455,107.110 55.456 C 107.540 55.458,105.465 57.173,104.273 57.801 C 103.593 58.159,103.472 58.380,103.834 58.603 C 104.194 58.826,104.107 58.982,103.518 59.170 C 103.070 59.312,102.167 60.039,101.511 60.786 C 100.855 61.533,100.144 62.144,99.930 62.144 C 99.520 62.144,95.182 66.440,95.182 66.847 C 95.182 67.266,91.281 71.190,90.864 71.190 C 90.643 71.190,90.462 71.356,90.462 71.558 C 90.462 71.761,89.223 73.365,87.709 75.123 C 86.195 76.881,84.956 78.485,84.956 78.688 C 84.956 78.890,84.690 79.056,84.366 79.056 C 84.041 79.056,83.776 79.294,83.776 79.585 C 83.776 79.876,83.334 80.628,82.793 81.256 C 82.252 81.885,81.810 82.542,81.810 82.717 C 81.809 82.892,81.632 82.926,81.416 82.793 C 81.200 82.659,81.023 82.804,81.023 83.114 C 81.023 83.425,80.773 83.886,80.469 84.139 C 80.164 84.392,79.625 85.210,79.270 85.957 C 78.916 86.704,78.477 87.316,78.296 87.316 C 78.114 87.316,77.672 87.935,77.312 88.692 C 76.953 89.449,76.491 90.069,76.284 90.069 C 76.078 90.069,75.910 90.334,75.910 90.659 C 75.910 90.983,75.733 91.249,75.516 91.249 C 75.300 91.249,75.123 91.514,75.123 91.839 C 75.123 92.163,74.946 92.429,74.730 92.429 C 74.513 92.429,74.336 92.694,74.336 93.019 C 74.336 93.343,74.159 93.609,73.943 93.609 C 73.727 93.609,73.550 93.885,73.550 94.222 C 73.550 94.559,73.373 94.726,73.156 94.592 C 72.940 94.458,72.763 94.692,72.763 95.111 C 72.763 95.529,72.498 96.093,72.173 96.362 C 71.849 96.631,71.583 97.125,71.583 97.459 C 71.583 97.793,71.475 97.958,71.343 97.826 C 71.211 97.695,70.662 98.417,70.123 99.432 C 69.584 100.448,68.998 101.369,68.821 101.479 C 68.644 101.589,68.382 102.147,68.238 102.718 C 68.095 103.290,67.619 104.142,67.180 104.613 C 66.742 105.083,66.358 105.883,66.328 106.389 C 66.298 106.894,66.204 107.239,66.119 107.154 C 66.033 107.069,64.995 108.985,63.811 111.411 C 62.627 113.838,61.320 116.254,60.906 116.780 C 60.320 117.525,60.265 117.807,60.657 118.056 C 61.050 118.305,61.053 118.377,60.669 118.381 C 60.398 118.385,60.177 118.595,60.177 118.848 C 60.177 119.101,59.917 119.596,59.599 119.947 C 59.282 120.298,58.980 121.140,58.928 121.819 C 58.876 122.498,58.692 122.965,58.519 122.858 C 58.346 122.751,58.118 122.941,58.011 123.279 C 57.904 123.617,57.701 124.204,57.558 124.582 C 57.416 124.961,57.332 125.478,57.372 125.732 C 57.412 125.986,57.263 126.307,57.041 126.444 C 56.819 126.581,56.637 127.086,56.637 127.566 C 56.637 128.916,55.556 130.186,54.484 130.097 C 53.969 130.055,53.622 129.899,53.713 129.751 C 53.894 129.459,52.950 128.974,51.752 128.743 C 51.336 128.663,50.805 128.447,50.572 128.263 C 50.338 128.079,49.838 127.978,49.459 128.039 C 49.081 128.101,48.771 128.026,48.771 127.874 C 48.771 127.722,48.284 127.575,47.689 127.547 C 47.094 127.520,45.811 127.320,44.838 127.103 C 42.965 126.685,35.619 126.788,33.628 127.259 C 32.979 127.413,32.062 127.550,31.589 127.565 C 31.116 127.579,30.810 127.722,30.909 127.882 C 31.008 128.042,30.775 128.179,30.392 128.186 C 29.033 128.212,27.714 128.500,26.549 129.024 C 25.900 129.315,25.140 129.565,24.861 129.579 C 24.581 129.593,24.186 129.868,23.982 130.190 C 23.778 130.513,23.608 130.622,23.605 130.434 C 23.602 130.245,23.341 130.304,23.026 130.566 C 22.711 130.827,22.241 130.910,21.982 130.750 C 21.723 130.590,21.608 130.619,21.727 130.814 C 21.981 131.233,21.036 132.212,20.700 131.877 C 20.574 131.751,20.183 131.888,19.830 132.180 C 19.477 132.473,18.868 132.897,18.476 133.121 C 16.522 134.242,14.186 135.928,14.174 136.227 C 14.166 136.412,13.715 136.913,13.172 137.340 C 12.629 137.767,12.303 138.306,12.446 138.539 C 12.602 138.790,12.523 138.847,12.251 138.679 C 11.995 138.521,11.690 138.667,11.558 139.011 C 11.428 139.350,11.075 139.626,10.774 139.626 C 10.473 139.626,10.226 139.980,10.226 140.413 C 10.226 140.846,10.056 141.200,9.847 141.200 C 9.330 141.200,7.459 144.005,7.707 144.407 C 7.817 144.585,7.625 144.622,7.281 144.490 C 6.936 144.358,6.690 144.404,6.734 144.593 C 6.845 145.071,6.020 146.987,5.630 147.156 C 5.224 147.333,3.147 151.668,3.147 152.339 C 3.147 152.616,2.936 153.052,2.679 153.310 C 2.421 153.567,2.161 154.001,2.100 154.273 C 1.603 156.500,0.997 158.475,0.544 159.349 C -0.055 160.505,-0.072 192.769,0.526 194.690 C 0.695 195.231,0.879 195.909,0.936 196.197 C 0.992 196.484,1.263 196.858,1.536 197.027 C 1.810 197.196,2.004 197.450,1.967 197.591 C 1.791 198.264,2.475 200.983,2.821 200.983 C 3.036 200.983,3.135 201.205,3.041 201.475 C 2.947 201.745,3.198 202.389,3.599 202.905 C 3.999 203.420,4.326 204.190,4.326 204.614 C 4.326 205.516,5.484 207.726,6.195 208.181 C 6.465 208.354,6.686 208.762,6.686 209.089 C 6.686 209.415,6.861 209.574,7.075 209.442 C 7.289 209.310,7.369 209.448,7.254 209.749 C 7.138 210.050,7.317 210.524,7.652 210.801 C 7.986 211.079,8.260 211.638,8.260 212.044 C 8.260 212.450,8.419 212.738,8.614 212.684 C 8.808 212.630,9.025 212.763,9.095 212.979 C 9.219 213.362,9.988 214.375,10.848 215.288 C 11.081 215.537,11.199 215.959,11.110 216.228 C 11.020 216.496,11.210 216.716,11.532 216.716 C 11.853 216.716,12.305 217.260,12.537 217.925 C 12.769 218.590,13.102 219.046,13.277 218.938 C 13.452 218.830,14.017 219.357,14.532 220.110 C 15.048 220.862,15.794 221.651,16.191 221.864 C 16.588 222.076,16.912 222.509,16.912 222.826 C 16.912 223.355,17.400 223.583,18.225 223.437 C 18.405 223.406,18.647 223.739,18.762 224.178 C 18.877 224.616,19.210 224.975,19.503 224.975 C 19.802 224.975,19.940 225.221,19.818 225.539 C 19.682 225.894,20.040 226.329,20.789 226.716 C 21.442 227.054,22.641 227.939,23.455 228.685 C 24.268 229.430,25.031 229.980,25.151 229.909 C 25.271 229.837,25.597 230.025,25.876 230.326 C 26.155 230.628,26.243 230.881,26.073 230.888 C 25.902 230.896,26.429 231.217,27.243 231.603 C 28.058 231.989,28.589 232.451,28.423 232.631 C 28.258 232.811,28.534 232.856,29.038 232.732 C 29.772 232.551,29.905 232.634,29.705 233.153 C 29.569 233.510,29.573 233.685,29.714 233.544 C 29.946 233.312,33.790 235.173,34.844 236.027 C 35.081 236.218,35.386 236.263,35.523 236.125 C 35.660 235.988,36.014 236.077,36.310 236.322 C 36.605 236.567,36.964 236.652,37.106 236.509 C 37.248 236.367,37.365 236.457,37.365 236.709 C 37.365 236.962,37.644 237.168,37.985 237.168 C 38.599 237.168,38.737 239.518,38.181 240.511 C 38.059 240.728,37.934 241.347,37.901 241.888 C 37.869 242.429,37.808 242.871,37.766 242.871 C 37.725 242.871,37.640 243.402,37.579 244.051 C 37.517 244.700,37.337 245.541,37.177 245.919 C 36.997 246.347,37.061 246.608,37.346 246.608 C 37.614 246.608,37.677 246.811,37.497 247.099 C 37.130 247.687,37.055 248.133,36.923 250.502 C 36.867 251.497,36.673 252.413,36.491 252.538 C 36.309 252.663,36.318 253.193,36.512 253.716 C 36.726 254.296,36.711 255.103,36.474 255.784 C 36.039 257.031,36.294 266.812,36.792 268.009 C 37.013 268.541,36.970 268.679,36.645 268.478 C 36.392 268.321,36.185 268.381,36.185 268.610 C 36.185 268.839,36.325 269.027,36.497 269.027 C 36.669 269.027,36.844 269.867,36.887 270.895 C 36.957 272.583,37.078 273.835,37.525 277.483 C 37.604 278.132,37.710 278.751,37.760 278.859 C 37.810 278.968,37.832 279.183,37.809 279.337 C 37.786 279.492,37.966 280.112,38.210 280.714 C 38.453 281.316,38.672 282.252,38.697 282.793 C 38.721 283.333,38.901 284.024,39.097 284.328 C 39.339 284.704,39.312 284.794,39.013 284.609 C 38.726 284.432,38.756 284.788,39.099 285.629 C 39.389 286.341,39.576 287.232,39.514 287.611 C 39.452 287.989,39.525 288.299,39.676 288.299 C 39.919 288.299,40.073 288.956,40.208 290.560 C 40.231 290.831,40.426 291.052,40.642 291.052 C 40.859 291.052,40.928 291.160,40.796 291.292 C 40.664 291.423,40.880 292.353,41.276 293.357 C 41.672 294.361,42.003 295.270,42.012 295.379 C 42.022 295.487,42.233 296.106,42.483 296.755 C 42.733 297.404,42.987 298.289,43.048 298.722 C 43.166 299.560,43.580 300.665,44.782 303.344 C 45.194 304.263,45.653 305.416,45.802 305.905 C 45.952 306.395,46.202 306.717,46.358 306.621 C 46.514 306.525,46.675 306.743,46.717 307.107 C 46.858 308.339,47.050 308.944,47.960 311.013 C 48.459 312.148,49.033 313.078,49.236 313.078 C 49.438 313.078,49.495 313.255,49.361 313.471 C 49.227 313.687,49.315 313.864,49.556 313.864 C 49.946 313.864,51.457 316.725,51.485 317.517 C 51.491 317.686,51.724 318.079,52.002 318.388 C 52.981 319.477,54.101 321.124,54.543 322.124 C 55.009 323.181,57.170 326.242,57.796 326.733 C 58.132 326.996,58.247 327.218,58.052 327.224 C 57.857 327.231,58.105 327.591,58.604 328.024 C 59.103 328.456,59.351 328.816,59.156 328.823 C 58.960 328.830,59.083 329.051,59.429 329.314 C 59.775 329.578,60.100 329.971,60.152 330.187 C 60.203 330.403,60.753 331.200,61.373 331.957 C 61.994 332.714,62.819 333.745,63.207 334.249 C 66.060 337.947,68.262 340.259,68.605 339.916 C 68.765 339.757,68.836 339.835,68.764 340.090 C 68.577 340.751,72.249 344.832,76.026 348.164 C 77.801 349.729,79.212 351.136,79.162 351.292 C 79.113 351.447,79.431 351.688,79.870 351.828 C 80.309 351.967,81.250 352.642,81.960 353.327 C 84.009 355.302,85.791 356.735,86.199 356.735 C 86.406 356.735,86.466 356.912,86.332 357.129 C 86.199 357.345,86.321 357.522,86.604 357.523 C 87.051 357.523,87.794 358.045,89.971 359.890 C 90.241 360.119,90.462 360.211,90.462 360.094 C 90.462 359.977,90.816 360.236,91.249 360.669 C 91.681 361.101,92.223 361.455,92.452 361.455 C 92.681 361.455,92.759 361.632,92.625 361.849 C 92.492 362.065,92.564 362.242,92.785 362.242 C 93.558 362.242,96.732 364.494,96.450 364.841 C 96.293 365.034,96.320 365.066,96.510 364.912 C 96.700 364.759,97.588 365.113,98.483 365.699 C 101.439 367.634,101.666 367.769,102.360 368.002 C 102.738 368.129,103.048 368.372,103.048 368.542 C 103.048 368.712,103.535 369.053,104.130 369.299 C 104.725 369.545,105.919 370.181,106.785 370.713 C 107.650 371.245,109.641 372.295,111.209 373.047 C 112.778 373.799,114.061 374.607,114.061 374.841 C 114.061 375.076,114.238 375.158,114.454 375.025 C 114.671 374.891,114.848 374.979,114.848 375.221 C 114.848 375.463,115.032 375.547,115.258 375.407 C 115.484 375.268,116.109 375.442,116.646 375.794 C 117.183 376.146,117.822 376.311,118.066 376.160 C 118.326 375.999,118.400 376.062,118.245 376.313 C 118.090 376.564,118.549 376.944,119.365 377.239 C 120.125 377.514,120.747 377.891,120.747 378.077 C 120.747 378.262,120.932 378.300,121.158 378.160 C 121.384 378.021,121.997 378.187,122.521 378.531 C 123.044 378.874,123.662 379.154,123.894 379.154 C 124.125 379.154,124.783 379.461,125.355 379.836 C 125.928 380.211,126.585 380.531,126.816 380.547 C 127.271 380.578,128.144 380.904,129.974 381.724 C 130.614 382.011,131.278 382.159,131.449 382.053 C 131.620 381.948,131.760 382.028,131.760 382.232 C 131.760 382.436,132.158 382.732,132.645 382.890 C 133.851 383.283,134.088 383.367,134.317 383.481 C 134.425 383.535,134.690 383.623,134.907 383.677 C 135.123 383.732,135.344 383.812,135.398 383.857 C 135.452 383.902,136.014 384.023,136.646 384.126 C 137.278 384.228,138.163 384.517,138.613 384.767 C 139.062 385.017,139.583 385.177,139.770 385.122 C 139.958 385.068,140.533 385.300,141.049 385.638 C 141.564 385.976,141.986 386.138,141.986 385.998 C 141.986 385.859,142.207 385.912,142.478 386.116 C 142.748 386.321,143.412 386.475,143.953 386.459 C 144.494 386.444,145.058 386.600,145.207 386.808 C 145.356 387.015,145.886 387.233,146.387 387.293 C 148.438 387.536,149.853 387.916,149.853 388.223 C 149.853 388.402,150.206 388.481,150.639 388.397 C 151.072 388.314,151.426 388.423,151.426 388.640 C 151.426 388.856,151.592 388.931,151.795 388.806 C 151.998 388.680,153.399 388.920,154.909 389.339 C 156.420 389.757,157.758 389.997,157.884 389.871 C 158.009 389.746,158.112 389.825,158.112 390.048 C 158.112 390.270,158.555 390.404,159.095 390.344 C 159.636 390.285,160.079 390.420,160.079 390.643 C 160.079 390.887,160.316 390.853,160.669 390.560 C 161.108 390.196,161.259 390.189,161.259 390.536 C 161.259 390.791,161.423 390.898,161.625 390.774 C 161.826 390.649,162.104 390.730,162.242 390.954 C 162.380 391.177,162.632 391.274,162.803 391.168 C 162.974 391.063,163.714 391.154,164.447 391.372 C 165.181 391.589,166.667 391.860,167.748 391.975 C 168.830 392.090,170.157 392.272,170.698 392.380 C 171.239 392.487,172.212 392.610,172.861 392.652 C 173.510 392.695,174.290 392.888,174.594 393.082 C 174.999 393.341,175.060 393.296,174.824 392.914 C 174.602 392.555,174.674 392.459,175.058 392.607 C 175.445 392.755,175.615 392.525,175.615 391.855 C 175.615 391.049,174.578 390.186,169.322 386.614 C 162.189 381.767,156.407 377.340,150.845 372.468 C 147.311 369.372,145.220 367.921,132.785 359.936 C 110.675 345.737,95.179 323.734,90.505 299.902 C 87.929 286.766,88.601 277.649,93.244 262.734 C 98.010 247.419,97.309 237.816,90.597 226.490 C 72.374 195.741,79.606 161.664,108.714 141.116 C 113.176 137.966,113.406 137.623,114.856 131.957 C 124.584 93.930,150.363 49.719,180.110 20.048 C 189.674 10.508,196.568 5.634,201.485 4.935 L 203.363 4.669 203.197 3.023 C 202.875 -0.172,203.305 -0.005,195.533 0.046 C 191.717 0.071,188.240 0.176,187.807 0.280 M300.269 62.496 C 300.416 62.732,300.901 63.122,301.348 63.361 C 301.930 63.672,302.084 63.673,301.894 63.365 C 301.747 63.128,301.262 62.739,300.816 62.500 C 300.234 62.188,300.079 62.187,300.269 62.496 M50.534 141.018 C 54.496 142.050,54.448 141.778,52.380 151.426 C 50.358 160.855,49.932 165.157,49.556 179.941 C 49.007 201.474,46.389 222.674,44.035 224.651 C 40.407 227.696,24.033 213.536,18.185 202.296 C 2.237 171.640,22.286 133.660,50.534 141.018 M137.660 177.340 C 128.621 180.262,124.680 186.246,124.680 197.050 C 124.680 210.438,132.160 218.089,144.588 217.414 C 156.140 216.786,161.872 209.669,161.593 196.303 L 161.455 189.731 159.977 186.741 C 156.069 178.836,146.066 174.622,137.660 177.340 M250.855 177.357 C 235.605 182.233,232.838 206.084,246.514 214.777 C 256.872 221.362,271.776 215.833,274.715 204.316 C 275.792 200.095,275.032 189.979,273.387 186.637 C 269.528 178.798,259.398 174.626,250.855 177.357 M145.609 178.009 C 156.739 180.810,160.315 185.881,160.560 199.213 L 160.669 205.113 159.341 207.561 C 152.448 220.272,133.333 219.922,126.956 206.968 L 125.664 204.343 125.664 197.050 L 125.664 189.757 126.972 187.099 C 129.299 182.373,133.294 179.158,138.548 177.781 C 140.115 177.370,141.433 177.025,141.479 177.013 C 141.524 177.001,143.383 177.449,145.609 178.009 M259.750 178.211 C 269.677 180.759,273.256 185.523,273.842 196.966 C 274.384 207.552,271.674 212.602,263.840 215.608 C 248.550 221.474,235.783 208.826,239.138 191.135 C 240.572 183.572,249.904 175.804,255.851 177.224 C 256.283 177.327,258.038 177.771,259.750 178.211 M142.433 180.909 C 132.320 183.799,134.865 195.870,145.588 195.870 C 152.624 195.870,153.783 183.576,147.014 180.748 C 145.280 180.024,145.564 180.014,142.433 180.909 M255.654 181.004 C 247.000 183.688,247.152 192.911,255.890 195.276 C 263.573 197.356,268.564 188.085,262.861 182.329 C 260.638 180.084,259.370 179.851,255.654 181.004 M146.116 182.061 C 152.624 185.064,150.824 194.685,143.756 194.675 C 135.243 194.663,133.915 183.698,142.183 181.685 C 144.007 181.241,144.427 181.281,146.116 182.061 M260.649 182.550 C 266.693 186.265,263.054 195.594,255.975 194.533 C 248.740 193.448,247.914 184.098,254.860 181.908 C 256.939 181.252,258.889 181.469,260.649 182.550 M174.755 246.981 C 172.403 248.415,171.753 251.696,173.370 253.966 C 174.749 255.903,186.713 261.326,189.644 261.344 C 193.195 261.365,195.236 258.748,194.321 255.349 C 193.739 253.190,193.286 252.878,185.607 249.361 C 178.256 245.993,176.873 245.690,174.755 246.981 M214.921 249.113 C 205.774 253.292,204.561 254.499,205.782 258.205 C 207.182 262.452,210.020 262.466,219.076 258.269 C 227.300 254.458,228.717 252.881,227.194 249.236 C 225.602 245.426,223.050 245.401,214.921 249.113 M185.462 250.010 C 193.773 253.855,195.101 255.344,193.310 258.808 C 191.830 261.670,189.611 261.507,181.798 257.960 C 173.884 254.367,172.281 252.821,173.263 249.727 C 174.424 246.069,177.075 246.131,185.462 250.010 M225.224 247.698 C 227.504 249.545,227.476 253.125,225.169 254.637 C 222.606 256.316,211.893 260.767,210.415 260.767 C 207.553 260.767,205.741 258.656,206.254 255.920 C 206.959 252.160,222.447 245.448,225.224 247.698 M141.185 297.050 C 132.357 301.502,142.941 326.192,159.036 338.693 C 163.268 341.980,163.311 341.983,164.815 339.003 C 169.145 330.427,171.213 329.891,200.000 329.885 C 228.769 329.879,230.851 330.419,235.185 339.003 C 236.688 341.981,236.731 341.979,240.964 338.704 C 254.819 327.984,265.996 305.767,261.052 298.774 C 259.087 295.995,263.506 296.183,199.985 296.174 L 142.940 296.165 141.185 297.050 M258.776 297.671 C 266.878 302.016,255.483 327.047,240.158 338.569 C 236.811 341.086,237.035 341.103,235.579 338.217 C 231.367 329.874,228.414 329.119,200.000 329.119 C 171.571 329.119,168.946 329.790,164.461 338.205 C 162.872 341.186,163.242 341.235,158.485 337.409 C 143.768 325.570,133.452 301.839,141.213 297.676 C 143.310 296.552,256.680 296.546,258.776 297.671 M351.496 311.326 C 350.572 313.264,350.702 313.593,351.668 311.762 C 352.107 310.931,352.396 310.181,352.311 310.096 C 352.226 310.011,351.860 310.564,351.496 311.326 M328.024 343.953 C 327.068 344.926,326.375 345.723,326.483 345.723 C 326.591 345.723,327.462 344.926,328.417 343.953 C 329.372 342.979,330.065 342.183,329.957 342.183 C 329.849 342.183,328.979 342.979,328.024 343.953 M324.680 347.296 C 324.059 347.945,323.645 348.476,323.762 348.476 C 323.878 348.476,324.529 347.945,325.208 347.296 C 325.888 346.647,326.301 346.116,326.127 346.116 C 325.953 346.116,325.302 346.647,324.680 347.296 " stroke="none" fill="#835c4c" fill-rule="evenodd"></path><path id="path4" d="M136.087 130.550 C 126.200 132.290,116.860 135.830,112.278 139.573 C 111.204 140.451,108.555 142.483,106.391 144.088 C 81.572 162.504,74.260 196.694,89.569 222.750 C 98.188 237.420,99.402 246.456,94.728 261.145 C 90.188 275.414,89.226 283.363,90.658 294.800 C 95.704 335.097,132.892 369.944,178.958 377.539 C 242.206 387.966,302.905 349.802,310.131 295.063 C 311.622 283.767,310.670 275.618,306.193 261.357 C 301.850 247.526,302.752 237.367,309.299 226.360 C 325.138 199.732,321.946 170.555,300.885 149.450 C 279.468 127.988,248.243 123.686,219.519 138.240 C 205.256 145.467,195.445 145.424,180.138 138.068 C 164.436 130.522,150.125 128.080,136.087 130.550 M160.472 132.125 C 166.807 133.452,172.710 135.561,178.765 138.660 C 194.766 146.849,205.240 146.822,221.485 138.550 C 247.267 125.422,278.393 129.540,298.751 148.773 C 319.943 168.795,324.175 199.502,309.167 224.349 C 304.025 232.861,302.716 237.361,302.692 246.608 C 302.672 254.084,302.703 254.258,305.717 263.717 C 319.529 307.063,292.373 352.848,242.109 370.958 C 211.182 382.101,170.441 379.689,144.496 365.180 C 136.625 360.779,122.177 342.253,115.056 327.434 C 97.389 290.662,95.905 226.702,110.933 149.633 C 112.732 140.408,112.861 140.106,115.739 138.450 C 127.002 131.967,146.532 129.206,160.472 132.125 M350.401 140.927 C 348.310 141.402,346.116 142.488,346.116 143.049 C 346.116 143.191,346.724 146.063,347.468 149.431 C 349.883 160.368,350.464 166.086,350.852 182.694 C 351.274 200.745,353.665 220.785,355.791 224.090 C 358.563 228.400,375.988 213.458,381.958 201.653 C 397.147 171.614,377.950 134.674,350.401 140.927 M38.741 141.783 C 10.432 148.025,4.337 189.739,28.180 214.060 C 33.817 219.810,42.127 225.117,43.422 223.794 C 44.305 222.892,46.168 212.615,47.594 200.779 C 47.828 198.836,48.176 190.698,48.367 182.694 C 48.773 165.639,49.642 157.830,52.371 146.726 L 53.187 143.404 52.364 142.737 C 50.587 141.298,43.265 140.785,38.741 141.783 M362.167 142.382 C 394.768 150.198,393.784 204.970,360.733 222.165 C 356.967 224.124,356.628 224.040,355.971 220.976 C 353.420 209.078,352.412 199.359,352.022 182.891 C 351.631 166.394,349.760 150.448,347.490 144.263 C 346.623 141.899,355.439 140.769,362.167 142.382 M136.864 176.313 C 126.375 179.889,121.222 190.852,123.937 203.815 C 128.106 223.727,158.399 223.506,162.630 203.533 C 166.517 185.181,152.935 170.833,136.864 176.313 M251.205 176.009 C 239.714 179.167,233.686 192.728,237.973 205.777 C 243.841 223.637,271.085 222.665,275.941 204.422 C 276.675 201.667,276.675 192.433,275.941 189.678 C 273.196 179.365,261.834 173.087,251.205 176.009 M149.500 177.367 C 159.192 180.383,164.431 191.926,161.628 204.085 C 157.246 223.093,127.781 221.874,124.701 202.557 C 121.824 184.517,133.704 172.450,149.500 177.367 M263.028 177.418 C 272.040 180.519,275.469 186.336,275.247 198.148 L 275.123 204.766 273.671 207.693 C 266.801 221.542,246.107 221.122,239.416 206.996 L 238.151 204.326 238.151 197.030 L 238.151 189.733 239.601 186.800 C 243.863 178.176,253.737 174.222,263.028 177.418 M140.610 182.268 C 134.735 184.891,135.739 192.889,142.122 194.318 C 144.856 194.930,146.568 194.391,148.428 192.332 C 153.214 187.035,147.219 179.318,140.610 182.268 M253.695 182.596 C 249.140 184.923,248.903 190.464,253.234 193.383 C 257.597 196.323,263.071 193.663,263.437 188.423 C 263.798 183.255,258.550 180.115,253.695 182.596 M146.634 183.296 C 149.533 185.063,150.095 189.164,147.798 191.781 C 143.095 197.136,134.421 190.643,138.491 184.814 C 140.078 182.542,144.151 181.782,146.634 183.296 M259.886 183.282 C 266.501 187.316,260.542 196.465,253.629 192.890 C 251.765 191.926,250.864 190.124,251.042 187.715 C 251.357 183.456,256.194 181.031,259.886 183.282 M174.358 245.780 C 170.990 247.896,170.307 252.153,172.849 255.174 C 174.045 256.596,186.528 262.359,189.019 262.640 C 193.648 263.162,197.051 258.605,195.171 254.402 C 194.096 252.000,193.660 251.703,186.216 248.316 C 178.672 244.883,176.519 244.422,174.358 245.780 M219.076 245.963 C 212.585 248.691,207.393 251.269,206.268 252.320 C 202.205 256.116,204.898 262.745,210.495 262.729 C 212.547 262.723,225.262 257.067,227.029 255.374 C 232.331 250.294,226.156 242.986,219.076 245.963 M185.461 248.976 C 194.322 253.010,195.018 253.656,194.590 257.455 C 194.005 262.645,190.763 263.024,181.755 258.957 C 172.123 254.608,170.451 252.549,173.067 248.257 C 175.008 245.074,177.166 245.199,185.461 248.976 M224.783 246.387 C 227.567 247.551,228.611 251.474,226.838 254.106 C 225.914 255.478,214.318 261.210,211.291 261.792 C 207.208 262.577,203.918 257.913,205.880 254.120 C 206.633 252.663,207.205 252.323,214.356 249.080 C 222.612 245.337,222.399 245.392,224.783 246.387 M141.396 295.576 C 136.305 297.376,135.482 302.370,138.667 312.132 C 155.180 362.740,234.345 367.580,258.378 319.451 C 264.780 306.630,264.711 297.231,258.202 295.424 C 255.608 294.704,143.450 294.850,141.396 295.576 M259.492 296.950 C 263.661 299.491,263.112 307.140,257.969 318.169 C 253.502 327.747,241.261 341.014,235.938 342.047 C 235.208 342.189,233.196 343.056,231.465 343.974 C 212.218 354.187,187.150 354.115,168.142 343.793 C 166.627 342.971,164.776 342.181,164.027 342.037 C 158.546 340.986,145.910 327.018,141.665 317.318 C 137.016 306.695,136.503 299.938,140.145 297.299 L 141.711 296.165 199.961 296.167 C 257.391 296.168,258.228 296.179,259.492 296.950 " stroke="none" fill="#bba38b" fill-rule="evenodd"></path></g></svg>