<svg width="69" height="69" viewBox="0 0 69 69" fill="none" xmlns="http://www.w3.org/2000/svg">
<g clip-path="url(#clip0_1_777)">
<path fill-rule="evenodd" clip-rule="evenodd" d="M34.0172 0.994385C52.792 0.994385 68.0172 16.2196 68.0172 34.9944C68.0172 53.7692 52.792 68.9944 34.0172 68.9944C15.2424 68.9944 0.0172119 53.7692 0.0172119 34.9944C0.0172119 16.2196 15.2424 0.994385 34.0172 0.994385Z" fill="#1E1E1E"/>
<path d="M34.5275 49.2064C23.6543 49.2064 14.8415 46.0648 14.8415 41.8556C14.8415 39.6592 17.2419 37.6804 21.0839 36.2864C24.0827 38.2108 29.1147 39.1968 34.8199 39.1968C40.3891 39.1968 45.3123 37.9932 48.3383 36.1504C51.9627 37.5308 54.2135 39.4552 54.2135 41.5768C54.2135 45.7928 45.4007 49.2064 34.5275 49.2064Z" fill="white"/>
<path d="M34.6432 38.2516C26.4016 38.2516 19.7172 35.6676 19.7172 32.4784C19.7172 30.7104 21.7776 29.126 25.0076 28.072C27.3128 29.2756 30.7672 30.044 34.6432 30.044C38.5192 30.044 41.9736 29.2756 44.2788 28.072C47.5156 29.1328 49.5692 30.7104 49.5692 32.4784C49.576 35.6676 42.8916 38.2516 34.6432 38.2516Z" fill="white"/>
<path d="M34.5889 29.0852C28.2173 29.0852 23.0493 26.95 23.0493 24.3252C23.0493 21.7004 28.2173 19.5652 34.5889 19.5652C40.9605 19.5652 46.1284 21.7004 46.1284 24.3252C46.1284 26.95 40.9605 29.0852 34.5889 29.0852Z" fill="white"/>
</g>
<defs>
<clipPath id="clip0_1_777">
<rect x="0.0175781" y="0.994385" width="68" height="68" fill="white"/>
</clipPath>
</defs>
</svg>
