<svg width="68" height="69" viewBox="0 0 68 69" fill="none" xmlns="http://www.w3.org/2000/svg">
<g clip-path="url(#clip0_1_750)">
<path d="M34 68.9944C52.7782 68.9944 68 53.7726 68 34.9944C68 16.2162 52.7782 0.994385 34 0.994385C15.2218 0.994385 0 16.2162 0 34.9944C0 53.7726 15.2218 68.9944 34 68.9944Z" fill="#070A0E"/>
<path fill-rule="evenodd" clip-rule="evenodd" d="M19.6419 46.3946C18.6253 45.7724 18.0031 44.6674 18.0031 43.4774V36.8338C18.0031 36.045 18.6457 35.4058 19.4345 35.4092C19.6861 35.4092 19.9343 35.4772 20.1519 35.603L35.1425 44.3444C36.0196 44.8544 36.5603 45.7928 36.5603 46.8094V53.691C36.5637 54.6362 35.7987 55.4046 34.8535 55.4046C34.5373 55.4046 34.2245 55.3162 33.9559 55.153L19.6419 46.3946ZM41.9867 33.784C42.8639 34.294 43.401 35.2358 43.4044 36.249V50.2162C43.4044 50.6276 43.1835 51.0084 42.823 51.209L39.5421 53.0552C39.5013 53.079 39.4571 53.096 39.4095 53.1096V45.3542C39.4095 44.3512 38.8824 43.4196 38.0188 42.9028L24.8541 35.0284V26.2734C24.8541 25.4846 25.4967 24.8454 26.2855 24.8488C26.5371 24.8488 26.7853 24.9168 27.0029 25.0426L41.9867 33.784ZM48.5487 23.4684C49.4293 23.9784 49.9698 24.9202 49.9698 25.9368V46.3368C49.9664 46.755 49.7353 47.1392 49.368 47.3398L46.257 49.0194V34.8176C46.257 33.8146 45.7301 32.8864 44.8733 32.3696L31.4161 24.298V15.9952C31.4161 15.7436 31.484 15.4954 31.6065 15.2778C32.0043 14.5978 32.8781 14.3666 33.5581 14.761L48.5487 23.4684Z" fill="#00D395"/>
</g>
<defs>
<clipPath id="clip0_1_750">
<rect width="68" height="68" fill="white" transform="translate(0 0.994385)"/>
</clipPath>
</defs>
</svg>
