<svg width="57" height="58" viewBox="0 0 57 58" fill="none" xmlns="http://www.w3.org/2000/svg">
<g clip-path="url(#clip0_1_764)">
<path d="M45.246 3.82328L33.5457 21.2063C32.7367 22.39 34.2925 23.823 35.4128 22.8262L46.9263 12.7951C47.2375 12.5459 47.6731 12.7328 47.6731 13.169V44.5081C47.6731 44.9443 47.113 45.1312 46.8641 44.8197L12.0123 3.07563C10.892 1.70493 9.27391 0.957275 7.46908 0.957275H6.22437C2.98813 0.957275 0.312012 3.63637 0.312012 6.93851V51.0501C0.312012 54.3523 2.98813 57.0314 6.28661 57.0314C8.34038 57.0314 10.2697 55.9722 11.3899 54.1654L23.0902 36.7824C23.8992 35.5986 22.3433 34.1656 21.2231 35.1625L9.70956 45.1312C9.39838 45.3804 8.96273 45.1935 8.96273 44.7574V13.4805C8.96273 13.0444 9.52285 12.8574 9.77179 13.169L44.6236 54.913C45.7438 56.2837 47.4242 57.0314 49.1668 57.0314H50.4115C53.71 57.0314 56.3861 54.3523 56.3861 51.0501V6.93851C56.3861 3.63637 53.71 0.957275 50.4115 0.957275C48.2955 0.957275 46.3662 2.01645 45.246 3.82328Z" fill="black"/>
</g>
<defs>
<clipPath id="clip0_1_764">
<rect x="0.311768" y="0.957275" width="56.0741" height="56.0741" fill="white"/>
</clipPath>
</defs>
</svg>
