<svg width="71" height="72" viewBox="0 0 71 72" fill="none" xmlns="http://www.w3.org/2000/svg">
<g clip-path="url(#clip0_1_753)">
<path fill-rule="evenodd" clip-rule="evenodd" d="M12.6428 11.596C11.5338 5.82914 15.9699 0.505859 21.7367 0.505859C26.8382 0.505859 31.0525 4.72013 31.0525 9.82161V21.3554C32.3833 21.3554 33.7141 21.1336 35.045 21.1336C36.3758 21.1336 37.4848 21.1336 38.8156 21.3554V9.82161C38.8156 4.72013 43.0299 0.505859 48.1314 0.505859C53.8983 0.505859 58.3343 5.82914 57.4471 11.596L55.0073 25.126C63.6576 28.8967 70.3117 35.5508 70.3117 43.7575V48.859C70.3117 55.7349 65.8756 61.5018 59.4433 65.2725C53.011 69.2649 44.5825 71.483 35.045 71.483C25.5074 71.483 17.0789 69.2649 10.6466 65.2725C4.43607 61.5018 0 55.7349 0 48.859V43.7575C0 35.5508 6.4323 28.8967 15.0826 25.126L12.6428 11.596ZM51.6802 26.9005L54.5637 10.9306C55.2291 6.93816 52.3456 3.1675 48.1314 3.1675C44.5825 3.1675 41.6991 6.05095 41.6991 9.5998V24.2388C40.8118 24.017 39.7028 24.017 38.8156 24.017C37.4848 24.017 36.3758 23.7952 35.045 23.7952C33.7141 23.7952 32.3833 23.7952 31.0525 24.017C30.1653 24.017 29.0563 24.2388 28.169 24.2388V9.82161C28.169 6.27275 25.2856 3.3893 21.7367 3.3893C17.7443 3.3893 14.639 7.15997 15.5262 11.1524L18.4097 27.1223C9.09395 30.6711 2.88345 36.8816 2.88345 43.9793V49.0808C2.88345 59.9492 17.3007 68.8213 35.045 68.8213C52.7892 68.8213 67.2065 59.9492 67.2065 49.0808V43.9793C67.4283 36.6598 61.2178 30.4493 51.6802 26.9005Z" fill="#633001"/>
<path d="M67.4282 48.859C67.4282 59.7274 53.011 68.5996 35.2667 68.5996C17.5225 68.5996 3.10522 59.7274 3.10522 48.859V43.7576H67.65V48.859H67.4282Z" fill="#FEDC90"/>
<path fill-rule="evenodd" clip-rule="evenodd" d="M15.5262 11.1525C14.639 7.16006 17.7443 3.3894 21.7367 3.3894C25.2856 3.3894 28.169 6.27285 28.169 9.82171V24.4607C30.3871 24.2389 32.6051 24.0171 35.0449 24.0171C37.263 24.0171 39.481 24.2389 41.699 24.4607V9.82171C41.699 6.27285 44.5825 3.3894 48.1313 3.3894C52.1238 3.3894 55.2291 7.16006 54.5636 11.1525L51.6802 27.1224C60.9959 30.6712 67.4282 36.8817 67.4282 43.9794C67.4282 54.8478 53.011 63.72 35.2667 63.72C17.5225 63.72 3.10522 54.8478 3.10522 43.9794C3.10522 36.8817 9.31572 30.6712 18.6315 27.1224L15.5262 11.1525Z" fill="#D1884F"/>
<path d="M26.173 42.4268C26.173 45.3102 24.6204 47.7501 22.6242 47.7501C20.6279 47.7501 19.0753 45.3102 19.0753 42.4268C19.0753 39.5434 20.6279 37.1035 22.6242 37.1035C24.6204 37.1035 26.173 39.5434 26.173 42.4268Z" fill="#633001"/>
<path d="M50.7931 42.4268C50.7931 45.3102 49.2405 47.7501 47.2443 47.7501C45.2481 47.7501 43.6954 45.3102 43.6954 42.4268C43.6954 39.5434 45.2481 37.1035 47.2443 37.1035C49.2405 37.1035 50.7931 39.5434 50.7931 42.4268Z" fill="#633001"/>
</g>
<defs>
<clipPath id="clip0_1_753">
<rect y="0.505859" width="70.3117" height="70.9771" fill="white"/>
</clipPath>
</defs>
</svg>
