<svg width="74" height="65" viewBox="0 0 74 65" fill="none" xmlns="http://www.w3.org/2000/svg">
<g clip-path="url(#clip0_1_784)">
<path d="M55.4204 20.4811C54.0831 19.7169 52.3637 19.7169 50.8353 20.4811L40.1368 26.7856L32.8771 30.7975L22.3696 37.102C21.0323 37.8661 19.3129 37.8661 17.7846 37.102L9.56963 32.1348C8.23232 31.3706 7.2771 29.8423 7.2771 28.1229V18.5706C7.2771 17.0423 8.04128 15.5139 9.56963 14.5587L17.7846 9.78257C19.1219 9.01839 20.8413 9.01839 22.3696 9.78257L30.5846 14.7497C31.9219 15.5139 32.8771 17.0423 32.8771 18.7617V25.0662L40.1368 20.8632V14.3676C40.1368 12.8393 39.3726 11.3109 37.8443 10.3557L22.5607 1.3766C21.2234 0.612422 19.504 0.612422 17.9756 1.3766L2.30993 10.5467C0.781574 11.3109 0.017395 12.8393 0.017395 14.3676V32.3258C0.017395 33.8542 0.781574 35.3826 2.30993 36.3378L17.7846 45.3169C19.1219 46.0811 20.8413 46.0811 22.3696 45.3169L32.8771 39.2035L40.1368 35.0005L50.6443 28.887C51.9816 28.1229 53.701 28.1229 55.2293 28.887L63.4443 33.6632C64.7816 34.4273 65.7368 35.9557 65.7368 37.6751V47.2273C65.7368 48.7557 64.9726 50.2841 63.4443 51.2393L55.4204 56.0154C54.0831 56.7796 52.3637 56.7796 50.8353 56.0154L42.6204 51.2393C41.2831 50.4751 40.3278 48.9467 40.3278 47.2273V41.1139L33.0681 45.3169V51.6214C33.0681 53.1497 33.8323 54.6781 35.3607 55.6333L50.8353 64.6124C52.1726 65.3766 53.892 65.3766 55.4204 64.6124L70.895 55.6333C72.2323 54.8691 73.1875 53.3408 73.1875 51.6214V33.4721C73.1875 31.9438 72.4234 30.4154 70.895 29.4602L55.4204 20.4811Z" fill="#8247E5"/>
</g>
<defs>
<clipPath id="clip0_1_784">
<rect x="0.0175781" y="0.994385" width="73.3612" height="64" fill="white"/>
</clipPath>
</defs>
</svg>
