<svg width="76" height="106" viewBox="0 0 76 106" fill="none" xmlns="http://www.w3.org/2000/svg">
<g clip-path="url(#clip0_1_766)">
<path d="M29.6532 19.5671C28.722 19.434 28.6777 19.3896 29.1211 19.3453C29.9636 19.2121 31.9148 19.3896 33.2895 19.7002C36.4823 20.4545 39.3647 22.4068 42.4244 25.8233L43.2226 26.755L44.3756 26.5775C49.2978 25.7789 54.3531 26.4001 58.5658 28.3523C59.7188 28.8848 61.5369 29.9496 61.7586 30.2159C61.8473 30.3046 61.9804 30.8814 62.0691 31.4582C62.3795 33.5436 62.2464 35.0966 61.5813 36.2945C61.2265 36.9601 61.2265 37.1376 61.4482 37.7144C61.6256 38.1581 62.1577 38.4687 62.6455 38.4687C63.7098 38.4687 64.8184 36.7826 65.3506 34.431L65.5723 33.4992L65.9714 33.9429C68.2329 36.472 70.0067 39.9772 70.2728 42.462L70.3615 43.1275L69.9624 42.5507C69.2972 41.5302 68.6764 40.8646 67.8338 40.2878C66.3261 39.2673 64.7297 38.9567 60.517 38.7349C56.7034 38.513 54.5305 38.2024 52.402 37.4925C48.7657 36.2945 46.9032 34.7416 42.6018 29.0179C40.695 26.4888 39.4977 25.1133 38.3004 23.9597C35.6841 21.4306 33.0678 20.0995 29.6532 19.5671Z" fill="#FF007A"/>
<path d="M62.6897 25.2022C62.7784 23.5161 63.0001 22.4069 63.4879 21.3864C63.6653 20.987 63.8427 20.6321 63.887 20.6321C63.9314 20.6321 63.8427 20.9427 63.7096 21.2976C63.3549 22.2738 63.3105 23.6492 63.5323 25.2022C63.8427 27.1988 63.9757 27.465 66.1042 29.6392C67.0798 30.6597 68.2328 31.9464 68.6762 32.4788L69.4301 33.455L68.6762 32.7451C67.745 31.8577 65.6164 30.1716 65.1287 29.9498C64.8182 29.7723 64.7739 29.7723 64.5522 29.9941C64.3748 30.1716 64.3305 30.4378 64.3305 31.7245C64.2861 33.7212 64.02 34.9635 63.3549 36.2503C63.0001 36.9158 62.9558 36.7827 63.2662 36.0284C63.4879 35.4516 63.5323 35.1854 63.5323 33.2775C63.5323 29.4173 63.0888 28.4855 60.3838 26.9326C59.7186 26.5333 58.5657 25.9565 57.9005 25.6459C57.191 25.3353 56.6589 25.0691 56.7032 25.0691C56.7919 24.9803 59.4082 25.7346 60.4281 26.1783C61.9802 26.7995 62.2463 26.8439 62.4236 26.7995C62.5567 26.6664 62.6454 26.3114 62.6897 25.2022Z" fill="#FF007A"/>
<path d="M31.4709 31.8133C29.6084 29.2399 28.4111 25.2466 28.6772 22.2738L28.7659 21.342L29.2093 21.4308C30.0075 21.5639 31.3822 22.0963 32.0473 22.4957C33.8211 23.5605 34.6193 25.0247 35.3732 28.6631C35.5949 29.7279 35.9053 30.9703 36.0384 31.3696C36.2601 32.0352 37.1026 33.5881 37.8121 34.5643C38.2999 35.2742 37.9895 35.6291 36.8809 35.5404C35.1958 35.3629 32.9342 33.81 31.4709 31.8133Z" fill="#FF007A"/>
<path d="M60.4286 51.1141C51.6484 47.5645 48.5443 44.503 48.5443 39.3117C48.5443 38.5575 48.5886 37.9363 48.5886 37.9363C48.6329 37.9363 48.9434 38.2025 49.3425 38.5131C51.1162 39.9329 53.1117 40.5541 58.6548 41.3528C61.8919 41.8408 63.7544 42.1958 65.4395 42.7726C70.8052 44.5474 74.131 48.1857 74.9292 53.1108C75.151 54.5306 75.0179 57.2372 74.6632 58.657C74.3527 59.7663 73.4659 61.8073 73.2441 61.8516C73.1998 61.8516 73.1111 61.6298 73.1111 61.2748C73.0224 59.4113 72.0912 57.6365 70.5391 56.261C68.6767 54.6637 66.282 53.4657 60.4286 51.1141Z" fill="#FF007A"/>
<path d="M54.2197 52.5784C54.131 51.9128 53.9093 51.0698 53.7762 50.7149L53.5545 50.0493L53.9536 50.5374C54.5301 51.2029 54.9735 52.0016 55.3726 53.1108C55.6831 53.9539 55.6831 54.2201 55.6831 55.5956C55.6831 56.9266 55.6387 57.2372 55.3726 57.9915C54.9292 59.1895 54.3971 60.0325 53.5102 60.9643C51.9138 62.606 49.8296 63.4934 46.8585 63.8927C46.3264 63.9371 44.8187 64.0702 43.4883 64.1589C40.1625 64.3364 37.9453 64.6914 35.9498 65.4013C35.6837 65.49 35.4176 65.5788 35.3733 65.5344C35.2846 65.4457 36.6593 64.647 37.7679 64.1146C39.3199 63.3603 40.9163 62.9609 44.4196 62.3398C46.149 62.0735 47.9228 61.7186 48.3662 61.5411C52.7563 60.1656 54.9292 56.7492 54.2197 52.5784Z" fill="#FF007A"/>
<path d="M58.2548 59.722C57.1019 57.1929 56.8358 54.7969 57.4566 52.534C57.5453 52.3122 57.634 52.0903 57.7227 52.0903C57.8114 52.0903 58.0774 52.2234 58.3435 52.4009C58.8756 52.7559 59.9842 53.3771 62.8223 54.93C66.4142 56.8823 68.454 58.3909 69.8731 60.1213C71.1147 61.6299 71.8686 63.3603 72.2233 65.49C72.445 66.688 72.312 69.5721 72.0016 70.77C71.026 74.5415 68.8088 77.5586 65.5717 79.2891C65.0839 79.5553 64.6848 79.7328 64.6404 79.7328C64.5961 79.7328 64.7735 79.2891 65.0395 78.7566C66.1038 76.4938 66.2368 74.3196 65.4386 71.8793C64.9508 70.3707 63.9309 68.5516 61.8911 65.49C59.4521 61.9404 58.8756 61.0087 58.2548 59.722Z" fill="#FF007A"/>
<path d="M25.2183 73.2991C28.4998 70.5481 32.5351 68.5959 36.2601 67.9747C37.8565 67.7085 40.5171 67.7972 41.9805 68.1965C44.3308 68.8177 46.4593 70.1488 47.5679 71.7905C48.6322 73.3878 49.12 74.7633 49.6078 77.8248C49.7851 79.0228 50.0069 80.2651 50.0512 80.5314C50.406 82.1287 51.1155 83.371 52.0024 84.0366C53.377 85.0571 55.7716 85.1015 58.1219 84.2141C58.521 84.0809 58.8758 83.9478 58.8758 83.9922C58.9644 84.0809 57.7671 84.8796 56.9689 85.2789C55.8603 85.8557 54.9734 86.0332 53.7761 86.0332C51.6476 86.0332 49.8295 84.924 48.3661 82.7055C48.0557 82.2618 47.4349 80.9751 46.9027 79.7771C45.3507 76.1831 44.5525 75.1182 42.7344 73.9203C41.138 72.8997 39.0981 72.6779 37.5461 73.4322C35.5062 74.4083 34.9741 77.0261 36.3931 78.6235C36.9696 79.289 38.0338 79.8214 38.9207 79.9545C40.5615 80.1764 41.9805 78.8897 41.9805 77.248C41.9805 76.1831 41.5814 75.5619 40.5171 75.0739C39.0981 74.4527 37.5461 75.1626 37.5904 76.5381C37.5904 77.1149 37.8565 77.4698 38.4329 77.7361C38.7877 77.9135 38.7877 77.9135 38.5216 77.8692C37.2356 77.6029 36.9252 76.0056 37.9452 74.9851C39.1868 73.7428 41.8031 74.2752 42.69 76.0056C43.0448 76.7156 43.0891 78.1354 42.7787 79.0228C42.0248 80.9751 39.8963 81.9956 37.7234 81.4188C36.2601 81.0194 35.6392 80.6201 33.8655 78.8009C30.7613 75.6063 29.564 74.9851 25.1296 74.3196L24.287 74.1865L25.2183 73.2991Z" fill="#FF007A"/>
<path fill-rule="evenodd" clip-rule="evenodd" d="M1.89311 1.9079C12.2254 14.4646 28.1451 33.9873 28.9433 35.0522C29.6084 35.9396 29.3424 36.7826 28.2337 37.4038C27.6129 37.7588 26.3269 38.1137 25.7061 38.1137C24.9966 38.1137 24.154 37.7588 23.5776 37.1819C23.1785 36.7826 21.449 34.2535 17.5467 28.1749C14.5756 23.516 12.048 19.6559 12.0037 19.6115C11.8263 19.5227 11.8263 19.5227 17.2363 29.1954C20.6508 35.274 21.7594 37.4482 21.7594 37.7144C21.7594 38.2912 21.5821 38.6018 20.8726 39.4004C19.6753 40.7315 19.1431 42.2401 18.744 45.3904C18.3006 48.8956 17.1033 51.3803 13.6887 55.5954C11.6932 58.0802 11.3828 58.5239 10.895 59.5444C10.2742 60.7867 10.0968 61.4966 10.0082 63.0939C9.91946 64.78 10.0968 65.8449 10.5846 67.4422C11.0281 68.862 11.5159 69.7938 12.7132 71.613C13.7331 73.2103 14.3539 74.4083 14.3539 74.852C14.3539 75.2069 14.4426 75.2069 16.039 74.852C19.8526 73.9646 23.0011 72.456 24.7305 70.5925C25.7948 69.4388 26.0609 68.8177 26.0609 67.2204C26.0609 66.1998 26.0165 65.978 25.7504 65.3568C25.307 64.3807 24.4645 63.582 22.6463 62.3397C20.2517 60.698 19.2318 59.3669 18.9657 57.5921C18.744 56.0835 19.0101 55.063 20.3404 52.2677C21.7151 49.3837 22.0699 48.1857 22.2916 45.2573C22.4246 43.3937 22.6463 42.6394 23.1785 42.0626C23.7549 41.4415 24.2427 41.2196 25.6174 41.0421C27.879 40.7315 29.3424 40.1547 30.4953 39.0455C31.5152 38.1137 31.9587 37.1819 32.003 35.8065L32.0474 34.786L31.4709 34.1648C29.3867 31.7688 0.518429 0 0.385395 0C0.341051 0 1.05056 0.843028 1.89311 1.9079ZM15.5069 65.0019C15.9947 64.1588 15.7286 63.094 14.9304 62.5615C14.1765 62.0734 13.0236 62.2953 13.0236 62.9608C13.0236 63.1383 13.1123 63.3158 13.3783 63.4045C13.7774 63.6264 13.8218 63.8482 13.5114 64.3363C13.201 64.8244 13.201 65.2681 13.6001 65.5787C14.2209 66.0667 15.0634 65.8005 15.5069 65.0019Z" fill="#FF007A"/>
<path fill-rule="evenodd" clip-rule="evenodd" d="M33.4672 41.6634C32.403 41.974 31.3831 43.1276 31.0726 44.2812C30.8953 44.9911 30.984 46.2779 31.2944 46.6772C31.7822 47.2984 32.2256 47.4758 33.4672 47.4758C35.9062 47.4758 37.9904 46.411 38.2121 45.1242C38.4338 44.0594 37.5026 42.5952 36.2166 41.9296C35.5514 41.5747 34.1768 41.4415 33.4672 41.6634ZM36.3053 43.8819C36.6601 43.3494 36.527 42.7726 35.8618 42.3733C34.6645 41.619 32.8464 42.2402 32.8464 43.3938C32.8464 43.9706 33.7777 44.5918 34.6645 44.5918C35.241 44.5918 36.0392 44.2368 36.3053 43.8819Z" fill="#FF007A"/>
</g>
<defs>
<clipPath id="clip0_1_766">
<rect x="0.385803" width="74.6318" height="85.9888" fill="white"/>
</clipPath>
</defs>
</svg>
