<svg width="10" height="11" viewBox="0 0 10 11" fill="none" xmlns="http://www.w3.org/2000/svg">
<path d="M2.06191 5.57501L0.899414 5.07501C0.732747 5.00835 0.634914 4.88751 0.605914 4.71251C0.576581 4.53751 0.624414 4.38751 0.749414 4.26251L2.32441 2.68751C2.44108 2.57085 2.57858 2.48751 2.73691 2.43751C2.89525 2.38751 3.05775 2.37918 3.22441 2.41251L3.87441 2.55001C3.43275 3.07501 3.08075 3.55218 2.81841 3.98151C2.55575 4.41051 2.30358 4.94168 2.06191 5.57501ZM9.41192 0.700013C9.47858 0.700013 9.54525 0.71668 9.61192 0.750013C9.67858 0.783346 9.73692 0.825013 9.78692 0.875013C9.83692 0.925013 9.87858 0.983346 9.91192 1.05001C9.94525 1.11668 9.96192 1.18335 9.96192 1.25001C9.99525 2.02501 9.83075 2.82918 9.46842 3.66251C9.10575 4.49585 8.59525 5.24168 7.93691 5.90001C7.48691 6.35001 7.05358 6.71035 6.63691 6.98101C6.22025 7.25201 5.72858 7.50835 5.16191 7.75001C5.05358 7.79168 4.94325 7.81251 4.83091 7.81251C4.71825 7.81251 4.62025 7.77085 4.53691 7.68751L2.97441 6.12501C2.89108 6.04168 2.84941 5.94368 2.84941 5.83101C2.84941 5.71868 2.87025 5.60835 2.91191 5.50001C3.15358 4.94168 3.40991 4.45201 3.68091 4.03101C3.95158 3.61035 4.31191 3.17501 4.76191 2.72501C5.42025 2.06668 6.16608 1.55618 6.99941 1.19351C7.83275 0.83118 8.63692 0.66668 9.41192 0.700013ZM6.23692 4.42501C6.42858 4.61668 6.66408 4.71251 6.94341 4.71251C7.22241 4.71251 7.45775 4.61668 7.64941 4.42501C7.84108 4.23335 7.93691 3.99785 7.93691 3.71851C7.93691 3.43951 7.84108 3.20418 7.64941 3.01251C7.45775 2.82085 7.22241 2.72501 6.94341 2.72501C6.66408 2.72501 6.42858 2.82085 6.23692 3.01251C6.04525 3.20418 5.94941 3.43951 5.94941 3.71851C5.94941 3.99785 6.04525 4.23335 6.23692 4.42501ZM5.08691 8.60001C5.72025 8.35835 6.25358 8.10635 6.68691 7.84401C7.12025 7.58135 7.59942 7.22918 8.12442 6.78751L8.24942 7.43751C8.28275 7.60418 8.27442 7.76885 8.22442 7.93151C8.17442 8.09385 8.09108 8.23335 7.97442 8.35001L6.39942 9.92501C6.27442 10.05 6.12441 10.0958 5.94941 10.0625C5.77441 10.0292 5.65358 9.92918 5.58691 9.76251L5.08691 8.60001ZM1.02441 7.52501C1.31608 7.23335 1.67025 7.08535 2.08691 7.08101C2.50358 7.07701 2.85775 7.22085 3.14941 7.51251C3.44108 7.80418 3.58691 8.15835 3.58691 8.57501C3.58691 8.99168 3.44108 9.34585 3.14941 9.63751C2.94108 9.84585 2.59325 10.025 2.10591 10.175C1.61825 10.325 0.945248 10.4583 0.0869141 10.575C0.203581 9.71668 0.336914 9.04585 0.486914 8.56251C0.636914 8.07918 0.816081 7.73335 1.02441 7.52501Z" fill="#DF4886"/>
</svg>
