<svg width="32" height="33" viewBox="0 0 32 33" fill="none" xmlns="http://www.w3.org/2000/svg">
<path d="M29.0797 8.51067C29.157 8.40297 29.0428 8.26392 28.9192 8.31183C28.0409 8.65226 27.123 8.88196 26.1867 8.99515C27.2293 8.37232 28.0337 7.42421 28.4799 6.30173C28.5253 6.18738 28.4004 6.08527 28.2927 6.14475C27.3238 6.67987 26.2788 7.06519 25.1932 7.28711C25.1478 7.2964 25.1009 7.28093 25.069 7.24727C24.2544 6.3877 23.1821 5.81539 22.0131 5.61762C20.8196 5.41569 19.5928 5.61563 18.5251 6.18607C17.4574 6.75651 16.6093 7.66519 16.1137 8.7696C15.6425 9.81968 15.5153 10.9902 15.7477 12.1144C15.7658 12.2016 15.6975 12.284 15.6086 12.2784C13.4965 12.1473 11.4329 11.5855 9.54491 10.627C7.66169 9.67087 5.99405 8.34079 4.64356 6.71874C4.58362 6.64676 4.47002 6.65607 4.42635 6.73894C4.00613 7.53637 3.78611 8.42516 3.7867 9.32848C3.785 10.2277 4.00566 11.1133 4.42904 11.9066C4.85243 12.6998 5.46539 13.3761 6.21337 13.8751C5.42014 13.8536 4.64237 13.6575 3.93503 13.3019C3.84388 13.2561 3.73454 13.3213 3.73928 13.4232C3.79443 14.6089 4.22971 15.7992 4.98312 16.7124C5.78488 17.6843 6.89771 18.3493 8.13337 18.5951C7.65771 18.7399 7.16387 18.8162 6.6667 18.8218C6.39612 18.8187 6.12606 18.7987 5.85808 18.7621C5.75873 18.7485 5.67759 18.8428 5.71238 18.9369C6.08093 19.9336 6.73203 20.8032 7.58814 21.438C8.50341 22.1167 9.60747 22.4932 10.7467 22.5152C8.82297 24.0288 6.44788 24.855 4.00004 24.8618C3.74851 24.8626 3.4971 24.8545 3.24628 24.8374C3.10494 24.8278 3.03993 25.0161 3.16176 25.0884C5.54679 26.5038 8.27282 27.2519 11.0534 27.2485C13.1063 27.2698 15.1429 26.8818 17.0442 26.1073C18.9455 25.3327 20.6734 24.187 22.127 22.7371C23.5805 21.2873 24.7307 19.5623 25.5101 17.663C26.2896 15.7637 26.6828 13.7281 26.6667 11.6751V11.0354C26.6667 10.9933 26.6866 10.9537 26.7202 10.9283C27.6246 10.2455 28.4199 9.43022 29.0797 8.51067Z" fill="white"/>
</svg>
