<svg width="30" height="39" viewBox="0 0 30 39" fill="none" xmlns="http://www.w3.org/2000/svg">
<path d="M18.6515 4.78052C16.7003 4.78052 14.8291 5.5556 13.4495 6.93525C12.0698 8.31491 11.2947 10.1861 11.2947 12.1372V16.2331H7.35789C7.16023 16.2331 7 16.3934 7 16.591V21.9992C7 22.1969 7.16023 22.3571 7.35789 22.3571H11.2947V33.4519C11.2947 33.6495 11.455 33.8098 11.6526 33.8098H17.0608C17.2585 33.8098 17.4187 33.6495 17.4187 33.4519V22.3571H21.3904C21.5547 22.3571 21.6978 22.2454 21.7376 22.086L23.0897 16.6778C23.1462 16.452 22.9753 16.2331 22.7425 16.2331H17.4187V12.1372C17.4187 11.8103 17.5486 11.4967 17.7798 11.2656C18.011 11.0344 18.3245 10.9045 18.6515 10.9045H22.7871C22.9848 10.9045 23.145 10.7443 23.145 10.5466V5.13841C23.145 4.94075 22.9848 4.78052 22.7871 4.78052H18.6515Z" fill="white"/>
</svg>
