<svg width="32" height="33" viewBox="0 0 32 33" fill="none" xmlns="http://www.w3.org/2000/svg">
<path d="M6.33321 2.70776C4.7684 2.70776 3.49988 3.97629 3.49988 5.5411C3.49988 7.1059 4.7684 8.37443 6.33321 8.37443C7.89802 8.37443 9.16655 7.1059 9.16655 5.5411C9.16655 3.97629 7.89802 2.70776 6.33321 2.70776Z" fill="white"/>
<path d="M3.66654 10.7078C3.5745 10.7078 3.49988 10.7824 3.49988 10.8744V28.2078C3.49988 28.2998 3.5745 28.3744 3.66654 28.3744H8.99988C9.09193 28.3744 9.16655 28.2998 9.16655 28.2078V10.8744C9.16655 10.7824 9.09193 10.7078 8.99988 10.7078H3.66654Z" fill="white"/>
<path d="M12.3332 10.7078C12.2412 10.7078 12.1665 10.7824 12.1665 10.8744V28.2078C12.1665 28.2998 12.2412 28.3744 12.3332 28.3744H17.6665C17.7586 28.3744 17.8332 28.2998 17.8332 28.2078V18.8744C17.8332 18.2114 18.0966 17.5755 18.5654 17.1067C19.0343 16.6378 19.6702 16.3744 20.3332 16.3744C20.9963 16.3744 21.6321 16.6378 22.101 17.1067C22.5698 17.5755 22.8332 18.2114 22.8332 18.8744V28.2078C22.8332 28.2998 22.9078 28.3744 22.9999 28.3744H28.3332C28.4253 28.3744 28.4999 28.2998 28.4999 28.2078V16.7148C28.4999 13.4791 25.6857 10.9478 22.4663 11.2404C21.4735 11.3307 20.4918 11.5775 19.5752 11.9704L17.8332 12.7169V10.8744C17.8332 10.7824 17.7586 10.7078 17.6665 10.7078H12.3332Z" fill="white"/>
</svg>
