<svg width="35" height="25" viewBox="0 0 35 25" fill="none" xmlns="http://www.w3.org/2000/svg">
<g clip-path="url(#clip0_1_494)">
<path d="M28.4145 2.24136C32.113 7.46726 33.9395 13.3619 33.2567 20.148C33.2539 20.1768 33.2383 20.2031 33.2137 20.2204C30.413 22.1969 27.6994 23.3963 25.0238 24.1918C25.003 24.1979 24.9807 24.1975 24.9601 24.1908C24.9395 24.1841 24.9215 24.1714 24.9088 24.1544C24.2907 23.3279 23.7291 22.4565 23.237 21.5415C23.2088 21.4876 23.2346 21.4226 23.2927 21.4014C24.1847 21.0784 25.0328 20.6913 25.8487 20.233C25.913 20.1968 25.917 20.1083 25.8577 20.0658C25.6845 19.9423 25.513 19.8125 25.3489 19.6827C25.3182 19.6587 25.2768 19.6539 25.242 19.6701C19.9454 22.0206 14.1433 22.0206 8.78405 19.6701C8.74925 19.6551 8.70791 19.6602 8.67803 19.6838C8.51429 19.8137 8.34236 19.9423 8.17084 20.0658C8.11148 20.1083 8.1164 20.1968 8.18107 20.233C8.99691 20.6827 9.84509 21.0784 10.7358 21.403C10.7936 21.4242 10.821 21.4876 10.7923 21.5415C10.3109 22.4577 9.7493 23.3291 9.11972 24.1556C9.09229 24.189 9.04726 24.2044 9.00469 24.1918C6.34186 23.3963 3.62827 22.1969 0.827482 20.2204C0.804149 20.2031 0.787366 20.1756 0.78491 20.1469C0.214274 14.277 1.37724 8.33352 5.62263 2.24018C5.63286 2.22405 5.64842 2.21146 5.66643 2.20399C7.75535 1.28265 9.99327 0.604826 12.3323 0.217723C12.3749 0.211428 12.4175 0.230312 12.4396 0.266504C12.7286 0.758251 13.0589 1.38887 13.2824 1.90422C15.7479 1.54229 18.2519 1.54229 20.769 1.90422C20.9925 1.39988 21.3114 0.758251 21.5992 0.266504C21.6095 0.248549 21.6253 0.234165 21.6446 0.225405C21.6639 0.216644 21.6855 0.213956 21.7065 0.217723C24.0467 0.606006 26.2846 1.28383 28.3719 2.20399C28.3903 2.21146 28.4055 2.22405 28.4145 2.24136ZM14.5358 13.4021C14.5616 11.6668 13.2452 10.2309 11.5926 10.2309C9.95356 10.2309 8.64978 11.6542 8.64978 13.4021C8.64978 15.1495 9.97935 16.5728 11.5926 16.5728C13.2321 16.5728 14.5358 15.1495 14.5358 13.4021ZM25.4172 13.4021C25.443 11.6668 24.1265 10.2309 22.4744 10.2309C20.8349 10.2309 19.5312 11.6542 19.5312 13.4021C19.5312 15.1495 20.8607 16.5728 22.4744 16.5728C24.1265 16.5728 25.4172 15.1495 25.4172 13.4021Z" fill="white"/>
</g>
<defs>
<clipPath id="clip0_1_494">
<rect width="34.1538" height="24" fill="white" transform="translate(0 0.207764)"/>
</clipPath>
</defs>
</svg>
