<svg width="31" height="31" viewBox="0 0 31 31" fill="none" xmlns="http://www.w3.org/2000/svg">
<g clip-path="url(#clip0_1_495)">
<path fill-rule="evenodd" clip-rule="evenodd" d="M15.1538 30.2078C23.4381 30.2078 30.1538 23.492 30.1538 15.2078C30.1538 6.92349 23.4381 0.207764 15.1538 0.207764C6.86954 0.207764 0.153809 6.92349 0.153809 15.2078C0.153809 23.492 6.86954 30.2078 15.1538 30.2078ZM25.1118 15.3663C25.1118 14.1507 24.1317 13.1642 22.9242 13.1642C22.3292 13.1642 21.8041 13.3932 21.4191 13.7808C19.9315 12.7061 17.8664 12.0014 15.5913 11.9133L16.5889 7.20952L19.8265 7.89659C19.8615 8.7246 20.5441 9.39406 21.3841 9.39406C22.2417 9.39406 22.9417 8.68937 22.9417 7.82612C22.9417 6.96288 22.2417 6.25818 21.3841 6.25818C20.7716 6.25818 20.2466 6.61053 20.0015 7.13905L16.3789 6.36389C16.2739 6.34627 16.1689 6.36389 16.0814 6.41674C15.9938 6.46959 15.9413 6.55768 15.9063 6.66338L14.8038 11.9133C12.4762 11.9838 10.3936 12.6709 8.8885 13.7808C8.50349 13.4108 7.96096 13.1642 7.38343 13.1642C6.17587 13.1642 5.19583 14.1507 5.19583 15.3663C5.19583 16.2648 5.72085 17.0223 6.49089 17.3747C6.45589 17.5861 6.43839 17.8151 6.43839 18.0441C6.43839 21.4267 10.3411 24.1573 15.1713 24.1573C20.0015 24.1573 23.9042 21.4267 23.9042 18.0441C23.9042 17.8151 23.8867 17.6037 23.8517 17.3923C24.5693 17.04 25.1118 16.2648 25.1118 15.3663ZM10.1486 16.9343C10.1486 16.071 10.8486 15.3663 11.7061 15.3663C12.5637 15.3663 13.2637 16.071 13.2637 16.9343C13.2637 17.7975 12.5637 18.5022 11.7061 18.5022C10.8486 18.5022 10.1486 17.7975 10.1486 16.9343ZM18.8465 21.0743C17.7789 22.149 15.7488 22.2194 15.1538 22.2194C14.5588 22.2194 12.5112 22.1314 11.4611 21.0743C11.3036 20.9158 11.3036 20.6515 11.4611 20.4929C11.6186 20.3344 11.8811 20.3344 12.0387 20.4929C12.7037 21.1624 14.1388 21.409 15.1713 21.409C16.2039 21.409 17.6214 21.1624 18.304 20.4929C18.4615 20.3344 18.724 20.3344 18.8815 20.4929C19.004 20.6691 19.004 20.9158 18.8465 21.0743ZM18.5665 18.5022C17.7089 18.5022 17.0089 17.7975 17.0089 16.9343C17.0089 16.071 17.7089 15.3663 18.5665 15.3663C19.424 15.3663 20.1241 16.071 20.1241 16.9343C20.1241 17.7975 19.424 18.5022 18.5665 18.5022Z" fill="white"/>
</g>
<defs>
<clipPath id="clip0_1_495">
<rect width="30" height="30" fill="white" transform="translate(0.153809 0.207764)"/>
</clipPath>
</defs>
</svg>
