<svg viewBox="0 0 20 20" xmlns="http://www.w3.org/2000/svg" class="a"><style>.b{fill: #374151;}.a{}</style><path d="M10.39 2.08c-.26-.11-.54-.11-.79 0l-7 3c-.37.15-.61.51-.61.91s.23.76.6.91l2.64 1.13c.09-.11.21-.2.35-.26l4-1.72c.5-.22 1.09.01 1.31.52 .21.5-.02 1.09-.53 1.31L7.63 9.04l1.93.83c.25.1.53.1.78 0l7-3c.36-.16.6-.52.6-.92 0-.41-.24-.77-.61-.92l-7-3Z" class="b"/><path d="M3.31 9.39l1.68.72v4.1c-.35-.08-.7-.14-1.05-.18 -.47-.05-.85-.43-.9-.9 -.04-.39-.07-.77-.07-1.16 0-.9.1-1.77.31-2.61Z" class="b"/><path d="M9.29 16.57c-.68-.66-1.45-1.22-2.3-1.64v-3.96l1.81.77c.75.32 1.6.32 2.36 0l5.5-2.37c.2.83.31 1.7.31 2.6 0 .39-.03.77-.07 1.15 -.05.46-.43.84-.9.89 -2.08.21-3.94 1.13-5.35 2.52 -.39.38-1.02.38-1.41 0Z" class="b"/><path d="M6 18c.55 0 1-.45 1-1v-2.07c-.63-.32-1.3-.56-2-.72v2.77c0 .55.44 1 1 1Z" class="b"/></svg>