<svg viewBox="0 0 20 20" xmlns="http://www.w3.org/2000/svg" class="a"><style>.b{fill: #4A5568;}.a{}</style><path d="M5 4c0-.56-.45-1-1-1 -.56 0-1 .44-1 1v7.26c-.6.34-1 .99-1 1.73s.4 1.38 1 1.73v1.26c0 .55.44 1 1 1 .55 0 1-.45 1-1v-1.27c.59-.35 1-1 1-1.74 0-.75-.41-1.39-1-1.74V3.96Z" class="b"/><path d="M11 4c0-.56-.45-1-1-1 -.56 0-1 .44-1 1v1.26c-.6.34-1 .99-1 1.73s.4 1.38 1 1.73v7.26c0 .55.44 1 1 1 .55 0 1-.45 1-1V8.71c.59-.35 1-1 1-1.74 0-.75-.41-1.39-1-1.74V3.96Z" class="b"/><path d="M16 3c.55 0 1 .44 1 1v7.26c.59.34 1 .99 1 1.73s-.41 1.38-1 1.73v1.26c0 .55-.45 1-1 1 -.56 0-1-.45-1-1v-1.27c-.6-.35-1-1-1-1.74 0-.75.4-1.39 1-1.74V3.96c0-.56.44-1 1-1Z" class="b"/></svg>