<svg viewBox="0 0 20 20" xmlns="http://www.w3.org/2000/svg" class="a"><style>.b{fill: #4A5568; fill-rule: evenodd;}.a{}</style><path d="M14.24 5.75c-2.35-2.35-6.15-2.35-8.49 0 -2.35 2.34-2.35 6.14 0 8.48 2.03 2.03 5.17 2.3 7.49.79 .46-.31 1.08-.17 1.38.29 .3.46.16 1.08-.3 1.38 -3.1 2-7.29 1.65-10.01-1.07 -3.13-3.13-3.13-8.19 0-11.32 3.12-3.13 8.18-3.13 11.31 0 1.56 1.56 2.34 3.61 2.34 5.65 0 1.65-1.35 3-3 3 -.68 0-1.3-.23-1.8-.6 -.73.97-1.9 1.59-3.21 1.59 -2.21 0-4-1.8-4-4 0-2.21 1.79-4 4-4 2.2 0 4 1.79 4 4 0 .55.44 1 1 1 .55 0 1-.45 1-1 0-1.54-.59-3.08-1.76-4.25Zm-2.25 4.24c0-1.11-.9-2-2-2 -1.11 0-2 .89-2 2 0 1.1.89 2 2 2 1.1 0 2-.9 2-2Z" class="b"/></svg>