<svg viewBox="0 0 20 20" xmlns="http://www.w3.org/2000/svg" class="a"><style>.b{fill: #374151; fill-rule: evenodd;}.a{}</style><path d="M6.7 4.87c.56-.57 1.32-.88 2.12-.88h6.17c1.65 0 3 1.34 3 3v6c0 1.65-1.35 3-3 3H8.81c-.8 0-1.56-.32-2.13-.88l-4.42-4.42c-.19-.19-.3-.45-.3-.71 0-.27.1-.52.29-.71l4.41-4.42Zm3.99 2.41c-.4-.4-1.03-.4-1.42 0 -.4.39-.4 1.02 0 1.41l1.29 1.29 -1.3 1.29c-.4.39-.4 1.02 0 1.41 .39.39 1.02.39 1.41 0l1.29-1.3 1.29 1.29c.39.39 1.02.39 1.41 0 .39-.4.39-1.03 0-1.42l-1.3-1.3 1.29-1.3c.39-.4.39-1.03 0-1.42 -.4-.4-1.03-.4-1.42 0l-1.3 1.29 -1.3-1.3Z" class="b"/></svg>