<svg viewBox="0 0 20 20" xmlns="http://www.w3.org/2000/svg" class="a"><style>.b{fill: #374151; fill-rule: evenodd;}.a{}</style><path d="M6.99 2c-.41 0-.77.24-.93.61 -.16.37-.07.8.21 1.08l.7.7v3.75c0 .26-.11.51-.3.7l-4 4c-1.89 1.88-.56 5.12 2.12 5.12h10.34c2.67 0 4.01-3.24 2.12-5.13l-4-4.01c-.19-.19-.3-.45-.3-.71V4.35l.7-.71c.28-.29.37-.72.21-1.09 -.16-.38-.52-.62-.93-.62H6.92Zm2 6.17V3.99h2v4.17c0 .79.31 1.55.87 2.12l1.02 1.02c-.72-.17-1.47-.14-2.18.1l-.48.15c-.83.27-1.71.27-2.53 0l-.57-.19c-.04-.02-.08-.03-.12-.04l1.06-1.07c.56-.57.87-1.33.87-2.13Z" class="b"/></svg>