<svg viewBox="0 0 20 20" xmlns="http://www.w3.org/2000/svg" class="a"><style>.b{fill: #4A5568; fill-rule: evenodd;}.c{fill: #4A5568;}.a{}</style><path d="M6 6V5c0-1.66 1.34-3 3-3h2c1.65 0 3 1.34 3 3v1h2c1.1 0 2 .89 2 2v3.57c-2.5.92-5.19 1.42-8 1.42 -2.82 0-5.51-.51-8-1.43V7.98c0-1.11.89-2 2-2h2Zm2-1c0-.56.44-1 1-1h2c.55 0 1 .44 1 1v1H8V5Zm1 5c0-.56.44-1 1-1h.01c.55 0 1 .44 1 1 0 .55-.45 1-1 1H10c-.56 0-1-.45-1-1Z" class="b"/><path d="M2 13.69v2.3c0 1.1.89 2 2 2h12c1.1 0 2-.9 2-2v-2.31c-2.52.84-5.21 1.3-8 1.3 -2.8 0-5.49-.46-8-1.31Z" class="c"/></svg>