<svg viewBox="0 0 20 20" xmlns="http://www.w3.org/2000/svg" class="a"><style>.b{fill: #374151; fill-rule: evenodd;}.a{}</style><path d="M6 3c0-.56.44-1 1-1h.01c.55 0 1 .44 1 1 0 .55-.45 1-1 1H7c-.56 0-1-.45-1-1Zm2 3c0-.56-.45-1-1-1 -.56 0-1 .44-1 1v1c-1.11 0-2 .89-2 2v1c-1.11 0-2 .89-2 2v.68c.36.1.72.26 1.05.48 .57.38 1.31.38 1.89 0 1.24-.83 2.86-.83 4.1 0 .57.38 1.31.38 1.89 0 1.24-.83 2.86-.83 4.1 0 .57.38 1.31.38 1.89 0 .32-.22.68-.39 1.05-.49v-.69c0-1.11-.9-2-2-2v-1c0-1.11-.9-2-2-2v-1c0-.56-.45-1-1-1 -.56 0-1 .44-1 1v1h-1v-1c0-.56-.45-1-1-1 -.56 0-1 .44-1 1v1h-1v-1Zm10 8.86c-1.24.79-2.83.78-4.06-.04 -.58-.39-1.32-.39-1.9 0 -1.25.82-2.87.82-4.11 0 -.58-.39-1.32-.39-1.9 0 -1.23.81-2.82.82-4.06.03v2.13c0 .55.44 1 1 1h14c.55 0 1-.45 1-1v-2.14ZM9 2.99c0-.56.44-1 1-1h.01c.55 0 1 .44 1 1 0 .55-.45 1-1 1H10c-.56 0-1-.45-1-1Zm3 0c0-.56.44-1 1-1h.01c.55 0 1 .44 1 1 0 .55-.45 1-1 1H13c-.56 0-1-.45-1-1Z" class="b"/></svg>