<svg viewBox="0 0 20 20" xmlns="http://www.w3.org/2000/svg" class="a"><style>.b{fill: #374151; fill-rule: evenodd;}.a{}</style><path d="M6 2c-1.11 0-2 .89-2 2v12c0 1.1.89 2 2 2h8c1.1 0 2-.9 2-2V4c0-1.11-.9-2-2-2H6Zm1 2c-.56 0-1 .44-1 1 0 .55.44 1 1 1h6c.55 0 1-.45 1-1 0-.56-.45-1-1-1H7Zm6 7c.55 0 1 .44 1 1v3c0 .55-.45 1-1 1 -.56 0-1-.45-1-1v-3c0-.56.44-1 1-1Zm-3 3c-.56 0-1 .44-1 1 0 .55.44 1 1 1h.01c.55 0 1-.45 1-1 0-.56-.45-1-1-1H10Zm-4 1c0-.56.44-1 1-1h.01c.55 0 1 .44 1 1 0 .55-.45 1-1 1H7c-.56 0-1-.45-1-1Zm1-4c-.56 0-1 .44-1 1 0 .55.44 1 1 1h.01c.55 0 1-.45 1-1 0-.56-.45-1-1-1H7Zm2 1c0-.56.44-1 1-1h.01c.55 0 1 .44 1 1 0 .55-.45 1-1 1H10c-.56 0-1-.45-1-1Zm4-4c-.56 0-1 .44-1 1 0 .55.44 1 1 1h.01c.55 0 1-.45 1-1 0-.56-.45-1-1-1H13ZM9 9c0-.56.44-1 1-1h.01c.55 0 1 .44 1 1 0 .55-.45 1-1 1H10c-.56 0-1-.45-1-1ZM7 8c-.56 0-1 .44-1 1 0 .55.44 1 1 1h.01c.55 0 1-.45 1-1 0-.56-.45-1-1-1H7Z" class="b"/></svg>