<svg viewBox="0 0 20 20" xmlns="http://www.w3.org/2000/svg" class="a"><style>.c{fill: #4A5568; fill-rule: evenodd;}.b{fill: #4A5568;}.a{}</style><path d="M9 2c-.56 0-1 .44-1 1 0 .55.44 1 1 1h2c.55 0 1-.45 1-1 0-.56-.45-1-1-1H9Z" class="b"/><path d="M4 5c0-1.11.89-2 2-2 0 1.65 1.34 3 3 3h2c1.65 0 3-1.35 3-3 1.1 0 2 .89 2 2v11c0 1.1-.9 2-2 2H6c-1.11 0-2-.9-2-2V5Zm3 4c-.56 0-1 .44-1 1 0 .55.44 1 1 1h.01c.55 0 1-.45 1-1 0-.56-.45-1-1-1H7Zm3 0c-.56 0-1 .44-1 1 0 .55.44 1 1 1h3c.55 0 1-.45 1-1 0-.56-.45-1-1-1h-3Zm-3 4c-.56 0-1 .44-1 1 0 .55.44 1 1 1h.01c.55 0 1-.45 1-1 0-.56-.45-1-1-1H7Zm3 0c-.56 0-1 .44-1 1 0 .55.44 1 1 1h3c.55 0 1-.45 1-1 0-.56-.45-1-1-1h-3Z" class="c"/></svg>