<svg viewBox="0 0 20 20" xmlns="http://www.w3.org/2000/svg" class="a"><style>.b{fill: #4A5568;}.a{}</style><path d="M8 2c-.56 0-1 .44-1 1 0 .55.44 1 1 1h2c.55 0 1-.45 1-1 0-.56-.45-1-1-1H8Z" class="b"/><path d="M3 5c0-1.11.89-2 2-2 0 1.65 1.34 3 3 3h2c1.65 0 3-1.35 3-3 1.1 0 2 .89 2 2v6h-4.59l1.29-1.3c.39-.4.39-1.03 0-1.42 -.4-.4-1.03-.4-1.42 0l-3.01 3c-.4.39-.4 1.02 0 1.41l3 3c.39.39 1.02.39 1.41 0 .39-.4.39-1.03 0-1.42l-1.3-1.3h4.58v3c0 1.1-.9 2-2 2h-8c-1.11 0-2-.9-2-2v-11Z" class="b"/><path d="M15 11h2c.55 0 1 .44 1 1 0 .55-.45 1-1 1h-2v-2Z" class="b"/></svg>