<svg viewBox="0 0 20 20" xmlns="http://www.w3.org/2000/svg" class="a"><style>.b{fill: #374151;}.a{}</style><path d="M5.5 13C3.56 13 2 11.43 2 9.5c0-1.81 1.37-3.3 3.13-3.49 -.09-.33-.14-.67-.14-1.02 0-2.21 1.79-4 4-4 1.87 0 3.45 1.29 3.88 3.04 .2-.03.4-.05.61-.05 2.48 0 4.5 2.01 4.5 4.5 0 2.48-2.02 4.5-4.5 4.5h-2.5V9.39l1.29 1.29c.39.39 1.02.39 1.41 0 .39-.4.39-1.03 0-1.42l-3-3c-.4-.4-1.03-.4-1.42 0l-3 3c-.4.39-.4 1.02 0 1.41 .39.39 1.02.39 1.41 0l1.29-1.3v3.58h-3.5Z" class="b"/><path d="M9 13h2v5c0 .55-.45 1-1 1 -.56 0-1-.45-1-1v-5Z" class="b"/></svg>