<svg viewBox="0 0 20 20" xmlns="http://www.w3.org/2000/svg" class="a"><style>.b{fill: #374151; fill-rule: evenodd;}.a{}</style><path d="M2 9.5C2 11.43 3.56 13 5.5 13H9v2.58l-1.3-1.3c-.4-.4-1.03-.4-1.42 0 -.4.39-.4 1.02 0 1.41l3 3c.39.39 1.02.39 1.41 0l3-3c.39-.4.39-1.03 0-1.42 -.4-.4-1.03-.4-1.42 0l-1.3 1.29v-2.59h2.5c2.48 0 4.5-2.02 4.5-4.5 0-2.49-2.02-4.5-4.5-4.5 -.21 0-.42.01-.62.04C12.42 2.26 10.84.96 8.96.96c-2.21 0-4 1.79-4 4 0 .35.04.69.13 1.01 -1.76.18-3.14 1.67-3.14 3.48Zm9 3.5H9V8c0-.56.44-1 1-1 .55 0 1 .44 1 1v5Z" class="b"/></svg>