<svg viewBox="0 0 20 20" xmlns="http://www.w3.org/2000/svg" class="a"><style>.b{fill: #4A5568; fill-rule: evenodd;}.a{}</style><path d="M12.31 3.05c.52.17.8.74.63 1.26l-4.01 12c-.18.52-.75.8-1.27.63 -.53-.18-.81-.75-.64-1.27l3.99-12c.17-.53.74-.81 1.26-.64ZM5.7 6.29c.39.39.39 1.02 0 1.41L3.4 9.99l2.29 2.29c.39.39.39 1.02 0 1.41 -.4.39-1.03.39-1.42 0l-3-3c-.4-.4-.4-1.03 0-1.42l3-3c.39-.4 1.02-.4 1.41 0Zm8.58 0c.39-.4 1.02-.4 1.41 0l3 3c.39.39.39 1.02 0 1.41l-3 3c-.4.39-1.03.39-1.42 0 -.4-.4-.4-1.03 0-1.42l2.29-2.3 -2.3-2.3c-.4-.4-.4-1.03 0-1.42Z" class="b"/></svg>