<svg viewBox="0 0 20 20" xmlns="http://www.w3.org/2000/svg" class="a"><style>.b{fill: #4A5568; fill-rule: evenodd;}.a{}</style><path d="M11.48 3.17c-.38-1.57-2.6-1.57-2.98 0 -.25 1-1.41 1.48-2.29.94 -1.38-.84-2.95.73-2.11 2.1 .54.88.06 2.04-.95 2.28 -1.57.37-1.57 2.59 0 2.97 1 .24 1.48 1.4.94 2.28 -.84 1.37.73 2.94 2.1 2.1 .88-.54 2.04-.07 2.28.94 .37 1.56 2.59 1.56 2.97 0 .24-1.01 1.4-1.49 2.28-.95 1.37.83 2.94-.74 2.1-2.11 -.54-.89-.07-2.05.94-2.29 1.56-.38 1.56-2.6 0-2.98 -1.01-.25-1.49-1.41-.95-2.29 .83-1.38-.74-2.95-2.11-2.11 -.89.54-2.05.06-2.29-.95Zm-1.49 9.82c1.65 0 3-1.35 3-3 0-1.66-1.35-3-3-3 -1.66 0-3 1.34-3 3 0 1.65 1.34 3 3 3Z" class="b"/></svg>