<svg viewBox="0 0 20 20" xmlns="http://www.w3.org/2000/svg" class="a"><style>.b{fill: #374151;}.a{}</style><path d="M11 17c0 .34.17.66.47.85 .29.18.66.19.97.04l4-2c.33-.17.55-.52.55-.9V9.22c0-.35-.18-.67-.48-.86 -.3-.19-.67-.2-.98-.05l-4 1.99c-.34.16-.56.51-.56.89v5.76Z" class="b"/><path d="M15.21 6.27c.33-.17.55-.52.55-.9s-.22-.73-.56-.9l-4.77-2.39c-.29-.15-.62-.15-.9 0L4.76 4.46c-.34.16-.56.51-.56.89 0 .37.21.72.55.89l4.76 2.38c.28.14.61.14.89 0l4.76-2.39Z" class="b"/><path d="M4.44 8.34c-.31-.16-.68-.14-.98.04 -.3.18-.48.5-.48.85v5.76c0 .37.21.72.55.89l4 2c.3.15.67.13.97-.05 .29-.19.47-.51.47-.86V11.2c0-.38-.22-.73-.56-.9l-4-2Z" class="b"/></svg>