<svg viewBox="0 0 20 20" xmlns="http://www.w3.org/2000/svg" class="a"><style>.b{fill: #374151; fill-rule: evenodd;}.a{}</style><path d="M9.5 1.13c.3-.18.68-.18.99 0l1.75 1c.47.27.64.88.37 1.36 -.28.47-.89.64-1.37.37l-1.26-.72 -1.26.71c-.48.27-1.1.1-1.37-.38 -.28-.48-.11-1.1.37-1.37l1.75-1ZM5.61 4.5c.27.47.1 1.09-.38 1.36l-.24.13 .23.13c.47.27.64.88.37 1.36 -.28.47-.89.64-1.37.37l-.26-.15v.27c0 .55-.45 1-1 1 -.56 0-1-.45-1-1v-2c0-.25.09-.48.24-.66 .03-.05.07-.08.11-.12 .05-.05.1-.09.16-.12l1.73-1c.47-.28 1.09-.11 1.36.37Zm8.76 0c.27-.48.88-.65 1.36-.38l1.73.99c.05.03.11.06.16.11 .21.18.35.45.35.76v2c0 .55-.45 1-1 1 -.56 0-1-.45-1-1V7.7l-.26.14c-.48.27-1.1.1-1.37-.38 -.28-.48-.11-1.1.37-1.37l.23-.14 -.24-.14c-.48-.28-.65-.89-.38-1.37Zm-7.01 4c.27-.48.88-.65 1.36-.38l1.25.71 1.25-.72c.47-.28 1.09-.11 1.36.37 .27.47.1 1.09-.38 1.36l-1.25.71v1.41c0 .55-.45 1-1 1 -.56 0-1-.45-1-1v-1.42L7.7 9.82c-.48-.28-.65-.89-.38-1.37Zm-4.39 2.49c.55 0 1 .44 1 1v1.41l1.24.71c.47.27.64.88.37 1.36 -.28.47-.89.64-1.37.37l-1.75-1c-.32-.18-.51-.51-.51-.87v-2c0-.56.44-1 1-1Zm14 0c.55 0 1 .44 1 1v2c0 .35-.2.69-.51.86l-1.75 1c-.48.27-1.1.1-1.37-.38 -.28-.48-.11-1.1.37-1.37l1.24-.72v-1.42c0-.56.44-1 1-1Zm-9.62 5.5c.27-.48.88-.65 1.36-.38l.25.14v-.28c0-.56.44-1 1-1 .55 0 1 .44 1 1v.27l.25-.15c.47-.28 1.09-.11 1.36.37 .27.47.1 1.09-.38 1.36l-1.74.99c-.15.08-.33.14-.52.14s-.37-.06-.52-.15l-1.74-1c-.48-.28-.65-.89-.38-1.37Z" class="b"/></svg>