<svg viewBox="0 0 20 20" xmlns="http://www.w3.org/2000/svg" class="a"><style>.c{fill: #4A5568; fill-rule: evenodd;}.b{fill: #4A5568;}.a{}</style><path d="M8.43 7.41c.15-.11.34-.2.56-.27l0 1.69c-.23-.08-.42-.17-.57-.27 -.37-.25-.44-.47-.44-.59s.06-.34.43-.59Z" class="b"/><path d="M11 12.849v-1.7c.22.07.41.16.56.26 .36.24.43.46.43.58 0 .11-.07.33-.44.58 -.16.1-.35.19-.57.26Z" class="b"/><path d="M10 18c4.41 0 8-3.59 8-8 0-4.42-3.59-8-8-8 -4.42 0-8 3.58-8 8 0 4.41 3.58 8 8 8Zm1-13c0-.56-.45-1-1-1 -.56 0-1 .44-1 1v.09c-.63.11-1.2.34-1.68.66 -.73.48-1.33 1.25-1.33 2.24 0 .99.6 1.76 1.32 2.24 .47.31 1.05.54 1.67.66l0 1.94c-.391-.13-.69-.32-.85-.51 -.37-.42-1-.47-1.42-.1 -.42.36-.47.99-.1 1.41 .56.64 1.41 1.07 2.35 1.25v.09c-.01.55.44 1 .99 1s1-.45 1-1v-.1c.62-.12 1.19-.35 1.67-.67 .72-.49 1.32-1.26 1.32-2.25 0-1-.61-1.77-1.33-2.25 -.48-.32-1.06-.55-1.68-.67V7.08c.391.12.68.31.84.5 .36.41.99.46 1.41.09 .41-.37.46-1 .1-1.42 -.57-.65-1.42-1.08-2.36-1.26v-.1Z" class="c"/></svg>