<svg viewBox="0 0 20 20" xmlns="http://www.w3.org/2000/svg" class="a"><style>.b{fill: #4A5568; fill-rule: evenodd;}.a{}</style><path d="M10 18c4.41 0 8-3.59 8-8 0-4.42-3.59-8-8-8 -4.42 0-8 3.58-8 8 0 4.41 3.58 8 8 8ZM8.73 6.97c.47-.79.96-.98 1.26-.98 .3 0 .79.19 1.26.97 .28.47.89.62 1.37.34 .47-.29.62-.9.34-1.38 -.7-1.17-1.75-1.95-2.98-1.95 -1.24 0-2.279.78-2.98 1.94 -.29.47-.51.99-.68 1.55h-.36c-.56 0-1 .44-1 1 0 .55.44 1 1 1h.01c-.01.16-.02.33-.02.5 0 .16 0 .33.01.5h-.02c-.56 0-1 .44-1 1 0 .55.44 1 1 1h.35c.16.55.38 1.07.67 1.55 .69 1.16 1.74 1.95 2.97 1.95 1.23 0 2.279-.79 2.97-1.95 .28-.48.13-1.09-.35-1.38 -.48-.29-1.09-.14-1.38.34 -.48.78-.96.97-1.27.97 -.31 0-.8-.2-1.27-.98 -.1-.17-.19-.34-.27-.53h1.52c.55 0 1-.45 1-1 0-.56-.45-1-1-1H7.89c-.02-.17-.02-.34-.02-.5 0-.17 0-.34.01-.5h1.98c.55 0 1-.45 1-1 0-.56-.45-1-1-1H8.33c.07-.19.16-.36.26-.53Z" class="b"/></svg>