<svg viewBox="0 0 20 20" xmlns="http://www.w3.org/2000/svg" class="a"><style>.b{fill: #4A5568; fill-rule: evenodd;}.a{}</style><path d="M10 18c4.41 0 8-3.59 8-8 0-4.42-3.59-8-8-8 -4.42 0-8 3.58-8 8 0 4.41 3.58 8 8 8ZM7 5c-.56 0-1 .44-1 1 0 .55.44 1 1 1h1c.74 0 1.38.4 1.73 1H6.99c-.56 0-1 .44-1 1 0 .55.44 1 1 1h2.73c-.35.59-1 1-1.74 1h-1c-.41 0-.77.24-.93.61 -.16.37-.07.8.21 1.08l3 3c.39.39 1.02.39 1.41 0 .39-.4.39-1.03 0-1.42l-1.49-1.49c1.29-.42 2.3-1.48 2.65-2.81h1.12c.55 0 1-.45 1-1 0-.56-.45-1-1-1h-1.13c-.1-.36-.24-.7-.41-1h1.53c.55 0 1-.45 1-1 0-.56-.45-1-1-1h-6Z" class="b"/></svg>