<svg viewBox="0 0 20 20" xmlns="http://www.w3.org/2000/svg" class="a"><style>.b{fill: #4A5568; fill-rule: evenodd;}.a{}</style><path d="M10 18c4.41 0 8-3.59 8-8 0-4.42-3.59-8-8-8 -4.42 0-8 3.58-8 8 0 4.41 3.58 8 8 8ZM7.85 5.48c-.29-.48-.9-.63-1.38-.35 -.48.28-.63.89-.35 1.37l1.49 2.48h-.64c-.56 0-1 .44-1 1 0 .55.44.99 1 .99H8.8l.16.27v.72h-2c-.56 0-1 .44-1 1 0 .55.44 1 1 1h2v1c0 .55.44 1 .99 1s1-.45 1-1v-1h2c.55 0 1-.45 1-1 0-.56-.45-1-1-1h-2v-.73l.16-.28h1.83c.55 0 1-.45 1-1 0-.56-.45-1-1-1h-.64l1.49-2.49c.28-.48.13-1.09-.35-1.38 -.48-.29-1.09-.14-1.38.34L9.95 8.93h-.07L7.77 5.41Z" class="b"/></svg>