<svg viewBox="0 0 20 20" xmlns="http://www.w3.org/2000/svg" class="a"><style>.b{fill: #4A5568; fill-rule: evenodd;}.a{}</style><path d="M10 18c4.41 0 8-3.59 8-8 0-4.42-3.59-8-8-8 -4.42 0-8 3.58-8 8 0 4.41 3.58 8 8 8Zm1-14C9.34 4 8 5.34 8 7v2H7c-.56 0-1 .44-1 1 0 .55.44 1 1 1h1v1c0 .55-.45 1-1 1 -.56 0-1 .44-1 1 0 .55.44 1 1 1h6c.55 0 1-.45 1-1 0-.56-.45-1-1-1H9.82c.11-.32.17-.65.17-1v-1h1c.55 0 1-.45 1-1 0-.56-.45-1-1-1h-1V7c0-.56.44-1 1-1 .55 0 1 .44 1 1 0 .55.44 1 1 1 .55 0 1-.45 1-1 0-1.66-1.35-3-3-3Z" class="b"/></svg>