<svg viewBox="0 0 20 20" xmlns="http://www.w3.org/2000/svg" class="a"><style>.b{fill: #374151;}.c{fill: #374151; fill-rule: evenodd;}.a{}</style><path d="M4 4c0-1.11.89-2 2-2h4.58c.53 0 1.03.21 1.41.58l3.41 3.41c.37.37.58.88.58 1.41v8.58c0 1.1-.9 2-2 2h-1.53c.95-1.07 1.52-2.47 1.52-4 0-3.32-2.69-6-6-6 -1.54 0-2.94.57-4 1.52V3.97Z" class="b"/><path d="M8 10c-2.21 0-4 1.79-4 4 0 .74.2 1.43.55 2.03l-1.27 1.26c-.4.39-.4 1.02 0 1.41 .39.39 1.02.39 1.41 0l1.26-1.27c.59.35 1.29.55 2.03.55 2.2 0 4-1.8 4-4 0-2.21-1.8-4-4-4Zm-2 4c0-1.11.89-2 2-2 1.1 0 2 .89 2 2 0 1.1-.9 2-2 2 -.56 0-1.06-.23-1.42-.59 -.37-.37-.59-.87-.59-1.42Z" class="c"/></svg>