<svg viewBox="0 0 20 20" xmlns="http://www.w3.org/2000/svg" class="a"><style>.b{fill: #4A5568; fill-rule: evenodd;}.a{}</style><path d="M10 18c4.41 0 8-3.59 8-8 0-4.42-3.59-8-8-8 -4.42 0-8 3.58-8 8 0 4.41 3.58 8 8 8ZM7 9c.55 0 1-.45 1-1 0-.56-.45-1-1-1 -.56 0-1 .44-1 1 0 .55.44 1 1 1Zm7-1c0 .55-.45 1-1 1 -.56 0-1-.45-1-1 0-.56.44-1 1-1 .55 0 1 .44 1 1Zm-7.54 5.87c.39.39 1.02.39 1.41 0 1.17-1.18 3.07-1.18 4.24 0 .39.39 1.02.39 1.41 0 .39-.4.39-1.03 0-1.42 -1.96-1.96-5.12-1.96-7.08 0 -.4.39-.4 1.02 0 1.41Z" class="b"/></svg>