<svg viewBox="0 0 20 20" xmlns="http://www.w3.org/2000/svg" class="a"><style>.b{fill: #4A5568; fill-rule: evenodd;}.a{}</style><path d="M10 18c4.41 0 8-3.59 8-8 0-4.42-3.59-8-8-8 -4.42 0-8 3.58-8 8 0 4.41 3.58 8 8 8ZM7 9c.55 0 1-.45 1-1 0-.56-.45-1-1-1 -.56 0-1 .44-1 1 0 .55.44 1 1 1Zm7-1c0 .55-.45 1-1 1 -.56 0-1-.45-1-1 0-.56.44-1 1-1 .55 0 1 .44 1 1Zm-.47 5.53c.39-.4.39-1.03 0-1.42 -.4-.4-1.03-.4-1.42 0 -1.18 1.17-3.08 1.17-4.25 0 -.4-.4-1.03-.4-1.42 0 -.4.39-.4 1.02 0 1.41 1.95 1.95 5.11 1.95 7.07 0Z" class="b"/></svg>