<svg viewBox="0 0 20 20" xmlns="http://www.w3.org/2000/svg" class="a"><style>.b{fill: #4B5563; fill-rule: evenodd;}.c{fill: #4B5563;}.a{}</style><path d="M3.7 2.29c-.4-.4-1.03-.4-1.42 0 -.4.39-.4 1.02 0 1.41l14 13.99c.39.39 1.02.39 1.41 0 .39-.4.39-1.03 0-1.42l-1.48-1.48c1.53-1.23 2.7-2.9 3.3-4.82 -1.28-4.06-5.07-7-9.55-7 -1.63 0-3.16.38-4.52 1.07L3.65 2.25Zm4.26 4.26l1.51 1.51c.16-.05.33-.07.51-.07 1.1 0 2 .89 2 2 0 .17-.03.35-.07.51l1.51 1.51c.35-.6.55-1.3.55-2.04 0-2.21-1.8-4-4-4 -.75 0-1.44.2-2.04.55Z" class="b"/><path d="M12.45 16.69l-2.71-2.71c-2.01-.13-3.62-1.74-3.75-3.75L2.31 6.55C1.47 7.54.83 8.7.43 9.97c1.27 4.05 5.06 7 9.54 7 .84 0 1.66-.11 2.45-.31Z" class="c"/></svg>