<svg viewBox="0 0 20 20" xmlns="http://www.w3.org/2000/svg" class="a"><style>.b{fill: #374151; fill-rule: evenodd;}.a{}</style><path d="M6.62 2.65c1.04-.43 2.18-.66 3.37-.66 4.97 0 9 4.02 9 9 0 .55-.45 1-1 1 -.56 0-1-.45-1-1 0-3.87-3.14-7-7-7 -.94 0-1.82.18-2.63.5 -.52.2-1.1-.04-1.31-.56 -.21-.52.03-1.1.55-1.31Zm-1.97 2.3c.41.36.45.99.08 1.41 -1.09 1.23-1.75 2.85-1.75 4.62 0 .55-.45 1-1 1 -.56 0-1-.45-1-1 0-2.29.85-4.37 2.25-5.96 .36-.42.99-.46 1.41-.09Z" class="b"/><path d="M5 11c0-2.77 2.23-5 5-5 2.76 0 5 2.23 5 5 0 .55-.45 1-1 1 -.56 0-1-.45-1-1 0-1.66-1.35-3-3-3 -1.66 0-3 1.34-3 3 0 1.67-.35 3.27-.97 4.72 -.22.5-.81.74-1.32.52 -.51-.22-.75-.81-.53-1.32 .51-1.21.8-2.54.8-3.94Zm8.92 2.01c.54.08.91.59.83 1.14 -.14.83-.32 1.64-.55 2.43 -.16.53-.71.83-1.24.68 -.54-.16-.84-.71-.69-1.24 .2-.72.37-1.45.49-2.2 .08-.55.59-.92 1.14-.84Z" class="b"/><path d="M10 10c.55 0 1 .44 1 1 0 2.23-.46 4.36-1.29 6.3 -.22.5-.81.74-1.32.52 -.51-.22-.75-.81-.53-1.32 .72-1.7 1.12-3.56 1.12-5.52 0-.56.44-1 1-1Z" class="b"/></svg>