<svg viewBox="0 0 20 20" xmlns="http://www.w3.org/2000/svg" class="a"><style>.b{fill: #374151; fill-rule: evenodd;}.a{}</style><path d="M12.39 2.55c-.13-.26-.37-.45-.64-.52 -.28-.08-.58-.03-.82.13 -.35.23-.62.55-.83.87 -.22.33-.41.71-.57 1.11 -.34.8-.62 1.76-.84 2.73 -.29 1.22-.5 2.51-.62 3.57 -.49-.33-.77-.7-.95-1.07 -.33-.69-.4-1.54-.4-2.66 0-.41-.25-.77-.62-.93 -.38-.16-.81-.07-1.09.21 -1.37 1.36-2.06 3.15-2.06 4.94 0 1.78.68 3.58 2.05 4.94 2.73 2.73 7.16 2.73 9.89 0 1.36-1.37 2.05-3.16 2.05-4.95s-.69-3.59-2.06-4.95c-.6-.6-.99-.99-1.35-1.47 -.37-.48-.73-1.07-1.21-2.04Zm-.28 12.56c-1.18 1.17-3.08 1.17-4.25 0 -.59-.59-.88-1.36-.88-2.13 0 0 .87.5 2.5.5 0-1 .49-4 1.24-4.5 .5 1 .78 1.29 1.37 1.87 .58.58.87 1.35.87 2.12 0 .76-.3 1.53-.88 2.12Z" class="b"/></svg>