<svg viewBox="0 0 20 20" xmlns="http://www.w3.org/2000/svg" class="a"><style>.c{fill: #374151;}.b{fill: #374151; fill-rule: evenodd;}.a{}</style><path d="M5 5c0-1.66 1.34-3 3-3 .76 0 1.46.28 2 .76 .53-.48 1.23-.77 2-.77 1.65 0 3 1.34 3 3 0 .35-.07.68-.18 1h1.17c1.1 0 2 .89 2 2 0 1.1-.9 2-2 2h-5v-1c0-.56-.45-1-1-1 -.56 0-1 .44-1 1v1h-5c-1.11 0-2-.9-2-2 0-1.11.89-2 2-2h1.17c-.12-.32-.18-.65-.18-1Zm4 1V5c0-.56-.45-1-1-1 -.56 0-1 .44-1 1 0 .55.44 1 1 1h1Zm3 0c.55 0 1-.45 1-1 0-.56-.45-1-1-1 -.56 0-1 .44-1 1v1h1Z" class="b"/><path d="M9 11H3v5c0 1.1.89 2 2 2h4v-7Z" class="c"/><path d="M11 18h4c1.1 0 2-.9 2-2v-5h-6v7Z" class="c"/></svg>