<svg viewBox="0 0 20 20" xmlns="http://www.w3.org/2000/svg" class="a"><style>.b{fill: #4A5568; fill-rule: evenodd;}.a{}</style><path d="M10 18c4.41 0 8-3.59 8-8 0-4.42-3.59-8-8-8 -4.42 0-8 3.58-8 8 0 4.41 3.58 8 8 8ZM4.33 8.02c.37-1.08 1.04-2.01 1.91-2.71 .26.4.73.67 1.25.67 .82 0 1.5.67 1.5 1.5v.5c0 1.1.89 2 1.99 2s2-.9 2-2c0-.95.64-1.73 1.52-1.95 .92 1.05 1.47 2.43 1.47 3.94 0 .34-.03.67-.09 1h-.92c-1.11 0-2 .89-2 2v2.19c-.89.51-1.91.8-3.01.8v-2c0-1.11-.9-2-2-2 -1.11 0-2-.9-2-2 0-1-.73-1.82-1.67-1.98Z" class="b"/></svg>