<svg viewBox="0 0 20 20" xmlns="http://www.w3.org/2000/svg" class="a"><style>.b{fill: #4A5568; fill-rule: evenodd;}.a{}</style><path d="M4.08 9h1.94c.08-1.55.38-2.98.83-4.12 -1.45.88-2.5 2.37-2.79 4.11Zm5.91-7c-4.42 0-8 3.58-8 8 0 4.41 3.58 8 8 8 4.41 0 8-3.59 8-8 0-4.42-3.59-8-8-8Zm0 2c-.08 0-.24.03-.47.26 -.24.23-.5.62-.74 1.18 -.39.9-.68 2.14-.77 3.55h3.93c-.1-1.42-.38-2.65-.77-3.56 -.24-.56-.5-.95-.74-1.19s-.39-.27-.47-.27Zm3.97 5c-.09-1.55-.39-2.98-.84-4.12 1.44.88 2.49 2.37 2.78 4.11h-1.95Zm-2.01 2H8.01c.09 1.41.37 2.64.76 3.55 .23.55.49.94.73 1.18 .23.23.38.26.46.26 .07 0 .23-.04.46-.27 .23-.24.49-.63.73-1.19 .38-.91.67-2.15.76-3.56Zm1.16 4.11c.45-1.15.74-2.58.83-4.12h1.94c-.3 1.74-1.34 3.22-2.79 4.11Zm-6.27 0c-.46-1.15-.75-2.58-.84-4.12H4.05c.29 1.74 1.33 3.22 2.78 4.11Z" class="b"/></svg>