<svg viewBox="0 0 20 20" xmlns="http://www.w3.org/2000/svg" class="a"><style>.b{fill: #374151; fill-rule: evenodd;}.a{}</style><path d="M9 3c0-.56.44-1 1-1 .55 0 1 .44 1 1v5 .5c0 .27.22.5.5.5 .27 0 .5-.23.5-.5V8 4c0-.56.44-1 1-1 .55 0 1 .44 1 1v4 .5c0 .27.22.5.5.5 .27 0 .5-.23.5-.5V8 6c0-.56.44-1 1-1 .55 0 1 .44 1 1v5c0 3.86-3.14 7-7 7 -3.87 0-7-3.14-7-7V9c0-.56.44-1 1-1 .55 0 1 .44 1 1v2 .5c0 .27.22.5.5.5 .27 0 .5-.23.5-.5V11v-1V8 4c0-.56.44-1 1-1 .55 0 1 .44 1 1v4 .5c0 .27.22.5.5.5 .27 0 .5-.23.5-.5V8 3Z" class="b"/></svg>