<svg viewBox="0 0 20 20" xmlns="http://www.w3.org/2000/svg" class="a"><style>.b{fill: #4A5568; fill-rule: evenodd;}.a{}</style><path d="M9.24 3.02c.53.13.86.67.72 1.21l-.44 1.75h2.93l.56-2.25c.13-.54.67-.87 1.21-.73 .53.13.86.67.72 1.21l-.44 1.75h2.46c.55 0 1 .44 1 1 0 .55-.45 1-1 1h-2.97l-1 4h1.96c.55 0 1 .44 1 1 0 .55-.45 1-1 1h-2.47l-.57 2.24c-.14.53-.68.86-1.22.72 -.54-.14-.87-.68-.73-1.22l.43-1.76H7.45l-.57 2.24c-.14.53-.68.86-1.22.72 -.54-.14-.87-.68-.73-1.22l.43-1.76H2.89c-.56 0-1-.45-1-1 0-.56.44-1 1-1h2.96l1-4.01H4.88c-.56 0-1-.45-1-1 0-.56.44-1 1-1h2.46l.56-2.25c.13-.54.67-.87 1.21-.73Zm-.22 4.97l-1 4h2.93l1-4.01H9.01Z" class="b"/></svg>