<svg viewBox="0 0 20 20" xmlns="http://www.w3.org/2000/svg" class="a"><style>.b{fill: #374151; fill-rule: evenodd;}.a{}</style><path d="M10 2c-.56 0-1 .44-1 1v1c0 .55.44 1 1 1 .55 0 1-.45 1-1V3c0-.56-.45-1-1-1ZM4 4h3c0 1.65 1.34 3 3 3 1.65 0 3-1.35 3-3h3c1.1 0 2 .89 2 2v9c0 1.1-.9 2-2 2H4c-1.11 0-2-.9-2-2V6c0-1.11.89-2 2-2Zm2.5 7c.82 0 1.5-.68 1.5-1.5C8 8.67 7.32 8 6.5 8 5.67 8 5 8.67 5 9.5c0 .82.67 1.5 1.5 1.5Zm2.45 4c.03-.17.05-.33.05-.5C9 13.11 7.88 12 6.5 12 5.11 12 4 13.11 4 14.5c0 .17.01.33.05.5h4.89Zm3.04-6c-.56 0-1 .44-1 1 0 .55.44 1 1 1h3c.55 0 1-.45 1-1 0-.56-.45-1-1-1h-3Zm-1 4c0-.56.44-1 1-1h2c.55 0 1 .44 1 1 0 .55-.45 1-1 1h-2c-.56 0-1-.45-1-1Z" class="b"/></svg>