<svg viewBox="0 0 20 20" xmlns="http://www.w3.org/2000/svg" class="a"><style>.b{fill: #4A5568;}.a{}</style><path d="M8.7 7.29c-.4-.4-1.03-.4-1.42 0 -.4.39-.4 1.02 0 1.41l2 1.99c.18.18.44.29.7.29 .26 0 .51-.11.7-.3l2-2c.39-.4.39-1.03 0-1.42 -.4-.4-1.03-.4-1.42 0l-.3.29V2.96c0-.56-.45-1-1-1 -.56 0-1 .44-1 1v4.58l-.3-.3Z" class="b"/><path d="M3 5c0-1.11.89-2 2-2h1c.55 0 1 .44 1 1 0 .55-.45 1-1 1H5v7h2l1 2h4l1-2h2V5h-1c-.56 0-1-.45-1-1 0-.56.44-1 1-1h1c1.1 0 2 .89 2 2v10c0 1.1-.9 2-2 2H5c-1.11 0-2-.9-2-2V5Z" class="b"/></svg>