<svg viewBox="0 0 20 20" xmlns="http://www.w3.org/2000/svg" class="a"><style>.b{fill: #4B5563; fill-rule: evenodd;}.a{}</style><path d="M10.49 2.13c-.31-.18-.69-.18-1 0l-7 4c-.48.27-.65.88-.38 1.36 .18.32.52.5.86.5v6.99c-.56 0-1 .44-1 1 0 .55.44 1 1 1h14c.55 0 1-.45 1-1 0-.56-.45-1-1-1v-7c.34-.01.68-.19.86-.51 .27-.48.1-1.1-.38-1.37l-7-4Zm-4.5 6.86c-.56 0-1 .44-1 1v3c0 .55.44 1 1 1 .55 0 1-.45 1-1v-3c0-.56-.45-1-1-1Zm3 1c0-.56.44-1 1-1 .55 0 1 .44 1 1v3c0 .55-.45 1-1 1 -.56 0-1-.45-1-1v-3Zm5-1c-.56 0-1 .44-1 1v3c0 .55.44 1 1 1 .55 0 1-.45 1-1v-3c0-.56-.45-1-1-1Z" class="b"/></svg>