<svg viewBox="0 0 20 20" xmlns="http://www.w3.org/2000/svg" class="a"><style>.b{fill: #4A5568;}.a{}</style><path d="M11 3c0-.56-.45-1-1-1 -.56 0-1 .44-1 1v1c0 .55.44 1 1 1 .55 0 1-.45 1-1V3Z" class="b"/><path d="M15.65 5.75c.39-.4.39-1.03 0-1.42 -.4-.4-1.03-.4-1.42 0l-.71.7c-.4.39-.4 1.02 0 1.41 .39.39 1.02.39 1.41 0l.7-.71Z" class="b"/><path d="M18 10c0 .55-.45 1-1 1h-1c-.56 0-1-.45-1-1 0-.56.44-1 1-1h1c.55 0 1 .44 1 1Z" class="b"/><path d="M5.05 6.46c.39.39 1.02.39 1.41 0 .39-.4.39-1.03 0-1.42l-.71-.71c-.4-.4-1.03-.4-1.42 0 -.4.39-.4 1.02 0 1.41l.7.7Z" class="b"/><path d="M5 10c0 .55-.45 1-1 1H3c-.56 0-1-.45-1-1 0-.56.44-1 1-1h1c.55 0 1 .44 1 1Z" class="b"/><path d="M8 16v-1h4v1c0 1.1-.9 2-2 2 -1.11 0-2-.9-2-2Z" class="b"/><path d="M12 14c.01-.35.2-.65.47-.86 .92-.74 1.52-1.87 1.52-3.15 0-2.21-1.8-4-4-4 -2.21 0-4 1.79-4 4 0 1.27.59 2.4 1.52 3.14 .26.21.46.51.47.85h4Z" class="b"/></svg>