<svg viewBox="0 0 20 20" xmlns="http://www.w3.org/2000/svg" class="a"><style>.b{fill: #4A5568; fill-rule: evenodd;}.a{}</style><path d="M12.58 4.58c.78-.79 2.04-.79 2.82 0 .78.78.78 2.04 0 2.82l-3 2.99c-.79.78-2.05.78-2.83 0 -.4-.4-1.03-.4-1.42 0 -.4.39-.4 1.02 0 1.41 1.56 1.56 4.09 1.56 5.65 0l3-3c1.56-1.57 1.56-4.1 0-5.66 -1.57-1.57-4.1-1.57-5.66 0l-1.51 1.5c-.4.39-.4 1.02 0 1.41 .39.39 1.02.39 1.41 0l1.5-1.5Zm-5.01 5c.78-.79 2.04-.79 2.82 0 .39.39 1.02.39 1.41 0 .39-.4.39-1.03 0-1.42 -1.57-1.57-4.1-1.57-5.66 0l-3 3c-1.57 1.56-1.57 4.09 0 5.65 1.56 1.56 4.09 1.56 5.65 0l1.49-1.5c.39-.4.39-1.03 0-1.42 -.4-.4-1.03-.4-1.42 0l-1.5 1.5c-.79.78-2.05.78-2.83 0 -.79-.79-.79-2.05 0-2.83l3-3.01Z" class="b"/></svg>