<svg viewBox="0 0 20 20" xmlns="http://www.w3.org/2000/svg" class="a"><style>.b{fill: #4A5568;}.a{}</style><path d="M17.92 2.61c-.05-.12-.13-.23-.22-.33 -.01-.01-.01-.01-.01-.01 -.19-.18-.43-.3-.71-.3h-4c-.56 0-1 .44-1 1 0 .55.44 1 1 1h1.58l-3.3 3.29c-.4.39-.4 1.02 0 1.41 .39.39 1.02.39 1.41 0l3.29-3.3v1.58c0 .55.44 1 1 1 .55 0 1-.45 1-1v-4c0-.14-.03-.27-.08-.39Z" class="b"/><path d="M2 3c0-.56.44-1 1-1h2.15c.48 0 .9.35.98.83l.73 4.43c.07.43-.15.86-.54 1.05l-1.55.77c1.11 2.77 3.33 4.98 6.1 6.1l.77-1.55c.19-.4.62-.62 1.05-.54l4.43.73c.48.08.83.49.83.98v2.15c0 .55-.45 1-1 1h-2c-7.18 0-13-5.83-13-13v-2Z" class="b"/></svg>