<svg viewBox="0 0 20 20" xmlns="http://www.w3.org/2000/svg" class="a"><style>.b{fill: #374151; fill-rule: evenodd;}.a{}</style><path d="M3 3c-.56 0-1 .44-1 1 0 .55.44 1 1 1v8c0 1.1.89 2 2 2h2.58l-1.3 1.29c-.4.39-.4 1.02 0 1.41 .39.39 1.02.39 1.41 0l2.29-2.3 2.29 2.29c.39.39 1.02.39 1.41 0 .39-.4.39-1.03 0-1.42l-1.3-1.3h2.58c1.1 0 2-.9 2-2v-8c.55 0 1-.45 1-1 0-.56-.45-1-1-1h-14Zm11 4c0-.56-.45-1-1-1 -.56 0-1 .44-1 1v4c0 .55.44 1 1 1 .55 0 1-.45 1-1V7Zm-3 1c0-.56-.45-1-1-1 -.56 0-1 .44-1 1v3c0 .55.44 1 1 1 .55 0 1-.45 1-1V8ZM8 9c0-.56-.45-1-1-1 -.56 0-1 .44-1 1v2c0 .55.44 1 1 1 .55 0 1-.45 1-1V9Z" class="b"/></svg>