<svg viewBox="0 0 20 20" xmlns="http://www.w3.org/2000/svg" class="a"><style>.b{fill: #374151;}.a{}</style><path d="M10 3.5c0-.83.67-1.5 1.5-1.5 .82 0 1.5.67 1.5 1.5V4c0 .55.44 1 1 1h3c.55 0 1 .44 1 1v3c0 .55-.45 1-1 1h-.5c-.83 0-1.5.67-1.5 1.5 0 .82.67 1.5 1.5 1.5h.5c.55 0 1 .44 1 1v3c0 .55-.45 1-1 1h-3c-.56 0-1-.45-1-1v-.5c0-.83-.68-1.5-1.5-1.5 -.83 0-1.5.67-1.5 1.5v.5c0 .55-.45 1-1 1H6c-.56 0-1-.45-1-1v-3c0-.56-.45-1-1-1h-.5c-.83 0-1.5-.68-1.5-1.5 0-.83.67-1.5 1.5-1.5H4c.55 0 1-.45 1-1V6c0-.56.44-1 1-1h3c.55 0 1-.45 1-1v-.5Z" class="b"/></svg>