<svg viewBox="0 0 20 20" xmlns="http://www.w3.org/2000/svg" class="a"><style>.b{fill: #4A5568; fill-rule: evenodd;}.c{fill: #4A5568;}.a{}</style><path d="M3 4c0-.56.44-1 1-1h3c.55 0 1 .44 1 1v3c0 .55-.45 1-1 1H4c-.56 0-1-.45-1-1V4Zm2 2V5h1v1H5Z" class="b"/><path d="M3 13c0-.56.44-1 1-1h3c.55 0 1 .44 1 1v3c0 .55-.45 1-1 1H4c-.56 0-1-.45-1-1v-3Zm2 2v-1h1v1H5Z" class="b"/><path d="M13 3c-.56 0-1 .44-1 1v3c0 .55.44 1 1 1h3c.55 0 1-.45 1-1V4c0-.56-.45-1-1-1h-3Zm1 2v1h1V5h-1Z" class="b"/><path d="M11 4c0-.56-.45-1-1-1 -.56 0-1 .44-1 1v1c0 .55.44 1 1 1 .55 0 1-.45 1-1V4Z" class="c"/><path d="M10 7c.55 0 1 .44 1 1v1h2c.55 0 1 .44 1 1 0 .55-.45 1-1 1h-3c-.56 0-1-.45-1-1V8c0-.56.44-1 1-1Z" class="c"/><path d="M16 9c-.56 0-1 .44-1 1 0 .55.44 1 1 1 .55 0 1-.45 1-1 0-.56-.45-1-1-1Z" class="c"/><path d="M9 13c0-.56.44-1 1-1h1c.55 0 1 .44 1 1 0 .55-.45 1-1 1v2c0 .55-.45 1-1 1 -.56 0-1-.45-1-1v-3Z" class="c"/><path d="M7 11c.55 0 1-.45 1-1 0-.56-.45-1-1-1H4c-.56 0-1 .44-1 1 0 .55.44 1 1 1h3Z" class="c"/><path d="M17 13c0 .55-.45 1-1 1h-2c-.56 0-1-.45-1-1 0-.56.44-1 1-1h2c.55 0 1 .44 1 1Z" class="c"/><path d="M16 17c.55 0 1-.45 1-1 0-.56-.45-1-1-1h-3c-.56 0-1 .44-1 1 0 .55.44 1 1 1h3Z" class="c"/></svg>