<svg viewBox="0 0 20 20" xmlns="http://www.w3.org/2000/svg" class="a"><style>.b{fill: #374151; fill-rule: evenodd;}.a{}</style><path d="M5 2c-1.11 0-2 .89-2 2v14l3.5-2 3.5 2 3.5-2 3.5 2V4c0-1.11-.9-2-2-2H5Zm2.5 3C6.67 5 6 5.67 6 6.5 6 7.32 6.67 8 7.5 8 8.32 8 9 7.32 9 6.5 9 5.67 8.32 5 7.5 5Zm6.2.29c-.4-.4-1.03-.4-1.42 0l-6.01 6c-.4.39-.4 1.02 0 1.41 .39.39 1.02.39 1.41 0l5.99-6c.39-.4.39-1.03 0-1.42Zm-1.21 4.7c-.83 0-1.5.67-1.5 1.5 0 .82.67 1.5 1.5 1.5 .82 0 1.5-.68 1.5-1.5 0-.83-.68-1.5-1.5-1.5Z" class="b"/></svg>