<svg viewBox="0 0 20 20" xmlns="http://www.w3.org/2000/svg" class="a"><style>.b{fill: #4A5568; fill-rule: evenodd;}.a{}</style><path d="M4 2c.55 0 1 .44 1 1v2.1c1.27-1.3 3.04-2.11 5-2.11 3.04 0 5.64 1.94 6.6 4.66 .18.52-.09 1.09-.61 1.27 -.53.18-1.1-.09-1.28-.61 -.69-1.95-2.55-3.34-4.72-3.34 -1.64 0-3.09.78-4.01 2h3c.55 0 1 .44 1 1 0 .55-.45 1-1 1h-5c-.56 0-1-.45-1-1v-5c0-.56.44-1 1-1Zm0 9.05c.52-.19 1.09.08 1.27.6 .68 1.94 2.54 3.33 4.71 3.33 1.63 0 3.08-.79 4-2h-3.01c-.56 0-1-.45-1-1 0-.56.44-1 1-1h5c.26 0 .51.1.7.29 .18.18.29.44.29.7v5c0 .55-.45 1-1 1 -.56 0-1-.45-1-1v-2.11c-1.28 1.29-3.05 2.1-5 2.1 -3.05 0-5.65-1.95-6.61-4.67 -.19-.53.08-1.1.6-1.28Z" class="b"/></svg>