<svg viewBox="0 0 20 20" xmlns="http://www.w3.org/2000/svg" class="a"><style>.b{fill: #374151;}.a{}</style><path d="M9.7 7.29c-.4-.4-1.03-.4-1.42 0 -.4.39-.4 1.02 0 1.41l3 2.99c.39.39 1.02.39 1.41 0l3-3c.39-.4.39-1.03 0-1.42 -.4-.4-1.03-.4-1.42 0l-1.3 1.29V4.97h3c1.1 0 2 .89 2 2v5c0 1.1-.9 2-2 2h-8c-1.11 0-2-.9-2-2v-5c0-1.11.89-2 2-2h3v3.58l-1.3-1.3Z" class="b"/><path d="M11 3c0-.56.44-1 1-1 .55 0 1 .44 1 1v2h-2V3Z" class="b"/><path d="M4 9c-1.11 0-2 .89-2 2v5c0 1.1.89 2 2 2h8c1.1 0 2-.9 2-2H4V9Z" class="b"/></svg>