<svg viewBox="0 0 20 20" xmlns="http://www.w3.org/2000/svg" class="a"><style>.b{fill: #4A5568; fill-rule: evenodd;}.a{}</style><path d="M9.99 2c.55 0 1 .44 1 1v1.32l3.95 1.58 1.59-.8c.49-.25 1.09-.05 1.34.44 .24.49.04 1.09-.45 1.34l-1.24.61 1.73 5.41c.12.37 0 .78-.29 1.05 -.71.63-1.65 1.01-2.67 1.01 -1.03 0-1.96-.39-2.67-1.02 -.3-.27-.41-.68-.29-1.06l1.71-5.35 -2.77-1.11v9.52h2c.55 0 1 .44 1 1 0 .55-.45 1-1 1H6.92c-.56 0-1-.45-1-1 0-.56.44-1 1-1h2V6.41l-2.77 1.1 1.71 5.34c.12.37 0 .78-.29 1.05 -.71.63-1.65 1.01-2.67 1.01 -1.03 0-1.96-.39-2.67-1.02 -.3-.27-.41-.68-.29-1.06l1.73-5.42 -1.24-.62c-.5-.25-.7-.85-.45-1.35 .24-.5.84-.7 1.34-.45l1.59.79 3.95-1.59V2.86c0-.56.44-1 1-1Zm-5.01 8.27l-.82 2.55c.24.11.52.17.81.17 .29 0 .56-.07.81-.18l-.82-2.56Zm10 0l-.82 2.55c.24.11.52.17.81.17 .29 0 .56-.07.81-.18l-.82-2.56Z" class="b"/></svg>