<svg viewBox="0 0 20 20" xmlns="http://www.w3.org/2000/svg" class="a"><style>.c{fill: #374151;}.b{fill: #374151; fill-rule: evenodd;}.a{}</style><path d="M5.5 2C3.56 2 2 3.56 2 5.5 2 7.43 3.56 9 5.5 9c.6 0 1.16-.16 1.66-.43l1.42 1.42 -1.43 1.42c-.5-.27-1.07-.43-1.67-.43 -1.94 0-3.5 1.56-3.5 3.5 0 1.93 1.56 3.5 3.5 3.5 1.93 0 3.5-1.57 3.5-3.5 0-.61-.16-1.17-.43-1.67l8.12-8.13c.39-.4.39-1.03 0-1.42 -.4-.4-1.03-.4-1.42 0l-5.3 5.29 -1.43-1.43c.26-.5.42-1.07.42-1.67 0-1.94-1.57-3.5-3.5-3.5ZM4 5.5C4 4.67 4.67 4 5.5 4 6.32 4 7 4.67 7 5.5 7 6.32 6.32 7 5.5 7 4.67 7 4 6.32 4 5.5Zm0 9c0-.83.67-1.5 1.5-1.5 .82 0 1.5.67 1.5 1.5 0 .82-.68 1.5-1.5 1.5 -.83 0-1.5-.68-1.5-1.5Z" class="b"/><path d="M12.82 11.41c-.4-.4-1.03-.4-1.42 0 -.4.39-.4 1.02 0 1.41l3.87 3.87c.39.39 1.02.39 1.41 0 .39-.4.39-1.03 0-1.42l-3.88-3.88Z" class="c"/></svg>