<svg viewBox="0 0 20 20" xmlns="http://www.w3.org/2000/svg" class="a"><style>.b{fill: #374151;}.c{fill: #374151; fill-rule: evenodd;}.a{}</style><path d="M9 9c0-1.11.89-2 2-2 1.1 0 2 .89 2 2 0 1.1-.9 2-2 2 -.56 0-1.06-.23-1.42-.59 -.37-.37-.59-.87-.59-1.42Z" class="b"/><path d="M10 18c4.41 0 8-3.59 8-8 0-4.42-3.59-8-8-8 -4.42 0-8 3.58-8 8 0 4.41 3.58 8 8 8Zm1-13C8.79 5 7 6.79 7 9c0 .74.2 1.43.55 2.03l-2.27 2.26c-.4.39-.4 1.02 0 1.41 .39.39 1.02.39 1.41 0l2.26-2.27c.59.35 1.29.55 2.03.55 2.2 0 4-1.8 4-4 0-2.21-1.8-4-4-4Z" class="c"/></svg>