<svg viewBox="0 0 20 20" xmlns="http://www.w3.org/2000/svg" class="a"><style>.b{fill: #4A5568;}.a{}</style><path d="M15 8c1.65 0 3-1.35 3-3 0-1.66-1.35-3-3-3 -1.66 0-3 1.34-3 3 0 .12 0 .24.02.37L7.07 7.84c-.54-.53-1.28-.85-2.09-.85 -1.66 0-3 1.34-3 3 0 1.65 1.34 3 3 3 .8 0 1.54-.33 2.08-.85L12 14.61c-.02.12-.03.24-.03.37 0 1.65 1.34 3 3 3 1.65 0 3-1.35 3-3 0-1.66-1.35-3-3-3 -.81 0-1.55.32-2.09.84l-4.95-2.47c.01-.13.02-.25.02-.38s-.01-.25-.03-.38l4.94-2.48c.53.52 1.27.84 2.08.84Z" class="b"/></svg>