<svg viewBox="0 0 20 20" xmlns="http://www.w3.org/2000/svg" class="a"><style>.b{fill: #374151; fill-rule: evenodd;}.a{}</style><path d="M10 2C7.79 2 6 3.79 6 6v1H5c-.51 0-.94.38-1 .88l-1 9c-.04.28.05.56.24.77 .18.21.46.33.74.33h12c.28 0 .55-.13.74-.34 .18-.22.28-.5.24-.78l-1-9.01c-.06-.51-.49-.89-1-.89h-1v-1c0-2.21-1.8-4-4-4Zm2 5V6c0-1.11-.9-2-2-2 -1.11 0-2 .89-2 2v1h4Zm-6 3c0-.56.44-1 1-1 .55 0 1 .44 1 1 0 .55-.45 1-1 1 -.56 0-1-.45-1-1Zm7-1c-.56 0-1 .44-1 1 0 .55.44 1 1 1 .55 0 1-.45 1-1 0-.56-.45-1-1-1Z" class="b"/></svg>