<svg viewBox="0 0 20 20" xmlns="http://www.w3.org/2000/svg" class="a"><style>.b{fill: #4B5563;}.a{}</style><path d="M3 1c-.56 0-1 .44-1 1 0 .55.44 1 1 1h1.21l.3 1.22c0 .01 0 .02.01.04l1.35 5.42 -.9.89c-1.26 1.25-.37 3.41 1.41 3.41h8.58c.55 0 1-.45 1-1 0-.56-.45-1-1-1H6.37l.99-1h6.58c.37 0 .72-.22.89-.56l3-6c.15-.31.13-.68-.05-.98 -.19-.3-.51-.48-.86-.48H6.2l-.32-1.25c-.12-.45-.52-.76-.98-.76h-2Z" class="b"/><path d="M16 16.5c0 .82-.68 1.5-1.5 1.5 -.83 0-1.5-.68-1.5-1.5 0-.83.67-1.5 1.5-1.5 .82 0 1.5.67 1.5 1.5Z" class="b"/><path d="M6.5 18c.82 0 1.5-.68 1.5-1.5 0-.83-.68-1.5-1.5-1.5 -.83 0-1.5.67-1.5 1.5 0 .82.67 1.5 1.5 1.5Z" class="b"/></svg>