<svg viewBox="0 0 20 20" xmlns="http://www.w3.org/2000/svg" class="a"><style>.b{fill: #4A5568;}.a{}</style><path d="M3 3c-.56 0-1 .44-1 1 0 .55.44 1 1 1h11c.55 0 1-.45 1-1 0-.56-.45-1-1-1H3Z" class="b"/><path d="M3 7c-.56 0-1 .44-1 1 0 .55.44 1 1 1h5c.55 0 1-.45 1-1 0-.56-.45-1-1-1H3Z" class="b"/><path d="M3 11c-.56 0-1 .44-1 1 0 .55.44 1 1 1h4c.55 0 1-.45 1-1 0-.56-.45-1-1-1H3Z" class="b"/><path d="M13 16c0 .55.44 1 1 1 .55 0 1-.45 1-1v-5.59l1.29 1.29c.39.39 1.02.39 1.41 0 .39-.4.39-1.03 0-1.42l-3-3.01c-.19-.19-.45-.3-.71-.3 -.27 0-.52.1-.71.29l-3 3c-.4.39-.4 1.02 0 1.41 .39.39 1.02.39 1.41 0l1.29-1.3v5.58Z" class="b"/></svg>