<svg viewBox="0 0 20 20" xmlns="http://www.w3.org/2000/svg" class="a"><style>.b{fill: #4A5568;}.a{}</style><path d="M3 3c-.56 0-1 .44-1 1 0 .55.44 1 1 1h11c.55 0 1-.45 1-1 0-.56-.45-1-1-1H3Z" class="b"/><path d="M3 7c-.56 0-1 .44-1 1 0 .55.44 1 1 1h7c.55 0 1-.45 1-1 0-.56-.45-1-1-1H3Z" class="b"/><path d="M3 11c-.56 0-1 .44-1 1 0 .55.44 1 1 1h4c.55 0 1-.45 1-1 0-.56-.45-1-1-1H3Z" class="b"/><path d="M15 8c0-.56-.45-1-1-1 -.56 0-1 .44-1 1v5.58l-1.3-1.3c-.4-.4-1.03-.4-1.42 0 -.4.39-.4 1.02 0 1.41l3 3c.18.18.44.29.7.29 .26 0 .51-.11.7-.3l3-3c.39-.4.39-1.03 0-1.42 -.4-.4-1.03-.4-1.42 0l-1.3 1.29V7.96Z" class="b"/></svg>