<svg viewBox="0 0 20 20" xmlns="http://www.w3.org/2000/svg" class="a"><style>.b{fill: #4A5568; fill-rule: evenodd;}.a{}</style><path d="M5 2c.55 0 1 .44 1 1v1h1c.55 0 1 .44 1 1 0 .55-.45 1-1 1H6v1c0 .55-.45 1-1 1 -.56 0-1-.45-1-1V6H3c-.56 0-1-.45-1-1 0-.56.44-1 1-1h1V3c0-.56.44-1 1-1Zm0 10c.55 0 1 .44 1 1v1h1c.55 0 1 .44 1 1 0 .55-.45 1-1 1H6v1c0 .55-.45 1-1 1 -.56 0-1-.45-1-1v-1H3c-.56 0-1-.45-1-1 0-.56.44-1 1-1h1v-1c0-.56.44-1 1-1Z" class="b"/><path d="M11.99 2c.45 0 .85.3.96.74l1.17 4.45 3.35 1.93c.3.17.5.5.5.86 0 .35-.2.68-.51.86l-3.36 1.93 -1.18 4.45c-.12.43-.52.74-.97.74 -.46 0-.86-.31-.97-.75L9.8 12.75l-3.36-1.94c-.31-.18-.51-.51-.51-.87s.19-.69.5-.87l3.35-1.94 1.17-4.46c.11-.44.51-.75.96-.75Z" class="b"/></svg>