<svg viewBox="0 0 20 20" xmlns="http://www.w3.org/2000/svg" class="a"><style>.b{fill: #374151; fill-rule: evenodd;}.a{}</style><path d="M5.05 3.63c.39.39.39 1.02 0 1.41 -2.74 2.73-2.74 7.16 0 9.89 .39.39.39 1.02 0 1.41 -.4.39-1.03.39-1.42 0C.11 12.82.11 7.12 3.63 3.61c.39-.4 1.02-.4 1.41 0Zm9.89 0c.39-.4 1.02-.4 1.41 0 3.51 3.51 3.51 9.21 0 12.72 -.4.39-1.03.39-1.42 0 -.4-.4-.4-1.03 0-1.42 2.73-2.74 2.73-7.17 0-9.9 -.4-.4-.4-1.03 0-1.42ZM7.86 6.45c.39.39.39 1.02 0 1.41 -1.18 1.17-1.18 3.07 0 4.24 .39.39.39 1.02-.01 1.41 -.4.39-1.03.39-1.42 0 -1.96-1.96-1.96-5.12 0-7.08 .39-.4 1.02-.4 1.41 0Zm4.24 0c.39-.4 1.02-.4 1.41 0 1.95 1.95 1.95 5.11 0 7.07 -.4.39-1.03.39-1.42 0 -.4-.4-.4-1.03 0-1.42 1.17-1.18 1.17-3.08 0-4.25 -.4-.4-.4-1.03 0-1.42ZM9.97 8.98c.55 0 1 .44 1 1v.01c0 .55-.45 1-1 1 -.56 0-1-.45-1-1v-.02c0-.56.44-1 1-1Z" class="b"/></svg>