<svg viewBox="0 0 20 20" xmlns="http://www.w3.org/2000/svg" class="a"><style>.b{fill: #374151;}.a{}</style><path d="M3.7 2.29c-.4-.4-1.03-.4-1.42 0 -.4.39-.4 1.02 0 1.41l6.92 6.92c.04.06.1.11.16.16l6.91 6.91c.39.39 1.02.39 1.41 0 .39-.4.39-1.03 0-1.42l-.68-.68c2.83-3.54 2.6-8.71-.67-11.99 -.4-.4-1.03-.4-1.42 0 -.4.39-.4 1.02 0 1.41 2.49 2.49 2.71 6.4.65 9.14l-1.44-1.44c1.28-1.95 1.07-4.59-.64-6.3 -.4-.4-1.03-.4-1.42 0 -.4.39-.4 1.02 0 1.41 .92.92 1.11 2.29.58 3.41l-2-2c-.01-.01-.02-.02-.02-.02l-7-7Z" class="b"/><path d="M3.23 8.18c.14-.54-.18-1.09-.71-1.23 -.54-.15-1.09.17-1.23.7 -.81 2.99-.03 6.33 2.33 8.69 .39.39 1.02.39 1.41 0 .39-.4.39-1.03 0-1.42 -1.84-1.84-2.44-4.43-1.82-6.763Z" class="b"/><path d="M7.4 11.49c-.28-.48-.89-.65-1.37-.37 -.48.27-.65.88-.37 1.36 .21.37.47.71.79 1.03 .39.39 1.02.39 1.41 0 .39-.4.39-1.03 0-1.42 -.2-.2-.36-.41-.48-.63Z" class="b"/></svg>