<svg viewBox="0 0 20 20" xmlns="http://www.w3.org/2000/svg" class="a"><style>.b{fill: #4A5568; fill-rule: evenodd;}.a{}</style><path d="M10 2c.55 0 1 .44 1 1v1c0 .55-.45 1-1 1 -.56 0-1-.45-1-1V3c0-.56.44-1 1-1Zm4 8c0 2.2-1.8 4-4 4 -2.21 0-4-1.8-4-4 0-2.21 1.79-4 4-4 2.2 0 4 1.79 4 4Zm-.47 4.94l.7.7c.39.39 1.02.39 1.41 0 .39-.4.39-1.03 0-1.42l-.71-.71c-.4-.4-1.03-.4-1.42 0 -.4.39-.4 1.02 0 1.41Zm2.12-10.61c.39.39.39 1.02 0 1.41l-.71.7c-.4.39-1.03.39-1.42 0 -.4-.4-.4-1.03 0-1.42l.7-.71c.39-.4 1.02-.4 1.41 0Zm1.34 6.65c.55 0 1-.45 1-1 0-.56-.45-1-1-1h-1c-.56 0-1 .44-1 1 0 .55.44 1 1 1h1Zm-7 4c.55 0 1 .44 1 1v1c0 .55-.45 1-1 1 -.56 0-1-.45-1-1v-1c0-.56.44-1 1-1ZM5.04 6.44c.39.39 1.02.39 1.41-.001 .39-.4.39-1.03 0-1.42l-.71-.71c-.4-.4-1.03-.4-1.42 0 -.4.39-.4 1.02 0 1.41l.7.7Zm1.41 8.48l-.71.7c-.4.39-1.03.39-1.42 0 -.4-.4-.4-1.03 0-1.42l.7-.71c.39-.4 1.02-.4 1.41 0 .39.39.39 1.02 0 1.41Zm-2.47-3.95c.55 0 1-.45 1-1 0-.56-.45-1-1-1h-1c-.56 0-1 .44-1 1 0 .55.44 1 1 1h1Z" class="b"/></svg>