<svg viewBox="0 0 20 20" xmlns="http://www.w3.org/2000/svg" class="a"><style>.b{fill: #4B5563; fill-rule: evenodd;}.a{}</style><path d="M18 10c0 4.41-3.59 8-8 8 -4.42 0-8-3.59-8-8 0-4.42 3.58-8 8-8 4.41 0 8 3.58 8 8Zm-2 0c0 .99-.25 1.92-.67 2.75l-1.53-1.53c.12-.39.19-.81.19-1.23 0-.33-.04-.65-.12-.96l1.56-1.57c.35.76.55 1.61.55 2.51Zm-5.17 3.91l1.58 1.58c-.74.32-1.56.5-2.42.5 -.9 0-1.76-.2-2.52-.56l1.56-1.57c.3.07.62.11.95.11 .28 0 .56-.04.83-.09Zm-4.68-2.8c-.11-.36-.16-.73-.16-1.12 0-.34.04-.66.11-.97l-.08.07 -1.54-1.54c-.33.73-.51 1.55-.51 2.41 0 .95.22 1.85.61 2.65l1.53-1.54Zm1.08-6.45c.82-.43 1.76-.67 2.75-.67 .95 0 1.85.22 2.65.61l-1.54 1.53c-.36-.11-.73-.16-1.12-.16 -.43 0-.85.06-1.23.19L7.21 4.63Zm4.75 5.33c0 1.1-.9 2-2 2 -1.11 0-2-.9-2-2 0-1.11.89-2 2-2 1.1 0 2 .89 2 2Z" class="b"/></svg>