<svg viewBox="0 0 20 20" xmlns="http://www.w3.org/2000/svg" class="a"><style>.b{fill: #4A5568;}.a{}</style><path d="M5 12c0 .55.44 1 1 1 .55 0 1-.45 1-1V6.41L8.29 7.7c.39.39 1.02.39 1.41 0 .39-.4.39-1.03 0-1.42l-3-3c-.19-.19-.45-.3-.71-.3 -.27 0-.52.1-.71.29l-3 3c-.4.39-.4 1.02 0 1.41 .39.39 1.02.39 1.41 0l1.29-1.3v5.58Z" class="b"/><path d="M15 8c0-.56-.45-1-1-1 -.56 0-1 .44-1 1v5.58l-1.3-1.3c-.4-.4-1.03-.4-1.42 0 -.4.39-.4 1.02 0 1.41l3 3c.18.18.44.29.7.29 .26 0 .51-.11.7-.3l3-3c.39-.4.39-1.03 0-1.42 -.4-.4-1.03-.4-1.42 0l-1.3 1.29V7.96Z" class="b"/></svg>