<svg viewBox="0 0 20 20" xmlns="http://www.w3.org/2000/svg" class="a"><style>.b{fill: #4A5568;}.a{}</style><path d="M8 5c-.56 0-1 .44-1 1 0 .55.44 1 1 1h5.58l-1.3 1.29c-.4.39-.4 1.02 0 1.41 .39.39 1.02.39 1.41 0l3-3c.18-.19.29-.45.29-.71 0-.27-.11-.52-.3-.71l-3-3c-.4-.4-1.03-.4-1.42 0 -.4.39-.4 1.02 0 1.41l1.29 1.29H7.96Z" class="b"/><path d="M12 15c.55 0 1-.45 1-1 0-.56-.45-1-1-1H6.41l1.29-1.3c.39-.4.39-1.03 0-1.42 -.4-.4-1.03-.4-1.42 0l-3 3c-.19.18-.3.44-.3.7 0 .26.1.51.29.7l3 3c.39.39 1.02.39 1.41 0 .39-.4.39-1.03 0-1.42l-1.3-1.3h5.58Z" class="b"/></svg>