<svg viewBox="0 0 20 20" xmlns="http://www.w3.org/2000/svg" class="a"><style>.b{fill: #4A5568; fill-rule: evenodd;}.a{}</style><path d="M7 2c.55 0 1 .44 1 1v1h.73c.01-.01.02-.01.03 0h2.23c.55 0 1 .44 1 1 0 .55-.45 1-1 1H9.56c-.37 1.68-.95 3.29-1.73 4.77 .29.35.59.69.91 1.02 .38.39.37 1.03-.03 1.41 -.4.38-1.04.37-1.42-.03 -.19-.2-.38-.4-.56-.6 -.89 1.31-1.94 2.51-3.11 3.56 -.42.36-1.05.33-1.42-.08 -.37-.42-.34-1.05.07-1.42 1.21-1.09 2.26-2.35 3.13-3.74 -.56-.79-1.06-1.63-1.49-2.5 -.25-.5-.05-1.1.45-1.35 .49-.25 1.09-.05 1.34.45 .23.47.48.92.76 1.37 .41-.94.75-1.92.99-2.93H2.92c-.56 0-1-.45-1-1 0-.56.44-1 1-1h3v-1c0-.56.44-1 1-1Zm5.99 6c.37 0 .72.21.89.55l2.99 5.98c0 .01.01.02.01.03l.99 1.98c.24.49.04 1.09-.45 1.34 -.5.24-1.1.04-1.35-.45l-.73-1.45h-4.77l-.73 1.44c-.25.49-.85.69-1.35.44 -.5-.25-.7-.85-.45-1.35l.99-1.99c0-.02.01-.03.01-.04l2.99-5.99c.16-.34.51-.56.89-.56Zm-1.39 6h2.76l-1.39-2.77 -1.39 2.76Z" class="b"/></svg>