<svg viewBox="0 0 20 20" xmlns="http://www.w3.org/2000/svg" class="a"><style>.b{fill: #374151;}.a{}</style><path d="M8 16.5c0 .82-.68 1.5-1.5 1.5 -.83 0-1.5-.68-1.5-1.5 0-.83.67-1.5 1.5-1.5 .82 0 1.5.67 1.5 1.5Z" class="b"/><path d="M15 16.5c0 .82-.68 1.5-1.5 1.5 -.83 0-1.5-.68-1.5-1.5 0-.83.67-1.5 1.5-1.5 .82 0 1.5.67 1.5 1.5Z" class="b"/><path d="M3 4c-.56 0-1 .44-1 1v10c0 .55.44 1 1 1h1.05c.23-1.15 1.24-2 2.44-2s2.21.85 2.44 2h1.05c.55 0 1-.45 1-1V5c0-.56-.45-1-1-1h-7Z" class="b"/><path d="M14 7c-.56 0-1 .44-1 1v6.05c.16-.04.32-.05.5-.05 1.2 0 2.21.85 2.45 2H17c.55 0 1-.45 1-1v-5c0-.27-.11-.52-.3-.71l-2-2c-.19-.19-.45-.3-.71-.3h-1Z" class="b"/></svg>