<svg viewBox="0 0 20 20" xmlns="http://www.w3.org/2000/svg" class="a"><style>.b{fill: #4A5568;}.a{}</style><path d="M9 6c0 1.65-1.35 3-3 3C4.34 9 3 7.65 3 6c0-1.66 1.34-3 3-3 1.65 0 3 1.34 3 3Z" class="b"/><path d="M17 6c0 1.65-1.35 3-3 3 -1.66 0-3-1.35-3-3 0-1.66 1.34-3 3-3 1.65 0 3 1.34 3 3Z" class="b"/><path d="M12.92 17c.04-.33.07-.67.07-1 0-1.64-.57-3.14-1.51-4.34 .73-.43 1.58-.67 2.5-.67 2.76 0 5 2.23 5 5v1H12.9Z" class="b"/><path d="M6 11c2.76 0 5 2.23 5 5v1H1v-1c0-2.77 2.23-5 5-5Z" class="b"/></svg>