<svg viewBox="0 0 20 20" xmlns="http://www.w3.org/2000/svg" class="a"><style>.b{fill: #4A5568;}.a{}</style><path d="M13 6c0 1.65-1.35 3-3 3C8.34 9 7 7.65 7 6c0-1.66 1.34-3 3-3 1.65 0 3 1.34 3 3Z" class="b"/><path d="M18 8c0 1.1-.9 2-2 2 -1.11 0-2-.9-2-2 0-1.11.89-2 2-2 1.1 0 2 .89 2 2Z" class="b"/><path d="M14 15c0-2.21-1.8-4-4-4 -2.21 0-4 1.79-4 4v3h8v-3Z" class="b"/><path d="M6 8c0 1.1-.9 2-2 2 -1.11 0-2-.9-2-2 0-1.11.89-2 2-2 1.1 0 2 .89 2 2Z" class="b"/><path d="M16 18v-3c0-1.06-.28-2.05-.75-2.91 .23-.07.49-.1.74-.1 1.65 0 3 1.34 3 3v3h-3Z" class="b"/><path d="M4.74 12.09c-.48.86-.75 1.85-.75 2.9v3h-3v-3c0-1.66 1.34-3 3-3 .25 0 .5.03.74.09Z" class="b"/></svg>