<svg viewBox="0 0 20 20" xmlns="http://www.w3.org/2000/svg" class="a"><style>.b{fill: #374151; fill-rule: evenodd;}.a{}</style><path d="M4.64 3.08c.5.22.73.81.51 1.31 -.75 1.71-1.17 3.6-1.17 5.59 0 1.99.41 3.88 1.16 5.59 .22.5-.01 1.09-.52 1.31 -.51.22-1.1-.01-1.32-.52 -.86-1.97-1.34-4.13-1.34-6.41 0-2.28.47-4.44 1.33-6.41 .22-.51.81-.74 1.31-.52Zm8.31 3.91c-.92 0-1.78.41-2.35 1.12l-.33.4 -.12-.28c-.31-.76-1.04-1.26-1.86-1.26h-.33c-.56 0-1 .44-1 1 0 .55.44 1 1 1h.32l.53 1.33 -1.04 1.29c-.19.23-.48.37-.79.37h-.04c-.56 0-1 .44-1 1 0 .55.44 1 1 1h.03c.91 0 1.77-.42 2.34-1.13l.32-.41 .11.27c.3.75 1.03 1.25 1.85 1.25h.32c.55 0 1-.45 1-1 0-.56-.45-1-1-1h-.33l-.54-1.34 1.03-1.3c.18-.24.47-.38.78-.38h.03c.55 0 1-.45 1-1 0-.56-.45-1-1-1h-.04Zm1.87-2.6c-.23-.51 0-1.1.516-1.32 .5-.23 1.09 0 1.31.51 .85 1.96 1.33 4.12 1.33 6.4 0 2.27-.48 4.43-1.34 6.4 -.23.5-.82.73-1.32.51 -.51-.23-.74-.82-.516-1.32 .74-1.72 1.16-3.61 1.16-5.6 0-2-.42-3.89-1.17-5.6Z" class="b"/></svg>