<svg viewBox="0 0 20 20" xmlns="http://www.w3.org/2000/svg" class="a"><style>.b{fill: #4B5563;}.a{}</style><path d="M5 3c-1.11 0-2 .89-2 2v2c0 1.1.89 2 2 2h2c1.1 0 2-.9 2-2V5c0-1.11-.9-2-2-2H5Z" class="b"/><path d="M5 11c-1.11 0-2 .89-2 2v2c0 1.1.89 2 2 2h2c1.1 0 2-.9 2-2v-2c0-1.11-.9-2-2-2H5Z" class="b"/><path d="M11 5c0-1.11.89-2 2-2h2c1.1 0 2 .89 2 2v2c0 1.1-.9 2-2 2h-2c-1.11 0-2-.9-2-2V5Z" class="b"/><path d="M14 11c.55 0 1 .44 1 1v1h1c.55 0 1 .44 1 1 0 .55-.45 1-1 1h-1v1c0 .55-.45 1-1 1 -.56 0-1-.45-1-1v-1h-1c-.56 0-1-.45-1-1 0-.56.44-1 1-1h1v-1c0-.56.44-1 1-1Z" class="b"/></svg>