<svg viewBox="0 0 20 20" xmlns="http://www.w3.org/2000/svg" class="a"><style>.b{fill: #4A5568; fill-rule: evenodd;}.a{}</style><path d="M9.38 3.07c.37.15.61.51.61.92v11.99c0 .4-.25.76-.62.92 -.38.15-.81.06-1.09-.22l-3.71-3.71H1.98c-.56 0-1-.45-1-1v-4c0-.56.44-1 1-1h2.58l3.7-3.71c.28-.29.71-.38 1.08-.22Z" class="b"/><path d="M14.65 2.92c.39-.4 1.02-.4 1.41 0 1.8 1.8 2.92 4.3 2.92 7.07 0 2.76-1.13 5.26-2.93 7.07 -.4.39-1.03.39-1.42 0 -.4-.4-.4-1.03 0-1.42 1.44-1.45 2.34-3.45 2.34-5.66s-.9-4.21-2.35-5.66c-.4-.4-.4-1.03 0-1.42Zm-2.83 2.82c.39-.4 1.02-.4 1.41 0 .52.52.95 1.14 1.25 1.84 .32.73.49 1.54.49 2.4 0 1.65-.68 3.15-1.76 4.24 -.4.39-1.03.39-1.42 0 -.4-.4-.4-1.03 0-1.42 .72-.73 1.17-1.73 1.17-2.83 0-.58-.12-1.12-.34-1.6 -.21-.47-.49-.88-.84-1.23 -.4-.4-.4-1.03 0-1.42Z" class="b"/></svg>