<svg viewBox="0 0 20 20" xmlns="http://www.w3.org/2000/svg" class="a"><style>.b{fill: #4A5568; fill-rule: evenodd;}.a{}</style><path d="M9.38 3.07c.37.15.61.51.61.92v11.99c0 .4-.25.76-.62.92 -.38.15-.81.06-1.09-.22l-3.71-3.71H1.98c-.56 0-1-.45-1-1v-4c0-.56.44-1 1-1h2.58l3.7-3.71c.28-.29.71-.38 1.08-.22Z" class="b"/><path d="M12.29 7.29c.39-.4 1.02-.4 1.41 0l1.29 1.29 1.29-1.3c.39-.4 1.02-.4 1.41 0 .39.39.39 1.02 0 1.41l-1.3 1.29 1.29 1.29c.39.39.39 1.02 0 1.41 -.4.39-1.03.39-1.42 0l-1.3-1.3 -1.3 1.29c-.4.39-1.03.39-1.42 0 -.4-.4-.4-1.03 0-1.42l1.29-1.3 -1.3-1.3c-.4-.4-.4-1.03 0-1.42Z" class="b"/></svg>