<svg viewBox="0 0 20 20" xmlns="http://www.w3.org/2000/svg" class="a"><style>.b{fill: #374151; fill-rule: evenodd;}.a{}</style><path d="M17.77 8.22c-4.3-4.3-11.27-4.3-15.56 0 -.4.39-1.03.39-1.42 0 -.4-.4-.4-1.03 0-1.42 5.07-5.08 13.3-5.08 18.38 0 .39.39.39 1.02 0 1.41 -.4.39-1.03.39-1.42 0Zm-2.83 2.82c-2.74-2.74-7.17-2.74-9.9 0 -.4.39-1.03.39-1.42 0 -.4-.4-.4-1.03 0-1.42 3.51-3.52 9.21-3.52 12.72 0 .39.39.39 1.02 0 1.41 -.4.39-1.03.39-1.42 0Zm-2.83 2.82c-1.18-1.18-3.08-1.18-4.25 0 -.4.39-1.03.39-1.42 0 -.4-.4-.4-1.03 0-1.42 1.95-1.96 5.11-1.96 7.07 0 .39.39.39 1.02 0 1.41 -.4.39-1.03.39-1.42 0Zm-3.13 2.12c0-.56.44-1 1-1h0c.55 0 1 .44 1 1 0 .55-.45 1-1 1h-.01c-.56 0-1-.45-1-1Z" class="b"/></svg>