<svg viewBox="0 0 20 20" xmlns="http://www.w3.org/2000/svg" class="a"><style>.c{fill: #4A5568; fill-rule: evenodd;}.b{fill: #4A5568;}.a{}</style><path d="M5 8c0-.56.44-1 1-1h1V6c0-.56.44-1 1-1 .55 0 1 .44 1 1v1h1c.55 0 1 .44 1 1 0 .55-.45 1-1 1H9v1c0 .55-.45 1-1 1 -.56 0-1-.45-1-1V9H6c-.56 0-1-.45-1-1Z" class="b"/><path d="M2 8c0-3.32 2.68-6 6-6 3.31 0 6 2.68 6 6 0 1.29-.42 2.49-1.11 3.47l4.81 4.81c.39.39.39 1.02 0 1.41 -.4.39-1.03.39-1.42 0l-4.82-4.82c-.99.69-2.19 1.1-3.48 1.1 -3.32 0-6-2.69-6-6Zm6-4C5.79 4 4 5.79 4 8c0 2.2 1.79 4 4 4 2.2 0 4-1.8 4-4 0-2.21-1.8-4-4-4Z" class="c"/></svg>