<svg viewBox="0 0 24 24" xmlns="http://www.w3.org/2000/svg" class="a"><path d="M12 14l9-5 -9-5L3 9l9 5Z"/><path d="M12 14l6.15-3.43c.54 1.36.84 2.86.84 4.42 0 .7-.07 1.38-.18 2.05 -2.62.25-4.98 1.34-6.83 2.99 -1.85-1.66-4.22-2.75-6.83-3 -.12-.67-.18-1.36-.18-2.06 0-1.57.29-3.06.84-4.43l6.15 3.42Z"/><path d="M12 14l9-5 -9-5L3 9l9 5Zm0 0l6.15-3.43c.54 1.36.84 2.86.84 4.42 0 .7-.07 1.38-.18 2.05 -2.62.25-4.98 1.34-6.83 2.99 -1.85-1.66-4.22-2.75-6.83-3 -.12-.67-.18-1.36-.18-2.06 0-1.57.29-3.06.84-4.43l6.15 3.42Zm-4 5.99v-7.5l4-2.23" class="c"/></svg>