<svg viewBox="0 0 24 24" xmlns="http://www.w3.org/2000/svg" class="a"><path d="M17 20h5v-2c0-1.66-1.35-3-3-3 -.96 0-1.81.44-2.36 1.14m.35 3.85h-10m10 0v-2c0-.66-.13-1.29-.36-1.86m-9.65 3.85h-5v-2c0-1.66 1.34-3 3-3 .95 0 1.8.44 2.35 1.14m-.36 3.85v-2c0-.66.12-1.29.35-1.86m0 0c.73-1.85 2.53-3.15 4.64-3.15 2.1 0 3.9 1.3 4.64 3.14m-1.65-9.15c0 1.65-1.35 3-3 3 -1.66 0-3-1.35-3-3 0-1.66 1.34-3 3-3 1.65 0 3 1.34 3 3Zm6 3c0 1.1-.9 2-2 2 -1.11 0-2-.9-2-2 0-1.11.89-2 2-2 1.1 0 2 .89 2 2Zm-14 0c0 1.1-.9 2-2 2 -1.11 0-2-.9-2-2 0-1.11.89-2 2-2 1.1 0 2 .89 2 2Z"/></svg>